<?xml version="1.0" encoding="utf-8"?>
<!-- Generator: Adobe Illustrator 22.0.0, SVG Export Plug-In . SVG Version: 6.00 Build 0)  -->
<svg version="1.1" id="Layer_1" xmlns="http://www.w3.org/2000/svg" xmlns:xlink="http://www.w3.org/1999/xlink" x="0px" y="0px"
	 viewBox="0 0 4111.4 2359.2" enable-background="new 0 0 4111.4 2359.2" xml:space="preserve">
<g id="BACKGROUND" display="none">
</g>
<g id="OBJECTS" display="none">
</g>
<g id="DESIGNED_BY_FREEPIK">
	<g display="none">
		<g display="inline">
			<g>
				<rect fill="#6A97E6" width="4111.4" height="2359.2"/>
			</g>
		</g>
	</g>
	<g display="none">
		<rect display="inline" fill="none" width="4111.4" height="2359.2"/>
	</g>
	<g>
		<g display="none">
			<g display="inline" opacity="0.55">
				<g>
					<g>
						<defs>
							<polygon id="SVGID_1_" points="1,1 2,1 1,2 							"/>
						</defs>
						<defs>
							<polygon id="SVGID_4_" points="-1,-1 -2,-1 -1,-2 							"/>
						</defs>
						<clipPath id="SVGID_7_">
							<use xlink:href="#SVGID_1_"  overflow="visible"/>
						</clipPath>
						<clipPath id="SVGID_10_" clip-path="url(#SVGID_7_)">
							<use xlink:href="#SVGID_4_"  overflow="visible"/>
						</clipPath>
						
							<linearGradient id="SVGID_13_" gradientUnits="userSpaceOnUse" x1="1197.8632" y1="1314.6" x2="1197.8632" y2="987.4" gradientTransform="matrix(1 0 0 -1 0 2360)">
							<stop  offset="0" style="stop-color:#FFFFFF"/>
							<stop  offset="0.1849" style="stop-color:#FFFFFF"/>
							<stop  offset="0.329" style="stop-color:#999999"/>
							<stop  offset="1" style="stop-color:#FFFFFF"/>
						</linearGradient>
						<path clip-path="url(#SVGID_10_)" fill="url(#SVGID_13_)" d="M1393.6,1045.4c45.2,0,67.3,15.7,66.4,47s-24.6,70.2-71,116.6
							s-100.5,85.3-162.1,116.6c-61.7,31.3-115.1,47-160.3,47H935.7l327.1-327.1L1393.6,1045.4L1393.6,1045.4z M1138.5,1300.5
							c25.9,0,55.1-8.3,87.8-25c32.7-16.7,62.9-38.9,90.6-66.6s41.9-49.9,42.5-66.6s-12-25-37.8-25h-56.1l-183.2,183.2H1138.5z"/>
					</g>
				</g>
				
					<linearGradient id="SVGID_16_" gradientUnits="userSpaceOnUse" x1="1197.8632" y1="1314.6" x2="1197.8632" y2="987.4" gradientTransform="matrix(1 0 0 -1 0 2360)">
					<stop  offset="0" style="stop-color:#FFFFFF"/>
					<stop  offset="0.1849" style="stop-color:#FFFFFF"/>
					<stop  offset="0.329" style="stop-color:#FFFFFF"/>
					<stop  offset="1" style="stop-color:#808080"/>
				</linearGradient>
				<path fill="url(#SVGID_16_)" d="M1393.6,1045.4c45.2,0,67.3,15.7,66.4,47s-24.6,70.2-71,116.6s-100.5,85.3-162.1,116.6
					c-61.7,31.3-115.1,47-160.3,47H935.7l327.1-327.1L1393.6,1045.4L1393.6,1045.4z M1138.5,1300.5c25.9,0,55.1-8.3,87.8-25
					c32.7-16.7,62.9-38.9,90.6-66.6s41.9-49.9,42.5-66.6s-12-25-37.8-25h-56.1l-183.2,183.2H1138.5z"/>
				<g>
					<g>
						<defs>
							<polygon id="SVGID_19_" points="1,1 2,1 1,2 							"/>
						</defs>
						<defs>
							<polygon id="SVGID_22_" points="-1,-1 -2,-1 -1,-2 							"/>
						</defs>
						<clipPath id="SVGID_25_">
							<use xlink:href="#SVGID_19_"  overflow="visible"/>
						</clipPath>
						<clipPath id="SVGID_28_" clip-path="url(#SVGID_25_)">
							<use xlink:href="#SVGID_22_"  overflow="visible"/>
						</clipPath>
						
							<linearGradient id="SVGID_29_" gradientUnits="userSpaceOnUse" x1="1473.5499" y1="1325.8999" x2="1473.5499" y2="987.6" gradientTransform="matrix(1 0 0 -1 0 2360)">
							<stop  offset="0" style="stop-color:#FFFFFF"/>
							<stop  offset="0.1849" style="stop-color:#FFFFFF"/>
							<stop  offset="0.329" style="stop-color:#999999"/>
							<stop  offset="1" style="stop-color:#FFFFFF"/>
						</linearGradient>
						<path clip-path="url(#SVGID_28_)" fill="url(#SVGID_29_)" d="M1609.5,1105.9c-16.5,8.3-30.5,12.4-42.1,12.4
							c-11.5,0-17.3-4.1-17.3-12.4s5.8-18.1,17.3-29.7c11.5-11.5,25.5-21.4,42.1-29.7c16.5-8.3,30.5-12.4,42.1-12.4
							c11.5,0,17.3,4.1,17.3,12.4s-5.8,18.2-17.3,29.7C1640,1087.7,1626,1097.6,1609.5,1105.9z M1278.2,1372.4l233.6-233.6h70.1
							l-233.6,233.6H1278.2z"/>
					</g>
				</g>
				
					<linearGradient id="SVGID_30_" gradientUnits="userSpaceOnUse" x1="1473.5499" y1="1325.8999" x2="1473.5499" y2="987.6" gradientTransform="matrix(1 0 0 -1 0 2360)">
					<stop  offset="0" style="stop-color:#FFFFFF"/>
					<stop  offset="0.1849" style="stop-color:#FFFFFF"/>
					<stop  offset="0.329" style="stop-color:#FFFFFF"/>
					<stop  offset="1" style="stop-color:#808080"/>
				</linearGradient>
				<path fill="url(#SVGID_30_)" d="M1609.5,1105.9c-16.5,8.3-30.5,12.4-42.1,12.4c-11.5,0-17.3-4.1-17.3-12.4s5.8-18.1,17.3-29.7
					c11.5-11.5,25.5-21.4,42.1-29.7c16.5-8.3,30.5-12.4,42.1-12.4c11.5,0,17.3,4.1,17.3,12.4s-5.8,18.2-17.3,29.7
					C1640,1087.7,1626,1097.6,1609.5,1105.9z M1278.2,1372.4l233.6-233.6h70.1l-233.6,233.6H1278.2z"/>
				<g>
					<g>
						<defs>
							<polygon id="SVGID_31_" points="1,1 2,1 1,2 							"/>
						</defs>
						<defs>
							<polygon id="SVGID_32_" points="-1,-1 -2,-1 -1,-2 							"/>
						</defs>
						<clipPath id="SVGID_33_">
							<use xlink:href="#SVGID_31_"  overflow="visible"/>
						</clipPath>
						<clipPath id="SVGID_34_" clip-path="url(#SVGID_33_)">
							<use xlink:href="#SVGID_32_"  overflow="visible"/>
						</clipPath>
						
							<linearGradient id="SVGID_35_" gradientUnits="userSpaceOnUse" x1="1608.6726" y1="1227.8998" x2="1608.6726" y2="981.2" gradientTransform="matrix(1 0 0 -1 0 2360)">
							<stop  offset="0" style="stop-color:#FFFFFF"/>
							<stop  offset="0.1849" style="stop-color:#FFFFFF"/>
							<stop  offset="0.329" style="stop-color:#999999"/>
							<stop  offset="1" style="stop-color:#FFFFFF"/>
						</linearGradient>
						<path clip-path="url(#SVGID_34_)" fill="url(#SVGID_35_)" d="M1642.2,1207c-4.7,4.7-4.5,8.5,0.5,11.4c5,3,11.6,5.9,19.9,8.9
							s15.7,6.8,22.2,11.4c6.5,4.7,8.4,12.4,5.6,23.1s-12.3,24.2-28.5,40.4c-25.2,25.2-53.7,44.3-85.3,57.2
							c-31.6,12.9-61.1,19.4-88.5,19.4c-49.2,0-64.2-18.5-44.9-55.6l95.3-34.6c-12.2,18.4-8.1,27.6,12.1,27.6
							c16.8,0,30.1-4.8,39.7-14.5c4.7-4.7,4.6-8.6-0.2-11.7c-4.8-3.1-11.4-6.1-19.6-9.1c-8.3-3-15.6-6.8-22-11.7
							c-6.4-4.8-8.4-12.4-6.1-22.7c2.3-10.3,11-22.9,25.9-37.8c24.3-24.3,51.9-43.1,82.9-56.5s59.4-20.1,85.3-20.1
							c19.3,0,32.6,4.3,40,12.8c7.3,8.6,7.7,21,1.2,37.1l-92,32.2c6.2-13.7,2.6-20.6-10.7-20.6
							C1661.8,1193.9,1650.9,1198.3,1642.2,1207z"/>
					</g>
				</g>
				
					<linearGradient id="SVGID_36_" gradientUnits="userSpaceOnUse" x1="1608.6726" y1="1227.8998" x2="1608.6726" y2="981.2" gradientTransform="matrix(1 0 0 -1 0 2360)">
					<stop  offset="0" style="stop-color:#FFFFFF"/>
					<stop  offset="0.1849" style="stop-color:#FFFFFF"/>
					<stop  offset="0.329" style="stop-color:#FFFFFF"/>
					<stop  offset="1" style="stop-color:#808080"/>
				</linearGradient>
				<path fill="url(#SVGID_36_)" d="M1642.2,1207c-4.7,4.7-4.5,8.5,0.5,11.4c5,3,11.6,5.9,19.9,8.9s15.7,6.8,22.2,11.4
					c6.5,4.7,8.4,12.4,5.6,23.1s-12.3,24.2-28.5,40.4c-25.2,25.2-53.7,44.3-85.3,57.2c-31.6,12.9-61.1,19.4-88.5,19.4
					c-49.2,0-64.2-18.5-44.9-55.6l95.3-34.6c-12.2,18.4-8.1,27.6,12.1,27.6c16.8,0,30.1-4.8,39.7-14.5c4.7-4.7,4.6-8.6-0.2-11.7
					c-4.8-3.1-11.4-6.1-19.6-9.1c-8.3-3-15.6-6.8-22-11.7c-6.4-4.8-8.4-12.4-6.1-22.7c2.3-10.3,11-22.9,25.9-37.8
					c24.3-24.3,51.9-43.1,82.9-56.5s59.4-20.1,85.3-20.1c19.3,0,32.6,4.3,40,12.8c7.3,8.6,7.7,21,1.2,37.1l-92,32.2
					c6.2-13.7,2.6-20.6-10.7-20.6C1661.8,1193.9,1650.9,1198.3,1642.2,1207z"/>
				<g>
					<g>
						<defs>
							<polygon id="SVGID_37_" points="1,1 2,1 1,2 							"/>
						</defs>
						<defs>
							<polygon id="SVGID_38_" points="-1,-1 -2,-1 -1,-2 							"/>
						</defs>
						<clipPath id="SVGID_39_">
							<use xlink:href="#SVGID_37_"  overflow="visible"/>
						</clipPath>
						<clipPath id="SVGID_40_" clip-path="url(#SVGID_39_)">
							<use xlink:href="#SVGID_38_"  overflow="visible"/>
						</clipPath>
						
							<linearGradient id="SVGID_41_" gradientUnits="userSpaceOnUse" x1="1855.1984" y1="1286.6001" x2="1855.1984" y2="985.7574" gradientTransform="matrix(1 0 0 -1 0 2360)">
							<stop  offset="0" style="stop-color:#FFFFFF"/>
							<stop  offset="0.1849" style="stop-color:#FFFFFF"/>
							<stop  offset="0.329" style="stop-color:#999999"/>
							<stop  offset="1" style="stop-color:#FFFFFF"/>
						</linearGradient>
						<path clip-path="url(#SVGID_40_)" fill="url(#SVGID_41_)" d="M1936.1,1206.1H1888l-82.7,82.7c-9.3,9.3-11.5,15.3-6.5,17.8
							s16.5,3.3,34.6,2.3l-63.5,63.5c-49.2,4.7-75.8,0.4-79.7-12.8c-3.9-13.2,11.1-36.8,45.1-70.8l82.7-82.7h-37.4l67.3-67.3h37.4
							l44.4-44.4l91.1-21l-65.4,65.4h48.1L1936.1,1206.1z"/>
					</g>
				</g>
				
					<linearGradient id="SVGID_42_" gradientUnits="userSpaceOnUse" x1="1855.1984" y1="1286.6001" x2="1855.1984" y2="985.7574" gradientTransform="matrix(1 0 0 -1 0 2360)">
					<stop  offset="0" style="stop-color:#FFFFFF"/>
					<stop  offset="0.1849" style="stop-color:#FFFFFF"/>
					<stop  offset="0.329" style="stop-color:#FFFFFF"/>
					<stop  offset="1" style="stop-color:#808080"/>
				</linearGradient>
				<path fill="url(#SVGID_42_)" d="M1936.1,1206.1H1888l-82.7,82.7c-9.3,9.3-11.5,15.3-6.5,17.8s16.5,3.3,34.6,2.3l-63.5,63.5
					c-49.2,4.7-75.8,0.4-79.7-12.8c-3.9-13.2,11.1-36.8,45.1-70.8l82.7-82.7h-37.4l67.3-67.3h37.4l44.4-44.4l91.1-21l-65.4,65.4
					h48.1L1936.1,1206.1z"/>
				<g>
					<g>
						<defs>
							<polygon id="SVGID_43_" points="1,1 2,1 1,2 							"/>
						</defs>
						<defs>
							<polygon id="SVGID_44_" points="-1,-1 -2,-1 -1,-2 							"/>
						</defs>
						<clipPath id="SVGID_45_">
							<use xlink:href="#SVGID_43_"  overflow="visible"/>
						</clipPath>
						<clipPath id="SVGID_46_" clip-path="url(#SVGID_45_)">
							<use xlink:href="#SVGID_44_"  overflow="visible"/>
						</clipPath>
						
							<linearGradient id="SVGID_47_" gradientUnits="userSpaceOnUse" x1="2079.6006" y1="1227.6998" x2="2079.6006" y2="981.1" gradientTransform="matrix(1 0 0 -1 0 2360)">
							<stop  offset="0" style="stop-color:#FFFFFF"/>
							<stop  offset="0.1849" style="stop-color:#FFFFFF"/>
							<stop  offset="0.329" style="stop-color:#999999"/>
							<stop  offset="1" style="stop-color:#FFFFFF"/>
						</linearGradient>
						<path clip-path="url(#SVGID_46_)" fill="url(#SVGID_47_)" d="M2221.1,1138.8h70.1l-233.6,233.6h-70.1l22-22
							c-35.5,19-68.2,28.5-98.1,28.5c-30.8,0-45.3-11.9-43.2-35.7c2-23.8,20.3-53,54.9-87.6s74.7-63.8,120.3-87.6
							c45.6-23.8,83.9-35.7,114.7-35.7c29.9,0,43.6,9.5,41.1,28.5L2221.1,1138.8z M1966.9,1297.2c0,10.3,8.2,15.4,24.8,15.4
							c16.5,0,35-5.1,55.6-15.4c20.6-10.3,39.6-24.1,57-41.6c17.4-17.4,26.2-31.3,26.2-41.6c0-10.3-8.3-15.4-24.8-15.4
							s-35,5.1-55.6,15.4c-20.6,10.3-39.6,24.1-57,41.6C1975.6,1273.1,1966.9,1286.9,1966.9,1297.2z"/>
					</g>
				</g>
				
					<linearGradient id="SVGID_48_" gradientUnits="userSpaceOnUse" x1="2079.6006" y1="1227.6998" x2="2079.6006" y2="981.1" gradientTransform="matrix(1 0 0 -1 0 2360)">
					<stop  offset="0" style="stop-color:#FFFFFF"/>
					<stop  offset="0.1849" style="stop-color:#FFFFFF"/>
					<stop  offset="0.329" style="stop-color:#FFFFFF"/>
					<stop  offset="1" style="stop-color:#808080"/>
				</linearGradient>
				<path fill="url(#SVGID_48_)" d="M2221.1,1138.8h70.1l-233.6,233.6h-70.1l22-22c-35.5,19-68.2,28.5-98.1,28.5
					c-30.8,0-45.3-11.9-43.2-35.7c2-23.8,20.3-53,54.9-87.6s74.7-63.8,120.3-87.6c45.6-23.8,83.9-35.7,114.7-35.7
					c29.9,0,43.6,9.5,41.1,28.5L2221.1,1138.8z M1966.9,1297.2c0,10.3,8.2,15.4,24.8,15.4c16.5,0,35-5.1,55.6-15.4
					c20.6-10.3,39.6-24.1,57-41.6c17.4-17.4,26.2-31.3,26.2-41.6c0-10.3-8.3-15.4-24.8-15.4s-35,5.1-55.6,15.4
					c-20.6,10.3-39.6,24.1-57,41.6C1975.6,1273.1,1966.9,1286.9,1966.9,1297.2z"/>
				<g>
					<g>
						<defs>
							<polygon id="SVGID_49_" points="1,1 2,1 1,2 							"/>
						</defs>
						<defs>
							<polygon id="SVGID_50_" points="-1,-1 -2,-1 -1,-2 							"/>
						</defs>
						<clipPath id="SVGID_51_">
							<use xlink:href="#SVGID_49_"  overflow="visible"/>
						</clipPath>
						<clipPath id="SVGID_52_" clip-path="url(#SVGID_51_)">
							<use xlink:href="#SVGID_50_"  overflow="visible"/>
						</clipPath>
						
							<linearGradient id="SVGID_53_" gradientUnits="userSpaceOnUse" x1="2328.9048" y1="1227.7" x2="2328.9048" y2="987.6" gradientTransform="matrix(1 0 0 -1 0 2360)">
							<stop  offset="0" style="stop-color:#FFFFFF"/>
							<stop  offset="0.1849" style="stop-color:#FFFFFF"/>
							<stop  offset="0.329" style="stop-color:#999999"/>
							<stop  offset="1" style="stop-color:#FFFFFF"/>
						</linearGradient>
						<path clip-path="url(#SVGID_52_)" fill="url(#SVGID_53_)" d="M2499.1,1132.3c24.9,0,37.1,8.6,36.7,25.7
							c-0.5,17.1-15.8,40.8-46,71l-143.4,143.4h-70.1l133.2-133.2c13.7-13.7,20.4-24.2,20.1-31.5c-0.3-7.3-6.4-11-18.2-11
							c-13.4,0-28,4.1-43.9,12.1c-15.9,8.1-31.8,20.1-47.7,36l-127.6,127.6H2122l233.6-233.6h70.1l-22,22
							C2436.8,1141.8,2468.6,1132.3,2499.1,1132.3z"/>
					</g>
				</g>
				
					<linearGradient id="SVGID_54_" gradientUnits="userSpaceOnUse" x1="2328.9048" y1="1227.7" x2="2328.9048" y2="987.6" gradientTransform="matrix(1 0 0 -1 0 2360)">
					<stop  offset="0" style="stop-color:#FFFFFF"/>
					<stop  offset="0.1849" style="stop-color:#FFFFFF"/>
					<stop  offset="0.329" style="stop-color:#FFFFFF"/>
					<stop  offset="1" style="stop-color:#808080"/>
				</linearGradient>
				<path fill="url(#SVGID_54_)" d="M2499.1,1132.3c24.9,0,37.1,8.6,36.7,25.7c-0.5,17.1-15.8,40.8-46,71l-143.4,143.4h-70.1
					l133.2-133.2c13.7-13.7,20.4-24.2,20.1-31.5c-0.3-7.3-6.4-11-18.2-11c-13.4,0-28,4.1-43.9,12.1c-15.9,8.1-31.8,20.1-47.7,36
					l-127.6,127.6H2122l233.6-233.6h70.1l-22,22C2436.8,1141.8,2468.6,1132.3,2499.1,1132.3z"/>
				<g>
					<g>
						<defs>
							<polygon id="SVGID_55_" points="1,1 2,1 1,2 							"/>
						</defs>
						<defs>
							<polygon id="SVGID_56_" points="-1,-1 -2,-1 -1,-2 							"/>
						</defs>
						<clipPath id="SVGID_57_">
							<use xlink:href="#SVGID_55_"  overflow="visible"/>
						</clipPath>
						<clipPath id="SVGID_58_" clip-path="url(#SVGID_57_)">
							<use xlink:href="#SVGID_56_"  overflow="visible"/>
						</clipPath>
						
							<linearGradient id="SVGID_59_" gradientUnits="userSpaceOnUse" x1="2635.7935" y1="1227.6001" x2="2635.7935" y2="981" gradientTransform="matrix(1 0 0 -1 0 2360)">
							<stop  offset="0" style="stop-color:#FFFFFF"/>
							<stop  offset="0.1849" style="stop-color:#FFFFFF"/>
							<stop  offset="0.329" style="stop-color:#999999"/>
							<stop  offset="1" style="stop-color:#FFFFFF"/>
						</linearGradient>
						<path clip-path="url(#SVGID_58_)" fill="url(#SVGID_59_)" d="M2513.1,1379c-35.5,0-53.2-11.8-53-35.5
							c0.1-23.7,17.7-53,52.6-87.8c34.9-34.9,75.9-64.2,123.1-87.8c47.2-23.7,88.5-35.5,124.1-35.5c22.4,0,37.6,5.5,45.6,16.4
							c7.9,10.9,8,25.4,0.2,43.5l-96.7,35.5c9-17.4,2.6-26.2-19.2-26.2c-15.3,0-32.9,5.1-53,15.2s-38.1,23.1-54,39
							s-23.9,28.9-24.1,39c-0.2,10.1,7.4,15.2,22.7,15.2c22.1,0,45.9-8.7,71.5-26.2l26.2,35c-28.7,18.4-57.8,33-87.4,43.9
							C2562,1373.5,2535.9,1379,2513.1,1379z"/>
					</g>
				</g>
				
					<linearGradient id="SVGID_60_" gradientUnits="userSpaceOnUse" x1="2635.7935" y1="1227.6001" x2="2635.7935" y2="981" gradientTransform="matrix(1 0 0 -1 0 2360)">
					<stop  offset="0" style="stop-color:#FFFFFF"/>
					<stop  offset="0.1849" style="stop-color:#FFFFFF"/>
					<stop  offset="0.329" style="stop-color:#FFFFFF"/>
					<stop  offset="1" style="stop-color:#808080"/>
				</linearGradient>
				<path fill="url(#SVGID_60_)" d="M2513.1,1379c-35.5,0-53.2-11.8-53-35.5c0.1-23.7,17.7-53,52.6-87.8
					c34.9-34.9,75.9-64.2,123.1-87.8c47.2-23.7,88.5-35.5,124.1-35.5c22.4,0,37.6,5.5,45.6,16.4c7.9,10.9,8,25.4,0.2,43.5
					l-96.7,35.5c9-17.4,2.6-26.2-19.2-26.2c-15.3,0-32.9,5.1-53,15.2s-38.1,23.1-54,39s-23.9,28.9-24.1,39
					c-0.2,10.1,7.4,15.2,22.7,15.2c22.1,0,45.9-8.7,71.5-26.2l26.2,35c-28.7,18.4-57.8,33-87.4,43.9
					C2562,1373.5,2535.9,1379,2513.1,1379z"/>
				<g>
					<g>
						<defs>
							<polygon id="SVGID_61_" points="1,1 2,1 1,2 							"/>
						</defs>
						<defs>
							<polygon id="SVGID_62_" points="-1,-1 -2,-1 -1,-2 							"/>
						</defs>
						<clipPath id="SVGID_63_">
							<use xlink:href="#SVGID_61_"  overflow="visible"/>
						</clipPath>
						<clipPath id="SVGID_64_" clip-path="url(#SVGID_63_)">
							<use xlink:href="#SVGID_62_"  overflow="visible"/>
						</clipPath>
						
							<linearGradient id="SVGID_65_" gradientUnits="userSpaceOnUse" x1="2861.75" y1="1325.8999" x2="2861.75" y2="987.6" gradientTransform="matrix(1 0 0 -1 0 2360)">
							<stop  offset="0" style="stop-color:#FFFFFF"/>
							<stop  offset="0.1849" style="stop-color:#FFFFFF"/>
							<stop  offset="0.329" style="stop-color:#999999"/>
							<stop  offset="1" style="stop-color:#FFFFFF"/>
						</linearGradient>
						<path clip-path="url(#SVGID_64_)" fill="url(#SVGID_65_)" d="M2997.7,1105.9c-16.5,8.3-30.5,12.4-42.1,12.4
							c-11.5,0-17.3-4.1-17.3-12.4s5.8-18.1,17.3-29.7c11.5-11.5,25.5-21.4,42.1-29.7c16.5-8.3,30.5-12.4,42.1-12.4
							c11.5,0,17.3,4.1,17.3,12.4s-5.8,18.2-17.3,29.7C3028.2,1087.7,3014.2,1097.6,2997.7,1105.9z M2666.4,1372.4l233.6-233.6h70.1
							l-233.6,233.6H2666.4z"/>
					</g>
				</g>
				
					<linearGradient id="SVGID_66_" gradientUnits="userSpaceOnUse" x1="2861.75" y1="1325.8999" x2="2861.75" y2="987.6" gradientTransform="matrix(1 0 0 -1 0 2360)">
					<stop  offset="0" style="stop-color:#FFFFFF"/>
					<stop  offset="0.1849" style="stop-color:#FFFFFF"/>
					<stop  offset="0.329" style="stop-color:#FFFFFF"/>
					<stop  offset="1" style="stop-color:#808080"/>
				</linearGradient>
				<path fill="url(#SVGID_66_)" d="M2997.7,1105.9c-16.5,8.3-30.5,12.4-42.1,12.4c-11.5,0-17.3-4.1-17.3-12.4s5.8-18.1,17.3-29.7
					c11.5-11.5,25.5-21.4,42.1-29.7c16.5-8.3,30.5-12.4,42.1-12.4c11.5,0,17.3,4.1,17.3,12.4s-5.8,18.2-17.3,29.7
					C3028.2,1087.7,3014.2,1097.6,2997.7,1105.9z M2666.4,1372.4l233.6-233.6h70.1l-233.6,233.6H2666.4z"/>
				<g>
					<g>
						<defs>
							<polygon id="SVGID_67_" points="1,1 2,1 1,2 							"/>
						</defs>
						<defs>
							<polygon id="SVGID_68_" points="-1,-1 -2,-1 -1,-2 							"/>
						</defs>
						<clipPath id="SVGID_69_">
							<use xlink:href="#SVGID_67_"  overflow="visible"/>
						</clipPath>
						<clipPath id="SVGID_70_" clip-path="url(#SVGID_69_)">
							<use xlink:href="#SVGID_68_"  overflow="visible"/>
						</clipPath>
						
							<linearGradient id="SVGID_71_" gradientUnits="userSpaceOnUse" x1="3007.8547" y1="1227.7" x2="3007.8547" y2="987.6" gradientTransform="matrix(1 0 0 -1 0 2360)">
							<stop  offset="0" style="stop-color:#FFFFFF"/>
							<stop  offset="0.1849" style="stop-color:#FFFFFF"/>
							<stop  offset="0.329" style="stop-color:#999999"/>
							<stop  offset="1" style="stop-color:#FFFFFF"/>
						</linearGradient>
						<path clip-path="url(#SVGID_70_)" fill="url(#SVGID_71_)" d="M3178,1132.3c24.9,0,37.1,8.6,36.7,25.7
							c-0.5,17.1-15.8,40.8-46,71l-143.4,143.4h-70.1l133.2-133.2c13.7-13.7,20.4-24.2,20.1-31.5c-0.3-7.3-6.4-11-18.2-11
							c-13.4,0-28,4.1-43.9,12.1c-15.9,8.1-31.8,20.1-47.7,36l-127.6,127.6H2801l233.6-233.6h70.1l-22,22
							C3115.7,1141.8,3147.5,1132.3,3178,1132.3z"/>
					</g>
				</g>
				
					<linearGradient id="SVGID_72_" gradientUnits="userSpaceOnUse" x1="3007.8547" y1="1227.7" x2="3007.8547" y2="987.6" gradientTransform="matrix(1 0 0 -1 0 2360)">
					<stop  offset="0" style="stop-color:#FFFFFF"/>
					<stop  offset="0.1849" style="stop-color:#FFFFFF"/>
					<stop  offset="0.329" style="stop-color:#FFFFFF"/>
					<stop  offset="1" style="stop-color:#808080"/>
				</linearGradient>
				<path fill="url(#SVGID_72_)" d="M3178,1132.3c24.9,0,37.1,8.6,36.7,25.7c-0.5,17.1-15.8,40.8-46,71l-143.4,143.4h-70.1
					l133.2-133.2c13.7-13.7,20.4-24.2,20.1-31.5c-0.3-7.3-6.4-11-18.2-11c-13.4,0-28,4.1-43.9,12.1c-15.9,8.1-31.8,20.1-47.7,36
					l-127.6,127.6H2801l233.6-233.6h70.1l-22,22C3115.7,1141.8,3147.5,1132.3,3178,1132.3z"/>
				<g>
					<g>
						<defs>
							<polygon id="SVGID_73_" points="1,1 2,1 1,2 							"/>
						</defs>
						<defs>
							<polygon id="SVGID_74_" points="-1,-1 -2,-1 -1,-2 							"/>
						</defs>
						<clipPath id="SVGID_75_">
							<use xlink:href="#SVGID_73_"  overflow="visible"/>
						</clipPath>
						<clipPath id="SVGID_76_" clip-path="url(#SVGID_75_)">
							<use xlink:href="#SVGID_74_"  overflow="visible"/>
						</clipPath>
						
							<linearGradient id="SVGID_77_" gradientUnits="userSpaceOnUse" x1="3301.2988" y1="1227.7" x2="3301.2988" y2="887.5999" gradientTransform="matrix(1 0 0 -1 0 2360)">
							<stop  offset="0" style="stop-color:#FFFFFF"/>
							<stop  offset="0.1849" style="stop-color:#FFFFFF"/>
							<stop  offset="0.329" style="stop-color:#999999"/>
							<stop  offset="1" style="stop-color:#FFFFFF"/>
						</linearGradient>
						<path clip-path="url(#SVGID_76_)" fill="url(#SVGID_77_)" d="M3491.6,1138.8h68.2l-221.9,221.9
							c-36.8,36.8-76.6,64.6-119.4,83.4c-42.8,18.8-81.4,28.3-115.6,28.3c-52.6,0-70.7-18.9-54.2-56.5l94.4-34.6
							c-9,19.6-1.1,29.4,23.8,29.4c16.5,0,33.7-4.3,51.6-12.8c17.9-8.6,35-21,51.2-37.1l21.5-21.5c-36.5,20.3-69.3,30.4-98.6,30.4
							c-32.7,0-48.4-11.6-47.2-34.8c1.2-23.2,18.2-51.2,50.9-83.9c32.7-32.7,71.6-60.7,116.8-83.9c45.2-23.2,84.1-34.8,116.8-34.8
							c29.3,0,41.9,10.1,37.8,30.4L3491.6,1138.8z M3243,1290.2c0.6,10,9.2,15,25.7,15s35-5,55.6-15s38.9-23,55.1-39.2
							c16.2-16.2,24-29.3,23.4-39.2c-0.6-10-9.2-15-25.7-15s-35.1,5-55.6,15c-20.6,10-38.9,23.1-55.1,39.2
							C3250.2,1267.1,3242.4,1280.2,3243,1290.2z"/>
					</g>
				</g>
				
					<linearGradient id="SVGID_78_" gradientUnits="userSpaceOnUse" x1="3301.2988" y1="1227.7" x2="3301.2988" y2="887.5999" gradientTransform="matrix(1 0 0 -1 0 2360)">
					<stop  offset="0" style="stop-color:#FFFFFF"/>
					<stop  offset="0.1849" style="stop-color:#FFFFFF"/>
					<stop  offset="0.329" style="stop-color:#FFFFFF"/>
					<stop  offset="1" style="stop-color:#808080"/>
				</linearGradient>
				<path fill="url(#SVGID_78_)" d="M3491.6,1138.8h68.2l-221.9,221.9c-36.8,36.8-76.6,64.6-119.4,83.4
					c-42.8,18.8-81.4,28.3-115.6,28.3c-52.6,0-70.7-18.9-54.2-56.5l94.4-34.6c-9,19.6-1.1,29.4,23.8,29.4c16.5,0,33.7-4.3,51.6-12.8
					c17.9-8.6,35-21,51.2-37.1l21.5-21.5c-36.5,20.3-69.3,30.4-98.6,30.4c-32.7,0-48.4-11.6-47.2-34.8c1.2-23.2,18.2-51.2,50.9-83.9
					c32.7-32.7,71.6-60.7,116.8-83.9c45.2-23.2,84.1-34.8,116.8-34.8c29.3,0,41.9,10.1,37.8,30.4L3491.6,1138.8z M3243,1290.2
					c0.6,10,9.2,15,25.7,15s35-5,55.6-15s38.9-23,55.1-39.2c16.2-16.2,24-29.3,23.4-39.2c-0.6-10-9.2-15-25.7-15s-35.1,5-55.6,15
					c-20.6,10-38.9,23.1-55.1,39.2C3250.2,1267.1,3242.4,1280.2,3243,1290.2z"/>
			</g>
			<g display="inline">
				<path fill="#FFFFFF" d="M995.8,1045.4c45.2,0,82.9,15.7,113.3,47s45.6,70.2,45.6,116.6s-15.2,85.3-45.6,116.6s-68.1,47-113.3,47
					H864.9v-327.1L995.8,1045.4L995.8,1045.4z M995.8,1300.5c25.9,0,46.8-8.3,62.8-25s24.1-38.9,24.1-66.6s-8-49.9-24.1-66.6
					c-16-16.7-37-25-62.8-25h-56.1v183.2H995.8z"/>
				<path fill="#FFFFFF" d="M1272.1,1105.9c-8.3,8.3-18.1,12.4-29.7,12.4c-11.5,0-21.4-4.1-29.7-12.4c-8.3-8.3-12.4-18.1-12.4-29.7
					c0-11.5,4.1-21.4,12.4-29.7c8.3-8.3,18.1-12.4,29.7-12.4c11.5,0,21.4,4.1,29.7,12.4c8.2,8.3,12.4,18.2,12.4,29.7
					C1284.5,1087.7,1280.4,1097.6,1272.1,1105.9z M1207.4,1372.4v-233.6h70.1v233.6H1207.4z"/>
				<path fill="#FFFFFF" d="M1406,1207c0,4.7,4,8.5,11.9,11.4c7.9,3,17.5,5.9,28.7,8.9s22.4,6.8,33.6,11.4
					c11.2,4.7,20.8,12.4,28.7,23.1c7.9,10.7,11.9,24.2,11.9,40.4c0,25.2-9.3,44.3-28,57.2c-18.7,12.9-41.7,19.4-69.2,19.4
					c-49.2,0-82.7-18.5-100.5-55.6l60.7-34.6c6.2,18.4,19.5,27.6,39.7,27.6c16.8,0,25.2-4.8,25.2-14.5c0-4.7-4-8.6-11.9-11.7
					s-17.5-6.1-28.7-9.1s-22.4-6.8-33.6-11.7c-11.2-4.8-20.8-12.4-28.7-22.7c-7.9-10.3-11.9-22.9-11.9-37.8
					c0-24.3,8.8-43.1,26.4-56.5s39.3-20.1,65.2-20.1c19.3,0,36.9,4.3,52.8,12.8c15.9,8.6,28.7,21,38.3,37.1l-59.8,32.2
					c-7.5-13.7-17.9-20.6-31.3-20.6C1412.6,1193.9,1406,1198.3,1406,1207z"/>
				<path fill="#FFFFFF" d="M1699,1206.1h-48.1v82.7c0,9.3,3.7,15.3,11.2,17.8s19.8,3.3,36.9,2.3v63.5c-44.6,4.7-75.4,0.4-92.5-12.8
					c-17.1-13.2-25.7-36.8-25.7-70.8v-82.7h-37.4v-67.3h37.4v-44.4l70.1-21v65.4h48.1V1206.1z"/>
				<path fill="#FFFFFF" d="M1916.7,1138.8h70.1v233.6h-70.1v-22c-16.5,19-39.7,28.5-69.6,28.5c-30.8,0-57.2-11.9-79-35.7
					c-21.8-23.8-32.7-53-32.7-87.6s10.9-63.8,32.7-87.6c21.8-23.8,48.1-35.7,79-35.7c29.9,0,53.1,9.5,69.6,28.5V1138.8z
					 M1820.9,1297.2c10.3,10.3,23.7,15.4,40.2,15.4s29.9-5.1,40.2-15.4c10.3-10.3,15.4-24.1,15.4-41.6c0-17.4-5.1-31.3-15.4-41.6
					c-10.3-10.3-23.7-15.4-40.2-15.4s-29.9,5.1-40.2,15.4c-10.3,10.3-15.4,24.1-15.4,41.6S1810.7,1286.9,1820.9,1297.2z"/>
				<path fill="#FFFFFF" d="M2188.2,1132.3c24.9,0,45.7,8.6,62.4,25.7s25,40.8,25,71v143.4h-70.1v-133.2c0-13.7-3.8-24.2-11.4-31.5
					c-7.6-7.3-17.4-11-29.2-11c-13.4,0-24,4.1-31.8,12.1c-7.8,8.1-11.7,20.1-11.7,36v127.6h-70.1v-233.6h70.1v22
					C2135.4,1141.8,2157.7,1132.3,2188.2,1132.3z"/>
				<path fill="#FFFFFF" d="M2448.9,1379c-35.5,0-65-11.8-88.5-35.5s-35.3-53-35.3-87.8c0-34.9,11.8-64.2,35.3-87.8
					c23.5-23.7,53-35.5,88.5-35.5c22.4,0,43.1,5.5,61.9,16.4c18.8,10.9,33.4,25.4,43.7,43.5l-61.2,35.5
					c-8.4-17.4-23.5-26.2-45.3-26.2c-15.3,0-27.9,5.1-37.8,15.2c-10,10.1-15,23.1-15,39s5,28.9,15,39s22.6,15.2,37.8,15.2
					c22.1,0,37.2-8.7,45.3-26.2l61.2,35c-10.3,18.4-24.8,33-43.5,43.9C2492.4,1373.5,2471.7,1379,2448.9,1379z"/>
				<path fill="#FFFFFF" d="M2660.4,1105.9c-8.3,8.3-18.1,12.4-29.7,12.4c-11.5,0-21.4-4.1-29.7-12.4s-12.4-18.1-12.4-29.7
					c0-11.5,4.1-21.4,12.4-29.7c8.3-8.3,18.1-12.4,29.7-12.4c11.5,0,21.4,4.1,29.7,12.4c8.2,8.3,12.4,18.2,12.4,29.7
					C2672.8,1087.7,2668.6,1097.6,2660.4,1105.9z M2595.7,1372.4v-233.6h70.1v233.6H2595.7z"/>
				<path fill="#FFFFFF" d="M2867.1,1132.3c24.9,0,45.7,8.6,62.4,25.7s25,40.8,25,71v143.4h-70.1v-133.2c0-13.7-3.8-24.2-11.4-31.5
					c-7.6-7.3-17.4-11-29.2-11c-13.4,0-24,4.1-31.8,12.1c-7.8,8.1-11.7,20.1-11.7,36v127.6h-70.1v-233.6h70.1v22
					C2814.3,1141.8,2836.6,1132.3,2867.1,1132.3z"/>
				<path fill="#FFFFFF" d="M3187.2,1138.8h68.2v221.9c0,36.8-12,64.6-36,83.4s-53.1,28.3-87.4,28.3c-52.6,0-89.6-18.9-110.7-56.5
					l59.8-34.6c10.6,19.6,28.3,29.4,53.3,29.4c16.5,0,29.4-4.3,38.8-12.8c9.3-8.6,14-21,14-37.1v-21.5
					c-16.2,20.3-38.9,30.4-68.2,30.4c-32.7,0-60-11.6-82-34.8c-22-23.2-32.9-51.2-32.9-83.9c0-32.7,11-60.7,32.9-83.9
					c22-23.2,49.3-34.8,82-34.8c29.3,0,52,10.1,68.2,30.4L3187.2,1138.8L3187.2,1138.8z M3090,1290.2c10.6,10,24.1,15,40.7,15
					c16.5,0,30.1-5,40.7-15c10.6-10,15.9-23,15.9-39.2s-5.3-29.3-15.9-39.2c-10.6-10-24.1-15-40.7-15c-16.5,0-30.1,5-40.7,15
					c-10.6,10-15.9,23.1-15.9,39.2S3079.4,1280.2,3090,1290.2z"/>
			</g>
			<g display="inline">
				<g opacity="0.55">
					<g>
						<g>
							<defs>
								<polygon id="SVGID_79_" points="1,1 2,1 1,2 								"/>
							</defs>
							<defs>
								<polygon id="SVGID_80_" points="-1,-1 -2,-1 -1,-2 								"/>
							</defs>
							<clipPath id="SVGID_81_">
								<use xlink:href="#SVGID_79_"  overflow="visible"/>
							</clipPath>
							<clipPath id="SVGID_82_" clip-path="url(#SVGID_81_)">
								<use xlink:href="#SVGID_80_"  overflow="visible"/>
							</clipPath>
							
								<linearGradient id="SVGID_83_" gradientUnits="userSpaceOnUse" x1="1405.1021" y1="1776" x2="1405.1021" y2="1445" gradientTransform="matrix(1 0 0 -1 0 2360)">
								<stop  offset="0" style="stop-color:#FFFFFF"/>
								<stop  offset="0.329" style="stop-color:#999999"/>
								<stop  offset="0.7164" style="stop-color:#FFFFFF"/>
							</linearGradient>
							<path clip-path="url(#SVGID_82_)" fill="url(#SVGID_83_)" d="M1608.7,584c32.5,0,48.9,11,49.2,33.1
								c0.3,22.1-15.3,48.9-46.8,80.4s-69.5,58.3-114,80.4c-44.5,22.1-82.9,33.1-115.4,33.1H1332l-104,104h-75.7l331-331H1608.7z
								 M1452.6,740.1c11.7,0,25.4-4.1,41.1-12.3c15.8-8.2,29.6-18.3,41.6-30.3s18.3-22.1,18.9-30.3s-4.9-12.3-16.6-12.3h-49.7
								l-85.1,85.1L1452.6,740.1L1452.6,740.1z"/>
						</g>
					</g>
					
						<linearGradient id="SVGID_84_" gradientUnits="userSpaceOnUse" x1="1405.1021" y1="1776" x2="1405.1021" y2="1445" gradientTransform="matrix(1 0 0 -1 0 2360)">
						<stop  offset="0" style="stop-color:#FFFFFF"/>
						<stop  offset="0.329" style="stop-color:#FFFFFF"/>
						<stop  offset="0.7164" style="stop-color:#808080"/>
					</linearGradient>
					<path fill="url(#SVGID_84_)" d="M1608.7,584c32.5,0,48.9,11,49.2,33.1c0.3,22.1-15.3,48.9-46.8,80.4s-69.5,58.3-114,80.4
						c-44.5,22.1-82.9,33.1-115.4,33.1H1332l-104,104h-75.7l331-331H1608.7z M1452.6,740.1c11.7,0,25.4-4.1,41.1-12.3
						c15.8-8.2,29.6-18.3,41.6-30.3s18.3-22.1,18.9-30.3s-4.9-12.3-16.6-12.3h-49.7l-85.1,85.1L1452.6,740.1L1452.6,740.1z"/>
					<g>
						<g>
							<defs>
								<polygon id="SVGID_85_" points="1,1 2,1 1,2 								"/>
							</defs>
							<defs>
								<polygon id="SVGID_86_" points="-1,-1 -2,-1 -1,-2 								"/>
							</defs>
							<clipPath id="SVGID_87_">
								<use xlink:href="#SVGID_85_"  overflow="visible"/>
							</clipPath>
							<clipPath id="SVGID_88_" clip-path="url(#SVGID_87_)">
								<use xlink:href="#SVGID_86_"  overflow="visible"/>
							</clipPath>
							
								<linearGradient id="SVGID_89_" gradientUnits="userSpaceOnUse" x1="1651.5573" y1="1776" x2="1651.5573" y2="1445" gradientTransform="matrix(1 0 0 -1 0 2360)">
								<stop  offset="0" style="stop-color:#FFFFFF"/>
								<stop  offset="0.329" style="stop-color:#999999"/>
								<stop  offset="0.7164" style="stop-color:#FFFFFF"/>
							</linearGradient>
							<path clip-path="url(#SVGID_88_)" fill="url(#SVGID_89_)" d="M1823.8,672c25.2,0,37.6,8.7,37.1,26s-16,41.3-46.6,71.9
								L1669.2,915h-70.9L1733,780.3c13.9-13.9,20.6-24.5,20.3-31.9c-0.3-7.4-6.5-11.1-18.4-11.1c-13.6,0-28.4,4.1-44.5,12.3
								s-32.2,20.3-48.2,36.4l-129.1,129h-70.9l331-331h70.9l-116.8,116.8C1760.8,681.6,1792.9,672,1823.8,672z"/>
						</g>
					</g>
					
						<linearGradient id="SVGID_90_" gradientUnits="userSpaceOnUse" x1="1651.5573" y1="1776" x2="1651.5573" y2="1445" gradientTransform="matrix(1 0 0 -1 0 2360)">
						<stop  offset="0" style="stop-color:#FFFFFF"/>
						<stop  offset="0.329" style="stop-color:#FFFFFF"/>
						<stop  offset="0.7164" style="stop-color:#808080"/>
					</linearGradient>
					<path fill="url(#SVGID_90_)" d="M1823.8,672c25.2,0,37.6,8.7,37.1,26s-16,41.3-46.6,71.9L1669.2,915h-70.9L1733,780.3
						c13.9-13.9,20.6-24.5,20.3-31.9c-0.3-7.4-6.5-11.1-18.4-11.1c-13.6,0-28.4,4.1-44.5,12.3s-32.2,20.3-48.2,36.4l-129.1,129
						h-70.9l331-331h70.9l-116.8,116.8C1760.8,681.6,1792.9,672,1823.8,672z"/>
					<g>
						<g>
							<defs>
								<polygon id="SVGID_91_" points="1,1 2,1 1,2 								"/>
							</defs>
							<defs>
								<polygon id="SVGID_92_" points="-1,-1 -2,-1 -1,-2 								"/>
							</defs>
							<clipPath id="SVGID_93_">
								<use xlink:href="#SVGID_91_"  overflow="visible"/>
							</clipPath>
							<clipPath id="SVGID_94_" clip-path="url(#SVGID_93_)">
								<use xlink:href="#SVGID_92_"  overflow="visible"/>
							</clipPath>
							
								<linearGradient id="SVGID_95_" gradientUnits="userSpaceOnUse" x1="1985.4501" y1="1681.4" x2="1985.4501" y2="1350.1062" gradientTransform="matrix(1 0 0 -1 0 2360)">
								<stop  offset="0" style="stop-color:#FFFFFF"/>
								<stop  offset="0.329" style="stop-color:#999999"/>
								<stop  offset="0.7164" style="stop-color:#FFFFFF"/>
							</linearGradient>
							<path clip-path="url(#SVGID_94_)" fill="url(#SVGID_95_)" d="M2183.1,678.6h75.7L1948.6,908c-50.4,37.2-94.5,63.8-132.2,79.9
								c-37.7,16.1-72.4,23.3-104.3,21.8l66.2-66.2c16.4,0,31.9-2.9,46.6-8.7s31.9-16,51.8-30.5l131.5-225.6h78L1994,823.4
								L2183.1,678.6z"/>
						</g>
					</g>
					
						<linearGradient id="SVGID_96_" gradientUnits="userSpaceOnUse" x1="1985.4501" y1="1681.4" x2="1985.4501" y2="1350.1062" gradientTransform="matrix(1 0 0 -1 0 2360)">
						<stop  offset="0" style="stop-color:#FFFFFF"/>
						<stop  offset="0.329" style="stop-color:#FFFFFF"/>
						<stop  offset="0.7164" style="stop-color:#808080"/>
					</linearGradient>
					<path fill="url(#SVGID_96_)" d="M2183.1,678.6h75.7L1948.6,908c-50.4,37.2-94.5,63.8-132.2,79.9
						c-37.7,16.1-72.4,23.3-104.3,21.8l66.2-66.2c16.4,0,31.9-2.9,46.6-8.7s31.9-16,51.8-30.5l131.5-225.6h78L1994,823.4
						L2183.1,678.6z"/>
					<g>
						<g>
							<defs>
								<polygon id="SVGID_97_" points="1,1 2,1 1,2 								"/>
							</defs>
							<defs>
								<polygon id="SVGID_98_" points="-1,-1 -2,-1 -1,-2 								"/>
							</defs>
							<clipPath id="SVGID_99_">
								<use xlink:href="#SVGID_97_"  overflow="visible"/>
							</clipPath>
							<clipPath id="SVGID_100_" clip-path="url(#SVGID_99_)">
								<use xlink:href="#SVGID_98_"  overflow="visible"/>
							</clipPath>
							
								<linearGradient id="SVGID_101_" gradientUnits="userSpaceOnUse" x1="2176.8914" y1="1688" x2="2176.8914" y2="1438.4" gradientTransform="matrix(1 0 0 -1 0 2360)">
								<stop  offset="0" style="stop-color:#FFFFFF"/>
								<stop  offset="0.329" style="stop-color:#999999"/>
								<stop  offset="0.7164" style="stop-color:#FFFFFF"/>
							</linearGradient>
							<path clip-path="url(#SVGID_100_)" fill="url(#SVGID_101_)" d="M2210.7,747.6c-4.7,4.7-4.6,8.6,0.5,11.6c5,3,11.7,6,20.1,9
								c8.4,3,15.8,6.9,22.5,11.6c6.6,4.7,8.5,12.5,5.7,23.4s-12.5,24.5-28.8,40.9c-25.5,25.5-54.3,44.9-86.3,57.9
								c-32,13.1-61.9,19.6-89.6,19.6c-49.8,0-65-18.8-45.4-56.3l96.5-35c-12.3,18.6-8.2,27.9,12.3,27.9c17,0,30.4-4.9,40.2-14.7
								c4.7-4.7,4.6-8.7-0.2-11.8c-4.9-3.1-11.5-6.2-19.9-9.2s-15.8-6.9-22.2-11.8c-6.5-4.9-8.5-12.5-6.1-22.9s11.1-23.2,26.2-38.3
								c24.6-24.6,52.6-43.7,83.9-57.2c31.4-13.6,60.1-20.3,86.3-20.3c19.5,0,33,4.3,40.4,13s7.8,21.2,1.2,37.6l-93.2,32.6
								c6.3-13.9,2.7-20.8-10.9-20.8C2230.5,734.4,2219.5,738.8,2210.7,747.6z"/>
						</g>
					</g>
					
						<linearGradient id="SVGID_102_" gradientUnits="userSpaceOnUse" x1="2176.8914" y1="1688" x2="2176.8914" y2="1438.4" gradientTransform="matrix(1 0 0 -1 0 2360)">
						<stop  offset="0" style="stop-color:#FFFFFF"/>
						<stop  offset="0.329" style="stop-color:#FFFFFF"/>
						<stop  offset="0.7164" style="stop-color:#808080"/>
					</linearGradient>
					<path fill="url(#SVGID_102_)" d="M2210.7,747.6c-4.7,4.7-4.6,8.6,0.5,11.6c5,3,11.7,6,20.1,9c8.4,3,15.8,6.9,22.5,11.6
						c6.6,4.7,8.5,12.5,5.7,23.4s-12.5,24.5-28.8,40.9c-25.5,25.5-54.3,44.9-86.3,57.9c-32,13.1-61.9,19.6-89.6,19.6
						c-49.8,0-65-18.8-45.4-56.3l96.5-35c-12.3,18.6-8.2,27.9,12.3,27.9c17,0,30.4-4.9,40.2-14.7c4.7-4.7,4.6-8.7-0.2-11.8
						c-4.9-3.1-11.5-6.2-19.9-9.2s-15.8-6.9-22.2-11.8c-6.5-4.9-8.5-12.5-6.1-22.9s11.1-23.2,26.2-38.3
						c24.6-24.6,52.6-43.7,83.9-57.2c31.4-13.6,60.1-20.3,86.3-20.3c19.5,0,33,4.3,40.4,13s7.8,21.2,1.2,37.6l-93.2,32.6
						c6.3-13.9,2.7-20.8-10.9-20.8C2230.5,734.4,2219.5,738.8,2210.7,747.6z"/>
					<g>
						<g>
							<defs>
								<polygon id="SVGID_103_" points="1,1 2,1 1,2 								"/>
							</defs>
							<defs>
								<polygon id="SVGID_104_" points="-1,-1 -2,-1 -1,-2 								"/>
							</defs>
							<clipPath id="SVGID_105_">
								<use xlink:href="#SVGID_103_"  overflow="visible"/>
							</clipPath>
							<clipPath id="SVGID_106_" clip-path="url(#SVGID_105_)">
								<use xlink:href="#SVGID_104_"  overflow="visible"/>
							</clipPath>
							
								<linearGradient id="SVGID_107_" gradientUnits="userSpaceOnUse" x1="2406.0002" y1="1787.3" x2="2406.0002" y2="1445" gradientTransform="matrix(1 0 0 -1 0 2360)">
								<stop  offset="0" style="stop-color:#FFFFFF"/>
								<stop  offset="0.329" style="stop-color:#999999"/>
								<stop  offset="0.7164" style="stop-color:#FFFFFF"/>
							</linearGradient>
							<path clip-path="url(#SVGID_106_)" fill="url(#SVGID_107_)" d="M2543.6,645.2c-16.7,8.4-30.9,12.5-42.6,12.5
								c-11.7,0-17.5-4.2-17.5-12.5s5.8-18.4,17.5-30c11.7-11.7,25.8-21.7,42.6-30c16.7-8.4,30.9-12.5,42.6-12.5
								c11.7,0,17.5,4.2,17.5,12.5c0,8.4-5.8,18.4-17.5,30C2574.5,626.9,2560.3,636.9,2543.6,645.2z M2208.3,915l236.5-236.5h70.9
								L2279.2,915H2208.3z"/>
						</g>
					</g>
					
						<linearGradient id="SVGID_108_" gradientUnits="userSpaceOnUse" x1="2406.0002" y1="1787.3" x2="2406.0002" y2="1445" gradientTransform="matrix(1 0 0 -1 0 2360)">
						<stop  offset="0" style="stop-color:#FFFFFF"/>
						<stop  offset="0.329" style="stop-color:#FFFFFF"/>
						<stop  offset="0.7164" style="stop-color:#808080"/>
					</linearGradient>
					<path fill="url(#SVGID_108_)" d="M2543.6,645.2c-16.7,8.4-30.9,12.5-42.6,12.5c-11.7,0-17.5-4.2-17.5-12.5s5.8-18.4,17.5-30
						c11.7-11.7,25.8-21.7,42.6-30c16.7-8.4,30.9-12.5,42.6-12.5c11.7,0,17.5,4.2,17.5,12.5c0,8.4-5.8,18.4-17.5,30
						C2574.5,626.9,2560.3,636.9,2543.6,645.2z M2208.3,915l236.5-236.5h70.9L2279.2,915H2208.3z"/>
					<g>
						<g>
							<defs>
								<polygon id="SVGID_109_" points="1,1 2,1 1,2 								"/>
							</defs>
							<defs>
								<polygon id="SVGID_110_" points="-1,-1 -2,-1 -1,-2 								"/>
							</defs>
							<clipPath id="SVGID_111_">
								<use xlink:href="#SVGID_109_"  overflow="visible"/>
							</clipPath>
							<clipPath id="SVGID_112_" clip-path="url(#SVGID_111_)">
								<use xlink:href="#SVGID_110_"  overflow="visible"/>
							</clipPath>
							
								<linearGradient id="SVGID_113_" gradientUnits="userSpaceOnUse" x1="2575.4814" y1="1687.9001" x2="2575.4814" y2="1438.3" gradientTransform="matrix(1 0 0 -1 0 2360)">
								<stop  offset="0" style="stop-color:#FFFFFF"/>
								<stop  offset="0.329" style="stop-color:#999999"/>
								<stop  offset="0.7164" style="stop-color:#FFFFFF"/>
							</linearGradient>
							<path clip-path="url(#SVGID_112_)" fill="url(#SVGID_113_)" d="M2451.4,921.7c-35.9,0-53.8-12-53.7-35.9
								c0.1-24,17.9-53.6,53.2-88.9c35.3-35.3,76.8-64.9,124.6-88.9s89.6-35.9,125.6-35.9c22.7,0,38.1,5.5,46.1,16.6
								c8,11,8.1,25.7,0.2,44l-97.9,35.9c9.1-17.7,2.7-26.5-19.4-26.5c-15.5,0-33.3,5.1-53.7,15.4c-20.3,10.2-38.5,23.4-54.6,39.5
								s-24.2,29.2-24.4,39.5c-0.2,10.2,7.5,15.4,22.9,15.4c22.4,0,46.5-8.8,72.4-26.5l26.5,35.5c-29,18.6-58.5,33.4-88.4,44.5
								C2500.9,916.1,2474.4,921.7,2451.4,921.7z"/>
						</g>
					</g>
					
						<linearGradient id="SVGID_114_" gradientUnits="userSpaceOnUse" x1="2575.4814" y1="1687.9001" x2="2575.4814" y2="1438.3" gradientTransform="matrix(1 0 0 -1 0 2360)">
						<stop  offset="0" style="stop-color:#FFFFFF"/>
						<stop  offset="0.329" style="stop-color:#FFFFFF"/>
						<stop  offset="0.7164" style="stop-color:#808080"/>
					</linearGradient>
					<path fill="url(#SVGID_114_)" d="M2451.4,921.7c-35.9,0-53.8-12-53.7-35.9c0.1-24,17.9-53.6,53.2-88.9
						c35.3-35.3,76.8-64.9,124.6-88.9s89.6-35.9,125.6-35.9c22.7,0,38.1,5.5,46.1,16.6c8,11,8.1,25.7,0.2,44l-97.9,35.9
						c9.1-17.7,2.7-26.5-19.4-26.5c-15.5,0-33.3,5.1-53.7,15.4c-20.3,10.2-38.5,23.4-54.6,39.5s-24.2,29.2-24.4,39.5
						c-0.2,10.2,7.5,15.4,22.9,15.4c22.4,0,46.5-8.8,72.4-26.5l26.5,35.5c-29,18.6-58.5,33.4-88.4,44.5
						C2500.9,916.1,2474.4,921.7,2451.4,921.7z"/>
					<g>
						<g>
							<defs>
								<polygon id="SVGID_115_" points="1,1 2,1 1,2 								"/>
							</defs>
							<defs>
								<polygon id="SVGID_116_" points="-1,-1 -2,-1 -1,-2 								"/>
							</defs>
							<clipPath id="SVGID_117_">
								<use xlink:href="#SVGID_115_"  overflow="visible"/>
							</clipPath>
							<clipPath id="SVGID_118_" clip-path="url(#SVGID_117_)">
								<use xlink:href="#SVGID_116_"  overflow="visible"/>
							</clipPath>
							
								<linearGradient id="SVGID_119_" gradientUnits="userSpaceOnUse" x1="2866.6509" y1="1688.2001" x2="2866.6509" y2="1438.4" gradientTransform="matrix(1 0 0 -1 0 2360)">
								<stop  offset="0" style="stop-color:#FFFFFF"/>
								<stop  offset="0.329" style="stop-color:#999999"/>
								<stop  offset="0.7164" style="stop-color:#FFFFFF"/>
							</linearGradient>
							<path clip-path="url(#SVGID_118_)" fill="url(#SVGID_119_)" d="M3009.9,678.6h70.9L2844.4,915h-70.9l22.2-22.2
								c-35.9,19.2-69,28.8-99.3,28.8c-31.2,0-45.8-12.1-43.7-36.2c2-24.1,20.6-53.7,55.6-88.7s75.6-64.6,121.8-88.7
								c46.2-24.1,84.9-36.2,116.1-36.2c30.3,0,44.1,9.6,41.6,28.8L3009.9,678.6z M2752.6,838.9c0,10.4,8.3,15.6,25.1,15.6
								c16.7,0,35.5-5.2,56.3-15.6c20.8-10.4,40-24.4,57.7-42.1c17.7-17.7,26.5-31.7,26.5-42.1c0-10.4-8.4-15.6-25.1-15.6
								c-16.7,0-35.5,5.2-56.3,15.6c-20.8,10.4-40,24.4-57.7,42.1C2761.4,814.5,2752.6,828.5,2752.6,838.9z"/>
						</g>
					</g>
					
						<linearGradient id="SVGID_120_" gradientUnits="userSpaceOnUse" x1="2866.6509" y1="1688.2001" x2="2866.6509" y2="1438.4" gradientTransform="matrix(1 0 0 -1 0 2360)">
						<stop  offset="0" style="stop-color:#FFFFFF"/>
						<stop  offset="0.329" style="stop-color:#FFFFFF"/>
						<stop  offset="0.7164" style="stop-color:#808080"/>
					</linearGradient>
					<path fill="url(#SVGID_120_)" d="M3009.9,678.6h70.9L2844.4,915h-70.9l22.2-22.2c-35.9,19.2-69,28.8-99.3,28.8
						c-31.2,0-45.8-12.1-43.7-36.2c2-24.1,20.6-53.7,55.6-88.7s75.6-64.6,121.8-88.7c46.2-24.1,84.9-36.2,116.1-36.2
						c30.3,0,44.1,9.6,41.6,28.8L3009.9,678.6z M2752.6,838.9c0,10.4,8.3,15.6,25.1,15.6c16.7,0,35.5-5.2,56.3-15.6
						c20.8-10.4,40-24.4,57.7-42.1c17.7-17.7,26.5-31.7,26.5-42.1c0-10.4-8.4-15.6-25.1-15.6c-16.7,0-35.5,5.2-56.3,15.6
						c-20.8,10.4-40,24.4-57.7,42.1C2761.4,814.5,2752.6,828.5,2752.6,838.9z"/>
					<g>
						<g>
							<defs>
								<polygon id="SVGID_121_" points="1,1 2,1 1,2 								"/>
							</defs>
							<defs>
								<polygon id="SVGID_122_" points="-1,-1 -2,-1 -1,-2 								"/>
							</defs>
							<clipPath id="SVGID_123_">
								<use xlink:href="#SVGID_121_"  overflow="visible"/>
							</clipPath>
							<clipPath id="SVGID_124_" clip-path="url(#SVGID_123_)">
								<use xlink:href="#SVGID_122_"  overflow="visible"/>
							</clipPath>
							
								<linearGradient id="SVGID_125_" gradientUnits="userSpaceOnUse" x1="3117.6501" y1="1790.2" x2="3117.6501" y2="1445" gradientTransform="matrix(1 0 0 -1 0 2360)">
								<stop  offset="0" style="stop-color:#FFFFFF"/>
								<stop  offset="0.329" style="stop-color:#999999"/>
								<stop  offset="0.7164" style="stop-color:#FFFFFF"/>
							</linearGradient>
							<path clip-path="url(#SVGID_124_)" fill="url(#SVGID_125_)" d="M2909.6,915l345.2-345.2h70.9L2980.6,915H2909.6z"/>
						</g>
					</g>
					
						<linearGradient id="SVGID_126_" gradientUnits="userSpaceOnUse" x1="3117.6501" y1="1790.2" x2="3117.6501" y2="1445" gradientTransform="matrix(1 0 0 -1 0 2360)">
						<stop  offset="0" style="stop-color:#FFFFFF"/>
						<stop  offset="0.329" style="stop-color:#FFFFFF"/>
						<stop  offset="0.7164" style="stop-color:#808080"/>
					</linearGradient>
					<path fill="url(#SVGID_126_)" d="M2909.6,915l345.2-345.2h70.9L2980.6,915H2909.6z"/>
				</g>
				<g>
					<path fill="#FFFFFF" d="M1269.7,584c32.5,0,59.9,11,82.3,33.1s33.6,48.9,33.6,80.4s-11.2,58.3-33.6,80.4
						c-22.4,22.1-49.8,33.1-82.3,33.1H1220v104h-75.7V584H1269.7z M1269.7,740.1c11.7,0,21.3-4.1,28.8-12.3
						c7.6-8.2,11.3-18.3,11.3-30.3s-3.8-22.1-11.3-30.3c-7.6-8.2-17.2-12.3-28.8-12.3H1220V740L1269.7,740.1L1269.7,740.1z"/>
					<path fill="#FFFFFF" d="M1572.8,672c25.2,0,46.3,8.7,63.1,26c16.9,17.3,25.3,41.3,25.3,71.9V915h-70.9V780.3
						c0-13.9-3.9-24.5-11.6-31.9s-17.6-11.1-29.6-11.1c-13.6,0-24.3,4.1-32.2,12.3c-7.9,8.2-11.8,20.3-11.8,36.4v129h-70.9V584h70.9
						v116.8C1519.4,681.6,1541.9,672,1572.8,672z"/>
					<path fill="#FFFFFF" d="M1867.4,678.6h75.7L1862.2,908c-13.2,37.2-30.7,63.8-52.3,79.9c-21.6,16.1-49.1,23.3-82.5,21.8v-66.2
						c16.4,0,29-2.9,37.8-8.7s15.9-16,21.3-30.5l-94.1-225.6h78l52.5,144.7L1867.4,678.6z"/>
					<path fill="#FFFFFF" d="M2035.3,747.6c0,4.7,4,8.6,12.1,11.6c8,3,17.7,6,29.1,9c11.3,3,22.7,6.9,34,11.6
						c11.3,4.7,21,12.5,29.1,23.4c8,10.9,12.1,24.5,12.1,40.9c0,25.5-9.5,44.9-28.4,57.9c-18.9,13.1-42.3,19.6-70,19.6
						c-49.8,0-83.7-18.8-101.7-56.3l61.5-35c6.3,18.6,19.7,27.9,40.2,27.9c17,0,25.5-4.9,25.5-14.7c0-4.7-4-8.7-12.1-11.8
						c-8-3.1-17.7-6.2-29.1-9.2c-11.3-3-22.7-6.9-34-11.8c-11.3-4.9-21-12.5-29.1-22.9c-8-10.4-12.1-23.2-12.1-38.3
						c0-24.6,8.9-43.7,26.7-57.2c17.8-13.6,39.8-20.3,66-20.3c19.5,0,37.4,4.3,53.4,13c16.1,8.7,29,21.2,38.8,37.6l-60.5,32.6
						c-7.6-13.9-18.1-20.8-31.7-20.8C2041.9,734.4,2035.3,738.8,2035.3,747.6z"/>
					<path fill="#FFFFFF" d="M2265.8,645.2c-8.4,8.4-18.4,12.5-30,12.5c-11.7,0-21.7-4.2-30-12.5c-8.4-8.3-12.5-18.4-12.5-30
						c0-11.7,4.2-21.7,12.5-30c8.3-8.4,18.4-12.5,30-12.5c11.7,0,21.7,4.2,30,12.5c8.3,8.4,12.5,18.4,12.5,30
						C2278.4,626.9,2274.2,636.9,2265.8,645.2z M2200.3,915V678.6h70.9V915H2200.3z"/>
					<path fill="#FFFFFF" d="M2450,921.7c-35.9,0-65.8-12-89.6-35.9c-23.8-24-35.7-53.6-35.7-88.9c0-35.3,11.9-64.9,35.7-88.9
						s53.7-35.9,89.6-35.9c22.7,0,43.6,5.5,62.7,16.6c19.1,11,33.8,25.7,44.2,44l-62,35.9c-8.5-17.7-23.8-26.5-45.9-26.5
						c-15.5,0-28.2,5.1-38.3,15.4c-10.1,10.2-15.1,23.4-15.1,39.5s5,29.2,15.1,39.5c10.1,10.2,22.9,15.4,38.3,15.4
						c22.4,0,37.7-8.8,45.9-26.5l62,35.5c-10.4,18.6-25.1,33.4-44,44.5C2494,916.1,2473.1,921.7,2450,921.7z"/>
					<path fill="#FFFFFF" d="M2765.5,678.6h70.9V915h-70.9v-22.2c-16.7,19.2-40.2,28.8-70.5,28.8c-31.2,0-57.9-12.1-79.9-36.2
						c-22.1-24.1-33.1-53.7-33.1-88.7s11-64.6,33.1-88.7c22.1-24.1,48.7-36.2,79.9-36.2c30.3,0,53.7,9.6,70.5,28.8V678.6z
						 M2668.5,838.9c10.4,10.4,24,15.6,40.7,15.6s30.3-5.2,40.7-15.6c10.4-10.4,15.6-24.4,15.6-42.1c0-17.7-5.2-31.7-15.6-42.1
						c-10.4-10.4-24-15.6-40.7-15.6s-30.3,5.2-40.7,15.6c-10.4,10.4-15.6,24.4-15.6,42.1S2658.1,828.5,2668.5,838.9z"/>
					<path fill="#FFFFFF" d="M2901.7,915V569.8h70.9V915H2901.7z"/>
				</g>
			</g>
		</g>
		<g>
			<g>
				<path opacity="0.55" fill="#53497F" enable-background="new    " d="M2603.5,776.6c-0.7-3.2-12.4-5-26-5.4l0.3-0.8l-3.4,0.8
					h-0.1c0.4-0.4,0.7-0.7,1.1-1.1c5.4-0.9,11.2-2.6,16.2-5.2l2-1.8c-0.8,1.3-0.7,2.5,1.8,2.9c-1.8-0.3,6.8-4.6,7.6-5.1
					c3.5-2.1,6.7-4.2,9.6-6.4c5.6-4.2,14.4-11,10.6-14c-2-1.6-5.9-2.4-10.3-2.7c-5-0.3-12.2,0-18.3,1.4c-4.5,1-9.4,1.5-12.9,4.1
					c-1.6,1.2-1.9,2-1.4,2.7c-1.5,0.9-2.9,1.9-4,2.9l-21,19.6c-1.3,1.2,1.4,2.3,6.1,2.6c-0.3,0.2-0.5,0.4-0.8,0.7
					c-0.4,0-0.8,0.1-1.2,0.1l-0.6-0.5l-1.2,0.6c-7.8,0.7-14.9,1.9-19.4,3.7s-9.9,5-15.6,9c-21.3,11.6-48.9,30.8-51.1,35.8
					c-1.9,4.2-3.7,8.8-2.5,11.3c-1.2,1.3-2.3,2.5-3.2,3.5c-0.5,0.6,1.1,1.2,4.2,1.7c-8.2,7.3-46.1,41.5-51.8,46.8
					c-6.4,6-56.9,61.7-56.9,61.7l3.1,0.5c-9.2,3.1-28,8.9-25.9,9.5c6.2,1.9,27.2-5.4,34-8.3l3.1,0.5c0.7-0.6,46.5-43,52.6-48.7
					c7-5.9,49.8-41.9,53.7-41.9c4.7,0-24.2,35.4-33.1,45.1c-7.7,8.5-49.6,54.4-49.6,54.4s0.6,0.5,1.8,1.1
					c-8.5,2.8-29.9,9.1-27.7,9.8c6.7,2.2,32.4-6.9,35.9-8.7c0.1-0.1,0.4-0.2,0.7-0.4l-0.2-0.1c0.7-0.1,1.5-0.2,2.3-0.4
					c3.9-2.5,38.3-29.3,64.8-56.1c18.3-18.5,46-44.7,59.2-57.5c11.6-3.3,40.3-15,54.6-25.2c11.6-11.5,16.5-33.9,12.8-40.8
					C2603.6,777.6,2603.6,777.1,2603.5,776.6z M2601.8,755.5L2601.8,755.5C2601.8,755.4,2601.8,755.5,2601.8,755.5L2601.8,755.5z"/>
				<g>
					<path fill="#153456" d="M2399.5,955.3c0,0.1-0.1,0.2-0.1,0.2c-2,3.1-22.5,18.6-19.1,20.2c9.1,4.2,25-12.8,26.6-16.2
						c0.1-0.1,0.2-0.4,0.3-0.7L2399.5,955.3z"/>
					<path fill="#153456" d="M2351.3,932.6c0,0.1-0.1,0.2-0.1,0.2c-1.9,3.2-21.9,19.3-18.5,20.7c9.2,3.9,24.6-13.6,26.1-17
						c0.1-0.1,0.2-0.4,0.3-0.7L2351.3,932.6z"/>
					<path fill="#153456" d="M2410.8,734c0.7,9.2,0.7,76,2.7,119.7c2.3,49.9-3.5,99.6-4.7,104.2c-7.1,3.9-14.2-2.4-14.2-2.4
						s-7.3-85.2-8.7-101.1c-1.6-18.2-10.5-83.8-15.2-83.8s-9.8,96.4-8.9,76.6c0.2-3.7-0.3,90.4-0.3,91.7l-16.6-3.9
						c0,0-9.2-103.5-9.2-114.6s1.7-89.6,1.7-89.6L2410.8,734z"/>
					<path fill="#461AFF" d="M2406.3,621.5c-8.6-12.2-57.4-13.9-66.4-1.8c-12.3,16.4-11,88.4-8.7,110.6c0.7,6.9,82.1,12.4,82.3,8.8
						C2414.3,724.5,2417.9,638,2406.3,621.5z"/>
					<path fill="#56A1B8" d="M2404,751.7c-3.7,4.8-9,7-11.8,4.9s-2-7.8,1.7-12.6s9-7,11.8-4.9S2407.7,746.9,2404,751.7z"/>
					<path fill="#FCC9B0" d="M2362.3,553.8c-7.6,1.6-13.1,8.2-13.1,16v36.4c0,6,25.9,9.6,32.7-6.3v-30.1
						C2381.9,559.4,2372.4,551.7,2362.3,553.8L2362.3,553.8z"/>
					<path fill="#153456" d="M2381.6,590.5c0.2-2.3,0.5-4.5,0.5-6.9c-0.1-5.3-1.7-11.6-6.2-14.9c-6.6-4.8-14.2-1.7-21.6-2.4
						c-3.9-0.4-6.2-2.8-5.6-6.7c0.8-4.7,5.1-5.6,8.5-7.6c4.7-2.7,11.6-3,16.9-2.6c4.6,0.4,9.5,2.1,13.1,5c7.1,5.6,5.5,18.2,4.5,26
						c-0.6,4-1.5,8-2.7,11.9c-0.3,0.9-4.3,9-2.1,9.5C2381.7,600.5,2381.1,594.7,2381.6,590.5z"/>
					<path fill="#FCC9B0" d="M2387,587.9c-0.7,3.2-2.9,5.4-5,5s-3.2-3.4-2.5-6.6c0.7-3.2,2.9-5.4,5-5
						C2386.6,581.8,2387.7,584.8,2387,587.9z"/>
					<path fill="#FCC9B0" d="M2358.2,616.9h13.4c-0.1-4.6-0.4-14.2-0.4-14.2l-12.2-0.3c0,0-1.2,9.2-0.9,14.1
						C2358.1,616.7,2358.1,616.8,2358.2,616.9z"/>
					<polygon fill="#4EE9D4" points="2365.1,708 2358.2,717.5 2353.5,703.3 2360.3,618.5 2363.5,619.1 					"/>
					<path fill="#461AFF" d="M2340.9,623.5c-11.8,14.7-23.7,67.7-19.7,79.3c3.9,11.6,8.7,24.6,15.8,24.6s12.6-34.8,12.6-34.8
						s-12.6-6.5-12.6-9.4C2337,680.3,2341.7,626.9,2340.9,623.5z"/>
					<path fill="#461AFF" d="M2404.8,621.4c10.3,7.6,33.2,55.3,33.9,78.8c-3.9,22-25.3,47.8-30.8,48.5c-5.5,0.8-19.7-6.6-14.2-12.9
						c3.9-4.5,19.7-44.7,19.7-44.7S2389.1,631.2,2404.8,621.4z"/>
					<polygon fill="#2300B2" points="2377.5,619.5 2374.1,610 2362.3,616.8 2355.9,611.6 2352.2,619 2358.5,626.6 2362.1,618.5 
						2365.1,627.7 					"/>
				</g>
			</g>
			<g>
				<g opacity="0.49">
					<g>
						<path fill="#53497F" d="M1771.6,897.1L1771.6,897.1c2.5-0.8,6-2.6,7.3-4.5c2.2-3.2,9-9.6,9-9.6l-7.2,0.5c0,0-7.3,6.6-11.2,9.4
							C1765.3,895.9,1767.4,898.4,1771.6,897.1z"/>
						<path fill="#53497F" d="M1621.8,1034.8l26.1-29.4l10.4,3.9l-26.5,25.4c0,0-46.9,43.4-64.2,59.8c-2.9,0.9-5.8,1.8-8.7,2.7
							C1573.1,1083.2,1621.8,1034.8,1621.8,1034.8z"/>
						<path fill="#53497F" d="M1654.7,1024l25.4-29.4l7.7,5.9l-24.6,24.9c0,0-59.7,48.7-75,61.5c-2.3,0.3-4.7,0.7-7.1,1.1
							C1592.2,1078.3,1654.7,1024,1654.7,1024z"/>
						<path fill="#53497F" d="M1764.1,891.9c8.8-3.7,22.9-5.4,24.6-5.1c2.2,0.4-10.9,10.9-10.9,10.9h-19.5
							C1758.2,897.7,1762,892.7,1764.1,891.9z"/>
						<path fill="#53497F" d="M1695.4,953.1c6.4-4.8,13.5-7.7,17.1-11l33.2-38.7c-3.8,0.8-6.2,1.2-6.1,1.1l5.5-4.8
							c2.4-2.1,5.8-4.1,8.3-4.5c20-3.1,41.1-8.9,41-6c-0.1,1.1-1,3.6-2.1,5c-1.2,1.6-23.1,27.7-25,30c-4.9,6.2-27.8,23.6-31.9,26.7
							c-15.1,17.8-50.5,59.5-67.6,74.6c-2.7,2.4-55.5,7.3-55.5,5C1612.9,1030.3,1688.9,958,1695.4,953.1z"/>
						<path fill="#53497F" d="M1667.8,974.3l5,9.1c0.7,1.3,4.9-0.2,7.4-2.6l13.7-13.7c1.1-1.1,96.6-78.5,96.3-79l-95.7,75.5
							l-4.5-8.1c-0.7-1.3-4.9,0.2-7.4,2.6l-13.7,13.7C1668,972.8,1667.5,973.8,1667.8,974.3z"/>
						<path fill="#53497F" d="M1668,976.9c-3.4,4.1-4,7.1-1.3,6.7c2.7-0.4,7.7-4,11.1-8.1s4-7.1,1.3-6.7S1671.4,972.8,1668,976.9z"
							/>
						<path fill="#53497F" d="M1739.8,904.4l3.7-3.2h12.2l-48.8,38.7l-26.4,30.6l-6.7,0.5c1-1.7,10.9-17.3,27.4-33.8
							C1716.4,921.9,1738.4,905.6,1739.8,904.4z"/>
						<path fill="#53497F" d="M1762.1,876.6c-4,6.5-1.2,10.2,6.1,8.1c7.3-2.1,16.4-9,20.4-15.6c4-6.5,1.2-10.2-6.1-8.1
							C1775.2,863.1,1766.1,870,1762.1,876.6z"/>
						<path fill="#53497F" d="M1820.5,855.7l-23.6,26.7c-3.6,4.1-25.3,8.5-20.9-1.7l10.6-12L1820.5,855.7z"/>
						<path fill="#53497F" d="M1818,846.2c6,0.8,11.1,2,7.2,8.4c-2.4,3.8-9,8.4-11.3,8.6l5-5.7c-12.5,8.4-32.9,16.8-36.2,16.9
							c-5.1,0.2-5.4,5.7-6.6,10c-0.4,1.6-4.4-6.8,1.2-14.3C1789.8,853.7,1809.5,845,1818,846.2z"/>
						<path fill="#53497F" d="M1776.3,878.3c-1.4,2.1-1,3.4,0.8,3s4.4-2.5,5.8-4.6s1-3.4-0.8-3
							C1780.3,874.1,1777.7,876.2,1776.3,878.3z"/>
						<path d="M1558.9,1097.3c2.9-0.9,5.8-1.8,8.7-2.7c-3.6,3.4-6,5.7-6.3,6.1c-2.1,2.5-9.3,17.9-11.8,17.9c-3.5,0-2.6-3.9-0.5-8
							l-3.8,3.4h-2.1l12.2-12.9C1555.5,1100.7,1556.9,1099.3,1558.9,1097.3z"/>
						<path d="M1581.1,1088.1c2.5-0.5,4.9-0.8,7.1-1.1c-2,1.6-3.3,2.7-3.5,3c-2.5,2.5-13,18.9-15.1,18.6c-2.9-0.5-1.1-4.8,1.8-9.2
							l-4.1,3.3l-1.8-0.3l14-12.9C1579.6,1089.3,1580.2,1088.8,1581.1,1088.1z"/>
					</g>
				</g>
				<g>
					<g>
						<path fill="#FFFDFD" d="M1566.4,800.6L1566.4,800.6c2.7-1.1,5.1-4,4.3-6.8c-1.5-4.8-0.9-14.6-0.9-14.6l-10.1,0.8
							c0,0-1.1,10.1-2.8,14.2C1554.9,798.8,1561.8,802.6,1566.4,800.6z"/>
						<path fill="#154BFF" d="M1547.9,1009.7l-4.9-44.6l21.7,6l-1.6,38.6c0,0-5.2,66-6.7,90.8c-3,1.4-6,2.8-9,4.2
							C1547.5,1083.4,1547.9,1009.7,1547.9,1009.7z"/>
						<path fill="#154BFF" d="M1581.6,993.4l-6-44.6l20.7,9l0.4,37.8c0,0-16.7,73.9-20.5,93.4c-3,0.4-6.1,1-9.1,1.7
							C1569.2,1075.9,1581.6,993.4,1581.6,993.4z"/>
						<path fill="#153456" d="M1547,792.8c7.8-5.6,26.7-8.2,29.6-7.7c4.1,0.7,0,16.5,0,16.5H1547C1547,801.6,1545.2,794,1547,792.8z
							"/>
						<path fill="#153456" d="M1535.7,885.7c2.4-7.3,9-11.6,9.3-16.7l-8.3-58.8c-4.7,1.2-7.6,1.8-7.6,1.6l1.1-7.3
							c0.5-3.2,2.7-6.2,5.8-6.8c25.7-4.7,49-13.4,53-9.2c1.5,1.6,4,5.5,4.5,7.6c0.6,2.4,6.9,42,7.6,45.5c2,9.4-6.4,35.8-7.9,40.5
							c4.2,27.1,13.5,90.3,10.6,113.3c-0.5,3.7-73.2,11-76.7,7.6C1527.5,1002.9,1533.2,893.1,1535.7,885.7z"/>
						<path fill="#FFFDFD" d="M1530.2,921.9c1,6.2,4.7,10.8,8.3,10.2c3.6-0.6,5.6-6.1,4.6-12.3s-4.7-10.8-8.3-10.2
							C1531.2,910.2,1529.1,915.7,1530.2,921.9z"/>
						<path fill="#153456" d="M1529.1,811.8l0.8-4.8h18.6l-15.4,58.7l6.3,46.5l-9.4,0.8c-1.1-2.5-9.8-26.3-9.8-51.4
							C1520.1,838.3,1528.8,813.5,1529.1,811.8z"/>
						<path fill="#FFC98B" d="M1520.7,769.5c3.9,9.9,13.5,15.4,21.5,12.3c8-3.1,11.3-13.7,7.3-23.6c-3.9-9.9-13.5-15.4-21.5-12.3
							C1520.1,749,1516.8,759.5,1520.7,769.5z"/>
						<path fill="#937963" d="M1577.7,737.8l4.7,40.6c0.7,6.2-25.4,12.9-34.3-2.6l-2.1-18.3L1577.7,737.8z"/>
						<path fill="#FFC98B" d="M1559.5,723.4c10.4,1.3,20,3.1,23.6,12.7c2.2,5.8-1,12.7-4.1,13.1l-1-8.6
							c-6.3,12.8-24.4,25.5-29.3,25.7c-7.4,0.2,0.3,8.6,5.2,15.1c1.8,2.4-17.1-10.4-19.9-21.7C1528,734.7,1544.7,721.6,1559.5,723.4
							z"/>
						<path fill="#937963" d="M1545,772.1c1.1,3.2,3.6,5.2,5.7,4.5s2.8-3.9,1.8-7.1c-1.1-3.2-3.6-5.2-5.7-4.5
							C1544.7,765.8,1543.9,768.9,1545,772.1z"/>
						<path fill="#153456" d="M1547.4,1104.7c3-1.3,6-2.7,9-4.2c-0.3,5.2-0.5,8.6-0.4,9.2c0.5,3.8,13.1,27.2,9.2,27.2
							c-5.2,0-9.8-5.9-13-12.2l-0.6,5.1h-3.3l-1.1-19.6C1547.3,1109.8,1547.3,1107.8,1547.4,1104.7z"/>
						<path fill="#153456" d="M1567,1090.7c3.1-0.7,6.1-1.3,9.1-1.7c-0.5,2.5-0.8,4.2-0.8,4.6c0,3.8,9.1,28.8,5.3,28.2
							c-5.2-0.7-8.8-7.2-11.1-13.9l-1.3,5l-3.2-0.5l1.7-19.5C1566.7,1092.7,1566.8,1091.9,1567,1090.7z"/>
						<path fill="#E94E63" d="M1526,917.9l21.4,13.8c3.1,2,7.2-0.2,7.2-4V907c0-1.6,27.6-119.2,26.2-120.1l-30.7,114.6l-19.1-12.3
							c-3.1-2-7.2,0.2-7.2,3.9V914C1523.8,915.6,1524.7,917.1,1526,917.9z"/>
					</g>
				</g>
			</g>
			<g>
				<path opacity="0.71" fill="#53497F" d="M2950,1561.5c1.5-2.2,21.3-26.6,22.3-28.1c0.9-1.3,0.6-3.7-0.1-4.7
					c-0.6-0.9-5.3-0.9-12.4-0.3c1-1.1,1.2-1.8,0.1-1.9c-1-0.1-4.3,0-8.6,0.2c0.1-0.1,0.2-0.2,0.3-0.3c9-0.4,18.1-2.2,19.8-4l16.1-18
					c4-0.2,12.5-4.4,13.9-8c2.3-5.9-7.8-7.1-19.3-8c-3.9-0.3-8.5-0.1-13.3,0.7c1.3-5.6-6.1-8.7-17.1-7c-11.6,1.9-22.8,8.3-25,14.5
					c-1.4,3.8,1,6.6,5.8,7.7c-2.1,1.9-4,4-5.5,6.2c-3.8,5.8,4.8,12.2,7.7,13.5c1.3,0.8,3,1.4,5.1,1.8c-1,0.7-2.1,1.5-3.3,2.3
					c-6.1,0.7-12.2,1.7-16.9,2.9c-1,0.3-2,1-2.9,1.8c-4.4,0.4-9,0.8-13.5,1.2c-4.1,0.3-8.8,2.2-11.5,4.1l-2.1,1.5l0,0l-4.2,3
					c-1.6,1.1-28.8,16.3-44.8,30.6c-4.9,4.4-8.9,8.8-12.2,12.8h-0.3l-36,21.4l18.5,3.5c-0.8,1-1.2,2-1.3,2.8
					c-25.9,20.8-57.4,46.6-57.8,46.8c0.5,0.7,10.3,0.8,23.4,0.4l-3.4,3.7c0,0-51.1,45.3-65.9,58.5c-2.2,1.9-3.6,3.2-3.9,3.5
					l-12.2,12.1h3.9l4.2-3.1c-0.5,3.9,0.8,7.6,7,7.6c4.6,0,5.8-14.5,7.7-16.8c0.3-0.4,2.9-2.5,6.8-5.7
					c18.8-15.3,70.4-55.9,70.4-55.9l5.4-4.5c7.3-0.3,14.7-0.6,21.6-1c-17.5,12.4-67.6,48-78.1,55.4c-1,0.7-1.7,1.2-1.9,1.3l-15.5,12
					l3.5,0.3l5-3c-1.9,4.1-2,8.1,3.6,8.7c4.1,0.4,10.5-15.1,13.2-17.4c0.3-0.3,1.8-1.3,4.1-2.8c16-10.7,73.8-47.8,86.1-55.8
					c6.2-0.5,10.3-1,11-1.5c19.3-14.2,51.7-53.2,65.4-69.9C2917.8,1583.5,2945.8,1567.3,2950,1561.5z M2864.7,1577.7
					c-3.9,3.1-14.5,5.7-22.4,10.2l10.5-12.3l28.4-17.4L2864.7,1577.7z"/>
				<g>
					<path fill="#D07E4D" d="M2685.4,1602.8l-5.8-51.4l25.8,6.9l-1.9,44.5c0,0-6.2,76-7.9,104.7c-3.6,1.6-7.1,3.2-10.7,4.8
						C2685,1687.7,2685.4,1602.8,2685.4,1602.8z"/>
					<path fill="#D07E4D" d="M2725.4,1584.1l-7.1-51.4l24.5,10.4l0.4,43.5c0,0-19.8,85.2-24.3,107.7c-3.6,0.5-7.2,1.2-10.8,2
						C2710.7,1679.1,2725.4,1584.1,2725.4,1584.1z"/>
					<path fill="#CB65CC" d="M2684.4,1352.7c9.2-6.5,31.6-9.4,35.1-8.9c4.8,0.8,0,19.1,0,19.1h-35.1
						C2684.4,1362.9,2682.3,1354.2,2684.4,1352.7z"/>
					<path fill="#CB65CC" d="M2671,1459.8c2.9-8.4,10.6-13.4,11-19.3l-9.8-67.8c-5.5,1.3-9,2.1-9,1.9l1.4-8.4
						c0.6-3.7,3.1-7.1,6.9-7.8c30.5-5.4,58-15.5,62.8-10.6c1.8,1.9,4.7,6.3,5.3,8.8c0.7,2.7,8.1,48.4,9,52.5
						c2.3,10.8-7.6,41.3-9.4,46.7c5,31.2,16,104.1,12.6,130.7c-0.6,4.3-86.7,12.7-90.8,8.8C2661.3,1594.9,2668,1468.4,2671,1459.8z"
						/>
					<polygon fill="#180172" points="2695.3,1511.1 2642.4,1496.1 2654.4,1455.9 2707.4,1470.9 					"/>
					<path fill="#D07E4D" d="M2664.5,1501.6c1.2,7.2,5.6,12.4,9.8,11.8c4.2-0.7,6.6-7,5.4-14.2c-1.2-7.2-5.6-12.4-9.8-11.8
						S2663.3,1494.4,2664.5,1501.6z"/>
					<path fill="#CB65CC" d="M2663.2,1374.6l0.9-5.6h22l-18.3,67.7l7.5,53.6l-11.1,0.9c-1.3-2.9-11.6-30.3-11.6-59.2
						C2652.6,1405.2,2662.8,1376.7,2663.2,1374.6z"/>
					<path fill="#180172" d="M2684.8,1712.3c3.6-1.5,7.1-3.2,10.7-4.8c-0.4,5.9-0.5,9.9-0.4,10.7c0.6,4.4,15.5,31.3,10.9,31.3
						c-6.2,0-11.6-6.8-15.4-14l-0.7,5.9h-3.9l-1.3-22.6C2684.8,1718.2,2684.8,1715.9,2684.8,1712.3z"/>
					<path fill="#180172" d="M2708.1,1696.2c3.6-0.8,7.2-1.5,10.8-2c-0.6,2.9-0.9,4.8-0.9,5.3c0,4.4,10.7,33.2,6.2,32.5
						c-6.1-0.9-10.5-8.3-13.2-16l-1.6,5.7l-3.8-0.5l2-22.5C2707.7,1698.4,2707.9,1697.5,2708.1,1696.2z"/>
					<path fill="#D07E4D" d="M2707.3,1361.8L2707.3,1361.8c3.2-1.3,6.1-4.6,5-7.9c-1.8-5.6-1.1-16.8-1.1-16.8l-12,0.9
						c0,0-1.3,11.6-3.3,16.4C2693.7,1359.7,2701.9,1364,2707.3,1361.8z"/>
					<path fill="#EC1B7F" d="M2653.3,1288.7c4.6,11.4,16,17.8,25.4,14.2c9.4-3.6,13.3-15.8,8.7-27.2c-4.6-11.4-16-17.8-25.4-14.2
						C2652.6,1265,2648.7,1277.2,2653.3,1288.7z"/>
					<path fill="#D07E4D" d="M2720.7,1289.3l5.6,46.8c0.8,7.1-30.1,14.9-40.6-3l-2.5-21.1L2720.7,1289.3z"/>
					<path fill="#EC1B7F" d="M2699.2,1272.7c12.4,1.5,23.7,3.6,28,14.6c2.6,6.7-1.2,14.7-4.9,15.1l-1.2-10
						c-7.4,14.7-28.9,29.4-34.7,29.6c-8.8,0.3,0.4,9.9,6.1,17.5c2.1,2.7-20.3-12-23.5-25.1
						C2661.9,1285.7,2681.7,1270.6,2699.2,1272.7z"/>
					<path fill="#D07E4D" d="M2682,1328.9c1.3,3.7,4.3,6,6.8,5.2c2.4-0.8,3.4-4.5,2.1-8.1c-1.3-3.7-4.3-6-6.8-5.2
						C2681.6,1321.6,2680.7,1325.2,2682,1328.9z"/>
				</g>
			</g>
			<g>
				<path opacity="0.69" fill="#53497F" d="M1818.6,1762.7c0.8-1.5-1.1-2.3-4.3-1.8l-23.8,3.6c-2.7,0.4-5.3,1.6-6.3,2.9l-12.2,17.3
					l0.5-2.4l-38.4,10.8c0,0,19.3-33.9,19.6-39.3c1-1.3,1.6-2.3,1.5-2.7c-0.1-1.2-2.8-2.4-7.5-3.4l0.2-0.1l-2.8-2l-3,1.2
					c-0.1,0-0.2,0-0.3,0c1.2-0.7,2.3-1.4,3.3-2.1c7.9,0,16.2-1.4,18.1-3.2l24.3-22.7c-0.1,1.1,16.9-12.7-14.7-12
					c-5.5,0.1-17.7,2.3-24.2,4.9c-20.9,8.5-24.3,24.3-19.8,27.1c0.2-0.2,0.4-0.6,0.7-0.9c-0.4,2.2,0.9,3.7,3.2,4.8
					c-1.1,0.6-2.3,1.3-3.5,1.9l-1.5-1.4l-10.6,2.8l-0.1,0.4c-13.3,1-37.3,5.6-37.3,5.6c-0.6,0.5-1.4,1.1-2.2,1.8
					c-15.5,7.6-73.8,41.2-80.3,53.6c0.4,0.2-5.8,16.5-7.3,25.6c-5.5,4.6-10.3,8.8-13.2,11.7c-0.4,0.4,1.3,0.5,4.5,0.5
					c-13.1,13.4-31.9,32.7-51.6,49.7c-35.9,31.1-62.4,62-64.1,64.9c0.5,0.2,1.1,0.3,1.7,0.5l-0.4,0.1c0,0.2-0.1,0.4-0.1,0.4
					c-0.5,2.1,6.6,12.7,19.9,10.1c4.3-0.8-5-8.1-7.8-11.3c2.7-0.6,4.7-1.2,4.7-1.2s65.3-53.1,77.5-63c13.9-11.3,59.2-50.2,64.7-50.2
					s-56.1,64.4-44,52.1c2.3-2.3-48,49.9-48.8,50.7l4.7-0.5c0.8,3.3,6.9,11.8,18.8,9.6c4-0.7-3.4-7.4-6.4-11l4.7-0.5
					c0,0,67.7-58,75-64.9c4.7-4.4,29.6-28.7,47-45.6c2.5-0.6,4.2-1.2,4.8-1.8c3.1-2.9,6.1-7.3,9.8-12.5c1.6-1.6,2.5-2.5,2.5-2.5
					l-0.8,0.1c3.5-4.7,7.6-10,13.2-15.6c2.4-2.4,4.7-4.7,7.1-7.1c-1.1,4.3-1.3,8.3,0.7,10c5,4.1,56.1-13.1,56.1-13.1l0.3-1.3
					c0.7,0,1.4,0,2.3-0.1l28.4-4.7c2.8-0.5,5.5-1.8,6.3-3.1L1818.6,1762.7z M1741.5,1726.8c-0.1-0.1-0.2-0.1-0.3-0.2
					c0.9-0.7,1.8-1.4,2.7-2L1741.5,1726.8z M1734.2,1733.4L1734.2,1733.4c0.1,0,0.2,0,0.2,0l-2.5,2.3
					C1732.7,1734.9,1733.5,1734.2,1734.2,1733.4z M1621.8,1803.7c0.8-1.5,5.2-3.9,10.4-6.5c-3.6,3.4-6.8,6.5-9.6,9.1
					c-0.8,0.8-2.2,2-3.9,3.4C1619.7,1807.8,1620.7,1805.7,1621.8,1803.7z"/>
				<g>
					<path fill="#153456" d="M1458.7,1945.9c0,0.1,0.1,0.2,0.1,0.3c2.3,3.6,26,21.5,22.1,23.3c-10.5,4.8-28.9-14.8-30.7-18.7
						c-0.1-0.1-0.2-0.4-0.4-0.8L1458.7,1945.9z"/>
					<path fill="#153456" d="M1514.5,1919.6c0,0.1,0.1,0.2,0.1,0.3c2.2,3.7,25.4,22.3,21.4,24c-10.7,4.5-28.5-15.7-30.2-19.6
						c-0.1-0.1-0.2-0.5-0.4-0.8L1514.5,1919.6z"/>
					<path fill="#4C3B2E" d="M1439.8,1705.9c-0.9,10.7,5,71.9,2.7,122.4c-2.6,57.7,4,115.2,5.5,120.6c8.2,4.6,16.4-2.7,16.4-2.7
						s8.5-98.7,10-116.9c1.8-21,5.5-93.2,11-93.2s12.9,119.7,11.9,96.8c-0.2-4.3,5.4,92.7,5.5,94.1l19.2-4.6
						c0,0,5.5-107.8,5.5-120.6c0-12.8-2.7-116-2.7-116L1439.8,1705.9z"/>
					<path fill="#773F0C" d="M1439.6,1562.7c0,0,20-9.1,32.2-10.6c20.3-2.5,38.7,3.4,42,8.8c3.2,5.2,4.9,49.3,6.8,96.3
						c0.9,24.3,7.9,45.8,7.9,56.6c0,9.8-92.4,26.4-92.6,21.3c-0.6-17.7,4.3-62.1,4.3-71.9
						C1440.2,1635.6,1438.2,1574.8,1439.6,1562.7z"/>
					<path fill="#F9D2C0" d="M1493.3,1560.3l-14.6-5.2c1.9-5,6-15.3,6-15.3l13.4,4.5c0,0-2.3,10.5-4.6,15.7
						C1493.4,1560.1,1493.3,1560.2,1493.3,1560.3z"/>
					<path fill="#773F0C" d="M1440.2,1564.5c-6.3,10.6-30.8,77.2-23.8,101.1c0.8,0.5,20.6,54.1,26.9,58.6c1.4,1,12.6-10.4,9.6-17.2
						c-4-9.2-10.6-28.6-16.4-48.7c-2.3-7.8,15-28.2,15.2-30.5C1453.7,1610.5,1442,1561.5,1440.2,1564.5z"/>
					<path fill="#F9D2C0" d="M1496.5,1482.5c8.8,1.8,15.1,9.5,15.1,18.5v42.1c0,7-30,11.1-37.8-7.3V1501
						C1473.8,1489.1,1484.8,1480.1,1496.5,1482.5L1496.5,1482.5z"/>
					<path fill="#C898B0" d="M1473.4,1525c-0.6-6.9-0.8-16.2,3.9-21.5c9.1-10.3,18.6,1.1,20.7-0.5c3-2.4,11-7,13.6-2
						c1,2,3.3-23.5-27.6-22.4c-5.4,0.2-15.2,4.3-18.9,9.1c-11.8,15.7,1.6,45.1,9.3,50.4C1473.8,1535.4,1473.7,1528.5,1473.4,1525z"
						/>
					<path fill="#F9D2C0" d="M1467.9,1522.1c0.8,3.7,3.4,6.3,5.8,5.8s3.7-3.9,2.9-7.6c-0.8-3.7-3.4-6.3-5.8-5.8
						C1468.4,1514.9,1467.1,1518.4,1467.9,1522.1z"/>
					<polygon fill="#E94E63" points="1502.4,1554.9 1495.2,1584.8 1470.5,1552.4 1476.9,1550.7 1493.9,1559.7 					"/>
					<polygon fill="#E94E63" points="1470.5,1551.6 1478.1,1546.4 1492.2,1558.4 1497.9,1550.7 1502.7,1554.3 1500.2,1566.2 
						1492.6,1561.3 1478.7,1568 					"/>
					<path fill="#773F0C" d="M1515.1,1565.8c5.5,9.7,22.5,73.1,22.5,73.1l26.8-20.1l9.1,19.5c0,0-32.7,32-42,24.4
						c-9.7-7.9-20.7-43.2-20.7-43.2L1515.1,1565.8z"/>
					<path fill="#D5D4EA" d="M1598.1,1627l-23.5,8.6c-2.8,1-5.9-0.8-6.4-3.8l-8.1-40.9c-0.4-2.3,1-4.6,3.2-5.3l19.9-6.8
						c2.6-0.9,5.5,0.6,6.2,3.3l11.7,39C1601.7,1623.6,1600.4,1626.1,1598.1,1627z"/>
				</g>
			</g>
		</g>
	</g>
	<g>
		<path opacity="0.78" fill="#53497F" d="M796.6,1161.4c-0.8-3.4-13.3-5.4-27.8-5.7l0.4-0.9l-3.7,0.9h-0.1c0.4-0.4,0.8-0.8,1.2-1.1
			c5.8-1,12-2.7,17.3-5.6l2.1-2c-0.9,1.4-0.7,2.7,1.9,3.1c-2-0.3,7.3-5,8.2-5.5c3.7-2.2,7.2-4.5,10.3-6.9c6-4.5,15.4-11.8,11.3-15
			c-2.1-1.7-6.3-2.6-11-2.9c-5.3-0.3-13,0-19.7,1.5c-4.9,1.1-10,1.7-13.8,4.4c-1.7,1.2-2.1,2.2-1.5,2.9c-1.7,1-3.1,2-4.3,3.1
			l-22.5,21c-1.4,1.3,1.5,2.5,6.6,2.8c-0.3,0.2-0.6,0.5-0.8,0.7c-0.4,0-0.9,0.1-1.3,0.1l-0.6-0.5l-1.3,0.7c-8.4,0.7-16,2.1-20.8,4
			c-4.9,2-10.6,5.4-16.7,9.6c-22.9,12.4-52.4,33-54.7,38.3c-2,4.5-4,9.4-2.7,12.1c-1.3,1.4-2.5,2.7-3.4,3.8
			c-0.6,0.6,1.2,1.3,4.5,1.9c-8.7,7.9-49.4,44.5-55.5,50.2c-6.8,6.4-61,66.1-61,66.1l3.3,0.5c-9.9,3.3-30,9.5-27.7,10.2
			c6.7,2,29.1-5.8,36.4-8.9l3.3,0.5c0.7-0.6,49.8-46.1,56.3-52.2c7.5-6.3,53.3-44.8,57.6-44.8c5.1,0-25.9,37.9-35.5,48.3
			c-8.3,9.1-53.1,58.3-53.1,58.3s0.6,0.6,2,1.1c-9.1,3-32,9.7-29.7,10.5c7.2,2.4,34.7-7.4,38.4-9.3c0.1-0.1,0.4-0.2,0.8-0.4
			l-0.2-0.1c0.8-0.1,1.6-0.2,2.5-0.4c4.2-2.7,41.1-31.3,69.5-60.1c19.6-19.8,49.3-47.9,63.5-61.6c12.4-3.6,43.1-16.1,58.4-27
			c12.5-12.4,17.7-36.3,13.7-43.7C796.6,1162.4,796.7,1161.8,796.6,1161.4z M794.7,1138.7L794.7,1138.7L794.7,1138.7L794.7,1138.7z"
			/>
		<g>
			<path fill="#153456" d="M578,1352.8c0,0.1-0.1,0.2-0.1,0.3c-2.2,3.4-24.1,19.9-20.5,21.6c9.7,4.5,26.8-13.7,28.4-17.3
				c0.1-0.1,0.2-0.4,0.4-0.8L578,1352.8z"/>
			<path fill="#153456" d="M526.4,1328.4c0,0.1-0.1,0.2-0.1,0.3c-2.1,3.4-23.5,20.7-19.8,22.2c9.9,4.2,26.4-14.5,27.9-18.2
				c0.1-0.1,0.2-0.4,0.3-0.8L526.4,1328.4z"/>
			<path fill="#153456" d="M590.1,1115.7c0.8,9.9,0.8,81.4,2.9,128.2c2.4,53.4-3.7,106.7-5.1,111.6c-7.6,4.2-15.2-2.5-15.2-2.5
				s-7.8-91.3-9.3-108.3c-1.7-19.5-11.2-89.8-16.3-89.8s-10.5,103.2-9.6,82.1c0.2-4-0.3,96.9-0.3,98.2l-17.8-4.2
				c0,0-9.8-110.9-9.8-122.7c0-11.8,1.8-96,1.8-96L590.1,1115.7z"/>
			<path fill="#FBEF4F" d="M585.3,995.2c-9.2-13.1-61.5-14.9-71.1-2c-13.1,17.6-11.8,94.7-9.3,118.5c0.8,7.4,87.9,13.3,88.1,9.5
				C593.8,1105.5,597.7,1012.9,585.3,995.2z"/>
			<path fill="#FFAB91" d="M582.8,1134.7c-4,5.2-9.6,7.5-12.6,5.2s-2.1-8.3,1.9-13.5s9.6-7.5,12.6-5.2
				C587.6,1123.5,586.8,1129.5,582.8,1134.7z"/>
			<path fill="#FFAB91" d="M538.1,922.6c-8.1,1.7-14,8.8-14,17.1v39c0,6.4,27.7,10.3,35-6.8v-32.2
				C559.1,928.7,549,920.4,538.1,922.6L538.1,922.6z"/>
			<path fill="#7A461D" d="M558.8,961.9c0.2-2.4,0.5-4.9,0.5-7.3c-0.1-5.7-1.8-12.5-6.6-16c-7-5.1-15.2-1.8-23.1-2.6
				c-4.2-0.4-6.7-3-6-7.2c0.8-5,5.4-6,9.1-8.1c5-2.8,12.5-3.3,18.1-2.8c4.9,0.4,10.1,2.2,14.1,5.3c7.6,6,5.9,19.5,4.8,27.9
				c-0.6,4.3-1.6,8.6-2.9,12.8c-0.3,1-4.6,9.6-2.3,10.2C558.9,972.7,558.3,966.5,558.8,961.9z"/>
			<path fill="#FFAB91" d="M564.6,959.2c-0.7,3.4-3.1,5.8-5.3,5.3s-3.4-3.6-2.7-7.1c0.7-3.4,3.1-5.8,5.3-5.3
				C564.2,952.7,565.3,955.8,564.6,959.2z"/>
			<path fill="#FFAB91" d="M533.7,990.2H548c-0.1-4.9-0.4-15.2-0.4-15.2l-13-0.3c0,0-1.3,9.9-1,15.1
				C533.7,990,533.7,990.1,533.7,990.2z"/>
			<polygon fill="#E94E63" points="541.1,1087.9 533.8,1098 528.7,1082.8 536,992 539.4,992.6 			"/>
			<path fill="#FBEF4F" d="M515.2,997.3c-12.7,15.8-25.4,72.5-21.1,84.9c4.2,12.4,9.3,26.4,16.9,26.4c7.6,0,13.5-37.3,13.5-37.3
				s-13.5-7-13.5-10.1S516.1,1001,515.2,997.3z"/>
			<path fill="#FBEF4F" d="M583.7,995c11,8.1,35.5,59.3,36.4,84.5c-4.2,23.6-27.1,51.2-33,52s-21.1-7.1-15.2-13.8
				c4.2-4.9,21.1-47.9,21.1-47.9S566.8,1005.6,583.7,995z"/>
			<polygon fill="#FFFDFD" points="554.4,993 550.7,982.9 538.1,990.1 531.3,984.6 527.3,992.5 534.1,1000.7 538,992 541.2,1001.8 
							"/>
		</g>
	</g>
	<g>
		<path opacity="0.86" fill="#53497F" d="M3628.2,1149.4c1.4-0.3,4.1-1,7.3-2c0.3,1,1.3,1.8,3,2.3c6,1.6,18.5-1.2,27.9-6.5
			c9.4-5.2,12.2-10.8,6.1-12.4c-1.2-0.3-2.8-0.4-4.5-0.4c6.6-8.1-1.5-12.1-13.6-11.4c-10.9,0.7-21.3,1.6-30.3,6.7
			c-5.4,3-6.2,6.7-3.3,6.9L3601,1148c-2,1.6,2,3.2,8.7,3.6c-0.1,0.1-0.2,0.2-0.3,0.2c-3-0.3-5.5-0.3-6.6-0.3
			c-1.1,0.1-2.3,0.7-3.5,1.6c-0.7-0.1-1.4-0.1-2.1-0.2l0.3-0.4c-0.1,0-0.2,0.2-0.5,0.4c-3.7-0.3-6.6-0.2-8.4,0.4
			c-2.4,0.8-7,2.9-8.7,4c-1.9,1.3-30.4,22.1-33.1,24c-7.2,4.9-14,18.9-15.1,21.3c-19.3,14.2-64.1,47.5-74.3,59.7
			c-0.3,0.4,2.1,0.9,6.2,1.3c-4.5,6.8-25.3,38.7-31.7,47.9c-0.9,1.3-1.6,2.2-1.8,2.4c-2.2,2-25.1,15.1-21.1,14.9
			c5.5-0.4,12.7-3.8,18.7-7.3l-1.5,2.6l3.4-0.2l9.3-10.3c0.1-0.1,0.4-0.6,0.9-1.2c5.1-6.4,29.2-36.8,37.6-47.5
			c4.9,0.4,10.3,0.7,15.7,1l-3.8,3.9c0,0-32.1,34.7-44.6,47.8c-2.6,2.7-4.4,4.5-4.9,4.9c-2.7,2-28.1,14.3-24.4,14.3
			c5.1,0,12.9-3.1,19.6-6.4l-2.3,2.7h3.2l12.1-10.3c0.3-0.3,1.4-1.3,3.2-3c11.9-11.2,53-50,53-50l4.1-3.2
			c10.1,0.3,18.1,0.3,19.8-0.2c-0.1-0.1,21.4-22.2,38.3-40c1.6-0.8,3.3-1.8,4.7-2.8c0.3-0.2,0.6-0.5,0.9-0.7l5.4-1.4
			c1.8-0.5,3.4-1.2,4.3-2.1l11.7-10.9c0.1-0.1,0.2-0.2,0.3-0.3c7-4.7,14.9-10.4,21.2-16.3c13.1-12.2,18.6-25.3,19.4-26.2l2-2.5l0,0
			l1-1.3c1.3-1.7,0.9-3.3-1.9-3.6c-3-0.3-6-0.7-8.8-1.1c0.7-0.7,1.2-1.3,0.9-1.5c-1.6-1.1-4.8-1.9-8.4-2.6c0.5-0.7,1-1.4,1.5-2
			C3623.1,1150.6,3625.6,1150.1,3628.2,1149.4z M3608.9,1178.9l-8.7,15l-13.9,10.5c1.7-3.8-2.2-6.1,0.3-8.7L3608.9,1178.9z"/>
		<g>
			<path fill="#FFFDFD" d="M3429.2,1004.7L3429.2,1004.7c-2.7-1.1-5-3.9-4.2-6.7c1.5-4.7,0.9-14.3,0.9-14.3l9.9,0.8
				c0,0,1.1,9.8,2.8,13.9C3440.5,1002.9,3433.7,1006.5,3429.2,1004.7z"/>
			<path fill="#FFD98C" d="M3447.3,1209.1l4.8-43.6l-21.3,5.8l1.6,37.7c0,0,5.1,64.5,6.6,88.8c2.9,1.4,5.9,2.7,8.8,4.1
				C3447.7,1281.1,3447.3,1209.1,3447.3,1209.1z"/>
			<path fill="#FFD98C" d="M3414.3,1193.2l5.8-43.6l-20.2,8.8l-0.4,36.9c0,0,16.3,72.3,20.1,91.3c3,0.4,5.9,1,8.9,1.7
				C3426.5,1273.8,3414.3,1193.2,3414.3,1193.2z"/>
			<path fill="#153456" d="M3448.2,996.9c-7.6-5.5-26.1-8-29-7.5c-4,0.7,0,16.2,0,16.2h29C3448.2,1005.6,3449.9,998.2,3448.2,996.9z
				"/>
			<path fill="#EF3C23" d="M3459.3,1087.8c-2.4-7.1-8.8-11.4-9.1-16.4l8.1-57.5c4.6,1.1,7.5,1.8,7.4,1.6l-1.1-7.1
				c-0.5-3.1-2.6-6-5.7-6.6c-25.2-4.6-47.9-13.1-51.9-8.9c-1.5,1.6-3.9,5.4-4.4,7.5c-0.5,2.3-6.7,41.1-7.4,44.5
				c-1.9,9.2,6.2,35,7.7,39.6c-4.1,26.5-13.2,88.3-10.4,110.8c0.5,3.6,71.6,10.8,75,7.4C3467.2,1202.4,3461.7,1095.1,3459.3,1087.8z
				"/>
			<path fill="#E94E63" d="M3468.7,1119.3l-21,13.5c-3.1,2-7.1-0.2-7.1-3.9v-20.3c0-1.6-27-116.5-25.6-117.4l30.1,112l18.7-12
				c3.1-2,7.1,0.2,7.1,3.9v20.3C3470.8,1117,3470,1118.5,3468.7,1119.3z"/>
			<path fill="#FFFDFD" d="M3464.6,1123.2c-1,6.1-4.6,10.6-8.1,10s-5.5-6-4.5-12s4.6-10.6,8.1-10
				C3463.6,1111.7,3465.6,1117.1,3464.6,1123.2z"/>
			<path fill="#EF3C23" d="M3465.7,1015.5l-0.7-4.7h-18.2l15.1,57.4l-6.2,45.5l9.2,0.8c1-2.5,9.6-25.7,9.6-50.2
				C3474.4,1041.5,3466,1017.3,3465.7,1015.5z"/>
			<path fill="#C898B0" d="M3473.9,974.2c-3.8,9.7-13.2,15.1-21,12s-11-13.4-7.2-23.1c3.8-9.7,13.2-15.1,21-12
				C3474.5,954.1,3477.7,964.5,3473.9,974.2z"/>
			<path fill="#FFD98C" d="M3418.2,943.2l-4.6,39.7c-0.7,6,24.9,12.6,33.5-2.5l2.1-17.9L3418.2,943.2z"/>
			<path fill="#C898B0" d="M3436,929.1c-10.2,1.3-19.6,3-23.1,12.4c-2.1,5.6,1,12.4,4,12.8l1-8.4c6.1,12.5,23.8,25,28.6,25.1
				c7.3,0.2-0.3,8.4-5.1,14.8c-1.7,2.3,16.7-10.1,19.4-21.2C3466.8,940.2,3450.4,927.4,3436,929.1z"/>
			<path fill="#FFD98C" d="M3450.2,976.8c-1.1,3.1-3.6,5.1-5.6,4.4s-2.8-3.8-1.7-6.9c1.1-3.1,3.6-5.1,5.6-4.4
				C3450.5,970.5,3451.2,973.6,3450.2,976.8z"/>
			<path fill="#153456" d="M3447.8,1301.9c-2.9-1.3-5.9-2.7-8.8-4.1c0.3,5,0.4,8.4,0.4,9c-0.5,3.7-12.8,26.6-9,26.6
				c5.1,0,9.6-5.7,12.7-11.9l0.6,5h3.2l1.1-19.1C3447.8,1307,3447.8,1305,3447.8,1301.9z"/>
			<path fill="#153456" d="M3428.6,1288.3c-3-0.7-6-1.3-8.9-1.7c0.5,2.5,0.8,4.1,0.8,4.5c0,3.8-8.9,28.1-5.1,27.6
				c5.1-0.7,8.6-7.1,10.9-13.6l1.3,4.9l3.2-0.5l-1.7-19.1C3428.9,1290.2,3428.8,1289.4,3428.6,1288.3z"/>
		</g>
	</g>
	<g>
		<path opacity="0.79" fill="#53497F" d="M1020.7,599.1c0.6-1.1-0.8-1.7-3.2-1.3l-17.9,2.7c-2,0.3-4,1.2-4.7,2.1l-9.1,13l0.4-1.8
			l-28.8,8.1c0,0,14.5-25.4,14.7-29.5c0.7-1,1.2-1.7,1.2-2c-0.1-0.9-2.1-1.8-5.6-2.5l0.1-0.1l-2.1-1.5l-2.2,0.9c-0.1,0-0.1,0-0.2,0
			c0.9-0.6,1.7-1.1,2.5-1.6c5.9,0,12.1-1,13.6-2.4l18.2-17c-0.1,0.8,12.7-9.5-11-9c-4.1,0.1-13.3,1.7-18.1,3.7
			c-15.7,6.4-18.3,18.2-14.8,20.4c0.1-0.2,0.3-0.4,0.5-0.7c-0.3,1.6,0.6,2.8,2.4,3.6c-0.8,0.5-1.7,1-2.6,1.4l-1.2-1l-8,2.1v0.3
			c-10,0.7-28,4.2-28,4.2c-0.5,0.4-1,0.8-1.7,1.4c-11.6,5.7-55.3,30.9-60.2,40.2c0.3,0.1-4.3,12.4-5.5,19.2
			c-4.1,3.5-7.8,6.6-9.9,8.8c-0.3,0.3,1,0.4,3.3,0.4c-9.8,10.1-24,24.5-38.7,37.3c-26.9,23.3-46.8,46.5-48.1,48.7
			c0.4,0.2,0.8,0.2,1.3,0.3l-0.3,0.1c0,0.2-0.1,0.3-0.1,0.3c-0.3,1.6,5,9.5,15,7.6c3.2-0.6-3.7-6-5.9-8.5c2-0.4,3.5-0.9,3.5-0.9
			s49-39.8,58.1-47.2c10.5-8.5,44.4-37.6,48.5-37.6s-42.1,48.3-33,39.1c1.7-1.7-36,37.4-36.6,38l3.5-0.4c0.6,2.5,5.2,8.8,14.1,7.2
			c3-0.5-2.5-5.6-4.8-8.3l3.5-0.4c0,0,50.7-43.5,56.3-48.7c3.5-3.3,22.2-21.5,35.2-34.2c1.9-0.5,3.2-0.9,3.6-1.3
			c2.4-2.2,4.5-5.5,7.4-9.4c1.2-1.2,1.9-1.8,1.9-1.8l-0.6,0.1c2.6-3.5,5.7-7.5,9.9-11.7c1.8-1.8,3.5-3.6,5.3-5.3
			c-0.8,3.2-1,6.2,0.6,7.5c3.7,3.1,42.1-9.8,42.1-9.8l0.2-1c0.5,0,1.1,0,1.7-0.1l21.3-3.5c2.1-0.3,4.2-1.3,4.7-2.3L1020.7,599.1z
			 M962.9,572.1c-0.1-0.1-0.2-0.1-0.2-0.1c0.6-0.5,1.3-1,2-1.5L962.9,572.1z M957.4,577.1L957.4,577.1c0.1,0,0.1,0,0.2,0l-1.9,1.8
			C956.2,578.3,956.8,577.7,957.4,577.1z M873.1,629.9c0.6-1.1,3.9-3,7.8-4.8c-2.7,2.6-5.1,4.9-7.2,6.8c-0.6,0.6-1.7,1.5-3,2.6
			C871.5,632.9,872.3,631.4,873.1,629.9z"/>
		<g>
			<path fill="#153456" d="M750.8,736.5c0,0.1,0.1,0.2,0.1,0.2c1.8,2.7,19.5,16.2,16.6,17.5c-7.9,3.6-21.7-11.1-23.1-14
				c0-0.1-0.2-0.3-0.3-0.6L750.8,736.5z"/>
			<path fill="#153456" d="M792.6,716.8c0,0.1,0.1,0.2,0.1,0.2c1.7,2.8,19,16.7,16.1,18c-8,3.4-21.4-11.8-22.6-14.7
				c0-0.1-0.1-0.3-0.3-0.6L792.6,716.8z"/>
			<path fill="#515CA9" d="M736.5,556.5c-0.6,8,3.8,53.9,2.1,91.8c-2,43.3,3,86.4,4.1,90.5c6.2,3.4,12.3-2.1,12.3-2.1
				s6.3-74,7.5-87.7c1.4-15.8,4.1-69.9,8.2-69.9c4.1,0,9.7,89.8,8.9,72.6c-0.1-3.2,4.1,69.5,4.1,70.6l14.4-3.4
				c0,0,4.1-80.9,4.1-90.5s-2.1-87-2.1-87L736.5,556.5z"/>
			<path fill="#153456" d="M736.4,449.1c0,0,15-6.8,24.2-8c15.2-1.9,29.1,2.5,31.5,6.6c2.4,3.9,3.7,37,5.1,72.2
				c0.7,18.2,5.9,34.3,5.9,42.5c0,7.4-69.3,19.8-69.4,16c-0.5-13.2,3.2-46.6,3.2-53.9C736.8,503.8,735.4,458.2,736.4,449.1z"/>
			<path fill="#E0B289" d="M776.7,447.3l-10.9-3.9c1.4-3.7,4.5-11.5,4.5-11.5l10,3.4c0,0-1.7,7.9-3.4,11.8
				C776.8,447.1,776.7,447.2,776.7,447.3z"/>
			<path fill="#153456" d="M736.8,450.5c-4.8,7.9-23.1,57.9-17.8,75.8c0.6,0.4,15.4,40.5,20.2,44c1,0.7,9.4-7.8,7.2-12.9
				c-3-6.9-7.9-21.4-12.3-36.6c-1.7-5.9,11.2-21.2,11.4-22.8C747,484.9,738.2,448.2,736.8,450.5z"/>
			<path fill="#E0B289" d="M779.1,388.9c6.6,1.4,11.3,7.2,11.3,13.9v31.6c0,5.2-22.5,8.3-28.4-5.5v-26.1
				C762.1,393.9,770.3,387.1,779.1,388.9L779.1,388.9z"/>
			<path fill="#C898B0" d="M761.8,420.8c-0.5-5.1-0.6-12.1,2.9-16.1c6.8-7.7,14,0.8,15.5-0.4c2.3-1.8,8.3-5.3,10.2-1.5
				c0.8,1.5,2.5-17.7-20.7-16.8c-4,0.2-11.4,3.2-14.2,6.9c-8.9,11.8,1.2,33.8,7,37.8C762,428.6,762,423.5,761.8,420.8z"/>
			<path fill="#E0B289" d="M757.6,418.6c0.6,2.8,2.5,4.7,4.3,4.3c1.8-0.4,2.8-2.9,2.2-5.7c-0.6-2.8-2.5-4.7-4.3-4.3
				C758,413.3,757,415.8,757.6,418.6z"/>
			<polygon fill="#E94E63" points="783.5,443.3 778.1,465.6 759.6,441.3 764.3,440.1 777.1,446.8 			"/>
			<polygon fill="#E94E63" points="759.6,440.7 765.3,436.9 775.8,445.8 780.1,440.1 783.8,442.8 781.8,451.7 776.1,448.1 
				765.7,453.1 			"/>
			<path fill="#153456" d="M793,451.4c4.1,7.3,16.9,54.8,16.9,54.8l20.1-15.1l6.9,14.6c0,0-24.5,24-31.5,18.3
				c-7.3-5.9-15.5-32.4-15.5-32.4L793,451.4z"/>
			<path fill="#FFFDFD" d="M855.3,497.3l-17.6,6.5c-2.1,0.8-4.5-0.6-4.8-2.8l-6.1-30.7c-0.3-1.7,0.7-3.4,2.4-4l14.9-5.1
				c2-0.7,4.1,0.5,4.7,2.5l8.8,29.3C858,494.8,857,496.6,855.3,497.3z"/>
		</g>
	</g>
	<g>
		<path opacity="0.78" fill="#53497F" d="M3208.2,416.8l-0.8,0.4c-0.1-1-1-1.9-2.7-2.6c-0.7-0.3-1.4-0.5-2.2-0.6l3.2-3
			c0.9-0.3,1.6-0.6,1.8-0.8c6.6-5,5.6-9.4-3.3-11.6c-2.8-0.7-7.8-0.4-13.1,0.4c0.6-0.4,1.1-0.8,1.5-1.2c3.7-3.4,1.5-6.2-4.9-6.2
			s-14.5,2.8-18.2,6.2c-3.7,3.4-1.5,6.2,4.9,6.2c0.2,0,0.4,0,0.7,0c-8.3,4.9-14.6,10.9-12.3,14.9c0.7,1.2,2.1,2,3.9,2.6
			c-1.4,1.1-3.4,2.5-5.3,3.7l-17.9-1c-16.7,7.7-87.8,64.3-90.2,68.1c-0.7,1,2,1.9,6.6,2.5c-4.6,3.8-7.7,6.5-7.8,6.5
			c0.3,0.4,5.4,0.5,12.6,0.3l-10.4,7.7c0,0-66.3,42.5-82.5,49.4c-2.4,3.4,0.9,10,5.5,13.6c10.8-3.8,2.6-13.2,9.4-16.7
			c19.3-9.8,79.3-44.3,79.3-44.3l17-10.4c0.9,0,1.8-0.1,2.7-0.1l-20.4,25.2c0,0-51.4,45.6-60.9,53.1c-5.4,3.8,24.4,3.6,30.1,1.5
			c3.2-4.3-18.2-1.5-15.6-4.7c6.8-8.3,60.8-49.9,60.8-49.9l28.3-26.4c4.5-0.3,7.4-0.5,7.6-0.6c1.9-1.5,3.6-3.1,5.3-4.7
			c8.1-1,14.3-2.1,15.3-3.4c2.2-2.7,10.1-11.2,19.2-21.2l2.7,0.6l40-23.6l-18.1-4.1c1.3-1.4,2.5-2.8,3.6-4.1
			c13.1-0.9,45.4-3.5,48.4-6.8C3235.6,427.8,3208.2,416.8,3208.2,416.8z M3190.2,430.7c1.6-2,2.4-3.4,2.1-3.6l-20.7-1.1
			c0.2-0.3,0.4-0.6,0.7-0.9c6.2-0.4,15.3-2.6,21.3-5c0.1,0,0.1,0.1,0.2,0.1c1.9,0.7,4.3,1,6.6,0.9l-0.2,0.1l14.8,9L3190.2,430.7z"/>
		<g>
			
				<rect x="3011.4" y="338.2" transform="matrix(0.3197 -0.9475 0.9475 0.3197 1731.2793 3114.3101)" fill="#63C0C9" width="46.2" height="26.6"/>
			<path fill="#153456" d="M2971.8,369c-1.8,10.1-4.7,66-4.9,66.3c2.9,2.9,60.6-3.4,61.1-4.2c1.9-17.7-4.7-44.9-6.5-62.1L2971.8,369
				L2971.8,369z"/>
			<path fill="#153456" d="M3021,429.4v51.8c0,0-9.4,77.3-7.3,92.7c0.8,5.9,19.2,0.7,20.6,8.7c-3.5,3.8-33.1,4.2-31.7-2.8
				c1.4-14,4-98.7,4-98.7l-8.4-59.7L3021,429.4z"/>
			<path fill="#153456" d="M3000.5,424.6l-9,29.3c0,0-23,64.1-31.9,82.2c-3.2,6.4,15.3,24,8.5,31c-8.4-6.6-18.8-18.9-20.1-25.3
				c8.8-12.8,29.5-91.8,29.5-91.8l6.6-42L3000.5,424.6z"/>
			<path fill="#746197" d="M3023.7,259.6v18.5c0,8.1-20.3,21.7-27.4,11.5v-23.3L3023.7,259.6z"/>
			<path fill="#746197" d="M3002.1,301.8L3002.1,301.8c2.3-1,4.4-3.4,3.6-5.9c-1.3-4.1-0.8-12.5-0.8-12.5l-8.7,0.7
				c0,0-0.9,8.6-2.4,12.2C2992.3,300.2,2998.2,303.4,3002.1,301.8z"/>
			<path fill="#4A392E" d="M3008.8,244.3c-7.6-2.8-20.7,2.3-23.3,9.7c-3.1,9.2-3.1,20.4,3.6,28c3.4,3.8,7.6,5.7,12.4,6.9
				c2.1,0.6,5.2,1.5,7.4,1.1c1.5-0.3,4.6-3.3,5.3-3.3c-12.8,0,10-18.1,10.3-20.8C3025.8,256.5,3020.1,248.4,3008.8,244.3z"/>
			<path fill="#746197" d="M3013.2,275.5c0.6,2.8,2.6,4.8,4.4,4.4c1.8-0.4,2.8-3,2.2-5.8s-2.6-4.8-4.4-4.4
				C3013.5,270.1,3012.6,272.7,3013.2,275.5z"/>
			<path fill="#746197" d="M3026.5,274c4.8,2.5,7.6,6.7,6.2,9.5c-1.4,2.8-6.5,3-11.3,0.5s-7.6-6.7-6.2-9.5
				C3016.7,271.8,3021.7,271.5,3026.5,274z"/>
			<path fill="#4A392E" d="M2996.4,242.8c0,6.4-5.2,11.5-11.5,11.5c-6.4,0-11.5-5.2-11.5-11.5c0-6.4,5.2-11.5,11.5-11.5
				S2996.4,236.4,2996.4,242.8z"/>
			<path fill="#FFFDF7" d="M3026.1,303.9l27.3-1.4l-24.5-16.8l3.5-7.7c0,0,39.2,20.3,39.9,28s-46.2,13.3-46.2,13.3V303.9z"/>
			<path fill="#E94E63" d="M3027.5,297l-51.8-5c-8.5,14.3-18.9,119.5-17.3,126.4c0.8,3.4,11.7,5.9,25.1,6.9c0,0,7.1-31.6,8.6-35.1
				c0.4-0.9,0.4,0.3,0.4,0.3l0.1,36.2c17.8-0.4,48.1-5.2,47.2-11C3037.8,401.6,3031.5,300.7,3027.5,297z"/>
		</g>
	</g>
</g>
</svg>
