<?xml version="1.0" encoding="utf-8"?>
<!-- Generator: Adobe Illustrator 22.0.0, SVG Export Plug-In . SVG Version: 6.00 Build 0)  -->
<svg version="1.1" id="Layer_1" xmlns="http://www.w3.org/2000/svg" xmlns:xlink="http://www.w3.org/1999/xlink" x="0px" y="0px"
	 viewBox="0 0 5200 3900" style="enable-background:new 0 0 5200 3900;" xml:space="preserve">
<style type="text/css">
	.st0{display:none;fill:#FFFFFF;}
	.st1{fill:#C1C7D0;}
	.st2{fill:#FF547F;}
	.st3{fill:#D6466B;}
	.st4{fill:#6554C0;}
	.st5{fill:#5243AA;}
	.st6{fill:#EBECF0;}
	.st7{fill:#FFB69E;}
	.st8{fill:#F68A73;}
	.st9{fill:#4F305F;}
	.st10{fill:#93D0F2;}
	.st11{fill:#262D4F;}
	.st12{fill:#1C2139;}
	.st13{fill:#594E8A;}
	.st14{fill:#0F62FE;}
	.st15{fill:#FFFFFF;}
	.st16{fill:#8F39E2;}
	.st17{fill:#542387;}
	.st18{fill:#CD75F2;}
	.st19{fill:#F47ADD;}
</style>
<rect class="st0" width="5200" height="3900"/>
<g>
	<g>
		<path class="st1" d="M2389.7,1801.9h-11.6v-77l-23.3,8.6V1723l33.1-12.4h1.8V1801.9z"/>
		<path class="st1" d="M2473.6,1711l29.7,74.2l29.7-74.2h15.5v90.9h-12v-35.4l1.1-38.2l-29.8,73.6h-9.2l-29.8-73.4l1.2,38v35.4h-12
			V1711H2473.6z"/>
		<path class="st1" d="M2621.1,1759.9h-39.4v32.2h45.8v9.8h-57.7V1711h57.1v9.9h-45.1v29.2h39.4V1759.9z"/>
		<path class="st1" d="M2706.5,1720.9h-29.2v81h-11.9v-81h-29.1v-9.9h70.3V1720.9z"/>
		<path class="st1" d="M2771.3,1759.9h-39.4v32.2h45.8v9.8h-57.7V1711h57.1v9.9h-45.1v29.2h39.4V1759.9z"/>
		<path class="st1" d="M2825.9,1765.2h-21.3v36.8h-12V1711h30.1c10.2,0,18.1,2.3,23.6,7c5.5,4.7,8.3,11.4,8.3,20.3
			c0,5.7-1.5,10.6-4.6,14.8c-3.1,4.2-7.3,7.3-12.8,9.4l21.3,38.6v0.7h-12.9L2825.9,1765.2z M2804.6,1755.4h18.4
			c3.2,0,6.1-0.4,8.5-1.3c2.4-0.9,4.5-2.1,6.1-3.6c1.6-1.5,2.8-3.3,3.7-5.4c0.8-2.1,1.2-4.3,1.2-6.6c0-2.6-0.4-5-1.2-7.1
			c-0.8-2.1-2-4-3.6-5.5c-1.6-1.5-3.7-2.7-6.2-3.6c-2.5-0.8-5.5-1.2-8.9-1.2h-18V1755.4z"/>
	</g>
</g>
<path class="st1" d="M3803,1883.6l-286-171c-5-3-11.6-1.4-14.6,3.7c-3,5.1-1.4,11.6,3.7,14.6l244,145.9l-2304,5.2l252.8-151.1
	c5.1-3,6.7-9.6,3.7-14.6c-3-5.1-9.6-6.7-14.6-3.7l-286,171c-0.7,0.4-1.3,0.9-1.8,1.4c-0.1,0.1-0.2,0.2-0.3,0.2c-0.9,0.9-1.5,1.9-2,3
	c-0.1,0.3-0.2,0.6-0.3,0.9c-0.4,1-0.6,2.1-0.6,3.2c0,0.1-0.1,0.3-0.1,0.4c0,0,0,0.1,0,0.1c0,0.1,0,0.1,0,0.2c0,1.2,0.3,2.3,0.8,3.4
	c0.1,0.3,0.3,0.6,0.4,0.9c0.4,0.9,1,1.8,1.7,2.5c0.1,0.2,0.3,0.3,0.4,0.5c0.7,0.7,1.6,1.3,2.5,1.8l286,148c1.6,0.8,3.2,1.2,4.9,1.2
	c3.9,0,7.6-2.1,9.5-5.8c2.7-5.2,0.7-11.6-4.6-14.4L1451,1903.3l2313.2-5.2l-257.4,133.2c-5.2,2.7-7.3,9.1-4.6,14.4
	c1.9,3.7,5.6,5.8,9.5,5.8c1.7,0,3.3-0.4,4.9-1.2l286-148c3.4-1.8,5.6-5.3,5.8-9.1C3808.3,1889.2,3806.4,1885.6,3803,1883.6z"/>
<g>
	<g>
		<path class="st2" d="M3793.3,1024.3c0,48-27,89.7-66.6,110.7c-3.4,1.8-6.8,3.4-10.3,4.9c-14.9,6.2-31.2,9.7-48.3,9.7
			c-0.8,0-1.6,0-2.4,0l-1.6,0c-0.5,0-1,0-1.6-0.1c-1.5-0.1-3-0.2-4.5-0.3c-0.6,0-1.3-0.1-1.9-0.2c-0.6-0.1-1.3-0.1-1.9-0.2
			c-0.5-0.1-1.1-0.1-1.6-0.2c-0.6-0.1-1.2-0.1-1.7-0.2c-5.1-0.7-10.1-1.7-15-3c-0.6-0.2-1.2-0.3-1.8-0.5c-0.5-0.1-1.1-0.3-1.6-0.5
			c-1.5-0.5-3.1-0.9-4.6-1.5c-0.6-0.2-1.2-0.4-1.8-0.6c-1.2-0.4-2.4-0.9-3.6-1.4c-0.5-0.2-1-0.4-1.5-0.6c-0.4-0.2-0.9-0.4-1.3-0.5
			c-0.7-0.3-1.3-0.6-2-0.9c-0.9-0.4-1.7-0.8-2.6-1.2c0,0-0.1,0-0.1,0c-0.8-0.4-1.6-0.8-2.4-1.2c-0.8-0.4-1.7-0.8-2.5-1.3
			c-6.6-3.5-12.9-7.5-18.8-12.1c-29.5-22.9-48.5-58.7-48.5-99c0-69.2,56.1-125.2,125.2-125.2S3793.3,955.1,3793.3,1024.3z"/>
		<g>
			<g>
				<path class="st2" d="M3694.9,854.4c0-8.8-12-15.8-26.8-15.8s-26.8,7.1-26.8,15.8c0,4.5,3.2,8.5,8.3,11.4c2.9,1.6,4.8,4.6,4.8,8
					v40.4h25.8v-39.6c0-3.5,2.1-6.6,5.3-8.2C3691.3,863.4,3694.9,859.2,3694.9,854.4z"/>
				<ellipse class="st3" cx="3668.1" cy="853.5" rx="17" ry="7.8"/>
			</g>
			<g>
				<path class="st2" d="M3641.2,1194.7c0,8.8,12,15.8,26.8,15.8s26.8-7.1,26.8-15.8c0-4.5-3.2-8.5-8.3-11.4c-2.9-1.6-4.8-4.6-4.8-8
					V1135h-25.8v39.6c0,3.5-2.1,6.6-5.3,8.2C3644.9,1185.7,3641.2,1190,3641.2,1194.7z"/>
				<ellipse class="st3" cx="3668.1" cy="1195.6" rx="17" ry="7.8"/>
			</g>
		</g>
		<g>
			<g>
				<path class="st2" d="M3838.3,1051.4c8.8,0,15.8-12,15.8-26.8c0-14.8-7.1-26.8-15.8-26.8c-4.5,0-8.5,3.2-11.4,8.3
					c-1.6,2.9-4.6,4.8-8,4.8h-40.4v25.8h39.6c3.5,0,6.6,2.1,8.2,5.3C3829.2,1047.7,3833.5,1051.4,3838.3,1051.4z"/>
				<ellipse class="st3" cx="3839.1" cy="1024.6" rx="7.8" ry="17"/>
			</g>
			<g>
				<path class="st2" d="M3497.9,997.7c-8.8,0-15.8,12-15.8,26.8c0,14.8,7.1,26.8,15.8,26.8c4.5,0,8.5-3.2,11.4-8.3
					c1.6-2.9,4.6-4.8,8-4.8h40.4v-25.8H3518c-3.5,0-6.6-2.1-8.2-5.3C3506.9,1001.4,3502.7,997.7,3497.9,997.7z"/>
				<ellipse class="st3" cx="3497.1" cy="1024.6" rx="7.8" ry="17"/>
			</g>
		</g>
		<g>
			<g>
				<path class="st2" d="M3769.4,1163.9c6.2,6.2,19.7,2.7,30.2-7.8c10.5-10.5,13.9-24,7.8-30.2c-3.2-3.2-8.3-3.8-13.9-2.2
					c-3.2,0.9-6.7,0.2-9.1-2.2l-28.6-28.6l-18.3,18.3l28,28c2.5,2.5,3.1,6.2,2,9.5C3765.6,1154.9,3766.1,1160.5,3769.4,1163.9z"/>
				<path class="st3" d="M3801,1133.4c3,3,0.1,10.9-6.5,17.6c-6.7,6.7-14.5,9.6-17.6,6.5c-3-3-0.1-10.9,6.5-17.6
					C3790.1,1133.3,3798,1130.4,3801,1133.4z"/>
			</g>
			<g>
				<path class="st2" d="M3566.7,885.2c-6.2-6.2-19.7-2.7-30.2,7.8c-10.5,10.5-13.9,24-7.8,30.2c3.2,3.2,8.3,3.8,13.9,2.2
					c3.2-0.9,6.7-0.2,9.1,2.2l28.6,28.6l18.3-18.3l-28-28c-2.5-2.5-3.1-6.2-2-9.5C3570.5,894.2,3570.1,888.6,3566.7,885.2z"/>
				<path class="st3" d="M3535.1,915.7c-3-3-0.1-10.9,6.5-17.6c6.7-6.7,14.5-9.6,17.6-6.5s0.1,10.9-6.5,17.6
					C3546,915.8,3538.1,918.7,3535.1,915.7z"/>
			</g>
		</g>
		<g>
			<g>
				<path class="st2" d="M3528.8,1125.9c-6.2,6.2-2.7,19.7,7.8,30.2s24,13.9,30.2,7.8c3.2-3.2,3.8-8.3,2.2-13.9
					c-0.9-3.2-0.2-6.7,2.2-9.1l28.6-28.6l-18.3-18.3l-28,28c-2.5,2.5-6.2,3.1-9.5,2C3537.7,1122.1,3532.1,1122.5,3528.8,1125.9z"/>
				<path class="st3" d="M3559.2,1157.5c-3,3-10.9,0.1-17.6-6.5c-6.7-6.7-9.6-14.5-6.5-17.6c3-3,10.9-0.1,17.6,6.5
					C3559.3,1146.6,3562.2,1154.5,3559.2,1157.5z"/>
			</g>
			<g>
				<path class="st2" d="M3807.4,923.2c6.2-6.2,2.7-19.7-7.8-30.2c-10.5-10.5-24-13.9-30.2-7.8c-3.2,3.2-3.8,8.3-2.2,13.9
					c0.9,3.2,0.2,6.7-2.2,9.1l-28.6,28.6l18.3,18.3l28-28c2.5-2.5,6.2-3.1,9.5-2C3798.4,927,3804,926.6,3807.4,923.2z"/>
				
					<ellipse transform="matrix(0.7071 -0.7071 0.7071 0.7071 470.8188 2943.905)" class="st3" cx="3789" cy="903.6" rx="7.8" ry="17"/>
			</g>
		</g>
		<g>
			<g>
				<path class="st2" d="M3517,1059.9c-7.3,3-9.1,15.4-4.1,27.7c5,12.4,15,20,22.3,17c3.8-1.5,6-5.6,6.7-10.8c0.4-3,2.2-5.6,5-6.7
					l33.7-13.7l-8.8-21.6l-33,13.4c-2.9,1.2-6.2,0.5-8.6-1.6C3525.8,1059.9,3521,1058.3,3517,1059.9z"/>
			</g>
			<g>
				<path class="st2" d="M3819.1,989.2c7.3-3,9.1-15.4,4.1-27.7c-5-12.4-15-20-22.3-17c-3.8,1.5-6,5.6-6.7,10.8
					c-0.4,3-2.2,5.6-5,6.7l-33.7,13.7l8.8,21.6l33-13.4c2.9-1.2,6.2-0.5,8.6,1.6C3810.3,989.2,3815.1,990.8,3819.1,989.2z"/>
			</g>
		</g>
		<g>
			<g>
				<path class="st2" d="M3536.3,942.8c-7.3-3.1-17.3,4.4-22.5,16.7s-3.5,24.7,3.8,27.8c3.7,1.6,8.2,0.3,12.4-2.9
					c2.4-1.8,5.5-2.4,8.3-1.2l33.5,14.1l9-21.4l-32.9-13.9c-2.9-1.2-4.7-4.1-4.9-7.3C3542.5,948.9,3540.2,944.4,3536.3,942.8z"/>
			</g>
			<g>
				<path class="st2" d="M3799.9,1106.3c7.3,3.1,17.3-4.4,22.5-16.7s3.5-24.7-3.8-27.8c-3.7-1.6-8.2-0.3-12.4,2.9
					c-2.4,1.8-5.5,2.4-8.3,1.2l-33.5-14.1l-9,21.4l32.9,13.9c2.9,1.2,4.7,4.1,4.9,7.3C3793.6,1100.2,3795.9,1104.7,3799.9,1106.3z"
					/>
			</g>
		</g>
		<g>
			<g>
				<path class="st2" d="M3631,873.9c-3.1-7.3-15.5-9-27.8-3.8c-12.3,5.2-19.8,15.2-16.7,22.5c1.6,3.7,5.6,6,10.9,6.6
					c3,0.3,5.6,2.1,6.8,4.9l14.1,33.5l21.4-9l-13.8-32.9c-1.2-2.9-0.5-6.2,1.5-8.6C3631.1,882.7,3632.6,877.9,3631,873.9z"/>
			</g>
			<g>
				<path class="st2" d="M3705.2,1175.2c3.1,7.3,15.5,9,27.8,3.8c12.3-5.2,19.8-15.2,16.7-22.5c-1.6-3.7-5.6-6-10.9-6.6
					c-3-0.3-5.6-2.1-6.8-4.9l-14.1-33.5l-21.4,9l13.8,32.9c1.2,2.9,0.5,6.2-1.5,8.6C3705,1166.4,3703.5,1171.2,3705.2,1175.2z"/>
			</g>
		</g>
		<g>
			<g>
				<path class="st2" d="M3748.3,891.8c3-7.3-4.6-17.3-17-22.3s-24.8-3.2-27.7,4.1c-1.5,3.8-0.2,8.2,3.1,12.3
					c1.9,2.4,2.5,5.5,1.3,8.3l-13.7,33.7l21.5,8.8l13.5-33c1.2-2.9,4-4.8,7.2-5C3742.2,898.1,3746.7,895.8,3748.3,891.8z"/>
			</g>
			<g>
				<path class="st2" d="M3587.8,1157.3c-3,7.3,4.6,17.3,17,22.3s24.8,3.2,27.7-4.1c1.5-3.8,0.2-8.2-3.1-12.3
					c-1.9-2.4-2.5-5.5-1.3-8.3l13.7-33.7l-21.5-8.8l-13.5,33c-1.2,2.9-4,4.8-7.2,5C3593.9,1151,3589.4,1153.3,3587.8,1157.3z"/>
			</g>
		</g>
		<path class="st3" d="M3767.8,1024.9c-4.3,14.9-12.9,28.2-16,43.3c-1.4,6.7-1.1,13.8-3.4,20.3c-3.8,10.9-14.5,18.3-25.7,20.8
			c-11.2,2.5-23,0.6-34.1-2.5c-6.6-1.9-13.2-4.2-20.1-4.5c-11.2-0.5-22,4.6-33.1,6c-14.9,1.9-30.6-3-41.7-13.1
			c-8.5-7.7-14.3-18.2-16.4-29.5c-2.1-11.3,2.8-21.6,1.6-32.7c-0.6-5.4-3.3-10.3-5.1-15.4c-7.5-21,1.8-45.2,15.4-61.8
			c10.1-12.4,25-21.4,41-21.9c11.1-0.4,22,3.3,33.1,3.7c14,0.6,27.7-3.9,41.6-4.6c26.8-1.2,51.3,22.2,60.9,45.8
			c6,14.8,6.7,27.7,3.1,42.8C3768.4,1022.8,3768.1,1023.8,3767.8,1024.9z"/>
		
			<ellipse transform="matrix(0.2298 -0.9732 0.9732 0.2298 1831.1982 4291.0566)" class="st2" cx="3626.6" cy="988.6" rx="25.1" ry="25.1"/>
		
			<ellipse transform="matrix(0.2298 -0.9732 0.9732 0.2298 1831.1969 4291.0557)" class="st3" cx="3626.6" cy="988.6" rx="12.6" ry="12.6"/>
		<circle class="st2" cx="3712.4" cy="1001.2" r="25.1"/>
		<circle class="st3" cx="3712.4" cy="1001.2" r="12.6"/>
		
			<ellipse transform="matrix(0.2298 -0.9732 0.9732 0.2298 1777.7084 4379.6929)" class="st2" cx="3655.8" cy="1066.7" rx="25.1" ry="25.1"/>
		
			<ellipse transform="matrix(0.2298 -0.9732 0.9732 0.2298 1777.7072 4379.6919)" class="st3" cx="3655.8" cy="1066.7" rx="12.6" ry="12.6"/>
	</g>
	<g>
		<path class="st2" d="M3411.2,704c-16,15.4-38.6,19.8-58.4,13.4c-1.7-0.5-3.3-1.2-5-1.9c-6.9-3-13.3-7.3-18.8-13
			c-0.3-0.3-0.5-0.5-0.8-0.8l-0.5-0.5c-0.2-0.2-0.3-0.4-0.5-0.5c-0.5-0.5-0.9-1.1-1.3-1.6c-0.2-0.2-0.4-0.5-0.6-0.7
			c-0.2-0.2-0.4-0.5-0.5-0.7c-0.2-0.2-0.3-0.4-0.4-0.6c-0.2-0.2-0.3-0.4-0.5-0.6c-1.4-1.9-2.7-3.9-3.8-6c-0.1-0.3-0.3-0.5-0.4-0.8
			c-0.1-0.2-0.2-0.5-0.4-0.7c-0.3-0.7-0.7-1.3-1-2c-0.1-0.3-0.3-0.5-0.4-0.8c-0.3-0.5-0.5-1.1-0.7-1.7c-0.1-0.2-0.2-0.5-0.3-0.7
			c-0.1-0.2-0.2-0.4-0.2-0.6c-0.1-0.3-0.2-0.6-0.4-0.9c-0.2-0.4-0.3-0.8-0.4-1.2c0,0,0,0,0-0.1c-0.1-0.4-0.3-0.8-0.4-1.2
			c-0.1-0.4-0.3-0.8-0.4-1.2c-1-3.3-1.6-6.7-2-10.2c-1.8-17.2,4-35.1,17.4-48c23.1-22.3,59.9-21.6,82.1,1.5S3434.3,681.7,3411.2,704
			z"/>
		<path class="st3" d="M3401,692.8c-0.1,0.1-0.2,0.2-0.4,0.2c-7.8,4.9-17.8,3.5-26.9,4c-7.7,0.4-15.5,2.3-23,0.8
			c-13.7-2.8-23.4-18-20.4-31.6c1.1-4.9,3.5-9.4,4.2-14.4c0.8-5-0.1-10.1,0.8-15.1c2.6-13.5,17.8-19.1,29.5-21.5
			c4.7-1,9.5-1.8,14.2-1.2c4.7,0.6,9.5,2.7,12.3,6.5c3.2,4.3,3.7,10.2,6.9,14.5c2.8,3.8,7.4,5.8,10.8,9c6.5,6,8.5,16,6.6,24.7
			C3413.9,676.6,3408.1,688.1,3401,692.8z"/>
		<g>
			<g>
				<path class="st2" d="M3436.3,616.4c2.9-2.8,1.4-9.1-3.3-14.1c-4.8-4.9-11-6.7-13.9-3.9c-1.5,1.4-1.8,3.8-1.1,6.4
					c0.4,1.5,0,3.1-1.1,4.2l-13.5,13l8.3,8.6l13.2-12.7c1.2-1.1,2.9-1.4,4.4-0.9C3432.1,618.1,3434.7,618,3436.3,616.4z"/>
				<path class="st3" d="M3422.4,601.5c1.4-1.4,5.1,0,8.1,3.2c3,3.1,4.3,6.8,2.9,8.2c-1.4,1.4-5.1,0-8.1-3.2
					C3422.3,606.6,3421,602.9,3422.4,601.5z"/>
			</g>
			<g>
				<path class="st2" d="M3305.3,708c-2.9,2.8-1.4,9.1,3.3,14.1c4.8,4.9,11,6.7,13.9,3.9c1.5-1.4,1.8-3.8,1.1-6.4
					c-0.4-1.5,0-3.1,1.1-4.2l13.5-13l-8.3-8.6l-13.2,12.7c-1.2,1.1-2.9,1.4-4.4,0.9C3309.5,706.3,3306.9,706.5,3305.3,708z"/>
				<path class="st3" d="M3319.2,722.9c-1.4,1.4-5.1,0-8.1-3.2c-3-3.1-4.3-6.8-2.9-8.2c1.4-1.4,5.1,0,8.1,3.2
					C3319.3,717.9,3320.6,721.6,3319.2,722.9z"/>
			</g>
		</g>
		<g>
			<g>
				<path class="st2" d="M3416.6,727.7c2.8,2.9,9.1,1.4,14.1-3.3c4.9-4.8,6.7-11,3.9-13.9c-1.4-1.5-3.8-1.8-6.4-1.1
					c-1.5,0.4-3.1,0-4.2-1.1l-13-13.5l-8.6,8.3l12.7,13.2c1.1,1.2,1.4,2.9,0.9,4.4C3414.9,723.5,3415.1,726.1,3416.6,727.7z"/>
				<path class="st3" d="M3431.5,713.9c1.4,1.4,0,5.1-3.2,8.1c-3.1,3-6.8,4.3-8.2,2.9c-1.4-1.4,0-5.1,3.2-8.1
					C3426.5,713.7,3430.1,712.4,3431.5,713.9z"/>
			</g>
			<g>
				<path class="st2" d="M3325,596.8c-2.8-2.9-9.1-1.4-14.1,3.3c-4.9,4.8-6.7,11-3.9,13.9c1.4,1.5,3.8,1.8,6.4,1.1
					c1.5-0.4,3.1,0,4.2,1.1l13,13.5l8.6-8.3l-12.7-13.2c-1.1-1.2-1.4-2.9-0.9-4.4C3326.7,601,3326.6,598.4,3325,596.8z"/>
				<path class="st3" d="M3310.1,610.6c-1.4-1.4,0-5.1,3.2-8.1c3.1-3,6.8-4.3,8.2-2.9c1.4,1.4,0,5.1-3.2,8.1
					C3315.2,610.8,3311.5,612,3310.1,610.6z"/>
			</g>
		</g>
		<g>
			<g>
				<path class="st2" d="M3356.9,740.9c-0.1,4.1,5.4,7.5,12.3,7.6c6.9,0.1,12.5-3.1,12.6-7.1c0-2.1-1.4-4-3.8-5.4
					c-1.3-0.8-2.2-2.2-2.2-3.7l0.3-18.7l-12-0.2l-0.3,18.4c0,1.6-1.1,3-2.5,3.8C3358.7,736.7,3356.9,738.7,3356.9,740.9z"/>
				<path class="st3" d="M3377.2,741.7c0,2-3.6,3.6-8,3.5c-4.4-0.1-7.9-1.8-7.8-3.8c0-2,3.6-3.6,8-3.5
					C3373.8,738,3377.3,739.7,3377.2,741.7z"/>
			</g>
			<g>
				<path class="st2" d="M3384.7,583.6c0.1-4.1-5.4-7.5-12.3-7.6c-6.9-0.1-12.5,3.1-12.6,7.1c0,2.1,1.4,4,3.8,5.4
					c1.3,0.8,2.2,2.2,2.2,3.7l-0.3,18.7l12,0.2l0.3-18.4c0-1.6,1.1-3,2.5-3.8C3383,587.7,3384.7,585.8,3384.7,583.6z"/>
				<path class="st3" d="M3364.4,582.8c0-2,3.6-3.6,8-3.5c4.4,0.1,7.9,1.8,7.8,3.8c0,2-3.6,3.6-8,3.5
					C3367.9,586.5,3364.4,584.8,3364.4,582.8z"/>
			</g>
		</g>
		<g>
			<g>
				<path class="st2" d="M3292.1,648.3c-4.1-0.1-7.5,5.4-7.6,12.3c-0.1,6.9,3.1,12.5,7.1,12.6c2.1,0,4-1.4,5.4-3.8
					c0.8-1.3,2.2-2.2,3.7-2.2l18.7,0.3l0.2-12l-18.4-0.3c-1.6,0-3-1.1-3.8-2.5C3296.3,650.1,3294.4,648.4,3292.1,648.3z"/>
				
					<ellipse transform="matrix(1.863941e-02 -0.9998 0.9998 1.863941e-02 2569.5354 3939.3877)" class="st3" cx="3291.5" cy="660.8" rx="7.9" ry="3.6"/>
			</g>
			<g>
				<path class="st2" d="M3449.5,676.1c4.1,0.1,7.5-5.4,7.6-12.3c0.1-6.9-3.1-12.5-7.1-12.6c-2.1,0-4,1.4-5.4,3.8
					c-0.8,1.3-2.2,2.2-3.7,2.2l-18.7-0.3l-0.2,12l18.4,0.3c1.6,0,3,1.1,3.8,2.5C3445.3,674.4,3447.3,676.1,3449.5,676.1z"/>
				
					<ellipse transform="matrix(1.863918e-02 -0.9998 0.9998 1.863918e-02 2722.2073 4100.8452)" class="st3" cx="3450.1" cy="663.7" rx="7.9" ry="3.6"/>
			</g>
		</g>
		<path class="st2" d="M3361.4,628.4c4.6-4.5,12-4.3,16.5,0.3c4.5,4.6,4.3,12-0.3,16.5c-4.6,4.5-12,4.3-16.5-0.3
			S3356.7,632.9,3361.4,628.4z"/>
		<path class="st3" d="M3365.4,632.6c2.3-2.2,6-2.2,8.2,0.2c2.2,2.3,2.2,6-0.2,8.2c-2.3,2.2-6,2.2-8.2-0.2
			C3363,638.5,3363.1,634.9,3365.4,632.6z"/>
		<path class="st2" d="M3384.8,661.1c4.6-4.5,12-4.3,16.5,0.3c4.5,4.6,4.3,12-0.3,16.5c-4.6,4.5-12,4.3-16.5-0.3
			S3380.2,665.6,3384.8,661.1z"/>
		<path class="st3" d="M3388.8,665.3c2.3-2.2,6-2.2,8.2,0.2s2.2,6-0.2,8.2c-2.3,2.2-6,2.2-8.2-0.2
			C3386.5,671.2,3386.5,667.6,3388.8,665.3z"/>
		
			<ellipse transform="matrix(0.7587 -0.6514 0.6514 0.7587 371.3253 2346.0178)" class="st2" cx="3352.8" cy="671.7" rx="11.7" ry="11.7"/>
		<path class="st3" d="M3348.8,667.5c2.3-2.2,6-2.2,8.2,0.2c2.2,2.3,2.2,6-0.2,8.2c-2.3,2.2-6,2.2-8.2-0.2
			S3346.4,669.8,3348.8,667.5z"/>
	</g>
	<g>
		<path class="st4" d="M3108.3,852.3c-4.3,9.7-13.5,15.8-23.4,16.5c-0.8,0.1-1.7,0.1-2.5,0.1c-3.6-0.1-7.2-0.8-10.7-2.3
			c-0.2-0.1-0.3-0.1-0.5-0.2l-0.3-0.1c-0.1-0.1-0.2-0.1-0.3-0.2c-0.3-0.1-0.6-0.3-0.9-0.5c-0.1-0.1-0.2-0.1-0.4-0.2
			c-0.1-0.1-0.2-0.1-0.4-0.2c-0.1-0.1-0.2-0.1-0.3-0.2c-0.1-0.1-0.2-0.1-0.3-0.2c-1-0.6-1.9-1.2-2.8-1.9c-0.1-0.1-0.2-0.2-0.3-0.3
			c-0.1-0.1-0.2-0.2-0.3-0.2c-0.3-0.2-0.5-0.5-0.8-0.7c-0.1-0.1-0.2-0.2-0.3-0.3c-0.2-0.2-0.4-0.4-0.6-0.6c-0.1-0.1-0.2-0.2-0.3-0.3
			c-0.1-0.1-0.1-0.2-0.2-0.2c-0.1-0.1-0.2-0.2-0.3-0.4c-0.1-0.2-0.3-0.3-0.4-0.5c-0.1-0.2-0.3-0.3-0.4-0.5c-0.1-0.2-0.3-0.3-0.4-0.5
			c-1-1.3-2-2.7-2.7-4.1c-4-7.3-4.6-16.2-1-24.4c6.2-14.1,22.6-20.4,36.6-14.3C3108.1,821.8,3114.5,838.2,3108.3,852.3z"/>
		<path class="st5" d="M3103.4,850.3c-0.9,1.2-1.9,2.2-3.1,3c-3.7,2.4-8.4,2.2-12.4,3.8c-2.2,0.9-4.2,2.2-6.4,3
			c-4.3,1.6-9.4,0.8-13-1.9c-2.6-1.9-4.5-4.8-5.3-7.9c-0.9-3.7,1.1-5.6,1.7-9.1c0.4-2.2-0.6-4.5-0.7-6.7c-0.3-5.5,2.7-10.5,7.4-13.3
			c5.8-3.5,15.5-5,20.9,0.2c1.9,1.8,2.9,4.4,4.7,6.3c2.2,2.3,5.5,3.5,7.5,6c2.5,3.1,2.4,7.7,1.2,11.5
			C3105.3,847.1,3104.5,848.8,3103.4,850.3z"/>
		<g>
			<g>
				<path class="st4" d="M3103.5,809c0.8-1.8-1-4.3-4-5.6c-3-1.3-6.1-0.9-6.9,0.8c-0.4,0.9-0.1,2,0.7,3.1c0.4,0.6,0.6,1.4,0.3,2
					l-3.6,8.2l5.3,2.3l3.5-8c0.3-0.7,1-1.1,1.8-1.2C3101.9,810.5,3103,809.9,3103.5,809z"/>
				<path class="st5" d="M3094.6,804.9c0.4-0.9,2.2-0.9,4.2-0.1c1.9,0.8,3.2,2.2,2.8,3.1c-0.4,0.9-2.2,0.9-4.2,0.1
					C3095.5,807.2,3094.2,805.8,3094.6,804.9z"/>
			</g>
			<g>
				<path class="st4" d="M3062.2,873.3c-0.8,1.8,1,4.3,4,5.6c3,1.3,6.1,0.9,6.9-0.8c0.4-0.9,0.1-2-0.7-3.1c-0.4-0.6-0.6-1.4-0.3-2
					l3.6-8.2l-5.3-2.3l-3.5,8c-0.3,0.7-1,1.1-1.8,1.2C3063.8,871.8,3062.7,872.4,3062.2,873.3z"/>
				<path class="st5" d="M3071.1,877.4c-0.4,0.9-2.2,0.9-4.2,0.1c-1.9-0.8-3.2-2.2-2.8-3.1c0.4-0.9,2.2-0.9,4.2-0.1
					C3070.2,875.2,3071.4,876.5,3071.1,877.4z"/>
			</g>
		</g>
		<g>
			<g>
				<path class="st4" d="M3115,861.8c1.8,0.8,4.3-1,5.6-4c1.3-3,0.9-6.1-0.8-6.9c-0.9-0.4-2-0.1-3.1,0.7c-0.6,0.4-1.4,0.6-2,0.3
					l-8.2-3.6l-2.3,5.3l8,3.5c0.7,0.3,1.1,1,1.2,1.8C3113.5,860.2,3114.1,861.4,3115,861.8z"/>
				<path class="st5" d="M3119.1,852.9c0.9,0.4,0.9,2.2,0.1,4.2c-0.8,1.9-2.2,3.2-3.1,2.8c-0.9-0.4-0.9-2.2-0.1-4.2
					C3116.8,853.8,3118.2,852.6,3119.1,852.9z"/>
			</g>
			<g>
				<path class="st4" d="M3050.7,820.5c-1.8-0.8-4.3,1-5.6,4c-1.3,3-0.9,6.1,0.8,6.9c0.9,0.4,2,0.1,3.1-0.7c0.6-0.4,1.4-0.6,2-0.3
					l8.2,3.6l2.3-5.3l-8-3.5c-0.7-0.3-1.1-1-1.2-1.8C3052.2,822.1,3051.6,821,3050.7,820.5z"/>
				<path class="st5" d="M3046.6,829.4c-0.9-0.4-0.9-2.2-0.1-4.2s2.2-3.2,3.1-2.8c0.9,0.4,0.9,2.2,0.1,4.2
					C3048.8,828.5,3047.5,829.8,3046.6,829.4z"/>
			</g>
		</g>
		<g>
			<g>
				<path class="st4" d="M3091,878.5c0.7,1.8,3.8,2.3,6.8,1.1c3.1-1.2,5-3.6,4.3-5.4c-0.4-0.9-1.4-1.5-2.6-1.7
					c-0.7-0.1-1.4-0.6-1.6-1.3l-3.3-8.3l-5.3,2.1l3.2,8.2c0.3,0.7,0.1,1.5-0.4,2.1C3091,876.3,3090.6,877.5,3091,878.5z"/>
				<path class="st5" d="M3100.2,875.1c0.3,0.9-0.9,2.2-2.9,3c-1.9,0.8-3.8,0.7-4.2-0.2s0.9-2.2,2.9-3
					C3097.9,874.1,3099.8,874.2,3100.2,875.1z"/>
			</g>
			<g>
				<path class="st4" d="M3074.7,803.8c-0.7-1.8-3.8-2.3-6.8-1.1c-3.1,1.2-5,3.6-4.3,5.4c0.4,0.9,1.4,1.5,2.6,1.7
					c0.7,0.1,1.4,0.6,1.6,1.3l3.3,8.3l5.3-2.1l-3.2-8.2c-0.3-0.7-0.1-1.5,0.4-2.1C3074.6,806,3075.1,804.8,3074.7,803.8z"/>
				<path class="st5" d="M3065.5,807.2c-0.3-0.9,0.9-2.2,2.9-3c1.9-0.8,3.8-0.7,4.2,0.2s-0.9,2.2-2.9,3
					C3067.7,808.2,3065.9,808.1,3065.5,807.2z"/>
			</g>
		</g>
		<g>
			<g>
				<path class="st4" d="M3045.5,849.3c-1.8,0.7-2.3,3.8-1.1,6.8s3.6,5,5.4,4.3c0.9-0.4,1.5-1.4,1.7-2.6c0.1-0.7,0.6-1.4,1.3-1.6
					l8.3-3.3l-2.1-5.3l-8.2,3.2c-0.7,0.3-1.5,0.1-2.1-0.4C3047.7,849.4,3046.5,849,3045.5,849.3z"/>
				<path class="st5" d="M3048.9,858.5c-0.9,0.3-2.2-0.9-3-2.9c-0.8-1.9-0.7-3.8,0.2-4.2s2.2,0.9,3,2.9
					C3049.9,856.3,3049.8,858.1,3048.9,858.5z"/>
			</g>
			<g>
				<path class="st4" d="M3120.2,833c1.8-0.7,2.3-3.8,1.1-6.8c-1.2-3.1-3.6-5-5.4-4.3c-0.9,0.4-1.5,1.4-1.7,2.6
					c-0.1,0.7-0.6,1.4-1.3,1.6l-8.3,3.3l2.1,5.3l8.2-3.2c0.7-0.3,1.5-0.1,2.1,0.4C3118,833,3119.2,833.4,3120.2,833z"/>
				<path class="st5" d="M3116.8,823.9c0.9-0.3,2.2,0.9,3,2.9c0.8,1.9,0.7,3.8-0.2,4.2c-0.9,0.3-2.2-0.9-3-2.9
					C3115.8,826.1,3115.9,824.2,3116.8,823.9z"/>
			</g>
		</g>
		<path class="st4" d="M3072.5,827.9c1.2-2.8,4.5-4.1,7.3-2.9c2.8,1.2,4.1,4.5,2.9,7.3c-1.2,2.8-4.5,4.1-7.3,2.9
			C3072.6,834,3071.3,830.7,3072.5,827.9z"/>
		<path class="st5" d="M3075.1,829c0.6-1.4,2.3-2.1,3.7-1.4c1.4,0.6,2.1,2.3,1.4,3.7c-0.6,1.4-2.3,2.1-3.7,1.4
			C3075.1,832.1,3074.5,830.5,3075.1,829z"/>
		<path class="st4" d="M3088.8,838.1c1.2-2.8,4.5-4.1,7.3-2.9c2.8,1.2,4.1,4.5,2.9,7.3c-1.2,2.8-4.5,4.1-7.3,2.9
			C3088.9,844.2,3087.6,840.9,3088.8,838.1z"/>
		<path class="st5" d="M3091.4,839.2c0.6-1.4,2.3-2.1,3.7-1.4c1.4,0.6,2.1,2.3,1.4,3.7s-2.3,2.1-3.7,1.4
			C3091.4,842.3,3090.8,840.7,3091.4,839.2z"/>
		<path class="st4" d="M3071.5,846.4c1.2-2.8,4.5-4.1,7.3-2.9c2.8,1.2,4.1,4.5,2.9,7.3c-1.2,2.8-4.5,4.1-7.3,2.9
			C3071.5,852.5,3070.3,849.2,3071.5,846.4z"/>
		<path class="st5" d="M3074,847.5c0.6-1.4,2.3-2.1,3.7-1.4c1.4,0.6,2.1,2.3,1.4,3.7c-0.6,1.4-2.3,2.1-3.7,1.4
			C3074.1,850.6,3073.4,848.9,3074,847.5z"/>
	</g>
	<g>
		<path class="st4" d="M1608.6,1033.6c-26.3-40.1-26.7-89.8-5.1-129.1c1.8-3.3,3.8-6.6,6-9.8c9-13.4,20.8-25.2,35.1-34.6
			c0.7-0.4,1.4-0.9,2-1.3l1.3-0.8c0.4-0.3,0.9-0.5,1.3-0.8c1.3-0.8,2.6-1.5,3.9-2.2c0.6-0.3,1.1-0.6,1.7-0.9
			c0.6-0.3,1.1-0.6,1.7-0.9c0.5-0.2,1-0.5,1.4-0.7c0.5-0.3,1-0.5,1.6-0.8c4.6-2.2,9.4-4.1,14.2-5.7c0.6-0.2,1.2-0.4,1.8-0.6
			c0.5-0.2,1.1-0.3,1.6-0.5c1.5-0.5,3.1-0.9,4.6-1.3c0.6-0.2,1.2-0.3,1.8-0.5c1.3-0.3,2.5-0.6,3.8-0.9c0.5-0.1,1.1-0.2,1.6-0.3
			c0.5-0.1,0.9-0.2,1.4-0.3c0.7-0.1,1.4-0.3,2.2-0.4c0.9-0.2,1.9-0.3,2.8-0.4c0,0,0.1,0,0.1,0c0.9-0.1,1.8-0.2,2.7-0.3
			c0.9-0.1,1.9-0.2,2.8-0.3c7.4-0.7,14.9-0.8,22.3-0.2c37.2,2.9,72.7,22.5,94.8,56.1c38,57.8,21.9,135.5-36,173.4
			S1646.6,1091.4,1608.6,1033.6z"/>
		<g>
			<g>
				<path class="st4" d="M1784.2,1121.6c4.8,7.3,18.7,6.7,31.1-1.5c12.4-8.1,18.5-20.7,13.7-28c-2.5-3.8-7.4-5.4-13.2-5
					c-3.3,0.2-6.6-1.2-8.4-4l-22.2-33.8l-21.6,14.2l21.7,33.1c1.9,3,1.8,6.7,0.1,9.8C1782.2,1112,1781.5,1117.6,1784.2,1121.6z"/>
				
					<ellipse transform="matrix(0.8359 -0.5489 0.5489 0.8359 -311.3875 1173.5525)" class="st5" cx="1807" cy="1107.6" rx="17" ry="7.8"/>
			</g>
			<g>
				<path class="st4" d="M1642.2,807.6c-4.8-7.3-18.7-6.7-31.1,1.5c-12.4,8.1-18.5,20.7-13.7,28c2.5,3.8,7.4,5.4,13.2,5
					c3.3-0.2,6.6,1.2,8.4,4l22.2,33.8l21.6-14.2l-21.7-33.1c-1.9-3-1.8-6.7-0.1-9.8C1644.1,817.2,1644.8,811.6,1642.2,807.6z"/>
				<path class="st5" d="M1605.1,831c-2.4-3.6,2.1-10.7,10-15.9c7.9-5.2,16.2-6.4,18.5-2.8c2.4,3.6-2.1,10.7-10,15.9
					C1615.7,833.3,1607.4,834.6,1605.1,831z"/>
			</g>
		</g>
		<g>
			<g>
				<path class="st4" d="M1556.2,1035.6c-7.3,4.8-6.7,18.7,1.5,31.1c8.1,12.4,20.7,18.5,28,13.7c3.8-2.5,5.4-7.4,5-13.2
					c-0.2-3.3,1.2-6.6,4-8.4l33.8-22.2l-14.2-21.6l-33.1,21.7c-3,1.9-6.7,1.8-9.8,0.1C1565.8,1033.7,1560.2,1033,1556.2,1035.6z"/>
				
					<ellipse transform="matrix(0.8359 -0.5489 0.5489 0.8359 -323.3018 1035.5233)" class="st5" cx="1570.2" cy="1058.5" rx="7.8" ry="17"/>
			</g>
			<g>
				<path class="st4" d="M1870.2,893.6c7.3-4.8,6.7-18.7-1.5-31.1c-8.1-12.4-20.7-18.5-28-13.7c-3.8,2.5-5.4,7.4-5,13.2
					c0.2,3.3-1.2,6.6-4,8.4l-33.8,22.2l14.2,21.6l33.1-21.7c3-1.9,6.7-1.8,9.8-0.1C1860.6,895.6,1866.2,896.3,1870.2,893.6z"/>
				<path class="st5" d="M1846.8,856.5c3.6-2.4,10.7,2.1,15.9,10c5.2,7.9,6.4,16.2,2.8,18.5c-3.6,2.4-10.7-2.1-15.9-10
					C1844.5,867.2,1843.2,858.9,1846.8,856.5z"/>
			</g>
		</g>
		<g>
			<g>
				<path class="st4" d="M1552,903.8c-8.6-1.8-18,8.5-21,23c-3,14.5,1.5,27.7,10.1,29.5c4.4,0.9,9-1.4,12.9-5.8
					c2.2-2.5,5.5-3.8,8.8-3.1l39.5,8.2l5.2-25.3l-38.8-8c-3.5-0.7-6-3.4-6.9-6.8C1560.1,909.2,1556.7,904.8,1552,903.8z"/>
				
					<ellipse transform="matrix(0.203 -0.9792 0.9792 0.203 321.4377 2254.7073)" class="st5" cx="1545.7" cy="929.9" rx="17" ry="7.8"/>
			</g>
			<g>
				<path class="st4" d="M1874.4,1025.4c8.6,1.8,18-8.5,21-23c3-14.5-1.5-27.7-10.1-29.5c-4.4-0.9-9,1.4-12.9,5.8
					c-2.2,2.5-5.5,3.8-8.8,3.1l-39.5-8.2l-5.2,25.3l38.8,8c3.5,0.7,6,3.4,6.9,6.8C1866.3,1020,1869.7,1024.4,1874.4,1025.4z"/>
				<path class="st5" d="M1884.1,982.6c4.2,0.9,6.1,9.1,4.2,18.3c-1.9,9.2-6.9,16-11.1,15.1c-4.2-0.9-6.1-9.1-4.2-18.3
					C1874.9,988.5,1879.9,981.8,1884.1,982.6z"/>
			</g>
		</g>
		<g>
			<g>
				<path class="st4" d="M1774,803.4c1.8-8.6-8.5-18-23-21c-14.5-3-27.7,1.5-29.5,10.1c-0.9,4.4,1.4,9,5.8,12.9
					c2.5,2.2,3.8,5.5,3.1,8.8l-8.2,39.5l25.3,5.2l8-38.8c0.7-3.5,3.4-6,6.8-6.9C1768.6,811.5,1773,808.1,1774,803.4z"/>
				<path class="st5" d="M1731.2,793.7c0.9-4.2,9.1-6.1,18.3-4.2c9.2,1.9,16,6.9,15.1,11.1c-0.9,4.2-9.1,6.1-18.3,4.2
					C1737.1,802.9,1730.3,797.9,1731.2,793.7z"/>
			</g>
			<g>
				<path class="st4" d="M1652.4,1125.8c-1.8,8.6,8.5,18,23,21c14.5,3,27.7-1.5,29.5-10.1c0.9-4.4-1.4-9-5.8-12.9
					c-2.5-2.2-3.8-5.5-3.1-8.8l8.2-39.5l-25.3-5.2l-8,38.8c-0.7,3.5-3.4,6-6.8,6.9C1657.8,1117.7,1653.4,1121.1,1652.4,1125.8z"/>
				
					<ellipse transform="matrix(0.203 -0.9792 0.9792 0.203 229.2768 2545.8115)" class="st5" cx="1678.5" cy="1132.1" rx="7.8" ry="17"/>
			</g>
		</g>
		<g>
			<g>
				<path class="st4" d="M1820,852.2c4.5-6.5-0.8-17.9-11.8-25.5c-11-7.6-23.5-8.4-28-2c-2.3,3.3-2,8,0.3,12.7
					c1.3,2.7,1.2,5.9-0.5,8.4l-20.6,29.9l19.2,13.2l20.2-29.4c1.8-2.6,5-3.8,8.1-3.4C1812.7,857,1817.6,855.7,1820,852.2z"/>
			</g>
			<g>
				<path class="st4" d="M1606.4,1077.1c-4.5,6.5,0.8,17.9,11.8,25.5c11,7.6,23.5,8.4,28,2c2.3-3.3,2-8-0.3-12.7
					c-1.3-2.7-1.2-5.9,0.5-8.4l20.6-29.9l-19.2-13.2l-20.2,29.4c-1.8,2.6-5,3.8-8.1,3.4C1613.7,1072.2,1608.8,1073.5,1606.4,1077.1z
					"/>
			</g>
		</g>
		<g>
			<g>
				<path class="st4" d="M1868.2,960.6c7.7-1.4,12.1-13.2,9.7-26.3c-2.4-13.1-10.7-22.6-18.4-21.2c-4,0.7-7,4.2-8.7,9.2
					c-1,2.9-3.3,5-6.3,5.6l-35.8,6.6l4.2,22.9l35.1-6.5c3.1-0.6,6.2,0.8,8.1,3.4C1859.6,958.9,1864,961.4,1868.2,960.6z"/>
			</g>
			<g>
				<path class="st4" d="M1558.1,968.6c-7.7,1.4-12.1,13.2-9.7,26.3c2.4,13.1,10.7,22.6,18.4,21.2c4-0.7,7-4.2,8.7-9.2
					c1-2.9,3.3-5,6.3-5.6l35.8-6.6l-4.2-22.9l-35.1,6.5c-3.1,0.6-6.2-0.8-8.1-3.4C1566.7,970.3,1562.4,967.8,1558.1,968.6z"/>
			</g>
		</g>
		<g>
			<g>
				<g>
					<g>
						<path class="st4" d="M1826.9,1070.1c6.5,4.4,17.9-1,25.3-12.1c7.4-11.1,8.2-23.6,1.6-28c-3.4-2.3-8-1.9-12.7,0.5
							c-2.7,1.4-5.9,1.3-8.4-0.4l-30.2-20.3l-13,19.3l29.6,19.9c2.6,1.8,3.9,4.9,3.5,8.1C1821.9,1062.9,1823.3,1067.7,1826.9,1070.1
							z"/>
					</g>
				</g>
				<g>
					<g>
						<path class="st4" d="M1599.5,859.1c-6.5-4.4-17.9,1-25.3,12.1c-7.4,11.1-8.2,23.6-1.6,28c3.4,2.3,8,1.9,12.7-0.5
							c2.7-1.4,5.9-1.3,8.4,0.4l30.2,20.3l13-19.3l-29.6-19.9c-2.6-1.8-3.9-4.9-3.5-8.1C1604.4,866.3,1603.1,861.5,1599.5,859.1z"/>
					</g>
				</g>
			</g>
		</g>
		<g>
			<g>
				<g>
					<g>
						<path class="st4" d="M1719,1119.6c1.5,7.7,13.4,11.9,26.4,9.4s22.5-10.9,21-18.6c-0.8-4-4.3-7-9.3-8.6
							c-2.9-0.9-5.1-3.2-5.7-6.2l-7-35.7l-22.8,4.5l6.9,35c0.6,3.1-0.8,6.2-3.3,8.2C1720.6,1111,1718.1,1115.4,1719,1119.6z"/>
					</g>
				</g>
				<g>
					<g>
						<path class="st4" d="M1707.4,809.6c-1.5-7.7-13.4-11.9-26.4-9.4c-13.1,2.6-22.5,10.9-21,18.6c0.8,4,4.3,7,9.3,8.6
							c2.9,0.9,5.1,3.2,5.7,6.2l7,35.7l22.8-4.5l-6.9-35c-0.6-3.1,0.8-6.2,3.3-8.2C1705.8,818.2,1708.3,813.8,1707.4,809.6z"/>
					</g>
				</g>
			</g>
		</g>
		<path class="st5" d="M1629.6,1019.1c-4.6-14.8-4.7-30.7-10.4-45c-2.5-6.4-6.6-12.2-8.3-18.8c-2.7-11.2,2.1-23.2,10.1-31.5
			c8-8.2,18.9-13.2,29.9-16.7c6.6-2.1,13.4-3.8,19.3-7.3c9.6-5.8,15.8-15.9,24.4-23.2c11.4-9.8,27.2-14.3,42.1-12
			c11.3,1.8,21.9,7.4,29.9,15.7c8,8.3,9.5,19.6,16.6,28.2c3.5,4.2,8.4,6.8,12.8,10.1c17.7,13.4,23.3,38.8,21.1,60.1
			c-1.6,15.9-9.2,31.6-22.3,40.8c-9.1,6.4-20.2,9.3-29.8,15.1c-12,7.2-20.9,18.5-32.3,26.7c-21.8,15.7-55.1,9.6-76-4.8
			c-13.1-9.1-20.8-19.4-26.1-34.1C1630.3,1021.2,1629.9,1020.1,1629.6,1019.1z"/>
		
			<ellipse transform="matrix(6.384082e-03 -1 1 6.384082e-03 784.4301 2733.2251)" class="st4" cx="1767.6" cy="971.9" rx="25.1" ry="25.1"/>
		
			<ellipse transform="matrix(0.9801 -0.1985 0.1985 0.9801 -157.7214 370.1255)" class="st5" cx="1767.6" cy="971.9" rx="12.6" ry="12.6"/>
		
			<ellipse transform="matrix(0.203 -0.9792 0.9792 0.203 358.6348 2457.5671)" class="st4" cx="1688.9" cy="1008.5" rx="25.1" ry="25.1"/>
		<path class="st5" d="M1699.4,1001.6c3.8,5.8,2.2,13.6-3.6,17.4c-5.8,3.8-13.6,2.2-17.4-3.6c-3.8-5.8-2.2-13.6,3.6-17.4
			C1687.8,994.2,1695.6,995.8,1699.4,1001.6z"/>
		
			<ellipse transform="matrix(0.203 -0.9792 0.9792 0.203 451.6996 2400.2302)" class="st4" cx="1700.3" cy="922.6" rx="25.1" ry="25.1"/>
		<path class="st5" d="M1710.8,915.7c3.8,5.8,2.2,13.6-3.6,17.4c-5.8,3.8-13.6,2.2-17.4-3.6c-3.8-5.8-2.2-13.6,3.6-17.4
			C1699.2,908.3,1707,909.9,1710.8,915.7z"/>
	</g>
	<g>
		<path class="st2" d="M2119.1,685.6c4.9-21.7,21.4-37.8,41.5-43.2c1.7-0.5,3.4-0.9,5.2-1.2c7.4-1.3,15.1-1.2,22.8,0.6
			c0.4,0.1,0.7,0.2,1.1,0.3l0.7,0.2c0.2,0.1,0.5,0.1,0.7,0.2c0.7,0.2,1.3,0.4,2,0.6c0.3,0.1,0.6,0.2,0.9,0.3
			c0.3,0.1,0.6,0.2,0.8,0.3c0.2,0.1,0.5,0.2,0.7,0.2c0.3,0.1,0.5,0.2,0.8,0.3c2.2,0.8,4.4,1.8,6.5,2.9c0.3,0.1,0.5,0.3,0.8,0.4
			c0.2,0.1,0.5,0.2,0.7,0.4c0.6,0.4,1.3,0.7,1.9,1.1c0.3,0.1,0.5,0.3,0.8,0.5c0.5,0.3,1,0.7,1.5,1c0.2,0.1,0.4,0.3,0.6,0.4
			c0.2,0.1,0.4,0.3,0.5,0.4c0.3,0.2,0.5,0.4,0.8,0.6c0.4,0.3,0.7,0.5,1,0.8c0,0,0,0,0,0c0.3,0.3,0.7,0.5,1,0.8
			c0.3,0.3,0.7,0.6,1,0.8c2.6,2.3,5.1,4.7,7.3,7.4c11,13.4,15.9,31.5,11.8,49.7c-7.1,31.3-38.2,50.9-69.5,43.8
			C2131.6,748,2112,716.9,2119.1,685.6z"/>
		<path class="st3" d="M2133.7,689.4c0.1-0.1,0.1-0.3,0.2-0.4c3.8-8.4,12.9-12.7,20.3-18.1c6.2-4.6,11.7-10.4,18.8-13.3
			c13-5.2,29.4,2.2,34.4,15.2c1.8,4.7,2.3,9.8,4.3,14.3c2.1,4.6,5.7,8.4,7.6,13.1c5.2,12.7-4.4,25.7-12.9,34.2
			c-3.4,3.4-6.9,6.7-11.2,8.8c-4.3,2.1-9.4,3-13.9,1.3c-5.1-1.8-8.7-6.6-13.7-8.4c-4.4-1.6-9.3-0.8-13.9-1.6
			c-8.8-1.5-15.9-8.7-19-17C2131.8,710,2130.4,697.2,2133.7,689.4z"/>
		<g>
			<g>
				<path class="st2" d="M2146.1,772.6c-0.9,4,3.8,8.4,10.5,9.9c6.7,1.5,12.9-0.5,13.8-4.4c0.5-2-0.6-4.2-2.6-6
					c-1.2-1-1.7-2.6-1.4-4.1l4.1-18.3l-11.7-2.7l-4.1,17.9c-0.4,1.6-1.6,2.8-3.2,3.2C2148.7,768.9,2146.6,770.4,2146.1,772.6z"/>
				<path class="st3" d="M2165.9,777.5c-0.4,1.9-4.3,2.7-8.5,1.8c-4.3-1-7.3-3.3-6.9-5.3c0.4-1.9,4.3-2.7,8.5-1.8
					C2163.3,773.1,2166.3,775.5,2165.9,777.5z"/>
			</g>
			<g>
				<path class="st2" d="M2205.3,624.2c0.9-4-3.8-8.4-10.5-9.9c-6.7-1.5-12.9,0.5-13.8,4.4c-0.5,2,0.6,4.2,2.6,6
					c1.2,1,1.7,2.6,1.4,4.1l-4.1,18.3l11.7,2.7l4.1-17.9c0.4-1.6,1.6-2.8,3.2-3.2C2202.8,627.9,2204.8,626.3,2205.3,624.2z"/>
				<path class="st3" d="M2185.6,619.3c0.4-1.9,4.3-2.7,8.5-1.8s7.3,3.3,6.9,5.3c-0.4,1.9-4.3,2.7-8.5,1.8
					C2188.2,623.6,2185.1,621.2,2185.6,619.3z"/>
			</g>
		</g>
		<g>
			<g>
				<path class="st2" d="M2101.5,668.8c-4-0.9-8.4,3.8-9.9,10.5s0.5,12.9,4.4,13.8c2,0.5,4.2-0.6,6-2.6c1-1.2,2.6-1.7,4.1-1.4
					l18.3,4.1l2.7-11.7l-17.9-4.1c-1.6-0.4-2.8-1.6-3.2-3.2C2105.2,671.4,2103.7,669.3,2101.5,668.8z"/>
				<path class="st3" d="M2096.6,688.5c-1.9-0.4-2.7-4.3-1.8-8.5c1-4.3,3.3-7.3,5.3-6.9c1.9,0.4,2.7,4.3,1.8,8.5
					C2101,685.9,2098.6,689,2096.6,688.5z"/>
			</g>
			<g>
				<path class="st2" d="M2250,728c4,0.9,8.4-3.8,9.9-10.5c1.5-6.7-0.5-12.9-4.4-13.8c-2-0.5-4.2,0.6-6,2.6c-1,1.2-2.6,1.7-4.1,1.4
					l-18.3-4.1l-2.7,11.7l17.9,4.1c1.6,0.4,2.8,1.6,3.2,3.2C2246.2,725.4,2247.8,727.5,2250,728z"/>
				<path class="st3" d="M2254.8,708.2c1.9,0.4,2.7,4.3,1.8,8.5c-1,4.3-3.3,7.3-5.3,6.9c-1.9-0.4-2.7-4.3-1.8-8.5
					C2250.5,710.9,2252.9,707.8,2254.8,708.2z"/>
			</g>
		</g>
		<g>
			<g>
				<path class="st2" d="M2144.2,625c-2.2-3.4-8.6-3.2-14.4,0.4c-5.8,3.7-8.8,9.4-6.6,12.8c1.1,1.8,3.4,2.6,6.1,2.4
					c1.6-0.1,3,0.6,3.9,1.9l10,15.8l10.1-6.4l-9.8-15.5c-0.9-1.4-0.8-3.1,0.1-4.5C2145,629.4,2145.4,626.8,2144.2,625z"/>
				<path class="st3" d="M2126.8,635.5c-1.1-1.7,1.1-4.9,4.8-7.3c3.7-2.3,7.5-2.8,8.6-1.2c1.1,1.7-1.1,4.9-4.8,7.3
					C2131.7,636.7,2127.8,637.2,2126.8,635.5z"/>
			</g>
			<g>
				<path class="st2" d="M2207.3,771.8c2.2,3.4,8.6,3.2,14.4-0.4c5.8-3.7,8.8-9.4,6.6-12.8c-1.1-1.8-3.4-2.6-6.1-2.4
					c-1.6,0.1-3-0.6-3.9-1.9l-10-15.8l-10.1,6.4l9.8,15.5c0.9,1.4,0.8,3.1-0.1,4.5C2206.5,767.3,2206.1,769.9,2207.3,771.8z"/>
				<path class="st3" d="M2224.7,761.2c1.1,1.7-1.1,4.9-4.8,7.3c-3.7,2.3-7.5,2.8-8.6,1.2s1.1-4.9,4.8-7.3
					C2219.8,760.1,2223.6,759.6,2224.7,761.2z"/>
			</g>
		</g>
		<g>
			<g>
				<path class="st2" d="M2249.1,666.8c3.4-2.2,3.2-8.6-0.4-14.4s-9.4-8.8-12.8-6.6c-1.8,1.1-2.6,3.4-2.4,6.1c0.1,1.6-0.6,3-1.9,3.9
					l-15.8,10l6.4,10.1l15.5-9.8c1.4-0.9,3.1-0.8,4.5,0.1C2244.7,667.6,2247.3,668,2249.1,666.8z"/>
				<path class="st3" d="M2238.6,649.4c1.7-1.1,4.9,1.1,7.3,4.8c2.3,3.7,2.8,7.5,1.2,8.6c-1.7,1.1-4.9-1.1-7.3-4.8
					C2237.4,654.3,2236.9,650.5,2238.6,649.4z"/>
			</g>
			<g>
				<path class="st2" d="M2102.3,729.9c-3.4,2.2-3.2,8.6,0.4,14.4c3.7,5.8,9.4,8.8,12.8,6.6c1.8-1.1,2.6-3.4,2.4-6.1
					c-0.1-1.6,0.6-3,1.9-3.9l15.8-10l-6.4-10.1l-15.5,9.8c-1.4,0.9-3.1,0.8-4.5-0.1C2106.8,729.1,2104.2,728.7,2102.3,729.9z"/>
				<path class="st3" d="M2112.9,747.3c-1.7,1.1-4.9-1.1-7.3-4.8c-2.3-3.7-2.8-7.5-1.2-8.6c1.7-1.1,4.9,1.1,7.3,4.8
					C2114,742.4,2114.5,746.3,2112.9,747.3z"/>
			</g>
		</g>
		<path class="st2" d="M2202.2,721.5c-1.4,6.3-7.7,10.2-13.9,8.8c-6.3-1.4-10.2-7.7-8.8-13.9c1.4-6.3,7.7-10.2,13.9-8.8
			C2199.7,708.9,2203.6,715.2,2202.2,721.5z"/>
		
			<ellipse transform="matrix(0.4441 -0.896 0.896 0.4441 573.862 2362.623)" class="st3" cx="2190.8" cy="718.9" rx="5.8" ry="5.8"/>
		<path class="st2" d="M2164.7,707c-1.4,6.3-7.7,10.2-13.9,8.8c-6.3-1.4-10.2-7.7-8.8-13.9c1.4-6.3,7.7-10.2,13.9-8.8
			C2162.1,694.4,2166.1,700.7,2164.7,707z"/>
		
			<ellipse transform="matrix(0.846 -0.5332 0.5332 0.846 -43.9636 1256.5615)" class="st3" cx="2153.3" cy="704.4" rx="5.8" ry="5.8"/>
		
			<ellipse transform="matrix(0.846 -0.5332 0.5332 0.846 -26.2748 1270.1266)" class="st2" cx="2185.6" cy="680.5" rx="11.7" ry="11.7"/>
		<path class="st3" d="M2191.3,681.8c-0.7,3.1-3.8,5.1-7,4.4c-3.1-0.7-5.1-3.8-4.4-7c0.7-3.1,3.8-5.1,7-4.4
			C2190,675.6,2192,678.7,2191.3,681.8z"/>
	</g>
	<g>
		<path class="st2" d="M2044.3,1150.9c3.4-15.1,14.9-26.4,28.9-30.2c1.2-0.3,2.4-0.6,3.6-0.8c5.1-0.9,10.5-0.8,15.9,0.4
			c0.3,0.1,0.5,0.1,0.8,0.2l0.5,0.1c0.2,0,0.3,0.1,0.5,0.1c0.5,0.1,0.9,0.3,1.4,0.4c0.2,0.1,0.4,0.1,0.6,0.2
			c0.2,0.1,0.4,0.1,0.6,0.2c0.2,0.1,0.3,0.1,0.5,0.2c0.2,0.1,0.4,0.1,0.5,0.2c1.6,0.6,3.1,1.3,4.5,2c0.2,0.1,0.4,0.2,0.5,0.3
			c0.2,0.1,0.3,0.2,0.5,0.3c0.5,0.3,0.9,0.5,1.3,0.8c0.2,0.1,0.4,0.2,0.5,0.3c0.4,0.2,0.7,0.5,1.1,0.7c0.1,0.1,0.3,0.2,0.4,0.3
			c0.1,0.1,0.2,0.2,0.4,0.3c0.2,0.1,0.4,0.3,0.6,0.4c0.2,0.2,0.5,0.4,0.7,0.6c0.3,0.2,0.5,0.4,0.7,0.6c0.2,0.2,0.5,0.4,0.7,0.6
			c1.8,1.6,3.5,3.3,5.1,5.2c7.7,9.3,11.1,22,8.2,34.7c-5,21.8-26.7,35.5-48.5,30.6C2053,1194.4,2039.3,1172.7,2044.3,1150.9z"/>
		<path class="st3" d="M2054.5,1153.5c0-0.1,0.1-0.2,0.1-0.3c2.7-5.8,9-8.8,14.2-12.6c4.3-3.2,8.1-7.3,13.1-9.3
			c9.1-3.6,20.5,1.5,24,10.6c1.3,3.3,1.6,6.8,3,10c1.5,3.2,4,5.9,5.3,9.1c3.7,8.8-3.1,17.9-9,23.9c-2.4,2.4-4.9,4.7-7.8,6.1
			c-3,1.5-6.6,2.1-9.7,0.9c-3.5-1.3-6.1-4.6-9.6-5.8c-3.1-1.1-6.5-0.5-9.7-1.1c-6.1-1-11.1-6.1-13.3-11.9
			C2053.2,1167.9,2052.2,1158.9,2054.5,1153.5z"/>
		<g>
			<g>
				<path class="st2" d="M2063.2,1211.6c-0.6,2.8,2.7,5.9,7.3,6.9c4.7,1.1,9-0.3,9.6-3.1c0.3-1.4-0.4-2.9-1.8-4.2
					c-0.8-0.7-1.2-1.8-1-2.9l2.9-12.7l-8.2-1.9l-2.8,12.5c-0.3,1.1-1.1,1.9-2.3,2.2C2065,1209,2063.5,1210.1,2063.2,1211.6z"/>
				<path class="st3" d="M2077,1215c-0.3,1.4-3,1.9-5.9,1.2c-3-0.7-5.1-2.3-4.8-3.7s3-1.9,5.9-1.2
					C2075.1,1212,2077.3,1213.6,2077,1215z"/>
			</g>
			<g>
				<path class="st2" d="M2104.5,1108c0.6-2.8-2.7-5.9-7.3-6.9c-4.7-1.1-9,0.3-9.6,3.1c-0.3,1.4,0.4,2.9,1.8,4.2
					c0.8,0.7,1.2,1.8,1,2.9l-2.9,12.7l8.2,1.9l2.8-12.5c0.3-1.1,1.1-1.9,2.3-2.2C2102.7,1110.6,2104.1,1109.5,2104.5,1108z"/>
				<path class="st3" d="M2090.7,1104.6c0.3-1.4,3-1.9,5.9-1.2c3,0.7,5.1,2.3,4.8,3.7s-3,1.9-5.9,1.2
					C2092.6,1107.6,2090.4,1105.9,2090.7,1104.6z"/>
			</g>
		</g>
		<g>
			<g>
				<path class="st2" d="M2032,1139.1c-2.8-0.6-5.9,2.7-6.9,7.3c-1.1,4.7,0.3,9,3.1,9.6c1.4,0.3,2.9-0.4,4.2-1.8
					c0.7-0.8,1.8-1.2,2.9-1l12.7,2.9l1.9-8.2l-12.5-2.8c-1.1-0.3-1.9-1.1-2.2-2.3C2034.6,1140.9,2033.5,1139.5,2032,1139.1z"/>
				<path class="st3" d="M2028.6,1152.9c-1.4-0.3-1.9-3-1.2-5.9c0.7-3,2.3-5.1,3.7-4.8c1.4,0.3,1.9,3,1.2,5.9
					C2031.6,1151,2030,1153.2,2028.6,1152.9z"/>
			</g>
			<g>
				<path class="st2" d="M2135.6,1180.4c2.8,0.6,5.9-2.7,6.9-7.3c1.1-4.7-0.3-9-3.1-9.6c-1.4-0.3-2.9,0.4-4.2,1.8
					c-0.7,0.8-1.8,1.2-2.9,1l-12.7-2.9l-1.9,8.2l12.5,2.8c1.1,0.3,1.9,1.1,2.2,2.3C2133,1178.6,2134.1,1180.1,2135.6,1180.4z"/>
				<path class="st3" d="M2139,1166.6c1.4,0.3,1.9,3,1.2,5.9c-0.7,3-2.3,5.1-3.7,4.8c-1.4-0.3-1.9-3-1.2-5.9
					C2136,1168.5,2137.7,1166.3,2139,1166.6z"/>
			</g>
		</g>
		<g>
			<g>
				<path class="st2" d="M2061.8,1108.5c-1.5-2.4-6-2.3-10.1,0.3c-4.1,2.6-6.1,6.6-4.6,9c0.8,1.2,2.4,1.8,4.2,1.7
					c1.1-0.1,2.1,0.4,2.7,1.3l7,11.1l7.1-4.5l-6.8-10.8c-0.6-1-0.6-2.2,0-3.2C2062.4,1111.6,2062.6,1109.8,2061.8,1108.5z"/>
				<path class="st3" d="M2049.7,1115.9c-0.7-1.2,0.7-3.5,3.3-5.1s5.3-2,6-0.8c0.7,1.2-0.7,3.5-3.3,5.1S2050.4,1117,2049.7,1115.9z"
					/>
			</g>
			<g>
				<path class="st2" d="M2105.9,1211c1.5,2.4,6,2.3,10.1-0.3c4.1-2.6,6.1-6.6,4.6-9c-0.8-1.2-2.4-1.8-4.2-1.7
					c-1.1,0.1-2.1-0.4-2.7-1.3l-7-11.1l-7.1,4.5l6.8,10.8c0.6,1,0.6,2.2,0,3.2C2105.3,1207.9,2105,1209.7,2105.9,1211z"/>
				<path class="st3" d="M2118,1203.7c0.7,1.2-0.7,3.5-3.3,5.1c-2.6,1.6-5.3,2-6,0.8c-0.7-1.2,0.7-3.5,3.3-5.1
					S2117.3,1202.5,2118,1203.7z"/>
			</g>
		</g>
		<g>
			<g>
				<path class="st2" d="M2135.1,1137.7c2.4-1.5,2.3-6-0.3-10.1c-2.6-4.1-6.6-6.1-9-4.6c-1.2,0.8-1.8,2.4-1.7,4.2
					c0.1,1.1-0.4,2.1-1.3,2.7l-11.1,7l4.5,7.1l10.8-6.8c1-0.6,2.2-0.6,3.2,0C2132,1138.3,2133.8,1138.6,2135.1,1137.7z"/>
				<path class="st3" d="M2127.7,1125.6c1.2-0.7,3.5,0.7,5.1,3.3c1.6,2.6,2,5.3,0.8,6c-1.2,0.7-3.5-0.7-5.1-3.3
					C2126.9,1129,2126.5,1126.3,2127.7,1125.6z"/>
			</g>
			<g>
				<path class="st2" d="M2032.6,1181.8c-2.4,1.5-2.3,6,0.3,10.1c2.6,4.1,6.6,6.1,9,4.6c1.2-0.8,1.8-2.4,1.7-4.2
					c-0.1-1.1,0.4-2.1,1.3-2.7l11.1-7l-4.5-7.1l-10.8,6.8c-1,0.6-2.2,0.6-3.2,0C2035.7,1181.2,2033.9,1181,2032.6,1181.8z"/>
				<path class="st3" d="M2039.9,1193.9c-1.2,0.7-3.5-0.7-5.1-3.3c-1.6-2.6-2-5.3-0.8-6c1.2-0.7,3.5,0.7,5.1,3.3
					C2040.8,1190.5,2041.1,1193.2,2039.9,1193.9z"/>
			</g>
		</g>
		<path class="st2" d="M2102.3,1175.9c-1,4.4-5.4,7.1-9.7,6.1c-4.4-1-7.1-5.4-6.1-9.7c1-4.4,5.4-7.1,9.7-6.1
			S2103.3,1171.5,2102.3,1175.9z"/>
		<circle class="st3" cx="2094.4" cy="1174.1" r="4.1"/>
		
			<ellipse transform="matrix(0.846 -0.5332 0.5332 0.846 -302.1074 1281.9559)" class="st2" cx="2068.2" cy="1164" rx="8.1" ry="8.1"/>
		<path class="st3" d="M2072.1,1164.9c-0.5,2.2-2.7,3.6-4.9,3.1s-3.6-2.7-3.1-4.9c0.5-2.2,2.7-3.6,4.9-3.1
			C2071.3,1160.5,2072.6,1162.7,2072.1,1164.9z"/>
		
			<ellipse transform="matrix(0.6764 -0.7365 0.7365 0.6764 -168.4837 1911.1636)" class="st2" cx="2090.7" cy="1147.3" rx="8.1" ry="8.1"/>
		<path class="st3" d="M2094.7,1148.2c-0.5,2.2-2.7,3.6-4.9,3.1s-3.6-2.7-3.1-4.9s2.7-3.6,4.9-3.1
			C2093.8,1143.9,2095.2,1146,2094.7,1148.2z"/>
	</g>
	<g>
		<path class="st4" d="M2381.7,901.2c-2.9-17.3,4.3-34,17.3-44c1.1-0.9,2.2-1.7,3.4-2.4c5-3.2,10.7-5.4,16.9-6.4
			c0.3,0,0.6-0.1,0.9-0.1l0.6-0.1c0.2,0,0.4-0.1,0.6-0.1c0.5-0.1,1.1-0.1,1.6-0.2c0.2,0,0.5,0,0.7-0.1c0.2,0,0.5,0,0.7,0
			c0.2,0,0.4,0,0.6,0c0.2,0,0.4,0,0.6,0c1.9-0.1,3.8,0,5.6,0.2c0.2,0,0.5,0,0.7,0.1c0.2,0,0.4,0,0.6,0.1c0.6,0.1,1.2,0.2,1.7,0.2
			c0.2,0,0.5,0.1,0.7,0.1c0.5,0.1,0.9,0.2,1.4,0.3c0.2,0,0.4,0.1,0.6,0.1c0.2,0,0.3,0.1,0.5,0.1c0.3,0.1,0.5,0.1,0.8,0.2
			c0.3,0.1,0.7,0.2,1,0.3c0.4,0.1,0.7,0.2,1,0.3c0.3,0.1,0.7,0.2,1,0.3c2.6,0.9,5.1,1.9,7.5,3.2c12,6.5,21.1,18.2,23.5,32.8
			c4.2,25-12.6,48.6-37.6,52.9C2409.6,943,2386,926.2,2381.7,901.2z"/>
		<path class="st5" d="M2390.3,899.4c0.1-2.4,0.6-4.7,1.6-6.9c2.9-6.6,9.5-10.7,13.7-16.6c2.3-3.2,3.8-6.9,6.1-10
			c4.5-6.1,12.1-9.6,19.7-9.2c5.3,0.3,10.5,2.5,14.4,6.1c4.7,4.3,3.6,8.7,5.9,14.1c1.5,3.4,4.9,5.6,7.1,8.6c5.5,7.3,5.7,16.9,1.8,25
			c-4.9,10-16.8,20.9-29,18.7c-4.3-0.8-8-3.4-12.2-4.4c-5.2-1.2-10.8,0.1-15.8-1.5c-6.3-2.1-10.2-8.4-12-14.7
			C2390.6,905.6,2390.2,902.5,2390.3,899.4z"/>
		<g>
			<g>
				<path class="st4" d="M2427.7,956.6c0.5,3.2,5.3,5,10.7,4.1s9.3-4.2,8.7-7.4c-0.3-1.6-1.7-2.9-3.7-3.6c-1.2-0.4-2-1.4-2.2-2.6
					l-2.5-14.6l-9.3,1.6l2.4,14.3c0.2,1.3-0.4,2.5-1.4,3.3C2428.4,953.1,2427.4,954.9,2427.7,956.6z"/>
				<path class="st5" d="M2443.5,954.2c0.3,1.6-2.3,3.3-5.7,3.9c-3.4,0.6-6.4-0.2-6.6-1.8c-0.3-1.6,2.3-3.3,5.7-3.9
					C2440.3,951.9,2443.3,952.7,2443.5,954.2z"/>
			</g>
			<g>
				<path class="st4" d="M2426.2,830.4c-0.5-3.2-5.3-5-10.7-4.1c-5.3,0.9-9.3,4.2-8.7,7.4c0.3,1.6,1.7,2.9,3.7,3.6
					c1.2,0.4,2,1.4,2.2,2.6l2.5,14.6l9.3-1.6l-2.4-14.3c-0.2-1.3,0.4-2.5,1.4-3.3C2425.5,833.9,2426.5,832.2,2426.2,830.4z"/>
				<path class="st5" d="M2410.4,832.8c-0.3-1.6,2.3-3.3,5.7-3.9c3.4-0.6,6.4,0.2,6.6,1.8c0.3,1.6-2.3,3.3-5.7,3.9
					C2413.6,835.2,2410.6,834.4,2410.4,832.8z"/>
			</g>
		</g>
		<g>
			<g>
				<path class="st4" d="M2363.9,894.2c-3.2,0.5-5,5.3-4.1,10.7c0.9,5.3,4.2,9.3,7.4,8.7c1.6-0.3,2.9-1.7,3.6-3.7
					c0.4-1.2,1.4-2,2.6-2.2l14.6-2.5l-1.6-9.3l-14.3,2.4c-1.3,0.2-2.5-0.4-3.3-1.4C2367.3,895,2365.6,893.9,2363.9,894.2z"/>
				<path class="st5" d="M2366.2,910.1c-1.6,0.3-3.3-2.3-3.9-5.7c-0.6-3.4,0.2-6.4,1.8-6.6c1.6-0.3,3.3,2.3,3.9,5.7
					S2367.8,909.8,2366.2,910.1z"/>
			</g>
			<g>
				<path class="st4" d="M2490,892.8c3.2-0.5,5-5.3,4.1-10.7s-4.2-9.3-7.4-8.7c-1.6,0.3-2.9,1.7-3.6,3.7c-0.4,1.2-1.4,2-2.6,2.2
					l-14.6,2.5l1.6,9.3l14.3-2.4c1.3-0.2,2.5,0.4,3.3,1.4C2486.5,892,2488.3,893.1,2490,892.8z"/>
				<path class="st5" d="M2487.7,876.9c1.6-0.3,3.3,2.3,3.9,5.7c0.6,3.4-0.2,6.4-1.8,6.6c-1.6,0.3-3.3-2.3-3.9-5.7
					C2485.3,880.1,2486.1,877.2,2487.7,876.9z"/>
			</g>
		</g>
		<g>
			<g>
				<path class="st4" d="M2381.8,849.4c-2.6-1.9-7.3,0.2-10.4,4.6c-3.1,4.4-3.6,9.5-1,11.4c1.3,1,3.2,0.9,5.2-0.1
					c1.1-0.5,2.4-0.5,3.4,0.2l12.1,8.6l5.5-7.7l-11.8-8.4c-1.1-0.7-1.5-2-1.3-3.3C2383.8,852.4,2383.3,850.4,2381.8,849.4z"/>
				<path class="st5" d="M2372.3,862.3c-1.3-0.9-0.7-3.9,1.3-6.7c2-2.8,4.7-4.3,5.9-3.4c1.3,0.9,0.7,3.9-1.3,6.7
					C2376.2,861.7,2373.6,863.2,2372.3,862.3z"/>
			</g>
			<g>
				<path class="st4" d="M2472.1,937.6c2.6,1.9,7.3-0.2,10.4-4.6c3.1-4.4,3.6-9.5,1-11.4c-1.3-1-3.2-0.9-5.2,0.1
					c-1.1,0.5-2.4,0.5-3.4-0.2l-12.1-8.6l-5.5,7.7l11.8,8.4c1.1,0.7,1.5,2,1.3,3.3C2470.1,934.6,2470.6,936.6,2472.1,937.6z"/>
				<path class="st5" d="M2481.6,924.7c1.3,0.9,0.7,3.9-1.3,6.7c-2,2.8-4.7,4.3-5.9,3.4c-1.3-0.9-0.7-3.9,1.3-6.7
					C2477.7,925.3,2480.3,923.8,2481.6,924.7z"/>
			</g>
		</g>
		<g>
			<g>
				<path class="st4" d="M2471.1,848.4c1.9-2.6-0.2-7.3-4.6-10.4c-4.4-3.1-9.5-3.6-11.4-1c-1,1.3-0.9,3.2,0.1,5.2
					c0.5,1.1,0.5,2.4-0.2,3.4l-8.6,12.1l7.7,5.5l8.4-11.8c0.7-1.1,2-1.5,3.3-1.3C2468.1,850.3,2470,849.8,2471.1,848.4z"/>
				<path class="st5" d="M2458.1,838.9c0.9-1.3,3.9-0.7,6.7,1.3c2.8,2,4.3,4.7,3.4,5.9c-0.9,1.3-3.9,0.7-6.7-1.3
					S2457.2,840.1,2458.1,838.9z"/>
			</g>
			<g>
				<path class="st4" d="M2382.8,938.6c-1.9,2.6,0.2,7.3,4.6,10.4c4.4,3.1,9.5,3.6,11.4,1c1-1.3,0.9-3.2-0.1-5.2
					c-0.5-1.1-0.5-2.4,0.2-3.4l8.6-12.1l-7.7-5.5l-8.4,11.8c-0.7,1.1-2,1.5-3.3,1.3C2385.8,936.7,2383.9,937.2,2382.8,938.6z"/>
				<path class="st5" d="M2395.8,948.2c-0.9,1.3-3.9,0.7-6.7-1.3c-2.8-2-4.3-4.7-3.4-5.9s3.9-0.7,6.7,1.3S2396.7,946.9,2395.8,948.2
					z"/>
			</g>
		</g>
		<path class="st4" d="M2453.2,902.4c0.8,5-2.5,9.8-7.5,10.6s-9.8-2.5-10.6-7.5c-0.8-5,2.5-9.8,7.5-10.6
			C2447.6,894,2452.3,897.4,2453.2,902.4z"/>
		
			<ellipse transform="matrix(0.9669 -0.2553 0.2553 0.9669 -149.7737 653.8156)" class="st5" cx="2444.1" cy="904" rx="4.6" ry="4.6"/>
		
			<ellipse transform="matrix(0.997 -7.734038e-02 7.734038e-02 0.997 -62.7406 189.2827)" class="st4" cx="2412.4" cy="904.7" rx="9.2" ry="9.2"/>
		<path class="st5" d="M2416.9,903.9c0.4,2.5-1.3,4.9-3.8,5.3c-2.5,0.4-4.9-1.3-5.3-3.8c-0.4-2.5,1.3-4.9,3.8-5.3
			C2414.1,899.7,2416.5,901.4,2416.9,903.9z"/>
		<path class="st4" d="M2437.9,876c0.8,5-2.5,9.8-7.5,10.6c-5,0.8-9.8-2.5-10.6-7.5c-0.8-5,2.5-9.8,7.5-10.6
			C2432.3,867.6,2437,871,2437.9,876z"/>
		<path class="st5" d="M2433.3,876.8c0.4,2.5-1.3,4.9-3.8,5.3c-2.5,0.4-4.9-1.3-5.3-3.8c-0.4-2.5,1.3-4.9,3.8-5.3
			C2430.5,872.6,2432.9,874.3,2433.3,876.8z"/>
	</g>
</g>
<g>
	<path class="st6" d="M1325.3,3451.8c-69.5-19.9-140.9-14.7-212.6-14.7c-80.2,0-160.4-0.1-240.6-0.1c-76.7,0-153.4,0-230.1,0.3
		c-71.1,0.3-155.9-11.3-223.5,13.2c-13.6,4.9-13.6,22.8,0,27.7c64.4,23.3,145.3,12.8,213,13.1c80.2,0.3,160.4,0.3,240.6,0.3
		c76.7,0,153.4-0.1,230.1-0.1c75,0,150.4,6.1,223.1-14.7C1337.6,3473.1,1337.6,3455.3,1325.3,3451.8z"/>
	<path class="st6" d="M4785.9,3451.8c-69.5-19.9-140.9-14.7-212.6-14.7c-80.2,0-160.4-0.1-240.6-0.1c-76.7,0-153.4,0-230.1,0.3
		c-71.1,0.3-155.9-11.3-223.5,13.2c-13.6,4.9-13.6,22.8,0,27.7c64.4,23.3,145.3,12.8,213,13.1c80.2,0.3,160.4,0.3,240.6,0.3
		c76.7,0,153.4-0.1,230.1-0.1c75,0,150.4,6.1,223.1-14.7C4798.1,3473.1,4798.1,3455.3,4785.9,3451.8z"/>
	<g>
		<g>
			<g>
				<path class="st7" d="M1123.4,2153.1c29.4,4.5,32.4,53.6,34.6,76.5c2.9,30.5-0.1,61.9-6.6,91.3c-0.8,3.5-2.9,6.5-5.5,9
					c-2.1,1.8-4.8,3-7.6,3.8c-0.8,0.3-1.9,0.6-2.8,0.8c-1.2,0.3-2.5,0.6-3.7,0.8c-3.3,0.6-6.5,1.1-9.9,1.3c-1.5,0.2-3,0.3-4.4,0.4
					c-2.4,0.1-4.9,0.1-7.2,0.1c-1.1,0-2.3-0.1-3.4-0.3c-1.2-0.1-2.3-0.2-3.4-0.5c-0.8-0.3-1.5-0.5-2.2-0.9c-6.2-3.3-8.2-11-9.3-17.9
					c-3.7-23.1-5.3-46.5-4.9-69.9c-5.1,7.7-10,15.4-14.9,23.2c-2.1,3.3-4.5,6.8-8,8.8c-3.5,1.8-8.5,1.5-10.6-1.9
					c-4.8-7.8,6.7-25.7,9.7-32.6c6.6-14.8,6.2-29.7,10.9-45.1c4.7-15.3,15.9-29,28-39.1c3.3-2.8,6.9-5.4,11.1-6.8
					C1116.6,2152.8,1120,2152.6,1123.4,2153.1z"/>
				<path class="st8" d="M1144.7,2253.7c3.4,13.7,1.2,29.9-0.3,43.8c-1.3,11.5-2.4,24.6-6.2,36.1c-0.8,0.3-1.9,0.6-2.8,0.8
					c-1.2,0.3-2.5,0.6-3.7,0.8c1.3-11.4,4.5-22.8,6-34.2c1.9-15.4,0.4-31.8,3.5-46.9C1141.4,2252.5,1144.2,2251.8,1144.7,2253.7z"/>
				<path class="st8" d="M1124.4,2256.2c3.6,14,3.5,28,2.8,42.3c-0.7,12.3-1.5,26-5.4,38c-1.5,0.2-3,0.3-4.4,0.4
					c0.2-11.5,2.4-23.3,3-34.8c0.9-15.2-0.1-30.4,1.5-45.6C1122.1,2255.3,1124.2,2255,1124.4,2256.2z"/>
				<path class="st8" d="M1103.4,2256.8c2.8,15.3,2.8,31,3.3,46.5c0.5,10.9,1.1,22.4,0.1,33.5c-1.2-0.1-2.3-0.2-3.4-0.5
					c-1.6-12.4-1.5-25.4-2-37.9c-0.7-13.8-1.9-27.7-1.1-41.6C1100.4,2254.9,1103.1,2255.3,1103.4,2256.8z"/>
			</g>
			<path class="st7" d="M1150.8,2204.4c0,0-25.7-21.4-62.9-3.4c0,0-41.6-268.8-15.9-323.7c20.3-43.5,76.4-50.7,89.7-2.6
				C1175,1922.8,1150.8,2204.4,1150.8,2204.4z"/>
		</g>
		<path class="st7" d="M1077.8,3228.9c0,3.1,1.6,158.3,1.6,158.3l-81,10.8l-17.6-155.7L1077.8,3228.9z"/>
		<path class="st9" d="M993.5,3369.2c0,0-1.7,64.8-0.3,79.2h214.5c5.9,0,9.2-5.6,5.9-9.6c-8.1-9.8-25.6-24.8-61.1-34.4
			c-56.2-15.1-72.3-35.2-72.3-35.2S1041.4,3387.4,993.5,3369.2z"/>
		<path class="st7" d="M649.4,3228.9c0,3.1-1.6,158.3-1.6,158.3l81,10.8l17.6-155.7L649.4,3228.9z"/>
		<path class="st4" d="M635,3265.3c2,0.9,54.7,19.8,116.5,0c0,0,126.6-1034.1,127-1028.7L976.3,3279c62.5,19.6,115.4-0.4,115.4-0.4
			l1.3,0.6V1975.3l-446.2-7.5c0,0-1.1,97-2.7,237.9C640.2,2562.2,633.5,3200.2,635,3265.3z"/>
		<path class="st9" d="M733.7,3369.2c0,0,1.7,64.8,0.3,79.2H519.5c-5.9,0-9.2-5.6-5.9-9.6c8.1-9.8,25.6-24.8,61.1-34.4
			c56.2-15.1,72.3-35.2,72.3-35.2S685.9,3387.4,733.7,3369.2z"/>
		<path class="st5" d="M644.2,2205.8c16.2-6,32-13,47.8-19.6c75.6-31.4,155.7-51.9,237.2-58.3c30.7-2.3,61.5-2.8,92-6.7
			c18.9-2.5,46.6-5.9,71.8-13.3v-132.6l-446.2-7.5C646.8,1967.8,645.8,2064.8,644.2,2205.8z"/>
		<path class="st10" d="M1072.4,1357.6c0,0,47.3,6.5,74.1,135.7c26.8,129.2,19.2,444.8,19.2,444.8s-62.2,18.8-102,0
			C1023.8,1919.2,1072.4,1357.6,1072.4,1357.6z"/>
		<path class="st9" d="M998.9,1571.1c-4.2-33.9-4.6-71.2-13-103.9c-9.8-38.3-22.9-83.1-52-111.6c-29.3-28.7-233.5-55.9-317.6-18.4
			c0,0-110.9,45-145.2,191.3c-34.2,146.3-7.1,160.8,15.1,168.3c0.1,0,0.2,0,0.3,0c-1.5,59.5-11.2,176.1,4.8,232.4
			c16.1,56.6,56,118.2,233,100.8c41.3-4,78.7-26.4,113.4-49.1c66.4-43.5,123.6-104.7,150-179.5
			C1013.6,1728.3,1008.4,1648.1,998.9,1571.1z"/>
		<path class="st10" d="M514.6,1875.1c0,0-30.2-138.7,61.7-360.6c65.5-158.2,112.9-165.3,112.9-165.3l-7.8,343.1
			C681.4,1692.3,619.9,1836.3,514.6,1875.1z"/>
		<polygon class="st7" points="945.4,1335.6 894.4,1552 792.1,1375.5 784.9,1335.6 811.2,1330.3 813.1,1311 816.2,1278.9 
			818.4,1256.6 913.3,1259.5 918.7,1307.6 920.3,1320.7 921.8,1334.5 		"/>
		<path class="st8" d="M918.7,1307.7c-7.2,1.7-15.5,2.6-25.1,2.6c-37,0-61.6-12.8-77.4-31.5l2.1-22.3l94.9,3L918.7,1307.7z"/>
		<path class="st11" d="M919.1,1184.3c-0.2,0.1-0.4,0.1-0.6,0.2c-33.1,10.3-48.4,47-78.2,62.8c-13.1,7-23.5,8.2-37.5,3
			c-15.9-6-23.6-4.8-32.4-20.4c-8.8-15.6-15.7-31.5-16.8-48.8c-1.2-19-8.8-36.5-6.8-55.3c2.2-20.9,6.9-40.2,18.4-58.2
			c13.2-20.6,33.6-26.6,54.5-36.5c24.1-11.4,47.2-27.4,74.4-30.2c26.8-2.8,54.4,10.3,72.9,29.1c5.9,5.9,11.1,12.6,14.5,20.3
			c6.2,14.1,5.5,30.5,1.1,45.3c-4.1,13.9-13.1,25.7-17.3,39.3c-3.5,11.2-4.9,21-13.3,30.5C942.6,1175.9,932.4,1180.1,919.1,1184.3z"
			/>
		<path class="st7" d="M975,1191c-0.4,4.4-0.9,8.5-1.6,12.4c-8.3,44.5-11.6,90.8-79.9,90.8c-31.8,0-54.4-9.4-70.4-23.9
			c-18.3-16.7-27.8-40.2-32.2-64c-5.6-29.1-18.2-80.1-13.7-109.7c0.1-0.1,0.1-0.2,0.1-0.5c5.1-22.4,21.5-27.9,35.2-28.2
			c10.6-0.2,20.7,3.4,30.9,6.3c17.7,5.2,36.5,8.2,54.1,3.8c8.9-2.2,17.4-6.2,26.6-7c11.7-0.9,29.3-0.6,36.7,8.4
			c7.2,8.7,8,21.9,11.1,40.7c0,0.1,0,0.1,0,0.1C974.8,1143.3,976.9,1169.9,975,1191z"/>
		<path class="st12" d="M858.3,1157.1c-0.4,0-0.8,0-1.3,0.1c-4.8,0.9-5.1,7.4-3.6,11c0.7,1.8,2.2,3.3,4.2,3.2c2.2,0,3.7-1.9,4.5-3.8
			C863.4,1164.1,863.2,1157.2,858.3,1157.1z"/>
		<path class="st12" d="M871.1,1133c-2.6-6.9-10.7-6.7-16.1-6.6c-6.7,0.1-13.4,2.1-19.4,7c-3.5,2.9-1.8,11,2.2,9.7
			c5.8-1.8,11.4-4.1,17.2-3.8c4.9,0.2,9.2,3.6,14.1,1.1C871.4,1139.1,872,1135.5,871.1,1133z"/>
		<path class="st12" d="M932,1154.6c0.4,0,0.7,0,1.2,0c4.3,0.8,4.5,6.5,3.2,9.7c-0.6,1.5-1.9,2.9-3.7,2.9c-2,0-3.3-1.7-3.9-3.4
			C927.6,1160.8,927.7,1154.7,932,1154.6z"/>
		<path class="st12" d="M916.5,1129.8c2.3-6.8,10.3-6.9,15.6-7c6.6-0.1,13.2,1.6,19.3,6.2c3.6,2.7,2.1,10.7-1.9,9.6
			c-5.7-1.6-11.3-3.6-17-3.2c-4.8,0.3-8.9,3.8-13.8,1.5C916.3,1135.8,915.6,1132.3,916.5,1129.8z"/>
		<path class="st13" d="M865,1203.1c-0.1,0-0.1,0.2,0,0.2C865.1,1203.3,865.1,1203.1,865,1203.1z"/>
		<path class="st11" d="M788.5,1156.5c4.5,1.9,8.8,1.9,8.8-5.5c2.1-11.9,0.9-24.2,2.7-36.1c1.9-11.9,7.9-24.4,19.2-28.7
			c4.2-1.6,8.8-1.9,13.3-2.1c8.7-0.3,17.5-0.2,26.2,0.4c11.5,0.8,23.2,2.5,34.5,0c7.6-1.7,14.7-5.1,22.2-6.8
			c9.2-2,19.1-2.4,28.4-0.8c6.6,1.2,22.2,5.3,23,13.6c0.8,0.3,1.4-0.8,1.7-1.6c1.3-3.3,4.1-5.9,5.5-9.1c2.5-5.9,0-12.7-3.6-18
			c-10.1-14.9-25-27.6-44.2-26.3c-9.5,0.6-18.4,4.6-27.5,7.3c-12.8,3.8-26.3,5.3-39.6,4.2c-15.1-1.2-30-5.6-45.1-4.4
			c-12.6,1-24.9,6-34.6,14c-3.9,3.3-7.5,7.2-9.3,11.9c-1.4,3.7-1.5,7.7-1.7,11.7c-0.5,14.5-1.1,29,0.3,43.4
			c1.1,10.8-1.3,24.5,8.7,31C779.3,1155.8,785.5,1155.2,788.5,1156.5z"/>
		<path class="st8" d="M899.6,1223c-6.3,0.1-11.6,1-17.6-1.8c-5.4-2.6-8.6-7-12.8-11.1c-0.7-0.7-2.1-0.2-2.1,0.9
			c1,13.6,22.3,23.4,33.7,16.9C903.2,1226.5,902.2,1223,899.6,1223z"/>
		<path class="st8" d="M904.5,1178.8c-1.4-6.7-2.9-13.7-5.5-20.1c-0.8-2-3.6-1.3-3.3,0.9c1,6.9,2.9,13.6,4.2,20.4
			c0.5,2.7,2.4,7.6,1.8,10.3c1.2,3.1-0.2,3.8-4.2,1.9c-1.7-0.5-3.4-0.8-5.1-1c-2.2-0.4-4.1,2.8-1.7,4c4.2,2,15.2,5.6,16.3-1.7
			C907.7,1189.3,905.4,1182.9,904.5,1178.8z"/>
		<path class="st14" d="M1072.4,1357.6c0,0-41.3-15.6-127-21.9l-23.6-1.1l-1.5-13.8c-44.6,12-84.1,0.4-107.1-9.8l-1.9,19.4
			c0,0-4.5,0.9-4.6,0.7c-104.7,4-122.8,21.4-122.8,21.4l-27.4,241.5c-0.1,0.6-0.1,1.2-0.1,1.9c-12.8,157.2-23.3,315-23.2,472.7
			c57.7,0.4,143.3,40.7,255.2,21.2c68.3-11.9,213.2-13.3,215-15.6c2.1-2.7,1.8-6.5,1.4-9.8c-4.4-37.4-6.4-74.3-8-112
			c-2.8-67.5-5.6-135-8.3-202.5c-5-121.8-10-243.5-15-365.3C1073.4,1382.5,1074,1358.2,1072.4,1357.6z"/>
		<g>
			<path class="st6" d="M975,1191c-0.4,4.4-0.9,8.5-1.6,12.4c-8.3,44.5-11.6,90.8-79.9,90.8c-31.8,0-54.4-9.4-70.4-23.9
				c-1.8-6.7-2.3-14-2.7-21.2c-0.7-17.6,0.6-35.1,2.8-52.6c-3.8-5.1-7.6-10-11.8-14.8c-8.4-9.4-18.2-17.2-28-25.1
				c-2.8-2.2,0.9-6.7,3.8-4.9c11.6,6.8,21.9,15.9,31,25.7c4.1,4.4,9.9,10.1,13.9,16.2c10.5-1.5,20.9-2.4,31.3-3.3
				c25.2-2,50.6-2.4,75.8-1.5c7.6,0.4,15.2,0.9,22.8,1.3C965.8,1190.6,970.7,1190.5,975,1191z"/>
			<path class="st1" d="M938.9,1202.3c-7.8-0.4-15-0.8-22.5-3.3c-5-1.6-9.1-3.9-14.4-3.9c-6,0.1-11.1,2.8-16.8,4.2
				c-7.5,1.8-15.3,1.6-22.9,3.2c-0.5,0.1-0.6,0.9-0.1,1.1c15.6,8.1,29.1-4.6,45-1.7c11.8,2.1,20.7,8.7,32.6,3.5
				C941.3,1204.7,940.3,1202.4,938.9,1202.3z"/>
		</g>
		<path class="st7" d="M798.2,1168.8c0,0-19.1-25.2-31.1-13.6s-2.3,72.4,39.2,70.9L798.2,1168.8z"/>
		<path class="st8" d="M790.9,1187.2c-2.5-4.1-5.7-10-10.2-12.2c-0.7-0.3-1.6,0.2-1.3,1c1.3,4.4,5,7.9,7.4,11.8
			c-3,0.4-5.7,2.2-6,5.3c-0.1,1.1,1.1,1.7,2,1.5c2.2-0.5,4.3-1.4,6.4-2c1.6,3.5,3.2,7,5.4,10c0.7,1,2.7,0.8,2.6-0.7
			C796.8,1196.8,793.6,1191.6,790.9,1187.2z"/>
		<path class="st9" d="M791.7,1433.9c-11.4-49.1-40.5-115.4-102.1-105.5c-4.2,0.7-2.6,6.5,0.9,6.8c78.8,8.4,90.5,106.4,94.9,169.6
			c4.4,63.7-0.8,128.8-11,191.7c-9.4,58.2-25,116.3-56.8,166.6c-30,47.5-68.8,75.1-117.1,101.2c-9.1,4.9-2.8,19.1,6.9,16.5
			c55.1-14.9,101-64.3,129.7-111.5c37.2-61.3,52.5-132.7,60.5-203.1C806.4,1589.2,809.4,1509.7,791.7,1433.9z"/>
		<g>
			<g>
				<path class="st7" d="M744.9,1631.7c14.4,4,34.7-9.3,45.8-16.6c25-16.4,43.3-38.5,60.3-62.8c21.2-30.4,14.6-67.2-12.9-91.3
					c-4.3-3.8-9.9-7-15.4-5.6c-3.7,1-6.6,3.8-9.3,6.6c-9.1,9.4-16.9,18.9-24.6,29.6c0.7-10.9,1.5-21.7,2.4-32.6
					c0.4-4.6,0.6-9.7-1.4-14c-2-4.2-7.1-7.5-11.5-5.7c-8.2,17-11.5,34.2-17.5,52.1c-8.5,25.5-19.7,50.2-31.6,74.2
					c-3.6,7.3-11.1,16.1-10.5,24.2C719.4,1601.3,735.1,1629,744.9,1631.7z"/>
			</g>
			<path class="st7" d="M514.8,1876.4c4.6,23.5,21.7,48.4,75.7,42.9c57.2-5.9,136-162.3,175.2-248.3c1.9-4.3,3.7-8.3,5.5-12.3
				c11.6-26,18.5-43,18.5-43l-65.7-41.2c0,0-9.7,10.8-25,28.5c-2.7,3-5.4,6.3-8.4,9.7c-43.4,50-118.6,139.7-163.8,209
				C516.1,1837.8,511.2,1857.5,514.8,1876.4z"/>
		</g>
		<path class="st11" d="M690.5,1612.7c0.2,0.3,0.4,0.6,0.7,1c11.7,11.1,27.7,18.1,40.5,28.3c11.3,9.1,21.1,20.7,33.1,28.7
			c0.2,0.2,0.5,0.3,0.7,0.4c1.9-4.3,3.7-8.3,5.5-12.3c-9.1-11.8-20.7-22-32.3-31c-11.7-9.2-25.4-20.8-40-24.8
			C696.3,1606,693.5,1609.3,690.5,1612.7z"/>
		<path class="st15" d="M734.8,1620.6c0.6-0.1,1.2-0.2,1.9-0.2c9.5-0.9,19.1,7.1,16.9,17.5c-0.4,1.8-1.1,3.3-1.9,4.8
			c-0.7,2-1.7,3.8-3.3,5.3c-4.7,4.1-12,5.1-17.8,2.9c-5.7-2.1-8.2-6.8-8.4-11.9C719.8,1630.6,725.2,1621.5,734.8,1620.6z"/>
	</g>
	<g>
		<path class="st7" d="M4292.2,2119.3l35.5,577.9l21.6,502.3l9.1,213.3h65.5l18.9-203.8l44.4-478.4c3.2-29.3,5.2-58.8,6.1-88.3
			c1.7-59.7,6-179.4,14.4-337c12.6-230.5-91.7-440.8-91.7-440.8l-15.5,7.3L4292.2,2119.3z"/>
		<path class="st9" d="M4354.1,3393.3c0,0-1.4,52.8-0.2,64.5h174.6c4.8,0,7.5-4.5,4.8-7.9c-6.6-8-20.8-20.2-49.7-28
			c-45.8-12.3-58.9-28.6-58.9-28.6S4393,3408.1,4354.1,3393.3z"/>
		<path class="st7" d="M4304.6,2119.3l-35.5,577.9l-21.6,502.3l-9.1,213.3h-65.5L4154,3209l-44.4-478.4c-3.2-29.3-5.2-58.8-6.1-88.3
			c-1.7-59.7-6-179.4-14.4-337c-12.6-230.5,91.7-440.8,91.7-440.8l15.5,7.3L4304.6,2119.3z"/>
		<path class="st16" d="M4493.5,2887.5c0,0-258.7,34.2-377.8,0c0,0-37.6-413.8-44.4-516.8c-14.4-218.9,9.8-349.7,35.1-432.8
			c7.2-24,14.7-43.9,21.2-60.8l-3.3-14.8l336.2,12.4c0,0,32.6,80.8,54.3,201c7.1,39.3,13.1,82.8,16.4,129
			C4544.4,2392.4,4514.1,2750.5,4493.5,2887.5z"/>
		<path class="st9" d="M4242.7,3393.3c0,0,1.4,52.8,0.2,64.5h-174.6c-4.8,0-7.5-4.5-4.8-7.9c6.6-8,20.8-20.2,49.7-28
			c45.8-12.3,58.9-28.6,58.9-28.6S4203.8,3408.1,4242.7,3393.3z"/>
		<path class="st17" d="M4514.7,2075.5c-67.1-43.9-142.4-75.7-220.6-93.2c-47.6-10.7-132.8-14.7-187.9-44.4
			c7.2-24,14.7-43.9,21.2-60.8l-3.3-14.8l336.2,12.4C4460.4,1874.6,4493,1955.3,4514.7,2075.5z"/>
		<path class="st18" d="M4140.8,1458.1c0,0-113.2,26.5-83.7,362.8l101.9-4.1l12.3-164.7C4171.3,1652.2,4203.5,1509.7,4140.8,1458.1z
			"/>
		<path class="st11" d="M4478.6,1204.4c4.2,9.5,8.4,18.9,12.8,28.1c11.8,24.7,22.4,48.6,16.8,76.8c-3.5,17.8-13.9,34.6-29.7,43.5
			c-15.6,8.8-34.4,9.1-52.3,9.2c-17.8,0.1-35.7,0.2-53.2-2.9c-17.1-3-35.1-8.8-51.1-2.1c-4.8,2-9.2,5.1-14.2,6.6
			c-13.7,4.2-27.7-3.9-40.5-10c-18.9-9.1-39.5-14.5-60.4-16c-16.3-1.2-33.3-0.1-48.6-5.8c-32.7-12.3-26.7-40.5-12.6-64.4
			c36.4-61.7,54.2-151.3,127.7-178.8c17.5-6.5,41-11.7,59.8-10.1c25.8,2.1,62.2,11.3,82.6,27.8
			C4446.4,1131.2,4462.6,1168.2,4478.6,1204.4z"/>
		<path class="st7" d="M4409.5,1434.1c0,0-47.5,96.8-99.7,85.8c-52.2-11-94.8-93.9-94.8-93.9l43.4-22.8c5.8-3,9.6-8.8,10.2-15.2
			l0.5-5.6l4.2-51.2l75.5,8.3l2.5,29l2,23.2c0.5,6.2,4,11.6,9.3,14.7L4409.5,1434.1z"/>
		<path class="st8" d="M4351.2,1368.4c-15,13.3-35,21.4-61.8,18.4c-7.4-0.8-14.2-2.4-20.3-4.5l4.2-51.2l75.5,8.3L4351.2,1368.4z"/>
		<path class="st7" d="M4393.5,1252.5c0,2.2-0.1,4.5-0.4,7c-0.7,8.2-2.3,17.8-5.7,28.8c-5.7,18.9-15,40.4-30,56.5
			c-15.6,16.8-37.6,27.8-68,24.5c-59.9-6.6-75.1-60.4-78.2-100.2c-0.1-1.3-0.1-2.6-0.2-3.9c-2-38.7,11-75.5,11-75.5
			c17.2-36.5,80.4-36,80.4-36s10,29.6,88.5,73.6C4390.8,1227.2,4394.1,1236.3,4393.5,1252.5z"/>
		<path class="st13" d="M4306.5,1279.2c0.1,0,0.1,0.2,0,0.1S4306.4,1279.2,4306.5,1279.2z"/>
		<path class="st8" d="M4265.1,1298.1c7.5,13.8,32.2,13.1,42.9,3.6c1.1-1,2.9,0.4,2.3,1.7c-3.7,9.4-16.5,10.5-25.2,10.5
			c-10.6,0.1-20.4-3.8-25.5-13.5C4258,1297.2,4263.3,1294.8,4265.1,1298.1z"/>
		<path class="st12" d="M4332.6,1246.3c0.5,0,1,0.1,1.6,0.2c5.8,1.7,5.2,9.6,2.9,13.8c-1.1,2-3.1,3.7-5.5,3.4
			c-2.7-0.3-4.2-2.8-4.9-5.2C4325.6,1254.1,4326.7,1245.7,4332.6,1246.3z"/>
		<path class="st12" d="M4257.7,1238.1c-0.5-0.1-1-0.1-1.6-0.1c-6,0.4-7.1,8.2-5.8,12.8c0.7,2.2,2.2,4.3,4.7,4.5
			c2.7,0.3,4.7-1.8,5.9-4C4263,1247.2,4263.7,1238.8,4257.7,1238.1z"/>
		<path class="st19" d="M4493.5,1465l-6.8,59.4h-0.1l-0.1,0.5l-17.2,148l-3,26.5l-0.1,1.2l-7.2,61.9l-1.2,10.5l-9.6,81.8
			c0,0-60.5,38.4-143.5,38.4s-140.1-37.8-140.1-37.8l-19.6-141.1l-3.9-28.2l-0.1-1.8c0,0-2.2-3-5.1-8.2
			c-10.1-16.8-30.2-56.5-13.5-81.2c17.6-25.7,23.7-52.8,24.8-76c0.9-19.3-5.9-60.3-6-60.9c2.4-3.8,92.6-43.9,92.6-43.9
			c9.5,32.1,16.6,64.1,70.2,64.1c53.8,0,80.2-61.9,80.2-61.9l99.4,44l1.1,0.5h0.1L4493.5,1465z"/>
		<path class="st8" d="M4284.3,1260.3c2-4.8,1.9-11.2,5-15.3c0.1-0.2,0.4-0.3,0.6-0.1c4.1,4,1.5,11.3-0.2,16
			c-1.2,3.3-2.7,6.5-4.2,9.6c-0.5,1.1-2.9,4.3-2.6,5.5c0.7,3.3,6.8,3.2,9.1,3c3.8-0.4,3.8,5.6,0,6c-5.4,0.5-16.5-2.2-15.2-9.3
			C4277.8,1270.6,4282.2,1265.1,4284.3,1260.3z"/>
		<path class="st12" d="M4318.5,1219.6c6.2-3,13.2-1.6,19.6,0.3c5.6,1.6,14.3,4.4,16.8,10.1c0.8,1.7-0.1,3.7-2.2,3.8
			c-5.7,0.3-11.4-4-16.9-5.6c-5.7-1.6-11.9-1.7-17.3-4.3C4316.9,1223.1,4316.9,1220.4,4318.5,1219.6z"/>
		<path class="st12" d="M4239.7,1211.9c7.6-8,25.7-4.5,33.8,1c2.6,1.7,2,6.9-1.8,6.5c-5.9-0.6-11.5-2.6-17.5-2.5
			c-5,0.1-9.6,1.4-14.1-1.1C4238.8,1215,4238.7,1213,4239.7,1211.9z"/>
		<path class="st18" d="M4399.9,1659c-32.4,14.3-70.2,13.6-102.4-0.6c-2.7-1.2-5,1.2-3.8,3.8c7.9,18,33.9,18.8,51.1,19.9
			c22.2,1.4,43-2,59-18.1C4406.5,1661.3,4403,1657.6,4399.9,1659z"/>
		<g>
			<path class="st6" d="M4406.3,1252.5c-0.1,0.5-0.5,0.9-0.9,1.2c-1.7,1.5-3.9,2.1-6,2.9c-2.2,0.9-4.3,1.7-6.3,2.8
				c-6.8,3.4-12.8,7.9-18.8,13.2c-4.6,4.1-9,8.7-13.2,13.4c0.5,26-1.3,45.1-3.8,58.7c-15.6,16.8-37.6,27.8-68,24.5
				c-59.9-6.6-75.1-60.4-78.2-100.2c-0.1-1.3-0.1-2.6-0.2-3.9c66.7,0.4,121.4,12.3,141.7,17.2c4.8-5.6,11-10.7,15.5-14.6
				c7.4-6.6,16-12.2,25.4-15.1c2.9-1.1,5.8-1.7,8.9-2.2c1,0,1.8-0.1,2.7,0.1C4405.8,1250.8,4406.5,1251.6,4406.3,1252.5z"/>
			<path class="st1" d="M4245.6,1279.6c7.8,0.4,15,0.8,22.8-0.9c5.1-1.1,9.4-3,14.7-2.3c5.9,0.7,10.8,3.9,16.3,5.9
				c7.3,2.6,15.1,3.2,22.4,5.6c0.5,0.2,0.5,1,0,1.1c-16.4,6.5-28.5-7.6-44.6-6.5c-11.9,0.8-21.5,6.5-32.8,0
				C4242.9,1281.7,4244.1,1279.6,4245.6,1279.6z"/>
		</g>
		<path class="st7" d="M4387.7,1263.7c0,0,18.5-22.3,27.2-11.5c8.7,10.9-4.9,61.4-38.4,56.5L4387.7,1263.7z"/>
		<path class="st8" d="M4399.3,1265.2c1.5-0.6,2.8,1.7,1.6,2.7c-3.3,2.6-6.5,5.1-9.3,8.2c2.9-0.1,6,0.6,8.4,1.5
			c2,0.7,1.8,3.9-0.5,3.8c-3.6-0.1-8,0.5-11.5-0.3c-1.3,2.2-2.4,4.6-3.7,6.9c-1.3,2.2-4.6,0.7-4-1.7
			C4382.3,1277.3,4390.9,1268.4,4399.3,1265.2z"/>
		<g>
			<path class="st7" d="M4212.3,2135.8c0,0,12.6-31,53.9-32.6c0,0-69-193.9-110.3-219.6c-28.7-17.8-81.2,2.7-70.3,51.5
				C4096.6,1983.8,4212.3,2135.8,4212.3,2135.8z"/>
			<g>
				<path class="st7" d="M4215.5,2088.3c-6.8,10-23.5,74.6,74.8,165.2c2.6,2.4,6.1,3.7,9.6,4.2c2.8,0.3,5.7-0.3,8.5-1.2
					c0.9-0.2,1.9-0.6,2.8-0.9c1.1-0.4,2.4-0.9,3.5-1.5c3-1.4,6-2.8,8.9-4.5c1.4-0.7,2.6-1.5,3.8-2.2c2-1.3,4.1-2.7,6-4.1
					c0.9-0.6,1.8-1.4,2.6-2.1c0.9-0.8,1.8-1.5,2.5-2.4c0.5-0.7,0.9-1.3,1.3-2c3.3-6.2,0.5-13.7-2.6-20
					c-10.2-21.1-22.2-41.3-35.9-60.3c8.6,3.4,17,7,25.4,10.5c3.6,1.5,7.6,3.1,11.6,2.6c3.9-0.5,7.9-3.7,7.6-7.7
					c-11.5-11.1-24.4-18.3-37.1-27.8c-18.2-13.6-34.9-29.1-51-45c-4.9-4.8-10-13.1-16.6-14.9
					C4231.9,2072,4220.2,2081.3,4215.5,2088.3z"/>
				<path class="st8" d="M4257.5,2194.6c5,13.2,16.1,25.3,25.2,35.8c7.6,8.7,16,18.8,25.7,26.2c0.9-0.2,1.9-0.6,2.8-0.9
					c1.1-0.4,2.4-0.9,3.5-1.5c-7.5-8.6-16.8-16.2-24.4-24.7c-10.3-11.6-18.5-25.9-29.6-36.6
					C4259.4,2191.7,4256.8,2192.8,4257.5,2194.6z"/>
				<path class="st8" d="M4275.6,2185.1c5,13.5,13.1,25.1,21.9,36.4c7.6,9.7,16.1,20.5,26.1,28.2c1.4-0.7,2.6-1.5,3.8-2.2
					c-6.7-9.4-15.3-17.8-22.4-26.9c-9.4-12-17.3-25.1-27.3-36.6C4277,2183,4275.1,2183.9,4275.6,2185.1z"/>
				<path class="st8" d="M4293.2,2173.6c6.4,14.1,15.4,27.1,23.8,40.1c5.9,9.2,11.9,19.1,19,27.6c0.9-0.8,1.8-1.5,2.5-2.4
					c-5.8-11.1-13.3-21.8-20-32.2c-7.3-11.7-14.2-23.9-22.8-34.9C4294.5,2170.3,4292.6,2172.1,4293.2,2173.6z"/>
			</g>
		</g>
		<path class="st18" d="M4052.7,1748.8c0,0,5,113.1,12.3,151.8s59,119.3,59,119.3s65.7-14.2,91-49.6l-51.5-121l-9.9-71.2
			L4052.7,1748.8z"/>
		<g>
			<path class="st7" d="M4221.6,1933.6c0,0,17.6-28.5-5.5-62.8c0,0,197.2-58.9,242.4-40.6c31.3,12.6,45.8,67.1,0,87.1
				C4412.7,1937.3,4221.6,1933.6,4221.6,1933.6z"/>
			<g>
				<path class="st7" d="M4258.1,1903.1c-4.1,11.4-46.3,63-177.5,37.2c-3.5-0.7-6.6-2.7-9.1-5.3c-1.9-2.1-3.1-4.7-4-7.5
					c-0.4-0.8-0.6-1.9-0.9-2.8c-0.3-1.1-0.6-2.5-0.9-3.7c-0.7-3.2-1.2-6.5-1.6-9.8c-0.2-1.5-0.3-3-0.5-4.4c-0.2-2.4-0.2-4.9-0.3-7.2
					c0-1.1,0.1-2.3,0.2-3.4c0.1-1.2,0.1-2.4,0.4-3.4c0.3-0.8,0.5-1.5,0.8-2.2c3.1-6.3,10.8-8.5,17.7-9.7c23.1-4.2,46.4-6.5,69.8-6.6
					c-7.8-4.9-15.7-9.6-23.5-14.3c-3.4-2-7-4.3-9-7.8c-1.9-3.4-1.7-8.5,1.7-10.7c15.7,2.7,29.1,8.9,44.3,13.5
					c21.7,6.6,44.1,11,66.5,14.6c6.7,1.1,16.5,0.3,21.8,4.6C4261.6,1880.2,4261,1895.1,4258.1,1903.1z"/>
				<path class="st8" d="M4147.6,1931.9c-13.6,3.8-29.9,1.9-43.8,0.8c-11.6-1-24.7-1.8-36.3-5.3c-0.4-0.8-0.6-1.9-0.9-2.8
					c-0.3-1.1-0.6-2.5-0.9-3.7c11.4,1,23,4,34.4,5.1c15.5,1.5,31.8-0.4,47,2.3C4148.7,1928.6,4149.4,1931.4,4147.6,1931.9z"/>
				<path class="st8" d="M4144.5,1911.7c-13.9,4-28,4.2-42.3,3.8c-12.4-0.4-26-0.9-38.2-4.4c-0.2-1.5-0.3-3-0.5-4.4
					c11.5-0.1,23.4,1.8,34.9,2.2c15.3,0.5,30.5-0.8,45.7,0.4C4145.4,1909.3,4145.7,1911.4,4144.5,1911.7z"/>
				<path class="st8" d="M4143.4,1890.7c-15.2,3.2-31,3.6-46.4,4.5c-10.9,0.7-22.4,1.6-33.5,0.9c0.1-1.2,0.1-2.4,0.4-3.4
					c12.4-1.9,25.4-2.1,37.8-2.9c13.8-1,27.7-2.6,41.6-2.2C4145.3,1887.7,4145,1890.3,4143.4,1890.7z"/>
			</g>
		</g>
		<path class="st18" d="M4409.5,1826.7c0,0,37.7-124.2,43.7-179.4c18.7-173.3,40.3-182.4,40.3-182.4s35.4-3.4,51,124.2
			s-26.4,274.4-65.1,312.1C4479.4,1901.3,4467.6,1863.9,4409.5,1826.7z"/>
	</g>
</g>
</svg>
