<?xml version="1.0" encoding="utf-8"?>
<!-- Generator: Adobe Illustrator 22.0.0, SVG Export Plug-In . SVG Version: 6.00 Build 0)  -->
<svg version="1.1" id="Layer_1" xmlns="http://www.w3.org/2000/svg" xmlns:xlink="http://www.w3.org/1999/xlink" x="0px" y="0px"
	 viewBox="0 0 234.8 438.5" enable-background="new 0 0 234.8 438.5" xml:space="preserve">
<g>
	<path fill="#F1B7B2" d="M94.2,112.8c0,0-19.8-12.2-18.8-15.8c2.4-9,20.3-26.3,20.3-26.3s3.7-2.4,7.4-4.5c4.2-2.3,8.5-4.2,8-5.6
		c-1.5-5-9-5.3-13.7-4.7c-4.7,0.6-7.9,6.7-7.9,6.7S71.1,72.2,57,93.5c-6.4,15.8,16.1,30.3,23,38.3C86.9,139.9,94.2,112.8,94.2,112.8
		z"/>
	<path fill="#221FFF" d="M99.2,108.9c0,0-17-5.2-22.9-13.1c-2.5-3.4-17.5,10.1-17.2,15.1c0.2,4.9,26.7,37.4,32.3,36.7
		C97,146.9,99.2,108.9,99.2,108.9z"/>
	<g>
		<path fill="#F1B7B2" d="M91.5,363.5c2.5,21.7,4.2,37.8,3.3,38.3c-2.5,1.3,5.3,8.7,9.4,4.1c-0.3-12.8-0.1-27.7,0.5-42.9
			C100.3,362.8,95.9,363.3,91.5,363.5z"/>
	</g>
	<g>
		<path fill="#343F60" d="M94.7,400.9c0,0-11.6,5.7-11.1,8.7c0.4,2.3,12.3,1.1,18.4,0.3c1.9-0.2,3.3-1.9,3.1-3.8l-0.5-5L94.7,400.9z
			"/>
	</g>
	<g>
		<path fill="#F1B7B2" d="M141.1,364c5.9,21,10.1,36.6,9.2,37.3c-2.3,1.7,6.6,7.7,10,2.6c-2.3-12.6-4.4-27.3-6.3-42.5
			C149.6,361.9,145.4,363.1,141.1,364z"/>
	</g>
	<g>
		<path fill="#343F60" d="M159.9,399l-9.8,1.4c0,0-10.5,7.4-9.6,10.4c0.7,2.2,12.4-0.9,18.2-2.6c1.8-0.5,2.9-2.4,2.4-4.3L159.9,399z
			"/>
	</g>
	<g>
		<path fill="#343F60" d="M84.8,215.1c0,0-2.7,101.9,4.3,173.6c-0.6,0.5,12,1.7,19.1,1.5c0.2-1.8,9.5-127.6,9.5-127.6
			s20.9,114.7,26.9,128.9c4.8,0,10.5-1.2,16.9-2c-1.2-24.3-4.2-115.3-10.7-185.6C153.2,203.3,84.8,215.1,84.8,215.1z"/>
	</g>
	<g>
		<path fill="#D9A5A1" d="M135.9,78.6c0,0-19.4,6.2-19.9,3.7c-3.8,19.5-11.7,25.2-13.1,26c2.9,7.2,41.7,8.9,40.2,3.2
			C134.3,97.8,135.9,78.6,135.9,78.6z"/>
	</g>
	<g>
		<path fill="#F1B7B2" d="M110.9,65.7c0,0-9.7,28.9,0.3,36.6c10,7.6,27.5-7.3,27.3-22.9C138.3,63.9,118.3,56.8,110.9,65.7z"/>
	</g>
	<g>
		<path fill="#343F60" d="M112.6,51c-4.6,0.7-9.5,5.3-3.2,21.2c-0.1-0.4,0.3-4.9,4.2-7.6c0,0,13.3-1.5,20.3,7.8
			c1,3.7,2.9,13.4,2.2,18.1c0.8-1.5,7.9-12.3,3.4-29.7C134.7,51.9,117.2,50.2,112.6,51z"/>
	</g>
	<g>
		<path fill="#F1B7B2" d="M134.8,79.4l0,10c0,0,3.9-5.3,3.7-7.6C138.1,78,134.8,79.4,134.8,79.4z"/>
	</g>
	<g>
		<path fill="#221FFF" d="M140.5,105.7c-2.8,6.5-26.3,9.3-34.2-1.7c-0.1,0.1-8.2-2.6-14.4,4c-2.7,2.9-4.2,6.7-4.3,10.6
			c-0.5,13.2-0.2,48-4.1,64.8c-4.5,19.1,0.2,27.4,1.6,30.1c1.5,3.7,44.6,15.9,64.1,1.7c5.5-2.9,4.6-11.6,7.3-23.4
			c2.8-12.5,8.8-73.8,8.8-73.8S151.2,101.1,140.5,105.7z"/>
	</g>
	<path fill="#2D2F8A" d="M121,111.6c0,0-15.3,88.6-8.4,109.2c0.2,0,4.2,0.9,4.2,0.9s1.7-65.3,5.9-110.3
		C122.5,111.2,121,111.6,121,111.6z"/>
	<path fill="#2B3085" d="M102.9,103c0,0,4.3,10.8,9,15.1c1.7-0.7,9.8-5.4,9.8-5.4l8.8,8.3c0,0,12.1-4.7,16.7-15.8
		c-1-1.2-4.1-1.8-6.1-2.1c-2-0.3-6.4,5.5-17.7,4.9c-11.3-0.6-15.3-5.9-15.3-5.9L102.9,103z"/>
	<path fill="#31419A" d="M127.7,143.3c0,0-0.5,14.9,0.8,16.4c1.3,1.5,17.3,1.9,19.5,0.6c2.2-1.4,1.5-17.1,1.2-17.1
		C148.8,143.3,127.7,143.3,127.7,143.3z"/>
	<polygon fill="#362DE8" points="127.5,141.4 150.1,141.8 150.6,144.9 127,144.4 	"/>
	<path fill="#E5F4F3" d="M132.1,89.4c0.3-2.7,2-7.7,3.4-10.3c0,0,0-0.3,0-0.3c-2.3,3.5-6.4,10.8-9.5,10.5
		c-13.2-7.1-19.5-4.4-19.5-4.4s-4.6,17.4,7.7,20c12,2.5,15.9-3.6,18.4-8.3c2.5-4.7,3.5-9.5,3.5-9.5S131.2,97.8,132.1,89.4z"/>
	<path fill="#F1B7B2" d="M158.6,118.1c0,0,19.7-19.5,18.4-23c-3.2-8.7-23.6-24.7-23.6-24.7s-3.9-2.1-7.8-3.8
		c-4.4-1.9-8.8-3.4-8.5-4.9c1.1-5.2,8.5-6.1,13.2-5.9c4.7,0.2,8.4,6,8.4,6S178,69.7,194,89.7c7.8,15.2-13.4,31.6-19.6,40.2
		C168.3,138.5,158.6,118.1,158.6,118.1z"/>
	<path fill="#221FFF" d="M151.7,110.5c0,0,17.2-4.6,23.4-12.3c2.6-3.3,17.1,10.8,16.7,15.7c-0.4,4.9-28,36.5-33.6,35.5
		C152.5,148.5,151.7,110.5,151.7,110.5z"/>
</g>
</svg>
