<?xml version="1.0" encoding="utf-8"?>
<!-- Generator: Adobe Illustrator 22.0.0, SVG Export Plug-In . SVG Version: 6.00 Build 0)  -->
<svg version="1.1" id="Layer_2_1_" xmlns="http://www.w3.org/2000/svg" xmlns:xlink="http://www.w3.org/1999/xlink" x="0px" y="0px"
	 viewBox="0 0 5320 3714.6" enable-background="new 0 0 5320 3714.6" xml:space="preserve">
<g>
	<g>
		<g>
			<g>
				<defs>
					<rect id="SVGID_X_1_" y="404.8" width="5199.8" height="2921.8"/>
				</defs>
				<clipPath id="SVGID_X_2_">
					<use xlink:href="#SVGID_X_1_"  overflow="visible"/>
				</clipPath>
			</g>
			<g>
				<defs>
					<rect id="SVGID_X_3_" y="404.8" width="5199.8" height="2921.8"/>
				</defs>
				<defs>
					<rect id="SVGID_X_4_" x="0.1" y="404.8" width="5199.9" height="2921.9"/>
				</defs>
				<clipPath id="SVGID_X_5_">
					<use xlink:href="#SVGID_X_3_"  overflow="visible"/>
				</clipPath>
				<clipPath id="SVGID_X_6_" clip-path="url(#SVGID_X_5_)">
					<use xlink:href="#SVGID_X_4_"  overflow="visible"/>
				</clipPath>
				<polygon display="none" clip-path="url(#SVGID_X_6_)" fill="#0F62FE" points="5199.8,404.8 0,404.8 0,3326.6 5199.8,3326.6 				
					"/>
			</g>
		</g>
		<g>
			<g>
				<defs>
					<rect id="SVGID_X_7_" y="404.8" width="5199.8" height="2921.8"/>
				</defs>
				<clipPath id="SVGID_X_8_">
					<use xlink:href="#SVGID_X_7_"  overflow="visible"/>
				</clipPath>
			</g>
			<g>
				<defs>
					<rect id="SVGID_X_9_" y="404.8" width="5199.8" height="2921.8"/>
				</defs>
				<defs>
					<rect id="SVGID_X_10_" x="0.1" y="404.8" width="5199.9" height="2921.9"/>
				</defs>
				<clipPath id="SVGID_X_11_">
					<use xlink:href="#SVGID_X_9_"  overflow="visible"/>
				</clipPath>
				<clipPath id="SVGID_X_12_" clip-path="url(#SVGID_X_11_)">
					<use xlink:href="#SVGID_X_10_"  overflow="visible"/>
				</clipPath>
				
					<path clip-path="url(#SVGID_X_12_)" fill="none" stroke="#A669ED" stroke-width="19" stroke-linecap="round" stroke-linejoin="round" stroke-miterlimit="10" stroke-dasharray="60.69,121.38,0,0" d="
					M1029.1,1745.5c524.4,0,950.2,426.2,950.2,951.1s-425.8,951.1-950.2,951.1S78.9,3221.6,78.9,2696.6S504.7,1745.5,1029.1,1745.5
					L1029.1,1745.5z"/>
			</g>
		</g>
		<g>
			<g>
				<defs>
					<rect id="SVGID_X_13_" y="404.8" width="5199.8" height="2921.8"/>
				</defs>
				<clipPath id="SVGID_X_14_">
					<use xlink:href="#SVGID_X_13_"  overflow="visible"/>
				</clipPath>
			</g>
			<g>
				<defs>
					<rect id="SVGID_X_15_" y="404.8" width="5199.8" height="2921.8"/>
				</defs>
				<defs>
					<rect id="SVGID_X_16_" x="0.1" y="404.8" width="5199.9" height="2921.9"/>
				</defs>
				<clipPath id="SVGID_X_18_">
					<use xlink:href="#SVGID_X_15_"  overflow="visible"/>
				</clipPath>
				<clipPath id="SVGID_X_19_" clip-path="url(#SVGID_X_18_)">
					<use xlink:href="#SVGID_X_16_"  overflow="visible"/>
				</clipPath>
				
					<path clip-path="url(#SVGID_X_19_)" fill="none" stroke="#A669ED" stroke-width="19.817" stroke-linecap="round" stroke-linejoin="round" stroke-miterlimit="10" stroke-dasharray="60.69,121.38,0,0" d="
					M2514.1,83.6c524.4,0,950.2,426.2,950.2,951.1s-425.8,951.1-950.2,951.1s-950.2-426.2-950.2-951.1S1989.7,83.6,2514.1,83.6
					L2514.1,83.6z"/>
			</g>
		</g>
		<g>
			<g>
				<defs>
					<rect id="SVGID_X_20_" y="404.8" width="5199.8" height="2921.8"/>
				</defs>
				<clipPath id="SVGID_X_21_">
					<use xlink:href="#SVGID_X_20_"  overflow="visible"/>
				</clipPath>
			</g>
			<g>
				<defs>
					<rect id="SVGID_X_22_" y="404.8" width="5199.8" height="2921.8"/>
				</defs>
				<defs>
					<rect id="SVGID_X_23_" x="0.1" y="404.8" width="5199.9" height="2921.9"/>
				</defs>
				<clipPath id="SVGID_X_24_">
					<use xlink:href="#SVGID_X_22_"  overflow="visible"/>
				</clipPath>
				<clipPath id="SVGID_X_25_" clip-path="url(#SVGID_X_24_)">
					<use xlink:href="#SVGID_X_23_"  overflow="visible"/>
				</clipPath>
				
					<path clip-path="url(#SVGID_X_25_)" fill="none" stroke="#A669ED" stroke-width="19.817" stroke-linecap="round" stroke-linejoin="round" stroke-miterlimit="10" stroke-dasharray="60.69,121.38,0,0" d="
					M4249.6,1660.2c524.4,0,950.2,426.2,950.2,951.1s-425.8,951.1-950.2,951.1s-950.2-426.2-950.2-951.1
					S3725.2,1660.2,4249.6,1660.2L4249.6,1660.2z"/>
			</g>
		</g>
		<g>
			<g>
				<defs>
					<rect id="SVGID_X_26_" y="404.8" width="5199.8" height="2921.8"/>
				</defs>
				<clipPath id="SVGID_X_27_">
					<use xlink:href="#SVGID_X_26_"  overflow="visible"/>
				</clipPath>
			</g>
			<g>
				<defs>
					<rect id="SVGID_X_28_" y="404.8" width="5199.8" height="2921.8"/>
				</defs>
				<defs>
					<rect id="SVGID_X_29_" x="0.1" y="404.8" width="5199.9" height="2921.9"/>
				</defs>
				<clipPath id="SVGID_X_30_">
					<use xlink:href="#SVGID_X_28_"  overflow="visible"/>
				</clipPath>
				<clipPath id="SVGID_X_31_" clip-path="url(#SVGID_X_30_)">
					<use xlink:href="#SVGID_X_29_"  overflow="visible"/>
				</clipPath>
				<path clip-path="url(#SVGID_X_31_)" fill="#325B64" d="M2697.2,1195.2c-1,0.5,3.1-0.6,3.4-0.6c30.9-7.5,35.3,16.2,33.6,41.8
					c-3.8,55.9-11.5,108.5-56.8,147.8c-5.9,5.2-16.6,14.2-25.3,11.7c-32.6-9.4-25.9-52.3-9-96
					C2663,1248.1,2697.2,1195.2,2697.2,1195.2L2697.2,1195.2z"/>
			</g>
		</g>
		<g>
			<g>
				<defs>
					<rect id="SVGID_X_32_" y="404.8" width="5199.8" height="2921.8"/>
				</defs>
				<clipPath id="SVGID_X_33_">
					<use xlink:href="#SVGID_X_32_"  overflow="visible"/>
				</clipPath>
			</g>
			<g>
				<defs>
					<rect id="SVGID_X_34_" y="404.8" width="5199.8" height="2921.8"/>
				</defs>
				<defs>
					<rect id="SVGID_X_35_" x="0.1" y="404.8" width="5199.9" height="2921.9"/>
				</defs>
				<clipPath id="SVGID_X_36_">
					<use xlink:href="#SVGID_X_34_"  overflow="visible"/>
				</clipPath>
				<clipPath id="SVGID_X_37_" clip-path="url(#SVGID_X_36_)">
					<use xlink:href="#SVGID_X_35_"  overflow="visible"/>
				</clipPath>
				<path clip-path="url(#SVGID_X_37_)" fill="#325B64" d="M2828.4,1169.7c-0.6,0.1,1.1,0.5,1.6,0.8c1.5,0.7,2.9,1.4,4.4,2.1
					c4.1,2.1,8.2,4.1,12.3,6.2c12.1,6.3,24.5,10.2,35.7,18.3c8.7,6.3,15.4,14.8,23.2,22.2c20.7,19.6,46.5,39.3,39.3,71.1
					c-1.8,8.2-5.6,16.6-12.5,21.7c-52.2,38.7-113.2-74.1-126.5-109.8c-1.6-4.3-7.7-14.7-5.6-19.7c3-7.3,22.3-10,28.7-12.5"/>
			</g>
		</g>
		<g>
			<g>
				<defs>
					<rect id="SVGID_X_38_" y="404.8" width="5199.8" height="2921.8"/>
				</defs>
				<clipPath id="SVGID_X_39_">
					<use xlink:href="#SVGID_X_38_"  overflow="visible"/>
				</clipPath>
			</g>
			<g>
				<defs>
					<rect id="SVGID_X_40_" y="404.8" width="5199.8" height="2921.8"/>
				</defs>
				<defs>
					<rect id="SVGID_X_41_" x="0.1" y="404.8" width="5199.9" height="2921.9"/>
				</defs>
				<clipPath id="SVGID_X_42_">
					<use xlink:href="#SVGID_X_40_"  overflow="visible"/>
				</clipPath>
				<clipPath id="SVGID_X_43_" clip-path="url(#SVGID_X_42_)">
					<use xlink:href="#SVGID_X_41_"  overflow="visible"/>
				</clipPath>
				<path clip-path="url(#SVGID_X_43_)" fill="#739095" d="M2468,1128.9c2.1,5.9,52.8,34.7,60,38.1c26.7,12.5,55.9,18.9,84,27.3
					c16.1,4.8,32.2,9.8,48.4,14.5c26.5,7.7,33.7,11.7,64.4-2.4c10.6-4.9,14.9-5,10.7-16c-2.5-6.5-5.4-12.5-8.4-18.7
					c-1.9-3.9-3.6-8-4.7-12.2c-0.4-1.7-0.6-3.7-1.5-5.3c0,0-0.2-0.5-0.3-0.4c-0.2,0.2,1.8,1.8,1.9,1.9c5.8,4.8,11.5,9.8,17.4,14.6
					c7.3,6,63.1,41.2,69.4,39.1c6.3-2,11.9-11.2,17-15.4c3.7-3.1,17.5-12.8,19.3-17c1.3-2.9-5.1-38.1-5.8-43.4
					c-4.7-35.2-4.6-71.3-8.4-106.6c0.1,0.1-0.1-0.1-0.2-0.2c-0.6-1.9-0.3-4.4-0.3-6.4c0-4.4,0-8.8,0-13.1c0-11-0.1-21.9-0.8-32.9
					c-0.3-4-0.6-20.7-2.9-19.6c-8.2,4-15.6,12.4-23.2,17.5c-19.9,13.3-40.9,25.1-62,36.4c-84.3,45.2-173.2,83.7-262.6,117.6"/>
			</g>
		</g>
	</g>
	<g>
		<g>
			<g>
				<defs>
					<path id="SVGID_X_44_" d="M2468,1128.9c2.1,5.9,52.8,34.7,60,38.1c26.7,12.5,55.9,18.9,84,27.3c16.1,4.8,32.2,9.8,48.4,14.5
						c26.5,7.7,33.7,11.7,64.4-2.4c10.6-4.9,14.9-5,10.7-16c-2.5-6.5-5.4-12.5-8.4-18.7c-1.9-3.9-3.6-8-4.7-12.2
						c-0.4-1.7-0.6-3.7-1.5-5.3c0,0-0.2-0.5-0.3-0.4c-0.2,0.2,1.8,1.8,1.9,1.9c5.8,4.8,11.5,9.8,17.4,14.6
						c7.3,6,63.1,41.2,69.4,39.1c6.3-2,11.9-11.2,17-15.4c3.7-3.1,17.5-12.8,19.3-17c1.3-2.9-5.1-38.1-5.8-43.4
						c-4.7-35.2-4.6-71.3-8.4-106.6c0.1,0.1-0.1-0.1-0.2-0.2c-0.6-1.9-0.3-4.4-0.3-6.4c0-4.4,0-8.8,0-13.1c0-11-0.1-21.9-0.8-32.9
						c-0.3-4-0.6-20.7-2.9-19.6c-8.2,4-15.6,12.4-23.2,17.5c-19.9,13.3-40.9,25.1-62,36.4c-84.3,45.2-173.2,83.7-262.6,117.6"/>
				</defs>
				<clipPath id="SVGID_X_45_">
					<use xlink:href="#SVGID_X_44_"  overflow="visible"/>
				</clipPath>
				<path clip-path="url(#SVGID_X_45_)" fill="#899FA4" d="M2475.2,1163.8c0,0,52.2,17.5,77.7,17.2c91-1,149.3-23.5,224.5-78.9
					c37.5-27.6,78.1-61.7,66.2-117.8c-3-14.2-10.7-23.4-24-25.9C2756.6,946.7,2408.1,1085.9,2475.2,1163.8L2475.2,1163.8z"/>
			</g>
		</g>
	</g>
	<g>
		<g>
			<g>
				<defs>
					<rect id="SVGID_X_46_" y="404.8" width="5199.8" height="2921.8"/>
				</defs>
				<clipPath id="SVGID_X_47_">
					<use xlink:href="#SVGID_X_46_"  overflow="visible"/>
				</clipPath>
			</g>
			<g>
				<defs>
					<rect id="SVGID_X_48_" y="404.8" width="5199.8" height="2921.8"/>
				</defs>
				<defs>
					<rect id="SVGID_X_49_" x="0.1" y="404.8" width="5199.9" height="2921.9"/>
				</defs>
				<clipPath id="SVGID_X_50_">
					<use xlink:href="#SVGID_X_48_"  overflow="visible"/>
				</clipPath>
				<clipPath id="SVGID_X_51_" clip-path="url(#SVGID_X_50_)">
					<use xlink:href="#SVGID_X_49_"  overflow="visible"/>
				</clipPath>
				<path clip-path="url(#SVGID_X_51_)" fill="#FDD3B2" d="M2325.9,1450.9c1.4,0.9,3.4,28.4,3.5,32.1c0.5,31.6-39.3,74.5-23.3,103.5
					c10.4,18.8,31-48,47.7-40.8c7.4,3.2,10.9,15,13.8,21.6c6,13.4,27.5,66.8,42.4,70c11.1,2.4,23.9-4.6,33.8-8.7
					c8.6-3.6,17.3-7.5,24.5-13.6c7-5.9,9.2-12.1,12-20.5c11.4-34-22.3-55-43.3-76.6c-14.8-15.2-30.6-29.6-43.6-46.5
					c-4.9-6.5-9.3-13.3-13.6-20.2c-5.7-9.2-6.9-8.7-17.7-8.4c-11.1,0.3-22.1,2.7-32.4,6.9"/>
			</g>
		</g>
	</g>
	<g>
		<g>
			<g>
				<defs>
					<path id="SVGID_X_52_" d="M2325.9,1450.9c1.4,0.9,3.4,28.4,3.5,32.1c0.5,31.6-39.3,74.5-23.3,103.5c10.4,18.8,31-48,47.7-40.8
						c7.4,3.2,10.9,15,13.8,21.6c6,13.4,27.5,66.8,42.4,70c11.1,2.4,23.9-4.6,33.8-8.7c8.6-3.6,17.3-7.5,24.5-13.6
						c7-5.9,9.2-12.1,12-20.5c11.4-34-22.3-55-43.3-76.6c-14.8-15.2-30.6-29.6-43.6-46.5c-4.9-6.5-9.3-13.3-13.6-20.2
						c-5.7-9.2-6.9-8.7-17.7-8.4c-11.1,0.3-22.1,2.7-32.4,6.9"/>
				</defs>
				<clipPath id="SVGID_X_53_">
					<use xlink:href="#SVGID_X_52_"  overflow="visible"/>
				</clipPath>
				<path clip-path="url(#SVGID_X_53_)" fill="#EFB587" d="M2297.8,1463.3c7.1,8.3,21.8,13.9,31.7,17.8
					c61.1,24.3,107.3-33.2,43.2-48.2c-26.3-6.2-53.4,0.8-73.5,18.6"/>
			</g>
		</g>
	</g>
	<g>
		<g>
			<g>
				<defs>
					<rect id="SVGID_X_54_" y="404.8" width="5199.8" height="2921.8"/>
				</defs>
				<clipPath id="SVGID_X_55_">
					<use xlink:href="#SVGID_X_54_"  overflow="visible"/>
				</clipPath>
			</g>
			<g>
				<defs>
					<rect id="SVGID_X_56_" y="404.8" width="5199.8" height="2921.8"/>
				</defs>
				<defs>
					<rect id="SVGID_X_57_" x="0.1" y="404.8" width="5199.9" height="2921.9"/>
				</defs>
				<clipPath id="SVGID_X_58_">
					<use xlink:href="#SVGID_X_56_"  overflow="visible"/>
				</clipPath>
				<clipPath id="SVGID_X_59_" clip-path="url(#SVGID_X_58_)">
					<use xlink:href="#SVGID_X_57_"  overflow="visible"/>
				</clipPath>
				<path clip-path="url(#SVGID_X_59_)" fill="#F2C099" d="M2873.6,970.8c-0.2,0,0.1,2.5,0.1,2.7c0.2,2.6,0.1,5.3,0.1,7.9
					c-0.1,6.7-0.3,13.3-0.5,20c-0.7,22.2-2.5,51.1,23,58.9c5.8,1.8,12.3,3,18.1,0.5c23.4-9.8,6.4-60.1,0.8-76.4
					c-1.2-3.5-6-20.8-9-22.5c-1.8-1.1-24.4,5.8-26.9,6.6"/>
			</g>
		</g>
		<g>
			<g>
				<defs>
					<rect id="SVGID_X_60_" y="404.8" width="5199.8" height="2921.8"/>
				</defs>
				<clipPath id="SVGID_X_61_">
					<use xlink:href="#SVGID_X_60_"  overflow="visible"/>
				</clipPath>
			</g>
			<g>
				<defs>
					<rect id="SVGID_X_62_" y="404.8" width="5199.8" height="2921.8"/>
				</defs>
				<defs>
					<rect id="SVGID_X_63_" x="0.1" y="404.8" width="5199.9" height="2921.9"/>
				</defs>
				<clipPath id="SVGID_X_64_">
					<use xlink:href="#SVGID_X_62_"  overflow="visible"/>
				</clipPath>
				<clipPath id="SVGID_X_65_" clip-path="url(#SVGID_X_64_)">
					<use xlink:href="#SVGID_X_63_"  overflow="visible"/>
				</clipPath>
				<path clip-path="url(#SVGID_X_65_)" fill="#C9BF2E" stroke="#73C9BA" stroke-miterlimit="10" d="M2259,750.7
					c0.7-2.8-5.1,2.7-7.6,4.1c-4.8,2.6-9.6,5.3-14.3,8c-14.8,8.5-29.2,17.4-44.3,25.4c-47.3,25.1-107.7,59.3-110.6,120.6
					c-1.3,28.4,7.4,57.5,14.3,84.8c10.5,41.4,23,82.2,47.2,117.8c44.7,65.7,111.9,113.4,134.5,193.1c10.3,36.2,17.3,73.6,24.1,110.6
					c2.8,15.3,2.6,35.2,8.8,49.7c1.1,2.6,4.9,3.5,7.2,4.1c13,3.8,65,11.2,72.3-6c4.5-10.5-8.2-88.1-9.2-104
					c-4-58.1,0.1-112-22.4-167.2c-11.8-29-31.8-61-57.2-80.1c-9.1-6.8-19.8-11.6-29.3-17.9c-3.5-2.3-6.9-4.8-10.3-7.3
					c-1.3-1-5.6-3.2-3.9-3.2c3.9,0,32.1,20.1,38.1,22.9c40.2,19.3,115,25.6,159.5,29.2c113.9,9.2,201.4-23.7,294.9-84.8
					c34.9-22.8,64.9-39.7,81.5-79.6c20.2-48.6,8.2-127.9-3.4-178.8c-0.6,0.9-0.1,2.4,0.1,3.4c4,19.7,11.3,38.7,15.4,58.5
					c3.2,15.6,16.5,129.8,24.6,136.1c1.5,1.1,34.8-6.9,38.8-9.3c4-2.4,2.9-10.1,2.6-13.8c-4.5-52.3-8-105.2-11-157.5
					c-2.1-36.9-0.8-72.9-8.2-109.4c-5.2-25.7-12.2-60.4-22.7-92.4c3.8,3-0.8-9.7-1.6-14.5c-3.2-18.7-13.1-32.2-23.8-47.2
					c-30.3-42.5-93.6-26.7-136.4-14.8c-66.9,18.7-130,54.1-191.2,86.5c-76.3,40.4-152.4,81-229.1,120.5"/>
			</g>
		</g>
	</g>
	<g>
		<g>
			<path id="SVGID_X_17_" fill="#F9ED38" d="M2259,750.7c0.7-2.8-5.1,2.7-7.6,4.1c-4.8,2.6-9.6,5.3-14.3,8
				c-14.8,8.5-29.2,17.4-44.3,25.4c-47.3,25.1-107.7,59.3-110.6,120.6c-1.3,28.4,7.4,57.5,14.3,84.8c10.5,41.4,23,82.2,47.2,117.8
				c44.7,65.7,111.9,113.4,134.5,193.1c10.3,36.2,17.3,73.6,24.1,110.6c2.8,15.3,2.6,35.2,8.8,49.7c1.1,2.6,4.9,3.5,7.2,4.1
				c13,3.8,65,11.2,72.3-6c4.5-10.5-8.2-88.1-9.2-104c-4-58.1,0.1-112-22.4-167.2c-11.8-29-31.8-61-57.2-80.1
				c-9.1-6.8-19.8-11.6-29.3-17.9c-3.5-2.3-6.9-4.8-10.3-7.3c-1.3-1-5.6-3.2-3.9-3.2c3.9,0,32.1,20.1,38.1,22.9
				c40.2,19.3,115,25.6,159.5,29.2c113.9,9.2,201.4-23.7,294.9-84.8c34.9-22.8,64.9-39.7,81.5-79.6c20.2-48.6,8.2-127.9-3.4-178.8
				c-0.6,0.9-0.1,2.4,0.1,3.4c4,19.7,11.3,38.7,15.4,58.5c3.2,15.6,16.5,129.8,24.6,136.1c1.5,1.1,34.8-6.9,38.8-9.3
				c4-2.4,2.9-10.1,2.6-13.8c-4.5-52.3-8-105.2-11-157.5c-2.1-36.9-0.8-72.9-8.2-109.4c-5.2-25.7-12.2-60.4-22.7-92.4
				c3.8,3-0.8-9.7-1.6-14.5c-3.2-18.7-13.1-32.2-23.8-47.2c-30.3-42.5-93.6-26.7-136.4-14.8c-66.9,18.7-130,54.1-191.2,86.5
				c-76.3,40.4-152.4,81-229.1,120.5"/>
		</g>
		<g>
			<g>
				<defs>
					<path id="SVGID_X_66_" d="M2259,750.7c0.7-2.8-5.1,2.7-7.6,4.1c-4.8,2.6-9.6,5.3-14.3,8c-14.8,8.5-29.2,17.4-44.3,25.4
						c-47.3,25.1-107.7,59.3-110.6,120.6c-1.3,28.4,7.4,57.5,14.3,84.8c10.5,41.4,23,82.2,47.2,117.8
						c44.7,65.7,111.9,113.4,134.5,193.1c10.3,36.2,17.3,73.6,24.1,110.6c2.8,15.3,2.6,35.2,8.8,49.7c1.1,2.6,4.9,3.5,7.2,4.1
						c13,3.8,65,11.2,72.3-6c4.5-10.5-8.2-88.1-9.2-104c-4-58.1,0.1-112-22.4-167.2c-11.8-29-31.8-61-57.2-80.1
						c-9.1-6.8-19.8-11.6-29.3-17.9c-3.5-2.3-6.9-4.8-10.3-7.3c-1.3-1-5.6-3.2-3.9-3.2c3.9,0,32.1,20.1,38.1,22.9
						c40.2,19.3,115,25.6,159.5,29.2c113.9,9.2,201.4-23.7,294.9-84.8c34.9-22.8,64.9-39.7,81.5-79.6c20.2-48.6,8.2-127.9-3.4-178.8
						c-0.6,0.9-0.1,2.4,0.1,3.4c4,19.7,11.3,38.7,15.4,58.5c3.2,15.6,16.5,129.8,24.6,136.1c1.5,1.1,34.8-6.9,38.8-9.3
						c4-2.4,2.9-10.1,2.6-13.8c-4.5-52.3-8-105.2-11-157.5c-2.1-36.9-0.8-72.9-8.2-109.4c-5.2-25.7-12.2-60.4-22.7-92.4
						c3.8,3-0.8-9.7-1.6-14.5c-3.2-18.7-13.1-32.2-23.8-47.2c-30.3-42.5-93.6-26.7-136.4-14.8c-66.9,18.7-130,54.1-191.2,86.5
						c-76.3,40.4-152.4,81-229.1,120.5"/>
				</defs>
				<clipPath id="SVGID_X_67_">
					<use xlink:href="#SVGID_X_66_"  overflow="visible"/>
				</clipPath>
				<path clip-path="url(#SVGID_X_67_)" fill="#FFD10F" stroke="#F9EE47" stroke-miterlimit="10" d="M2120.9,1102.8
					c0,0-72.7-130.4-69.9-129.4c11.1,3.8,22.2,7.7,33.2,11.5c29.9,10.5,60.5,20.3,91.7,26.1c92.6,17.4,202,10.2,289.5-25.5
					c128.3-52.2,218.1-151.5,302.3-258c32.9-41.5,66.5-100.2,115.4-124.7c100.9-50.5,199.3,120.4,218.1,194.6
					c65.4,258.6-147.1,420.2-382,444c-80.8,8.2-193.9-19.6-267.7,14.1c-96,43.9,13.3,205.9-4.8,233.6c-6.4,9.7-66.5,37.5-76.5,39.8
					c-139.8,32-119.2-210.3-148.6-281.7C2199.1,1192.8,2145.7,1156.5,2120.9,1102.8L2120.9,1102.8z"/>
			</g>
		</g>
	</g>
	<g>
		<g>
			<g>
				<defs>
					<rect id="SVGID_X_68_" y="404.8" width="5199.8" height="2921.8"/>
				</defs>
				<clipPath id="SVGID_X_69_">
					<use xlink:href="#SVGID_X_68_"  overflow="visible"/>
				</clipPath>
			</g>
			<g>
				<defs>
					<rect id="SVGID_X_70_" y="404.8" width="5199.8" height="2921.8"/>
				</defs>
				<defs>
					<rect id="SVGID_X_71_" x="0.1" y="404.8" width="5199.9" height="2921.9"/>
				</defs>
				<clipPath id="SVGID_X_72_">
					<use xlink:href="#SVGID_X_70_"  overflow="visible"/>
				</clipPath>
				<clipPath id="SVGID_X_73_" clip-path="url(#SVGID_X_72_)">
					<use xlink:href="#SVGID_X_71_"  overflow="visible"/>
				</clipPath>
				<path clip-path="url(#SVGID_X_73_)" fill="#FDD3B2" d="M2318.8,777.6c0-0.1-6.2,1.1-6.4,1.2c-6.1,1.8-12.1,4.1-17.9,6.7
					c-15.7,6.9-51.8,25.7-31.8,47.4c21.1,22.9,48.5,15,72.2,25.7c16.4,7.4,29.8,21.4,44.8,31.1c30.7,19.9,89.6,43.1,126.9,39.5
					c25.1-2.4,43.4-16.7,57.2-37.5c41.3-62.2,28.4-121.5,29.4-193c0.1-6.2,6.5-7.7,9.9-11.9c10.2-12.7,15-34.9,8.5-50.2
					c-15.3-35.9-58.1-2.1-77.9,9.4c-68.2,39.5-137.3,76.5-201.3,122.9"/>
			</g>
		</g>
	</g>
	<g>
		<g>
			<g>
				<defs>
					<path id="SVGID_X_74_" d="M2318.8,777.6c0-0.1-6.2,1.1-6.4,1.2c-6.1,1.8-12.1,4.1-17.9,6.7c-15.7,6.9-51.8,25.7-31.8,47.4
						c21.1,22.9,48.5,15,72.2,25.7c16.4,7.4,29.8,21.4,44.8,31.1c30.7,19.9,89.6,43.1,126.9,39.5c25.1-2.4,43.4-16.7,57.2-37.5
						c41.3-62.2,28.4-121.5,29.4-193c0.1-6.2,6.5-7.7,9.9-11.9c10.2-12.7,15-34.9,8.5-50.2c-15.3-35.9-58.1-2.1-77.9,9.4
						c-68.2,39.5-137.3,76.5-201.3,122.9"/>
				</defs>
				<clipPath id="SVGID_X_75_">
					<use xlink:href="#SVGID_X_74_"  overflow="visible"/>
				</clipPath>
				<path clip-path="url(#SVGID_X_75_)" fill="#FCC79E" d="M2293.5,741.4c0,0-43.1,53.2-38.7,65.4c5.2,14.2,49.1,41.7,60.1,46.1
					c23.2,9.4,48.5,18.6,74.3,15c78.2-11,196.5-82.3,213.3-171.7c1.1-5.9-9,1.9-8.8-4.2c0.2-7.4,2.9-45,1.5-52.7
					c-9.5-54.8-39.1-32.4-87.3-22C2426.8,634.8,2349.3,679.5,2293.5,741.4L2293.5,741.4z"/>
			</g>
		</g>
	</g>
	<g>
		<g>
			<g>
				<defs>
					<rect id="SVGID_X_76_" y="404.8" width="5199.8" height="2921.8"/>
				</defs>
				<clipPath id="SVGID_X_77_">
					<use xlink:href="#SVGID_X_76_"  overflow="visible"/>
				</clipPath>
			</g>
			<g>
				<defs>
					<rect id="SVGID_X_78_" y="404.8" width="5199.8" height="2921.8"/>
				</defs>
				<defs>
					<rect id="SVGID_X_79_" x="0.1" y="404.8" width="5199.9" height="2921.9"/>
				</defs>
				<clipPath id="SVGID_X_80_">
					<use xlink:href="#SVGID_X_78_"  overflow="visible"/>
				</clipPath>
				<clipPath id="SVGID_X_81_" clip-path="url(#SVGID_X_80_)">
					<use xlink:href="#SVGID_X_79_"  overflow="visible"/>
				</clipPath>
				<path clip-path="url(#SVGID_X_81_)" fill="#A4612D" d="M2517.5,796.2c-0.2-0.1-17.9,10.4-18,10.5c-16.4,6.5-18,14.8-36.9,23.2
					c-39.4,17.5-98.6,44.3-139.8,26.6c-49-21-91.3-88.7-108.2-136.4c-13.1-36.8-19.9-79.5-11.7-118.2c6-28.6,20.3-57.1,36.5-81
					c22.8-33.8,59.2-73.8,100.2-85.2c30.5-8.5,63.3-2.2,91.6,10.2c68.4,29.8,116,85.9,140.5,156.2c5.2,15,22.2,61,23,77
					c2.5,49.1-60.5,97.1-95.3,127.6"/>
			</g>
		</g>
	</g>
	<g>
		<g>
			<g>
				<defs>
					<path id="SVGID_X_82_" d="M2517.5,796.2c-0.2-0.1-17.9,10.4-18,10.5c-16.4,6.5-18,14.8-36.9,23.2
						c-39.4,17.5-98.6,44.3-139.8,26.6c-49-21-91.3-88.7-108.2-136.4c-13.1-36.8-19.9-79.5-11.7-118.2c6-28.6,20.3-57.1,36.5-81
						c22.8-33.8,59.2-73.8,100.2-85.2c30.5-8.5,63.3-2.2,91.6,10.2c68.4,29.8,116,85.9,140.5,156.2c5.2,15,22.2,61,23,77
						c2.5,49.1-60.5,97.1-95.3,127.6"/>
				</defs>
				<clipPath id="SVGID_X_83_">
					<use xlink:href="#SVGID_X_82_"  overflow="visible"/>
				</clipPath>
				<path clip-path="url(#SVGID_X_83_)" fill="#A96836" d="M2468.5,731c-0.1,0-12.7,7.9-12.8,8c-11.7,5-12.8,11.3-26.2,17.7
					c-28,13.4-70.2,33.8-99.5,20.3c-34.9-16-65-67.7-77-104.1c-9.3-28.1-14.1-60.7-8.4-90.2c4.3-21.8,14.5-43.6,26-61.9
					c16.3-25.8,42.2-56.3,71.3-65c21.7-6.5,45.1-1.7,65.2,7.8c48.7,22.8,82.6,65.6,100,119.2c3.7,11.4,15.8,46.5,16.4,58.8
					c1.8,37.5-43.1,74.1-67.8,97.4"/>
			</g>
		</g>
	</g>
	<g>
		<g>
			<g>
				<defs>
					<path id="SVGID_X_84_" d="M2468.5,731c-0.1,0-12.7,7.9-12.8,8c-11.7,5-12.8,11.3-26.2,17.7c-28,13.4-70.2,33.8-99.5,20.3
						c-34.9-16-65-67.7-77-104.1c-9.3-28.1-14.1-60.7-8.4-90.2c4.3-21.8,14.5-43.6,26-61.9c16.3-25.8,42.2-56.3,71.3-65
						c21.7-6.5,45.1-1.7,65.2,7.8c48.7,22.8,82.6,65.6,100,119.2c3.7,11.4,15.8,46.5,16.4,58.8c1.8,37.5-43.1,74.1-67.8,97.4"/>
				</defs>
				<clipPath id="SVGID_X_85_">
					<use xlink:href="#SVGID_X_84_"  overflow="visible"/>
				</clipPath>
			</g>
			<g>
				<defs>
					<path id="SVGID_X_86_" d="M2468.5,731c-0.1,0-12.7,7.9-12.8,8c-11.7,5-12.8,11.3-26.2,17.7c-28,13.4-70.2,33.8-99.5,20.3
						c-34.9-16-65-67.7-77-104.1c-9.3-28.1-14.1-60.7-8.4-90.2c4.3-21.8,14.5-43.6,26-61.9c16.3-25.8,42.2-56.3,71.3-65
						c21.7-6.5,45.1-1.7,65.2,7.8c48.7,22.8,82.6,65.6,100,119.2c3.7,11.4,15.8,46.5,16.4,58.8c1.8,37.5-43.1,74.1-67.8,97.4"/>
				</defs>
				<defs>
					<path id="SVGID_X_87_" d="M2517.5,796.2c-0.2-0.1-17.9,10.4-18,10.5c-16.4,6.5-18,14.8-36.9,23.2
						c-39.4,17.5-98.6,44.3-139.8,26.6c-49-21-91.3-88.7-108.2-136.4c-13.1-36.8-19.9-79.5-11.7-118.2c6-28.6,20.3-57.1,36.5-81
						c22.8-33.8,59.2-73.8,100.2-85.2c30.5-8.5,63.3-2.2,91.6,10.2c68.4,29.8,116,85.9,140.5,156.2c5.2,15,22.2,61,23,77
						c2.5,49.1-60.5,97.1-95.3,127.6"/>
				</defs>
				<clipPath id="SVGID_X_88_">
					<use xlink:href="#SVGID_X_86_"  overflow="visible"/>
				</clipPath>
				<clipPath id="SVGID_X_89_" clip-path="url(#SVGID_X_88_)">
					<use xlink:href="#SVGID_X_87_"  overflow="visible"/>
				</clipPath>
				<path clip-path="url(#SVGID_X_89_)" fill="#B46E38" d="M2437.1,664.3c-0.1,0-9.9,5.6-10,5.6c-9.1,3.5-10,7.9-20.5,12.4
					c-21.8,9.4-54.7,23.6-77.6,14.2c-27.2-11.2-50.7-47.4-60-72.8c-7.2-19.7-11-42.5-6.5-63.1c3.3-15.3,11.3-30.5,20.3-43.3
					c12.7-18.1,32.9-39.4,55.6-45.5c16.9-4.5,35.1-1.2,50.8,5.4c37.9,15.9,64.4,45.9,78,83.4c2.9,8,12.3,32.6,12.8,41.1
					c1.4,26.2-33.6,51.8-52.9,68.2"/>
			</g>
		</g>
	</g>
	<g>
		<g>
			<g>
				<defs>
					<rect id="SVGID_X_90_" y="404.8" width="5199.8" height="2921.8"/>
				</defs>
				<clipPath id="SVGID_X_91_">
					<use xlink:href="#SVGID_X_90_"  overflow="visible"/>
				</clipPath>
			</g>
			<g>
				<defs>
					<rect id="SVGID_X_92_" y="404.8" width="5199.8" height="2921.8"/>
				</defs>
				<defs>
					<rect id="SVGID_X_93_" x="0.1" y="404.8" width="5199.9" height="2921.9"/>
				</defs>
				<clipPath id="SVGID_X_94_">
					<use xlink:href="#SVGID_X_92_"  overflow="visible"/>
				</clipPath>
				<clipPath id="SVGID_X_95_" clip-path="url(#SVGID_X_94_)">
					<use xlink:href="#SVGID_X_93_"  overflow="visible"/>
				</clipPath>
				<path clip-path="url(#SVGID_X_95_)" fill="#DBEBF8" stroke="#C3E5F9" stroke-miterlimit="10" d="M2362,884.8
					c0.2-0.1,1.9,1.4,2.1,1.5c6.8,4.3,14.7,7.6,22.2,10.3c24.4,8.6,52,9,76.7,1.3c45.5-14.2,96.6-48.5,122.7-89.2
					c5-7.8,9.7-16.2,12.7-25c0.5-1.6,0.7-9.9,1.6-10.8c0.9-0.9,0.6,2.4,0.8,3.6c2.3,15.9,2.6,32.9,1.7,48.9c-2,35.3-18.8,70-44.6,94
					c-50,46.5-144.9,2.1-193-27.9"/>
			</g>
		</g>
		<g>
			<g>
				<defs>
					<rect id="SVGID_X_96_" y="404.8" width="5199.8" height="2921.8"/>
				</defs>
				<clipPath id="SVGID_X_97_">
					<use xlink:href="#SVGID_X_96_"  overflow="visible"/>
				</clipPath>
			</g>
			<g>
				<defs>
					<rect id="SVGID_X_98_" y="404.8" width="5199.8" height="2921.8"/>
				</defs>
				<defs>
					<rect id="SVGID_X_99_" x="0.1" y="404.8" width="5199.9" height="2921.9"/>
				</defs>
				<clipPath id="SVGID_X_100_">
					<use xlink:href="#SVGID_X_98_"  overflow="visible"/>
				</clipPath>
				<clipPath id="SVGID_X_101_" clip-path="url(#SVGID_X_100_)">
					<use xlink:href="#SVGID_X_99_"  overflow="visible"/>
				</clipPath>
				<path clip-path="url(#SVGID_X_101_)" fill="#695A33" d="M1213.9,2454.9c-1.1,0.7,0.2-2.6,0.4-3.9c0.7-4.1,1.5-8.2,2.5-12.2
					c3.1-13.6,7.5-27.1,13-40c8.5-19.9,78.3-127,108.3-104.9c8.7,6.4,10.2,24.3,11.5,33.9c9.4,66.9-39.4,117.1-92.9,151.8
					c-9.8,6.3-25.2,18.8-37.5,18.9c-18.8,0.2-18.7-33.5-14.6-45.2"/>
			</g>
		</g>
		<g>
			<g>
				<defs>
					<rect id="SVGID_X_102_" y="404.8" width="5199.8" height="2921.8"/>
				</defs>
				<clipPath id="SVGID_X_103_">
					<use xlink:href="#SVGID_X_102_"  overflow="visible"/>
				</clipPath>
			</g>
			<g>
				<defs>
					<rect id="SVGID_X_104_" y="404.8" width="5199.8" height="2921.8"/>
				</defs>
				<defs>
					<rect id="SVGID_X_105_" x="0.1" y="404.8" width="5199.9" height="2921.9"/>
				</defs>
				<clipPath id="SVGID_X_106_">
					<use xlink:href="#SVGID_X_104_"  overflow="visible"/>
				</clipPath>
				<clipPath id="SVGID_X_107_" clip-path="url(#SVGID_X_106_)">
					<use xlink:href="#SVGID_X_105_"  overflow="visible"/>
				</clipPath>
				<path clip-path="url(#SVGID_X_107_)" fill="#695A33" d="M1287.8,2637.4c-0.7,1.1,1.2-2.4,2.1-3.4c17.9-19.1,42.3-32,66.2-42.8
					c52.8-23.9,112.3-47.9,169.7-24.5c12.2,4.9,24,13.8,25.8,27.3c9.4,67.3-270.4,86.9-273.3,47.1"/>
			</g>
		</g>
		<g>
			<g>
				<defs>
					<rect id="SVGID_X_108_" y="404.8" width="5199.8" height="2921.8"/>
				</defs>
				<clipPath id="SVGID_X_109_">
					<use xlink:href="#SVGID_X_108_"  overflow="visible"/>
				</clipPath>
			</g>
			<g>
				<defs>
					<rect id="SVGID_X_110_" y="404.8" width="5199.8" height="2921.8"/>
				</defs>
				<defs>
					<rect id="SVGID_X_111_" x="0.1" y="404.8" width="5199.9" height="2921.9"/>
				</defs>
				<clipPath id="SVGID_X_112_">
					<use xlink:href="#SVGID_X_110_"  overflow="visible"/>
				</clipPath>
				<clipPath id="SVGID_X_113_" clip-path="url(#SVGID_X_112_)">
					<use xlink:href="#SVGID_X_111_"  overflow="visible"/>
				</clipPath>
				<path clip-path="url(#SVGID_X_113_)" fill="#214D56" d="M1104.1,2411.1c20.2,5.8,107.4,15.1,114.6,23.7c7.6,9,10.1,25.6,13.9,36.4
					c0.8,2.4,13.1,31.3,12.8,31.7c-41.9,52.9-51,65-47.8,70.3c2.8,4.5,102.3,45.9,104.2,46.6c3.3,1.1,5.9,16.7,6.9,19.5
					c6.8,19.9,15.2,21.8,1.9,38.3c-9.1,11.3-19.9,21.1-31.3,30.1c-3,2.3-25.5,19.8-28.7,18.5c-11.1-4.5-53.5-90.9-59.7-102.9
					c-0.1,0.1-0.3,0.1-0.4,0c-6.4-4.4-23-43.4-26.5-50.7c-16.7-34.9-32.4-70.3-46.6-106.3c-5.7-14.6-14.8-32.5-14.8-48.6"/>
			</g>
		</g>
		<g>
			<g>
				<defs>
					<rect id="SVGID_X_114_" y="404.8" width="5199.8" height="2921.8"/>
				</defs>
				<clipPath id="SVGID_X_115_">
					<use xlink:href="#SVGID_X_114_"  overflow="visible"/>
				</clipPath>
			</g>
			<g>
				<defs>
					<rect id="SVGID_X_116_" y="404.8" width="5199.8" height="2921.8"/>
				</defs>
				<defs>
					<rect id="SVGID_X_117_" x="0.1" y="404.8" width="5199.9" height="2921.9"/>
				</defs>
				<clipPath id="SVGID_X_118_">
					<use xlink:href="#SVGID_X_116_"  overflow="visible"/>
				</clipPath>
				<clipPath id="SVGID_X_119_" clip-path="url(#SVGID_X_118_)">
					<use xlink:href="#SVGID_X_117_"  overflow="visible"/>
				</clipPath>
				<path clip-path="url(#SVGID_X_119_)" fill="#FDD3B2" d="M610.7,2130.8c-1,0.6-6.9-6.7-7.5-7.3c-5.5-5.9-59.8-62.1-27.1-61.8
					c34.2,0.3,70.7,27.1,99.6,42.4c24.5,13,51.9,21.7,75.7,35.9c42,24.9,80.6,54.9,121.2,82.1c-0.7-0.4,1.8,2.9,2.3,3.2
					c2.1,1.5,4.3,2.7,6.6,3.8c7.6,3.5,15.4,6.1,23.5,8c13.6,3.1,98.7,46.5,91.3,70.1c-6.2,19.5-109.9-14.7-124.6-17.2
					c-19.2-3.3-37.9-8.4-55.8-16.1c0-0.5-0.9,0.4-1.4,0.5c-5.6,1.6-12.5-0.4-17.8-2.1c-15.4-5.1,55.7-3.3,43.2-13.3
					c-42-33.7-145.2-36.2-210.7-114.4"/>
			</g>
		</g>
	</g>
	<g>
		<g>
			<g>
				<defs>
					<path id="SVGID_X_120_" d="M610.7,2130.8c-1,0.6-6.9-6.7-7.5-7.3c-5.5-5.9-59.8-62.1-27.1-61.8c34.2,0.3,70.7,27.1,99.6,42.4
						c24.5,13,51.9,21.7,75.7,35.9c42,24.9,80.6,54.9,121.2,82.1c-0.7-0.4,1.8,2.9,2.3,3.2c2.1,1.5,4.3,2.7,6.6,3.8
						c7.6,3.5,15.4,6.1,23.5,8c13.6,3.1,98.7,46.5,91.3,70.1c-6.2,19.5-109.9-14.7-124.6-17.2c-19.2-3.3-37.9-8.4-55.8-16.1
						c0-0.5-0.9,0.4-1.4,0.5c-5.6,1.6-12.5-0.4-17.8-2.1c-15.4-5.1,55.7-3.3,43.2-13.3c-42-33.7-145.2-36.2-210.7-114.4"/>
				</defs>
				<clipPath id="SVGID_X_121_">
					<use xlink:href="#SVGID_X_120_"  overflow="visible"/>
				</clipPath>
				<path clip-path="url(#SVGID_X_121_)" fill="#E8B791" d="M1072.4,2226.9c-0.6,1.7-3.3-1.4-5.1-1.6c-9.7-1.3-19.4-2.9-29.1-4.3
					c-28.2-4-56.9-5.2-85.1-1.4c-29.1,3.9-168.3,45.6-165.9,80.8c2.2,32.1,110.9,28.7,129.5,26.2c22.3-3,45.6-8.3,65.5-19.2
					c15.3-8.3,25.9-20.5,34.1-35.8"/>
			</g>
		</g>
	</g>
	<g>
		<g>
			<g>
				<defs>
					<rect id="SVGID_X_122_" y="404.8" width="5199.8" height="2921.8"/>
				</defs>
				<clipPath id="SVGID_X_123_">
					<use xlink:href="#SVGID_X_122_"  overflow="visible"/>
				</clipPath>
			</g>
			<g>
				<defs>
					<rect id="SVGID_X_124_" y="404.8" width="5199.8" height="2921.8"/>
				</defs>
				<defs>
					<rect id="SVGID_X_125_" x="0.1" y="404.8" width="5199.9" height="2921.9"/>
				</defs>
				<clipPath id="SVGID_X_126_">
					<use xlink:href="#SVGID_X_124_"  overflow="visible"/>
				</clipPath>
				<clipPath id="SVGID_X_127_" clip-path="url(#SVGID_X_126_)">
					<use xlink:href="#SVGID_X_125_"  overflow="visible"/>
				</clipPath>
				<path clip-path="url(#SVGID_X_127_)" fill="#FDD3B2" d="M1251.4,2965.2c0,0-15.9-78.2,32.1-120.5c23.6-20.8,55.4-21.9,84.4-28.5
					c85.9-19.4,175.2-25.8,260.4-47.5c16.6-4.2,29.6-16,44.3-24.1c30.2-16.5,70.1-25.3,104.6-22.7c20.2,1.5,45.6,27.4,54.2,43.9
					c32.7,62.7-52,61.1-69.9,92.7c-8.9,15.7,41.2,47.8,23.3,62.6c-11.1,9.2-95.5-49.4-115.6-54.6c-61.5-15.9-135.5,15.5-192,37.8
					c-50,19.6-94.5,50-119.5,99.2c-7.8,15.4-54.9-13.2-64.4,1C1291.3,3007.5,1260.6,2987.2,1251.4,2965.2L1251.4,2965.2z"/>
			</g>
		</g>
		<g>
			<g>
				<defs>
					<rect id="SVGID_X_128_" y="404.8" width="5199.8" height="2921.8"/>
				</defs>
				<clipPath id="SVGID_X_129_">
					<use xlink:href="#SVGID_X_128_"  overflow="visible"/>
				</clipPath>
			</g>
			<g>
				<defs>
					<rect id="SVGID_X_130_" y="404.8" width="5199.8" height="2921.8"/>
				</defs>
				<defs>
					<rect id="SVGID_X_131_" x="0.1" y="404.8" width="5199.9" height="2921.9"/>
				</defs>
				<clipPath id="SVGID_X_132_">
					<use xlink:href="#SVGID_X_130_"  overflow="visible"/>
				</clipPath>
				<clipPath id="SVGID_X_133_" clip-path="url(#SVGID_X_132_)">
					<use xlink:href="#SVGID_X_131_"  overflow="visible"/>
				</clipPath>
				<path clip-path="url(#SVGID_X_133_)" fill="#4A494A" d="M1978.6,2812.7c3.6-17.3-7.5-34.2-24.7-37.8
					c-51.1-10.8-152-32.1-203.2-42.9c-8.3-1.8-17-0.1-24.1,4.5c-7.1,4.7-12.1,12-13.8,20.3c-4.2,20.1-9.6,46.2-13.7,66.3
					c-3.6,17.3,7.5,34.2,24.7,37.8c51.1,10.8,152,32.1,203.2,42.9c8.3,1.8,17,0.1,24.1-4.5c7.1-4.7,12.1-12,13.8-20.3
					C1969.1,2858.8,1974.4,2832.8,1978.6,2812.7L1978.6,2812.7z"/>
			</g>
		</g>
	</g>
	<g>
		<g>
			<g>
				<defs>
					<path id="SVGID_X_134_" d="M1978.6,2812.7c3.6-17.3-7.5-34.2-24.7-37.8c-51.1-10.8-152-32.1-203.2-42.9c-8.3-1.8-17-0.1-24.1,4.5
						c-7.1,4.7-12.1,12-13.8,20.3c-4.2,20.1-9.6,46.2-13.7,66.3c-3.6,17.3,7.5,34.2,24.7,37.8c51.1,10.8,152,32.1,203.2,42.9
						c8.3,1.8,17,0.1,24.1-4.5c7.1-4.7,12.1-12,13.8-20.3C1969.1,2858.8,1974.4,2832.8,1978.6,2812.7L1978.6,2812.7z"/>
				</defs>
				<clipPath id="SVGID_X_135_">
					<use xlink:href="#SVGID_X_134_"  overflow="visible"/>
				</clipPath>
				<path clip-path="url(#SVGID_X_135_)" fill="#DADFF1" d="M1960.7,2817.3c3.6-17.3-7.5-34.2-24.7-37.8c-44.6-9.4-126-26.6-170.7-36
					c-8.3-1.8-17-0.1-24.1,4.5c-7.1,4.7-12.1,12-13.8,20.3c-3.2,15.7-7.2,34.6-10.4,50.2c-3.6,17.3,7.5,34.2,24.7,37.8
					c44.6,9.4,126,26.6,170.7,36c8.3,1.8,17,0.1,24.1-4.5c7.1-4.7,12.1-12,13.8-20.3C1953.6,2851.8,1957.5,2832.9,1960.7,2817.3
					L1960.7,2817.3z"/>
			</g>
		</g>
	</g>
	<g>
		<g>
			<g>
				<defs>
					<rect id="SVGID_X_136_" y="404.8" width="5199.8" height="2921.8"/>
				</defs>
				<clipPath id="SVGID_X_137_">
					<use xlink:href="#SVGID_X_136_"  overflow="visible"/>
				</clipPath>
			</g>
			<g>
				<defs>
					<rect id="SVGID_X_138_" y="404.8" width="5199.8" height="2921.8"/>
				</defs>
				<defs>
					<rect id="SVGID_X_139_" x="0.1" y="404.8" width="5199.9" height="2921.9"/>
				</defs>
				<clipPath id="SVGID_X_140_">
					<use xlink:href="#SVGID_X_138_"  overflow="visible"/>
				</clipPath>
				<clipPath id="SVGID_X_141_" clip-path="url(#SVGID_X_140_)">
					<use xlink:href="#SVGID_X_139_"  overflow="visible"/>
				</clipPath>
				<path clip-path="url(#SVGID_X_141_)" fill="#FDD3B2" d="M1771.1,2721.8c-0.1-0.5,1.3-0.4,1.3-0.3c5.1,0.7,10.2,2,15.2,3.3
					c10.5,2.7,20.8,6,31.3,8.8c22.8,6.1,45.7,11.4,68.5,17.2c4.5,1.1,20.9,4.1,19.1,13.7c-2.2,11.6-32.6,21.6-40.9,24.9
					c-20.8,8.3-60.7,19.5-73.7-7.8c-7.2-15.2-11.3-39-16.7-56.2"/>
			</g>
		</g>
		<g>
			<g>
				<defs>
					<rect id="SVGID_X_142_" y="404.8" width="5199.8" height="2921.8"/>
				</defs>
				<clipPath id="SVGID_X_143_">
					<use xlink:href="#SVGID_X_142_"  overflow="visible"/>
				</clipPath>
			</g>
			<g>
				<defs>
					<rect id="SVGID_X_144_" y="404.8" width="5199.8" height="2921.8"/>
				</defs>
				<defs>
					<rect id="SVGID_X_145_" x="0.1" y="404.8" width="5199.9" height="2921.9"/>
				</defs>
				<clipPath id="SVGID_X_146_">
					<use xlink:href="#SVGID_X_144_"  overflow="visible"/>
				</clipPath>
				<clipPath id="SVGID_X_147_" clip-path="url(#SVGID_X_146_)">
					<use xlink:href="#SVGID_X_145_"  overflow="visible"/>
				</clipPath>
				<path clip-path="url(#SVGID_X_147_)" fill="#8BC63F" d="M702,2716.7c-0.1,0.1-2.8-6-2.9-6.3c-29.5-69-70.1-143.7-96-214.4
					c-12.2-33.5-66.5-142.1-95.4-248.7c-23-84.9-15.2-165-0.1-186.2c8.2-11.5,52.7,6.3,62.1,9.4c59.2,19.6,98.5,92.2,143.9,135.3
					c27.9,26.5,85.2,45.5,122.2,60c6.5,2.5,118.3,34.7,154.2,38.2c25.9,2.5,88.4,40.8,121.8,67.2c30.7,24.2,51.7,58.5,72.1,91.3
					c18.1,29.1,39.2,57.3,51.4,89.7c36.9,98,82.6,203.6,34.6,294.8c-3.4-3.1,5.4,7.5,8.1,11.2c6.7,9.3,13.5,18.6,20.2,27.9
					c8.3,11.4,83.7,64.5,81.1,81.1c-1.6,10.2-21.6,38.4-27.2,46.6c-44.6,65.1-131.5,138.5-216,148.7c-36.5,4.4-82.8,5.9-112.2-19.2
					c-63-53.7-103.3-176.8-150.2-247c-42.8-64.1-123.5-118.2-158.9-181.7"/>
			</g>
		</g>
	</g>
	<g>
		<g>
			<g>
				<defs>
					<path id="SVGID_X_148_" d="M702,2716.7c-0.1,0.1-2.8-6-2.9-6.3c-29.5-69-70.1-143.7-96-214.4c-12.2-33.5-66.5-142.1-95.4-248.7
						c-23-84.9-15.2-165-0.1-186.2c8.2-11.5,52.7,6.3,62.1,9.4c59.2,19.6,98.5,92.2,143.9,135.3c27.9,26.5,85.2,45.5,122.2,60
						c6.5,2.5,118.3,34.7,154.2,38.2c25.9,2.5,88.4,40.8,121.8,67.2c30.7,24.2,51.7,58.5,72.1,91.3c18.1,29.1,39.2,57.3,51.4,89.7
						c36.9,98,82.6,203.6,34.6,294.8c-3.4-3.1,5.4,7.5,8.1,11.2c6.7,9.3,13.5,18.6,20.2,27.9c8.3,11.4,83.7,64.5,81.1,81.1
						c-1.6,10.2-21.6,38.4-27.2,46.6c-44.6,65.1-131.5,138.5-216,148.7c-36.5,4.4-82.8,5.9-112.2-19.2
						c-63-53.7-103.3-176.8-150.2-247c-42.8-64.1-123.5-118.2-158.9-181.7"/>
				</defs>
				<clipPath id="SVGID_X_149_">
					<use xlink:href="#SVGID_X_148_"  overflow="visible"/>
				</clipPath>
				<path clip-path="url(#SVGID_X_149_)" fill="#5BBA47" stroke="#74C9BC" stroke-miterlimit="10" d="M517.5,1950.3
					c-3.3-4.3,8.9,6.1,13.3,9.2c120.4,84.3,222,195.1,300.1,319.3c101.4,161.3,185.9,330.5,269.5,501.5
					c46.6,95.2,124,191.5,137.5,311.8c4.7,42.1,16.6,180,65.4,155.5c149.5-75.3,28-647-22.3-742.5
					c-37.8-71.9-82.3-141.8-139.3-200.1c-125.6-128.5-298.9-208.1-462.1-277.9"/>
			</g>
		</g>
		<g>
			<g>
				<defs>
					<path id="SVGID_X_150_" d="M702,2716.7c-0.1,0.1-2.8-6-2.9-6.3c-29.5-69-70.1-143.7-96-214.4c-12.2-33.5-66.5-142.1-95.4-248.7
						c-23-84.9-15.2-165-0.1-186.2c8.2-11.5,52.7,6.3,62.1,9.4c59.2,19.6,98.5,92.2,143.9,135.3c27.9,26.5,85.2,45.5,122.2,60
						c6.5,2.5,118.3,34.7,154.2,38.2c25.9,2.5,88.4,40.8,121.8,67.2c30.7,24.2,51.7,58.5,72.1,91.3c18.1,29.1,39.2,57.3,51.4,89.7
						c36.9,98,82.6,203.6,34.6,294.8c-3.4-3.1,5.4,7.5,8.1,11.2c6.7,9.3,13.5,18.6,20.2,27.9c8.3,11.4,83.7,64.5,81.1,81.1
						c-1.6,10.2-21.6,38.4-27.2,46.6c-44.6,65.1-131.5,138.5-216,148.7c-36.5,4.4-82.8,5.9-112.2-19.2
						c-63-53.7-103.3-176.8-150.2-247c-42.8-64.1-123.5-118.2-158.9-181.7"/>
				</defs>
				<clipPath id="SVGID_X_151_">
					<use xlink:href="#SVGID_X_150_"  overflow="visible"/>
				</clipPath>
				<path clip-path="url(#SVGID_X_151_)" fill="#315860" d="M1200.1,2990.1c17.7-50.1,47.1-110.6,77.1-154.2c0.7-1,11.4-18,12.9-17.4
					c0.2,0.1-0.3,2.5-0.4,2.7c-1,6.4-1.2,12.9-1.8,19.3c-1.1,13.2-14.3,25.9-20.4,37.1c-22,40.4-40.5,82.3-66,120.7"/>
			</g>
		</g>
	</g>
	<g>
		<g>
			<g>
				<defs>
					<rect id="SVGID_X_152_" y="404.8" width="5199.8" height="2921.8"/>
				</defs>
				<clipPath id="SVGID_X_153_">
					<use xlink:href="#SVGID_X_152_"  overflow="visible"/>
				</clipPath>
			</g>
			<g>
				<defs>
					<rect id="SVGID_X_154_" y="404.8" width="5199.8" height="2921.8"/>
				</defs>
				<defs>
					<rect id="SVGID_X_155_" x="0.1" y="404.8" width="5199.9" height="2921.9"/>
				</defs>
				<clipPath id="SVGID_X_156_">
					<use xlink:href="#SVGID_X_154_"  overflow="visible"/>
				</clipPath>
				<clipPath id="SVGID_X_157_" clip-path="url(#SVGID_X_156_)">
					<use xlink:href="#SVGID_X_155_"  overflow="visible"/>
				</clipPath>
				<path clip-path="url(#SVGID_X_157_)" fill="#FDD3B2" d="M834.5,2496.4c-2.3-1,5.1-0.9,7.6-1.2c4.7-0.6,9.4-1.1,14.2-1.6
					c19.4-1.9,38.7-4.4,58.2-5.9c51.6-4,115.9,0.6,158.8,27.3c23.5,14.6,44.6,39.4,51.2,63.2c13,46.6-17.4,146.2-62,177.1
					c-36.7,25.4-32.3-58.1-34.2-71.6c-2-15-5.3-29.7-11.2-44c-28.6-69.8-94.7-108.1-176.6-126.7"/>
			</g>
		</g>
		<g>
			<g>
				<defs>
					<rect id="SVGID_X_158_" y="404.8" width="5199.8" height="2921.8"/>
				</defs>
				<clipPath id="SVGID_X_159_">
					<use xlink:href="#SVGID_X_158_"  overflow="visible"/>
				</clipPath>
			</g>
			<g>
				<defs>
					<rect id="SVGID_X_160_" y="404.8" width="5199.8" height="2921.8"/>
				</defs>
				<defs>
					<rect id="SVGID_X_161_" x="0.1" y="404.8" width="5199.9" height="2921.9"/>
				</defs>
				<clipPath id="SVGID_X_162_">
					<use xlink:href="#SVGID_X_160_"  overflow="visible"/>
				</clipPath>
				<clipPath id="SVGID_X_163_" clip-path="url(#SVGID_X_162_)">
					<use xlink:href="#SVGID_X_161_"  overflow="visible"/>
				</clipPath>
				<path clip-path="url(#SVGID_X_163_)" fill="#FDD3B2" d="M831.7,2524.7c-9.2-0.3-18.2,3.2-27.7,2.3c-9-0.8-46-15.2-31-29.4
					c15.1-14.4,54.9-5.3,71.8,1.9c9.8,4.2,23.2,8.6,9,17.3"/>
			</g>
		</g>
		<g>
			<g>
				<defs>
					<rect id="SVGID_X_164_" y="404.8" width="5199.8" height="2921.8"/>
				</defs>
				<clipPath id="SVGID_X_165_">
					<use xlink:href="#SVGID_X_164_"  overflow="visible"/>
				</clipPath>
			</g>
			<g>
				<defs>
					<rect id="SVGID_X_166_" y="404.8" width="5199.8" height="2921.8"/>
				</defs>
				<defs>
					<rect id="SVGID_X_167_" x="0.1" y="404.8" width="5199.9" height="2921.9"/>
				</defs>
				<clipPath id="SVGID_X_168_">
					<use xlink:href="#SVGID_X_166_"  overflow="visible"/>
				</clipPath>
				<clipPath id="SVGID_X_169_" clip-path="url(#SVGID_X_168_)">
					<use xlink:href="#SVGID_X_167_"  overflow="visible"/>
				</clipPath>
				<path clip-path="url(#SVGID_X_169_)" fill="#FDD3B2" d="M1016.7,2787.2c-2.6-2.3-4.4,5.2-6.7,7.8c-6.8,7.7-36.7,41.8-16.4,49.8
					c5.6,2.2,13.5,2.5,19.1,0.2c11-4.5,24.6-62,19.6-65.5c-5.1-3.6-16.7,6.3-20.2,8.8"/>
			</g>
		</g>
		<g>
			<g>
				<defs>
					<rect id="SVGID_X_170_" y="404.8" width="5199.8" height="2921.8"/>
				</defs>
				<clipPath id="SVGID_X_171_">
					<use xlink:href="#SVGID_X_170_"  overflow="visible"/>
				</clipPath>
			</g>
			<g>
				<defs>
					<rect id="SVGID_X_172_" y="404.8" width="5199.8" height="2921.8"/>
				</defs>
				<defs>
					<rect id="SVGID_X_173_" x="0.1" y="404.8" width="5199.9" height="2921.9"/>
				</defs>
				<clipPath id="SVGID_X_174_">
					<use xlink:href="#SVGID_X_172_"  overflow="visible"/>
				</clipPath>
				<clipPath id="SVGID_X_175_" clip-path="url(#SVGID_X_174_)">
					<use xlink:href="#SVGID_X_173_"  overflow="visible"/>
				</clipPath>
				<path clip-path="url(#SVGID_X_175_)" fill="#79421B" d="M1025.8,2559.4c-16-20.6-40.1-37.9-55.6-49.7
					c-43.7-33.3-91-19.2-140.3-7.9c-126.7,29.1-229.7,75.3-266.7,211.9c-10.1,37.3-12.4,74.2,7.5,108.6
					c41.6,72,100.6,87.3,177.5,96.8c37.4,4.6,76.3,7.7,113-2.9c57.2-16.5,110.9-54.8,149.7-99.7c52.9-61.2,76.9-104.2,56.8-190.9
					C1063.5,2607.3,1037.2,2574.1,1025.8,2559.4L1025.8,2559.4z"/>
			</g>
		</g>
	</g>
	<g>
		<g>
			<g>
				<defs>
					<path id="SVGID_X_176_" d="M1025.8,2559.4c-16-20.6-40.1-37.9-55.6-49.7c-43.7-33.3-91-19.2-140.3-7.9
						c-126.7,29.1-229.7,75.3-266.7,211.9c-10.1,37.3-12.4,74.2,7.5,108.6c41.6,72,100.6,87.3,177.5,96.8c37.4,4.6,76.3,7.7,113-2.9
						c57.2-16.5,110.9-54.8,149.7-99.7c52.9-61.2,76.9-104.2,56.8-190.9C1063.5,2607.3,1037.2,2574.1,1025.8,2559.4L1025.8,2559.4z"
						/>
				</defs>
				<clipPath id="SVGID_X_177_">
					<use xlink:href="#SVGID_X_176_"  overflow="visible"/>
				</clipPath>
				<path clip-path="url(#SVGID_X_177_)" fill="#8B4B20" d="M910.7,2610.8c-10.7-16.2-26.7-29.7-37.1-39
					c-29.1-26.1-60.7-15.1-93.5-6.2c-84.5,22.8-153.1,59-177.7,166c-6.7,29.2-8.3,58.1,5,85.1c27.7,56.4,67,68.4,118.3,75.8
					c24.9,3.6,50.8,6,75.3-2.2c38.1-12.9,73.9-42.9,99.7-78.1c35.3-48,51.2-81.6,37.9-149.6C935.8,2648.3,918.3,2622.3,910.7,2610.8
					L910.7,2610.8z"/>
			</g>
		</g>
	</g>
	<g>
		<g>
			<g>
				<defs>
					<path id="SVGID_X_178_" d="M910.7,2610.8c-10.7-16.2-26.7-29.7-37.1-39c-29.1-26.1-60.7-15.1-93.5-6.2
						c-84.5,22.8-153.1,59-177.7,166c-6.7,29.2-8.3,58.1,5,85.1c27.7,56.4,67,68.4,118.3,75.8c24.9,3.6,50.8,6,75.3-2.2
						c38.1-12.9,73.9-42.9,99.7-78.1c35.3-48,51.2-81.6,37.9-149.6C935.8,2648.3,918.3,2622.3,910.7,2610.8L910.7,2610.8z"/>
				</defs>
				<clipPath id="SVGID_X_179_">
					<use xlink:href="#SVGID_X_178_"  overflow="visible"/>
				</clipPath>
			</g>
			<g>
				<defs>
					<path id="SVGID_X_180_" d="M910.7,2610.8c-10.7-16.2-26.7-29.7-37.1-39c-29.1-26.1-60.7-15.1-93.5-6.2
						c-84.5,22.8-153.1,59-177.7,166c-6.7,29.2-8.3,58.1,5,85.1c27.7,56.4,67,68.4,118.3,75.8c24.9,3.6,50.8,6,75.3-2.2
						c38.1-12.9,73.9-42.9,99.7-78.1c35.3-48,51.2-81.6,37.9-149.6C935.8,2648.3,918.3,2622.3,910.7,2610.8L910.7,2610.8z"/>
				</defs>
				<defs>
					<path id="SVGID_X_181_" d="M1025.8,2559.4c-16-20.6-40.1-37.9-55.6-49.7c-43.7-33.3-91-19.2-140.3-7.9
						c-126.7,29.1-229.7,75.3-266.7,211.9c-10.1,37.3-12.4,74.2,7.5,108.6c41.6,72,100.6,87.3,177.5,96.8c37.4,4.6,76.3,7.7,113-2.9
						c57.2-16.5,110.9-54.8,149.7-99.7c52.9-61.2,76.9-104.2,56.8-190.9C1063.5,2607.3,1037.2,2574.1,1025.8,2559.4L1025.8,2559.4z"
						/>
				</defs>
				<clipPath id="SVGID_X_182_">
					<use xlink:href="#SVGID_X_180_"  overflow="visible"/>
				</clipPath>
				<clipPath id="SVGID_X_183_" clip-path="url(#SVGID_X_182_)">
					<use xlink:href="#SVGID_X_181_"  overflow="visible"/>
				</clipPath>
				<path clip-path="url(#SVGID_X_183_)" fill="#975023" d="M820.4,2688.3c-6.4-9.8-16.1-18.1-22.3-23.7c-17.5-15.9-36.5-9.2-56.3-3.8
					c-50.8,13.9-92.1,35.9-107,101c-4.1,17.8-5,35.3,3,51.8c16.7,34.3,40.3,41.6,71.2,46.1c15,2.2,30.6,3.7,45.3-1.4
					c23-7.9,44.5-26.1,60-47.5c21.2-29.2,30.8-49.6,22.8-91C835.5,2711.1,825,2695.3,820.4,2688.3L820.4,2688.3z"/>
			</g>
		</g>
	</g>
	<g>
		<g>
			<g>
				<defs>
					<rect id="SVGID_X_184_" y="404.8" width="5199.8" height="2921.8"/>
				</defs>
				<clipPath id="SVGID_X_185_">
					<use xlink:href="#SVGID_X_184_"  overflow="visible"/>
				</clipPath>
			</g>
			<g>
				<defs>
					<rect id="SVGID_X_186_" y="404.8" width="5199.8" height="2921.8"/>
				</defs>
				<defs>
					<rect id="SVGID_X_187_" x="0.1" y="404.8" width="5199.9" height="2921.9"/>
				</defs>
				<clipPath id="SVGID_X_188_">
					<use xlink:href="#SVGID_X_186_"  overflow="visible"/>
				</clipPath>
				<clipPath id="SVGID_X_189_" clip-path="url(#SVGID_X_188_)">
					<use xlink:href="#SVGID_X_187_"  overflow="visible"/>
				</clipPath>
				<path clip-path="url(#SVGID_X_189_)" fill="#4891A0" d="M943.9,2486.1c1.3,1.5,46.3,19.7,52.7,22.2c37.4,14.8,79.2,73.7,83.6,82.5
					c13.9,28,19.8,103.7,16.1,112.2c-1.7,4,4.6,13.2,2.9,17.2c-0.1,0.3-0.6,1.2,0.1,1.3c7.2,0.4,19.2-21.9,20.9-26.6
					c11.1-30.5,16.5-62,16-94c-0.3-15.7-2.3-34.1-10.9-48.2c-29.5-48.4-131.2-81.4-188.9-70"/>
			</g>
		</g>
		<g>
			<g>
				<defs>
					<rect id="SVGID_X_190_" y="404.8" width="5199.8" height="2921.8"/>
				</defs>
				<clipPath id="SVGID_X_191_">
					<use xlink:href="#SVGID_X_190_"  overflow="visible"/>
				</clipPath>
			</g>
			<g>
				<defs>
					<rect id="SVGID_X_192_" y="404.8" width="5199.8" height="2921.8"/>
				</defs>
				<defs>
					<rect id="SVGID_X_193_" x="0.1" y="404.8" width="5199.9" height="2921.9"/>
				</defs>
				<clipPath id="SVGID_X_194_">
					<use xlink:href="#SVGID_X_192_"  overflow="visible"/>
				</clipPath>
				<clipPath id="SVGID_X_195_" clip-path="url(#SVGID_X_194_)">
					<use xlink:href="#SVGID_X_193_"  overflow="visible"/>
				</clipPath>
				<path clip-path="url(#SVGID_X_195_)" fill="#848484" d="M4069.6,2494.8c-8.8-25.8-108.6-84.9-135.6-101
					c-14.1-8.4-33.8-17-49.8-8.8c-72.3,37.2,144.3,189.6,174.9,172.1c10.1-5.8,14-32.8,18.2-42.8"/>
			</g>
		</g>
		<g>
			<g>
				<defs>
					<rect id="SVGID_X_196_" y="404.8" width="5199.8" height="2921.8"/>
				</defs>
				<clipPath id="SVGID_X_197_">
					<use xlink:href="#SVGID_X_196_"  overflow="visible"/>
				</clipPath>
			</g>
			<g>
				<defs>
					<rect id="SVGID_X_198_" y="404.8" width="5199.8" height="2921.8"/>
				</defs>
				<defs>
					<rect id="SVGID_X_199_" x="0.1" y="404.8" width="5199.9" height="2921.9"/>
				</defs>
				<clipPath id="SVGID_X_200_">
					<use xlink:href="#SVGID_X_198_"  overflow="visible"/>
				</clipPath>
				<clipPath id="SVGID_X_201_" clip-path="url(#SVGID_X_200_)">
					<use xlink:href="#SVGID_X_199_"  overflow="visible"/>
				</clipPath>
				<path clip-path="url(#SVGID_X_201_)" fill="#848484" d="M4028.3,2689.2c-0.1-0.6-5.9,0.8-6.3,0.8c-14.9,2.4-29.7,4.7-44.3,8.7
					c-0.7,0.2-1.4,0.4-2.1,0.6c-52.1,14.9-108,30.9-147.4,70.5c-4.6,4.6-12.9,12.6-9.6,20c16,36,116.7,8.9,142.4-1.6
					c21-8.6,41.3-20,58.5-35.1c3.4-3,11.8-8.6,12.8-13.7c2.1-10.8-10.9-26.7-14-36.6"/>
			</g>
		</g>
		<g>
			<g>
				<defs>
					<rect id="SVGID_X_202_" y="404.8" width="5199.8" height="2921.8"/>
				</defs>
				<clipPath id="SVGID_X_203_">
					<use xlink:href="#SVGID_X_202_"  overflow="visible"/>
				</clipPath>
			</g>
			<g>
				<defs>
					<rect id="SVGID_X_204_" y="404.8" width="5199.8" height="2921.8"/>
				</defs>
				<defs>
					<rect id="SVGID_X_205_" x="0.1" y="404.8" width="5199.9" height="2921.9"/>
				</defs>
				<clipPath id="SVGID_X_206_">
					<use xlink:href="#SVGID_X_204_"  overflow="visible"/>
				</clipPath>
				<clipPath id="SVGID_X_207_" clip-path="url(#SVGID_X_206_)">
					<use xlink:href="#SVGID_X_205_"  overflow="visible"/>
				</clipPath>
				<path clip-path="url(#SVGID_X_207_)" fill="#292F70" d="M4154.1,2443.1c0.3,0.8-1.7,0.5-2.6,0.8c-2.4,0.8-4.8,1.6-7.2,2.5
					c-9.3,3.3-18.4,7.2-27.6,10.9c-25.5,10.2-49.8,21.5-67.3,44c-14.3,18.2-17.9,50.1-14.9,72.4c0.6,4.6,5.5,11.1,5,15.5
					c-0.5,4.8-15.2,21-18.2,26.2c-19,32.8-23.1,81.3-9,116.4c10.6,26.3,60.1,71.4,80.3,30.2c15.6-31.8,12.3-93.2,13.3-127.4
					c1.6-52.2,1.3-105.5,19.2-155.1c2-5.7,3.2-12.5,6.4-17.7"/>
			</g>
		</g>
		<g>
			<g>
				<defs>
					<rect id="SVGID_X_208_" y="404.8" width="5199.8" height="2921.8"/>
				</defs>
				<clipPath id="SVGID_X_209_">
					<use xlink:href="#SVGID_X_208_"  overflow="visible"/>
				</clipPath>
			</g>
			<g>
				<defs>
					<rect id="SVGID_X_210_" y="404.8" width="5199.8" height="2921.8"/>
				</defs>
				<defs>
					<rect id="SVGID_X_211_" x="0.1" y="404.8" width="5199.9" height="2921.9"/>
				</defs>
				<clipPath id="SVGID_X_212_">
					<use xlink:href="#SVGID_X_210_"  overflow="visible"/>
				</clipPath>
				<clipPath id="SVGID_X_213_" clip-path="url(#SVGID_X_212_)">
					<use xlink:href="#SVGID_X_211_"  overflow="visible"/>
				</clipPath>
				<path clip-path="url(#SVGID_X_213_)" fill="#346E7B" d="M3878.6,2565.4c33,25.6,40.9,71.2,17.6,101.8
					c-23.3,30.6-69.1,34.7-102.1,9.1c-33-25.6-40.9-71.2-17.6-101.8C3799.9,2543.9,3845.6,2539.8,3878.6,2565.4L3878.6,2565.4z"/>
			</g>
		</g>
		<g>
			<g>
				<defs>
					<rect id="SVGID_X_214_" y="404.8" width="5199.8" height="2921.8"/>
				</defs>
				<clipPath id="SVGID_X_215_">
					<use xlink:href="#SVGID_X_214_"  overflow="visible"/>
				</clipPath>
			</g>
			<g>
				<defs>
					<rect id="SVGID_X_216_" y="404.8" width="5199.8" height="2921.8"/>
				</defs>
				<defs>
					<rect id="SVGID_X_217_" x="0.1" y="404.8" width="5199.9" height="2921.9"/>
				</defs>
				<clipPath id="SVGID_X_218_">
					<use xlink:href="#SVGID_X_216_"  overflow="visible"/>
				</clipPath>
				<clipPath id="SVGID_X_219_" clip-path="url(#SVGID_X_218_)">
					<use xlink:href="#SVGID_X_217_"  overflow="visible"/>
				</clipPath>
				<path clip-path="url(#SVGID_X_219_)" fill="#8A5B3D" d="M3878.8,2483.5c-2.6-2.1-53.6,13.8-59.9,17c-56.3,28.4-92.3,52-87.1,121.5
					c1.1,14,6.2,32.2,18.9,40c21.7,13.4,16.1-87.7,56.2-103.9c29.4-11.9,60.4,4.4,70.5,33.8c3.1,9.1,4.7,19,5.3,28.6
					c0.3,4.3-5.1,37.7,5.3,33.1c4.7-2.1,7.7-7.8,10.3-12c17.7-28.7,9.9-61.4,8.7-92.9c-0.6-16,1.6-32.8-4-48.1
					c-3.5-9.5-9.5-17.2-18.6-21.6"/>
			</g>
		</g>
		<g>
			<g>
				<defs>
					<rect id="SVGID_X_220_" y="404.8" width="5199.8" height="2921.8"/>
				</defs>
				<clipPath id="SVGID_X_221_">
					<use xlink:href="#SVGID_X_220_"  overflow="visible"/>
				</clipPath>
			</g>
			<g>
				<defs>
					<rect id="SVGID_X_222_" y="404.8" width="5199.8" height="2921.8"/>
				</defs>
				<defs>
					<rect id="SVGID_X_223_" x="0.1" y="404.8" width="5199.9" height="2921.9"/>
				</defs>
				<clipPath id="SVGID_X_224_">
					<use xlink:href="#SVGID_X_222_"  overflow="visible"/>
				</clipPath>
				<clipPath id="SVGID_X_225_" clip-path="url(#SVGID_X_224_)">
					<use xlink:href="#SVGID_X_223_"  overflow="visible"/>
				</clipPath>
				<path clip-path="url(#SVGID_X_225_)" fill="#8A5B3D" d="M4052.2,2910.1c0.9-0.1-0.5-1.7-0.7-2.5c-0.7-2.7-1.5-5.4-2.4-8.2
					c-1.2-3.9-2.4-7.8-4.5-11.4c-10.7-19.5-53.9-25.7-59.1-5c-4.5,17.8,34.7,59.7,54.9,56.6c12-1.8,15.7-18.1,19.3-27.1"/>
			</g>
		</g>
		<g>
			<g>
				<defs>
					<rect id="SVGID_X_226_" y="404.8" width="5199.8" height="2921.8"/>
				</defs>
				<clipPath id="SVGID_X_227_">
					<use xlink:href="#SVGID_X_226_"  overflow="visible"/>
				</clipPath>
			</g>
			<g>
				<defs>
					<rect id="SVGID_X_228_" y="404.8" width="5199.8" height="2921.8"/>
				</defs>
				<defs>
					<rect id="SVGID_X_229_" x="0.1" y="404.8" width="5199.9" height="2921.9"/>
				</defs>
				<clipPath id="SVGID_X_230_">
					<use xlink:href="#SVGID_X_228_"  overflow="visible"/>
				</clipPath>
				<clipPath id="SVGID_X_231_" clip-path="url(#SVGID_X_230_)">
					<use xlink:href="#SVGID_X_229_"  overflow="visible"/>
				</clipPath>
				<path clip-path="url(#SVGID_X_231_)" fill="#221FFF" d="M4601,2597.7c-5.6-18.9,31.9-90.1,41.9-110.7c35.3-72.3,89.3-215,20.7-280
					c-102.7-97.2-282.7-63.8-406.4-33.3c-37.8,9.4-78.5,16.1-113.2,34.7c-55.8,29.8-99,78.1-145.8,119.7
					c-35.3,31.4-63.8,69-96.5,103c-19.1,19.8-45.5,38.7-60.2,62.4c-0.5,0.8-1,1.6-1,2.6c0.4,9,23.8,24.4,29.6,30.3
					c7.2,7.3,20.4,27.3,30.9,29.8c1.1,0.3,10.4-11.7,11.3-12.4c35.6-32,78.4-53.7,117.1-81.2c18.2-12.9,82.6-76.6,98-80.3
					c11.2-2.6,31.5,4.8,43.4,5.4c11.7,0.5,25.4-2.9,36.5-1.9c1,0.1-1.7,1.1-2.5,1.8c-17.5,13.6-34.9,27.4-51.8,41.7
					c-37.7,31.9-64.4,65.2-82.8,111.8c-11.3,28.6-23,60.8-24.3,91.8c-2.2,50.9,15.1,107.6,29.9,155.6c16.6,53.9,29,109.6,81.7,137.2
					c-6.9,2.8-110.7-41.1-115.4-37.7c-6.2,4.3-7,17.9-8.2,24.4c-1.7,9.1-5.8,23.7-3,33c5.1,17.1,68.9,55.8,84.7,65.8
					c81.2,51.6,179.2,83.3,275,62.7c22.1-4.8,43.8-9.9,61.9-24.2c81.6-64.5,80.2-195.4,101.8-286.7c8.4-35.7,16.1-71.7,25.9-107
					c5-18,13.8-36.5,17-54.8"/>
			</g>
		</g>
	</g>
	<g>
		<g>
			<g>
				<defs>
					<path id="SVGID_X_232_" d="M4601,2597.7c-5.6-18.9,31.9-90.1,41.9-110.7c35.3-72.3,89.3-215,20.7-280
						c-102.7-97.2-282.7-63.8-406.4-33.3c-37.8,9.4-78.5,16.1-113.2,34.7c-55.8,29.8-99,78.1-145.8,119.7
						c-35.3,31.4-63.8,69-96.5,103c-19.1,19.8-45.5,38.7-60.2,62.4c-0.5,0.8-1,1.6-1,2.6c0.4,9,23.8,24.4,29.6,30.3
						c7.2,7.3,20.4,27.3,30.9,29.8c1.1,0.3,10.4-11.7,11.3-12.4c35.6-32,78.4-53.7,117.1-81.2c18.2-12.9,82.6-76.6,98-80.3
						c11.2-2.6,31.5,4.8,43.4,5.4c11.7,0.5,25.4-2.9,36.5-1.9c1,0.1-1.7,1.1-2.5,1.8c-17.5,13.6-34.9,27.4-51.8,41.7
						c-37.7,31.9-64.4,65.2-82.8,111.8c-11.3,28.6-23,60.8-24.3,91.8c-2.2,50.9,15.1,107.6,29.9,155.6
						c16.6,53.9,29,109.6,81.7,137.2c-6.9,2.8-110.7-41.1-115.4-37.7c-6.2,4.3-7,17.9-8.2,24.4c-1.7,9.1-5.8,23.7-3,33
						c5.1,17.1,68.9,55.8,84.7,65.8c81.2,51.6,179.2,83.3,275,62.7c22.1-4.8,43.8-9.9,61.9-24.2c81.6-64.5,80.2-195.4,101.8-286.7
						c8.4-35.7,16.1-71.7,25.9-107c5-18,13.8-36.5,17-54.8"/>
				</defs>
				<clipPath id="SVGID_X_233_">
					<use xlink:href="#SVGID_X_232_"  overflow="visible"/>
				</clipPath>
				<path clip-path="url(#SVGID_X_233_)" fill="#5555FF" stroke="#4622DD" stroke-miterlimit="10" d="M4647.3,2111.7
					c0.8,0.2-1.5,0.7-2.2,1.1c-15.8,10.2-30.2,23-44.9,34.6c-32.5,25.4-64.2,52-95.5,78.8c-89.3,76.4-179.4,154.1-255.2,244.3
					c-130.9,156-132.3,376.6,2.5,532.1c34,39.2,76.2,77.2,127.5,91.1c298.5,80.7,513.5-735.2,333.4-930.7
					c-50.7-55-132.6-68.7-204-64.2"/>
			</g>
		</g>
		<g>
			<g>
				<defs>
					<path id="SVGID_X_234_" d="M4601,2597.7c-5.6-18.9,31.9-90.1,41.9-110.7c35.3-72.3,89.3-215,20.7-280
						c-102.7-97.2-282.7-63.8-406.4-33.3c-37.8,9.4-78.5,16.1-113.2,34.7c-55.8,29.8-99,78.1-145.8,119.7
						c-35.3,31.4-63.8,69-96.5,103c-19.1,19.8-45.5,38.7-60.2,62.4c-0.5,0.8-1,1.6-1,2.6c0.4,9,23.8,24.4,29.6,30.3
						c7.2,7.3,20.4,27.3,30.9,29.8c1.1,0.3,10.4-11.7,11.3-12.4c35.6-32,78.4-53.7,117.1-81.2c18.2-12.9,82.6-76.6,98-80.3
						c11.2-2.6,31.5,4.8,43.4,5.4c11.7,0.5,25.4-2.9,36.5-1.9c1,0.1-1.7,1.1-2.5,1.8c-17.5,13.6-34.9,27.4-51.8,41.7
						c-37.7,31.9-64.4,65.2-82.8,111.8c-11.3,28.6-23,60.8-24.3,91.8c-2.2,50.9,15.1,107.6,29.9,155.6
						c16.6,53.9,29,109.6,81.7,137.2c-6.9,2.8-110.7-41.1-115.4-37.7c-6.2,4.3-7,17.9-8.2,24.4c-1.7,9.1-5.8,23.7-3,33
						c5.1,17.1,68.9,55.8,84.7,65.8c81.2,51.6,179.2,83.3,275,62.7c22.1-4.8,43.8-9.9,61.9-24.2c81.6-64.5,80.2-195.4,101.8-286.7
						c8.4-35.7,16.1-71.7,25.9-107c5-18,13.8-36.5,17-54.8"/>
				</defs>
				<clipPath id="SVGID_X_235_">
					<use xlink:href="#SVGID_X_234_"  overflow="visible"/>
				</clipPath>
				<path clip-path="url(#SVGID_X_235_)" fill="#A4AED8" d="M4376.3,2549.7c0.1,0.9-1.5-0.9-2.3-1.4c-1.7-1-3.3-2.2-4.9-3.5
					c-4.7-3.9-8.7-8.6-12.6-13.2c-14.8-17.8-28.6-36.7-42.9-55c-0.9-1.2-4.2-6.5-6.3-5c-3.9,3-1.8,40.5-2.1,46.7
					c-0.9,20.1-4.3,40-5.9,60c-1.9,24-2.2,48.1-5.7,71.9c-4.1,28-11.1,56-20.4,82.8c-3.2,9.1-6.9,17.8-12,26
					c-0.7,1.1-7.3,9.1-5,10.1c10.4,4.4,43.7-4.1,54.1-7.3c61.7-18.7,75-23.8,69.1-93.5c-3.3-38.9-8.2-77.7-11.5-116.6"/>
			</g>
		</g>
		<g>
			<g>
				<defs>
					<path id="SVGID_X_236_" d="M4601,2597.7c-5.6-18.9,31.9-90.1,41.9-110.7c35.3-72.3,89.3-215,20.7-280
						c-102.7-97.2-282.7-63.8-406.4-33.3c-37.8,9.4-78.5,16.1-113.2,34.7c-55.8,29.8-99,78.1-145.8,119.7
						c-35.3,31.4-63.8,69-96.5,103c-19.1,19.8-45.5,38.7-60.2,62.4c-0.5,0.8-1,1.6-1,2.6c0.4,9,23.8,24.4,29.6,30.3
						c7.2,7.3,20.4,27.3,30.9,29.8c1.1,0.3,10.4-11.7,11.3-12.4c35.6-32,78.4-53.7,117.1-81.2c18.2-12.9,82.6-76.6,98-80.3
						c11.2-2.6,31.5,4.8,43.4,5.4c11.7,0.5,25.4-2.9,36.5-1.9c1,0.1-1.7,1.1-2.5,1.8c-17.5,13.6-34.9,27.4-51.8,41.7
						c-37.7,31.9-64.4,65.2-82.8,111.8c-11.3,28.6-23,60.8-24.3,91.8c-2.2,50.9,15.1,107.6,29.9,155.6
						c16.6,53.9,29,109.6,81.7,137.2c-6.9,2.8-110.7-41.1-115.4-37.7c-6.2,4.3-7,17.9-8.2,24.4c-1.7,9.1-5.8,23.7-3,33
						c5.1,17.1,68.9,55.8,84.7,65.8c81.2,51.6,179.2,83.3,275,62.7c22.1-4.8,43.8-9.9,61.9-24.2c81.6-64.5,80.2-195.4,101.8-286.7
						c8.4-35.7,16.1-71.7,25.9-107c5-18,13.8-36.5,17-54.8"/>
				</defs>
				<clipPath id="SVGID_X_237_">
					<use xlink:href="#SVGID_X_236_"  overflow="visible"/>
				</clipPath>
				<path clip-path="url(#SVGID_X_237_)" fill="#1B1D4F" d="M4273.3,2631c0.4-0.4-1.3-0.8-1.7-0.9c-7.8-2.8-15.8-5.3-23.9-7.3
					c-17.3-4.1-34.8-6.5-52.4-9c-50.2-7.4-100.1-25.8-151.4-21.5"/>
			</g>
		</g>
	</g>
	<g>
		<g>
			<g>
				<defs>
					<rect id="SVGID_X_238_" y="404.8" width="5199.8" height="2921.8"/>
				</defs>
				<clipPath id="SVGID_X_239_">
					<use xlink:href="#SVGID_X_238_"  overflow="visible"/>
				</clipPath>
			</g>
			<g>
				<defs>
					<rect id="SVGID_X_240_" y="404.8" width="5199.8" height="2921.8"/>
				</defs>
				<defs>
					<rect id="SVGID_X_241_" x="0.1" y="404.8" width="5199.9" height="2921.9"/>
				</defs>
				<clipPath id="SVGID_X_242_">
					<use xlink:href="#SVGID_X_240_"  overflow="visible"/>
				</clipPath>
				<clipPath id="SVGID_X_243_" clip-path="url(#SVGID_X_242_)">
					<use xlink:href="#SVGID_X_241_"  overflow="visible"/>
				</clipPath>
				<path clip-path="url(#SVGID_X_243_)" fill="#8A5B3D" d="M4479.6,2484.1l0.1-0.2c0.8-1.5,2.6-2.8,3.9-3.9c2.7-2.5,5.5-5,8.4-7.3
					c4.5-3.6,37.9-27.5,43.3-19c2.7,4.2-0.1,11.5-1.2,15.7c-7.8,28.4-26.3,24.2-51.8,21"/>
			</g>
		</g>
		<g>
			<g>
				<defs>
					<rect id="SVGID_X_244_" y="404.8" width="5199.8" height="2921.8"/>
				</defs>
				<clipPath id="SVGID_X_245_">
					<use xlink:href="#SVGID_X_244_"  overflow="visible"/>
				</clipPath>
			</g>
			<g>
				<defs>
					<rect id="SVGID_X_246_" y="404.8" width="5199.8" height="2921.8"/>
				</defs>
				<defs>
					<rect id="SVGID_X_247_" x="0.1" y="404.8" width="5199.9" height="2921.9"/>
				</defs>
				<clipPath id="SVGID_X_248_">
					<use xlink:href="#SVGID_X_246_"  overflow="visible"/>
				</clipPath>
				<clipPath id="SVGID_X_249_" clip-path="url(#SVGID_X_248_)">
					<use xlink:href="#SVGID_X_247_"  overflow="visible"/>
				</clipPath>
				<path clip-path="url(#SVGID_X_249_)" fill="#8A5B3D" d="M4405.4,2790.3c0.6-0.3-0.2,1.4,0,2.1c1.1,5,4.2,10,6.6,14.4
					c3.5,6.3,25.5,44.2,34.6,40c6-2.8,9.1-10.3,11.2-16.1c10.1-27.4-20.7-31.2-41.5-37.5"/>
			</g>
		</g>
		<g>
			<g>
				<defs>
					<rect id="SVGID_X_250_" y="404.8" width="5199.8" height="2921.8"/>
				</defs>
				<clipPath id="SVGID_X_251_">
					<use xlink:href="#SVGID_X_250_"  overflow="visible"/>
				</clipPath>
			</g>
			<g>
				<defs>
					<rect id="SVGID_X_252_" y="404.8" width="5199.8" height="2921.8"/>
				</defs>
				<defs>
					<rect id="SVGID_X_253_" x="0.1" y="404.8" width="5199.9" height="2921.9"/>
				</defs>
				<clipPath id="SVGID_X_254_">
					<use xlink:href="#SVGID_X_252_"  overflow="visible"/>
				</clipPath>
				<clipPath id="SVGID_X_255_" clip-path="url(#SVGID_X_254_)">
					<use xlink:href="#SVGID_X_253_"  overflow="visible"/>
				</clipPath>
				<path clip-path="url(#SVGID_X_255_)" fill="#82441D" d="M4483.3,2485.9c0,0-1.4-0.2-7-0.6c-6.7-0.5-13.5-0.5-20.2-0.3
					c-17.9,0.4-35.6,2.7-53,6.8c-54.5,12.8-111.1,41.2-140.5,91.7c-47.8,82.3,18.4,150.3,83.6,191.6c15.8,10,36.8,26,55.7,28.8
					c15.3,2.3-20.1-54-22.6-59.5c-6.6-14.6-11.8-30-14.8-45.8c-11.5-59.8,8.1-120.8,40.4-170.8c7.2-11.1,15.6-25.4,27.7-31.9"/>
			</g>
		</g>
		<g>
			<g>
				<defs>
					<rect id="SVGID_X_256_" y="404.8" width="5199.8" height="2921.8"/>
				</defs>
				<clipPath id="SVGID_X_257_">
					<use xlink:href="#SVGID_X_256_"  overflow="visible"/>
				</clipPath>
			</g>
			<g>
				<defs>
					<rect id="SVGID_X_258_" y="404.8" width="5199.8" height="2921.8"/>
				</defs>
				<defs>
					<rect id="SVGID_X_259_" x="0.1" y="404.8" width="5199.9" height="2921.9"/>
				</defs>
				<clipPath id="SVGID_X_260_">
					<use xlink:href="#SVGID_X_258_"  overflow="visible"/>
				</clipPath>
				<clipPath id="SVGID_X_261_" clip-path="url(#SVGID_X_260_)">
					<use xlink:href="#SVGID_X_259_"  overflow="visible"/>
				</clipPath>
				<path clip-path="url(#SVGID_X_261_)" fill="#3D2C21" d="M4767.8,2677.2c1.3-5.5-8.1-67.5-49.5-101.6
					c-71.4-58.8-150.9-117.9-247.6-95.7c-85,19.5-201,124-172.9,220.7c13.9,48,74.5,90.8,116.7,112.8c47.4,24.6,117.8,35.6,171.6,42
					c27.7,3.3,70.7,0.2,103.8-14.3c23.9-10.5,44.6-30.8,58.6-54.2c19-31.8,20.3-73.1,19.2-109.2
					C4767.7,2677.6,4767.8,2677.2,4767.8,2677.2L4767.8,2677.2z"/>
			</g>
		</g>
		<g>
			<g>
				<defs>
					<rect id="SVGID_X_262_" y="404.8" width="5199.8" height="2921.8"/>
				</defs>
				<clipPath id="SVGID_X_263_">
					<use xlink:href="#SVGID_X_262_"  overflow="visible"/>
				</clipPath>
			</g>
			<g>
				<defs>
					<rect id="SVGID_X_264_" y="404.8" width="5199.8" height="2921.8"/>
				</defs>
				<defs>
					<rect id="SVGID_X_265_" x="0.1" y="404.8" width="5199.9" height="2921.9"/>
				</defs>
				<clipPath id="SVGID_X_266_">
					<use xlink:href="#SVGID_X_264_"  overflow="visible"/>
				</clipPath>
				<clipPath id="SVGID_X_267_" clip-path="url(#SVGID_X_266_)">
					<use xlink:href="#SVGID_X_265_"  overflow="visible"/>
				</clipPath>
				<path clip-path="url(#SVGID_X_267_)" fill="#D4E5F6" d="M4340.9,2509.8c0,0,21.6-2,21.5-2c-3.5,2.4-7,5-10.5,7.5
					c-7.2,5.2-14.2,10.7-20.7,16.9c-19.7,18.5-35.3,42.1-46.8,66.6c-15.5,33.2-14.5,67.7-3.5,102c3.4,10.6,8.2,20.9,14,30.4
					c2.7,4.3,5.9,8.1,9.1,12c0.1,0.2,1.3,1.4,1,1.7c-0.3,0.4-1.6-0.5-1.9-0.7c-8.1-4.8-15.9-9.6-22.9-16
					c-23.1-21.2-42.2-50.7-44.6-82.8C4231.3,2585.9,4289.7,2529.5,4340.9,2509.8L4340.9,2509.8z"/>
			</g>
		</g>
		<g>
			<path fill="#1D98B1" d="M3861.7,2548.9c33.4,21,43.6,65.4,22.7,99.2c-20.9,33.8-64.9,44.1-98.3,23.1
				c-33.4-21-43.6-65.4-22.7-99.2S3828.3,2527.9,3861.7,2548.9L3861.7,2548.9z"/>
		</g>
	</g>
	<g>
		<g>
			<g>
				<defs>
					<path id="SVGID_X_268_" d="M3861.7,2548.9c33.4,21,43.6,65.4,22.7,99.2c-20.9,33.8-64.9,44.1-98.3,23.1
						c-33.4-21-43.6-65.4-22.7-99.2S3828.3,2527.9,3861.7,2548.9L3861.7,2548.9z"/>
				</defs>
				<clipPath id="SVGID_X_269_">
					<use xlink:href="#SVGID_X_268_"  overflow="visible"/>
				</clipPath>
				<path clip-path="url(#SVGID_X_269_)" fill="#B1862D" d="M3862,2562.9c28.3,17.8,37.1,55.2,19.6,83.5s-54.7,36.8-83,19
					s-37.1-55.2-19.6-83.5C3796.5,2553.6,3833.7,2545.1,3862,2562.9L3862,2562.9z"/>
			</g>
		</g>
	</g>
	<g>
		<g>
			<g>
				<defs>
					<path id="SVGID_X_270_" d="M3862,2562.9c28.3,17.8,37.1,55.2,19.6,83.5s-54.7,36.8-83,19s-37.1-55.2-19.6-83.5
						C3796.5,2553.6,3833.7,2545.1,3862,2562.9L3862,2562.9z"/>
				</defs>
				<clipPath id="SVGID_X_271_">
					<use xlink:href="#SVGID_X_270_"  overflow="visible"/>
				</clipPath>
			</g>
			<g>
				<defs>
					<path id="SVGID_X_272_" d="M3862,2562.9c28.3,17.8,37.1,55.2,19.6,83.5s-54.7,36.8-83,19s-37.1-55.2-19.6-83.5
						C3796.5,2553.6,3833.7,2545.1,3862,2562.9L3862,2562.9z"/>
				</defs>
				<defs>
					<path id="SVGID_X_273_" d="M3861.7,2548.9c33.4,21,43.6,65.4,22.7,99.2c-20.9,33.8-64.9,44.1-98.3,23.1
						c-33.4-21-43.6-65.4-22.7-99.2S3828.3,2527.9,3861.7,2548.9L3861.7,2548.9z"/>
				</defs>
				<clipPath id="SVGID_X_274_">
					<use xlink:href="#SVGID_X_272_"  overflow="visible"/>
				</clipPath>
				<clipPath id="SVGID_X_275_" clip-path="url(#SVGID_X_274_)">
					<use xlink:href="#SVGID_X_273_"  overflow="visible"/>
				</clipPath>
				<path clip-path="url(#SVGID_X_275_)" fill="#C7A54D" d="M3865.6,2585.3c0.1,0.1,0.2,0.3,0.1,0.5c-0.1,0.2-0.3,0.3-0.6,0
					c-0.2-0.1-0.5-0.6-0.5-0.7c-0.6-1.1-1.6-2-2.6-2.8c-1.6-1.3-3.4-2.3-5-3.2c-1.1-0.7-2.3-1.3-3.5-1.9c-1.8-0.9-3.6-1.7-5.5-2.3
					c-3.1-1-6.3-1.7-9.7-2c-13.2-1.3-25.9,3.3-35.3,11.5c-9.3,8.2-15.4,20-15.4,33.6c0,1.4-1.1,2.6-2.5,2.5c-1.4,0-2.5-1.1-2.5-2.6
					c0.1-15,6.9-28.1,17.4-37.1c10.4-8.8,24.3-13.6,38.7-12c3.6,0.4,7.2,1.2,10.5,2.5c2,0.8,4,1.7,5.9,2.8c1.2,0.7,2.4,1.6,3.5,2.5
					c1.5,1.3,3.2,2.7,4.6,4.3c1,1.2,1.7,2.4,2.1,3.8c0,0,0,0.3,0.1,0.5l0,0l0,0L3865.6,2585.3l-0.1-0.1
					C3865.6,2585.2,3865.7,2585.3,3865.6,2585.3L3865.6,2585.3z M3865.6,2585.3L3865.6,2585.3
					C3865.5,2585.3,3865.5,2585.3,3865.6,2585.3C3865.5,2585.3,3865.5,2585.4,3865.6,2585.3L3865.6,2585.3L3865.6,2585.3z"/>
			</g>
		</g>
		<g>
			<g>
				<defs>
					<path id="SVGID_X_276_" d="M3862,2562.9c28.3,17.8,37.1,55.2,19.6,83.5s-54.7,36.8-83,19s-37.1-55.2-19.6-83.5
						C3796.5,2553.6,3833.7,2545.1,3862,2562.9L3862,2562.9z"/>
				</defs>
				<clipPath id="SVGID_X_277_">
					<use xlink:href="#SVGID_X_276_"  overflow="visible"/>
				</clipPath>
			</g>
			<g>
				<defs>
					<path id="SVGID_X_278_" d="M3862,2562.9c28.3,17.8,37.1,55.2,19.6,83.5s-54.7,36.8-83,19s-37.1-55.2-19.6-83.5
						C3796.5,2553.6,3833.7,2545.1,3862,2562.9L3862,2562.9z"/>
				</defs>
				<defs>
					<path id="SVGID_X_279_" d="M3861.7,2548.9c33.4,21,43.6,65.4,22.7,99.2c-20.9,33.8-64.9,44.1-98.3,23.1
						c-33.4-21-43.6-65.4-22.7-99.2S3828.3,2527.9,3861.7,2548.9L3861.7,2548.9z"/>
				</defs>
				<clipPath id="SVGID_X_280_">
					<use xlink:href="#SVGID_X_278_"  overflow="visible"/>
				</clipPath>
				<clipPath id="SVGID_X_281_" clip-path="url(#SVGID_X_280_)">
					<use xlink:href="#SVGID_X_279_"  overflow="visible"/>
				</clipPath>
				<path clip-path="url(#SVGID_X_281_)" fill="#C7A54D" d="M3803.2,2609.8c0.1,0.3-0.1,0.4-0.4,0.6c-0.8,0.5-2.2,1-2.8,1.6
					c-1.4,1.4-2.8,3-4,4.7s-2.1,3.6-2.9,5.5c-0.8,2-1.3,4.1-1.6,6.1c-0.4,3.1-0.3,6.4,0.3,9.5c1,5.2,3.3,10.2,6.4,14.4
					c8.2,10.7,19.7,13.1,31.3,10.8c16.4-3.4,33-16.5,40.9-28.8c4.4-6.9,7.5-15.5,6.9-23.5c-0.4-5.6-2.7-10.9-7.4-15.2
					c-3.3-3-7.4-5.2-11.6-6.5c-4.2-1.4-8.7-2-13-2c-3.3,0-6.7,0.3-9.9,1c-3.3,0.7-6.5,1.7-9.5,3c-1.3,0.6-1.9,2.1-1.3,3.4
					c0.6,1.3,2,1.9,3.3,1.3c2.7-1.2,5.6-2.1,8.5-2.8c2.9-0.6,5.9-1,8.9-1c3.8,0,7.8,0.5,11.5,1.7c3.6,1.2,7.1,2.9,9.9,5.5
					c4.8,4.3,6.3,9.8,5.9,15.5c-0.4,5.9-2.9,12-6.1,17.1c-7.3,11.5-22.7,23.8-37.9,27.1c-10.1,2.2-20.2,0.3-27.4-9
					c-2.9-3.7-4.9-8.1-5.9-12.7c-0.6-2.8-0.9-5.6-0.7-8.5c0.1-1.9,0.4-3.8,0.9-5.6s1.2-3.6,2.1-5.3c0.9-1.7,2-3.4,3.2-4.9
					c0.6-0.8,2.3-1.4,2.8-2.2c0.3-0.4,0.4-0.8,0.1-1.3c-0.1-0.2-0.3-0.2-0.5-0.1C3803.2,2609.4,3803.1,2609.6,3803.2,2609.8
					L3803.2,2609.8z"/>
			</g>
		</g>
		<g>
			<g>
				<defs>
					<path id="SVGID_X_282_" d="M3862,2562.9c28.3,17.8,37.1,55.2,19.6,83.5s-54.7,36.8-83,19s-37.1-55.2-19.6-83.5
						C3796.5,2553.6,3833.7,2545.1,3862,2562.9L3862,2562.9z"/>
				</defs>
				<clipPath id="SVGID_X_283_">
					<use xlink:href="#SVGID_X_282_"  overflow="visible"/>
				</clipPath>
			</g>
			<g>
				<defs>
					<path id="SVGID_X_284_" d="M3862,2562.9c28.3,17.8,37.1,55.2,19.6,83.5s-54.7,36.8-83,19s-37.1-55.2-19.6-83.5
						C3796.5,2553.6,3833.7,2545.1,3862,2562.9L3862,2562.9z"/>
				</defs>
				<defs>
					<path id="SVGID_X_285_" d="M3861.7,2548.9c33.4,21,43.6,65.4,22.7,99.2c-20.9,33.8-64.9,44.1-98.3,23.1
						c-33.4-21-43.6-65.4-22.7-99.2S3828.3,2527.9,3861.7,2548.9L3861.7,2548.9z"/>
				</defs>
				<clipPath id="SVGID_X_286_">
					<use xlink:href="#SVGID_X_284_"  overflow="visible"/>
				</clipPath>
				<clipPath id="SVGID_X_287_" clip-path="url(#SVGID_X_286_)">
					<use xlink:href="#SVGID_X_285_"  overflow="visible"/>
				</clipPath>
				<path clip-path="url(#SVGID_X_287_)" fill="#C7A54D" d="M3833.3,2604.7c0.6,0,1.6-0.3,2.1-0.1c0.7,0.2,1.4,0.4,2.1,0.6
					c0.7,0.3,1.3,0.6,2,1c2,1.3,3.7,2.9,5.2,4.8c1.4,1.9,2.5,4,3.3,6.2c2.2,5.4,2,11.3-0.1,16.5s-6.1,9.6-11.6,11.9
					c-11.3,4.7-20.6-0.9-24.9-9.6c-4.1-8.3-3.5-19.4,4.4-27.2c1-1,2.6-1,3.6,0s1,2.6,0,3.6c-6.3,6.1-6.8,14.9-3.6,21.5
					c3.2,6.7,10.3,11.1,19,7.6c4.4-1.8,7.7-5.2,9.4-9.4c1.8-4.2,2.1-9.1,0.4-13.5c-0.7-1.9-1.6-3.8-2.7-5.6
					c-1.1-1.8-2.2-3.5-3.7-4.9c-0.5-0.4-0.9-0.8-1.4-1.2s-1.1-0.7-1.6-1s-2-0.2-2.2-0.4s-0.5-0.5,0-0.8
					C3832.9,2604.5,3833.1,2604.5,3833.3,2604.7L3833.3,2604.7L3833.3,2604.7z"/>
			</g>
		</g>
	</g>
	<g display="none">
		<g display="inline">
			<g>
				<defs>
					<rect id="SVGID_X_288_" y="404.8" width="5199.8" height="2921.8"/>
				</defs>
				<clipPath id="SVGID_X_289_">
					<use xlink:href="#SVGID_X_288_"  overflow="visible"/>
				</clipPath>
				<path clip-path="url(#SVGID_X_289_)" fill="#BABABA" d="M1389.5,1928.6c0,16.1-4.1,30.6-12.4,43.4s-20.4,22.9-36.4,30.1
					c-16,7.3-34.9,10.9-56.8,10.9c-26.2,0-47.9-5-64.9-14.9c-12.1-7.1-21.9-16.7-29.5-28.6s-11.3-23.5-11.3-34.8
					c0-6.5,2.3-12.1,6.8-16.8c4.5-4.7,10.3-7,17.3-7c5.7,0,10.5,1.8,14.4,5.4s7.3,9,10.1,16.2c3.4,8.5,7,15.6,11,21.2
					c3.9,5.7,9.5,10.4,16.6,14.1s16.5,5.5,28.1,5.5c16,0,28.9-3.7,38.9-11.2c10-7.4,15-16.7,15-27.9c0-8.8-2.7-16-8.1-21.5
					s-12.3-9.7-20.9-12.6c-8.5-2.9-19.9-6-34.2-9.3c-19.1-4.5-35.1-9.7-48-15.7s-23.1-14.2-30.6-24.5c-7.6-10.3-11.3-23.2-11.3-38.6
					c0-14.6,4-27.7,12-39c8-11.4,19.5-20.1,34.6-26.2s32.9-9.2,53.3-9.2c16.3,0,30.4,2,42.3,6.1s21.8,9.4,29.6,16.2
					c7.9,6.7,13.6,13.8,17.2,21.1c3.6,7.4,5.4,14.6,5.4,21.6c0,6.4-2.3,12.2-6.8,17.3c-4.5,5.1-10.2,7.7-17,7.7
					c-6.2,0-10.9-1.5-14.1-4.6s-6.7-8.1-10.4-15.2c-4.8-10-10.6-17.9-17.4-23.5s-17.7-8.4-32.6-8.4c-13.9,0-25.1,3.1-33.6,9.2
					s-12.8,13.5-12.8,22.1c0,5.3,1.5,9.9,4.4,13.8s6.9,7.2,12,10s10.2,5,15.4,6.5c5.2,1.6,13.8,3.9,25.8,6.9
					c15,3.5,28.6,7.4,40.7,11.6c12.2,4.2,22.5,9.4,31,15.4c8.5,6.1,15.2,13.7,19.9,23C1387.1,1903.9,1389.5,1915.2,1389.5,1928.6
					L1389.5,1928.6z"/>
			</g>
		</g>
		<g display="inline">
			<g>
				<defs>
					<rect id="SVGID_X_290_" y="404.8" width="5199.8" height="2921.8"/>
				</defs>
				<clipPath id="SVGID_X_291_">
					<use xlink:href="#SVGID_X_290_"  overflow="visible"/>
				</clipPath>
				<path clip-path="url(#SVGID_X_291_)" fill="#BABABA" d="M1617,1912.3c0,14.8-2.3,28.4-6.9,40.8c-4.6,12.5-11.2,23.2-19.9,32.1
					c-8.7,9-19.1,15.8-31.2,20.6c-12.1,4.8-25.7,7.2-40.8,7.2c-15,0-28.5-2.4-40.4-7.3c-12-4.8-22.3-11.8-31.1-20.8
					c-8.8-9-15.4-19.7-19.9-31.9c-4.5-12.3-6.8-25.9-6.8-40.8c0-15,2.3-28.7,6.9-41.2s11.2-23.1,19.8-31.9
					c8.6-8.8,19-15.6,31.2-20.4s25.7-7.2,40.4-7.2c15,0,28.6,2.4,40.8,7.3c12.2,4.8,22.7,11.7,31.4,20.7c8.7,9,15.3,19.6,19.9,31.9
					C1614.8,1883.8,1617,1897.4,1617,1912.3L1617,1912.3z M1567.4,1912.3c0-20.2-4.4-35.9-13.3-47.2c-8.9-11.3-20.8-16.9-35.8-16.9
					c-9.7,0-18.2,2.5-25.6,7.5s-13.1,12.4-17,22.2c-4,9.8-6,21.2-6,34.3c0,12.9,2,24.3,5.9,33.9c3.9,9.7,9.6,17.1,16.9,22.2
					s15.9,7.7,25.8,7.7c15,0,26.9-5.7,35.8-17C1562.9,1947.9,1567.4,1932.3,1567.4,1912.3L1567.4,1912.3z"/>
			</g>
		</g>
		<g display="inline">
			<g>
				<defs>
					<rect id="SVGID_X_292_" y="404.8" width="5199.8" height="2921.8"/>
				</defs>
				<clipPath id="SVGID_X_293_">
					<use xlink:href="#SVGID_X_292_"  overflow="visible"/>
				</clipPath>
				<path clip-path="url(#SVGID_X_293_)" fill="#BABABA" d="M1833.6,1951.7c0,6.2-1.8,12.8-5.5,19.8s-9.3,13.7-16.9,20.1
					s-17.1,11.5-28.6,15.3c-11.5,3.9-24.4,5.8-38.8,5.8c-30.6,0-54.5-8.9-71.6-26.8c-17.2-17.8-25.8-41.8-25.8-71.8
					c0-20.3,3.9-38.3,11.8-53.9s19.2-27.7,34.1-36.2s32.6-12.8,53.3-12.8c12.8,0,24.6,1.9,35.3,5.6c10.7,3.8,19.8,8.6,27.2,14.5
					c7.4,5.9,13.1,12.3,17,19s5.9,13,5.9,18.8c0,5.9-2.2,11-6.6,15.1s-9.8,6.2-16,6.2c-4.1,0-7.5-1.1-10.2-3.2s-5.8-5.5-9.2-10.3
					c-6-9.2-12.4-16.1-19-20.7s-15-6.9-25.1-6.9c-14.6,0-26.4,5.7-35.4,17.2c-8.9,11.4-13.4,27.1-13.4,46.9c0,9.3,1.1,17.9,3.4,25.7
					c2.3,7.8,5.6,14.5,10,20s9.6,9.7,15.8,12.5c6.2,2.8,12.9,4.3,20.3,4.3c9.9,0,18.4-2.3,25.5-6.9s13.3-11.6,18.8-21.1
					c3-5.6,6.3-9.9,9.8-13.1c3.5-3.1,7.8-4.7,12.9-4.7c6,0,11.1,2.3,15.1,6.9C1831.6,1941.6,1833.6,1946.5,1833.6,1951.7
					L1833.6,1951.7z"/>
			</g>
		</g>
		<g display="inline">
			<g>
				<defs>
					<rect id="SVGID_X_294_" y="404.8" width="5199.8" height="2921.8"/>
				</defs>
				<clipPath id="SVGID_X_295_">
					<use xlink:href="#SVGID_X_294_"  overflow="visible"/>
				</clipPath>
				<path clip-path="url(#SVGID_X_295_)" fill="#BABABA" d="M1926.2,1839.7v143.2c0,9.9-2.4,17.4-7.1,22.5s-10.7,7.6-18,7.6
					s-13.1-2.6-17.7-7.8c-4.5-5.2-6.8-12.6-6.8-22.3v-141.8c0-9.8,2.3-17.2,6.8-22.1c4.5-5,10.4-7.4,17.7-7.4c7.3,0,13.2,2.5,18,7.4
					C1923.9,1824,1926.2,1830.8,1926.2,1839.7L1926.2,1839.7z M1901.8,1788.5c-6.9,0-12.8-2.1-17.7-6.4c-4.9-4.2-7.3-10.2-7.3-18
					c0-7,2.5-12.8,7.5-17.3s10.9-6.8,17.5-6.8c6.4,0,12.1,2.1,17,6.2c5,4.1,7.4,10.1,7.4,18c0,7.6-2.4,13.6-7.3,17.9
					C1914.1,1786.3,1908.4,1788.5,1901.8,1788.5L1901.8,1788.5z"/>
			</g>
		</g>
		<g display="inline">
			<g>
				<defs>
					<rect id="SVGID_X_296_" y="404.8" width="5199.8" height="2921.8"/>
				</defs>
				<clipPath id="SVGID_X_297_">
					<use xlink:href="#SVGID_X_296_"  overflow="visible"/>
				</clipPath>
				<path clip-path="url(#SVGID_X_297_)" fill="#BABABA" d="M2102.5,1985.1c-12,9.3-23.5,16.3-34.7,21s-23.7,7-37.6,7
					c-12.7,0-23.8-2.5-33.5-7.5c-9.6-5-17-11.8-22.2-20.4s-7.8-17.9-7.8-28c0-13.6,4.3-25.1,12.9-34.7s20.4-16,35.4-19.2
					c3.1-0.7,10.9-2.4,23.4-4.9s23.1-4.9,32-7s18.5-4.7,28.9-7.7c-0.6-13.1-3.2-22.7-7.9-28.8c-4.7-6.1-14.3-9.2-28.9-9.2
					c-12.6,0-22,1.8-28.4,5.3c-6.3,3.5-11.8,8.8-16.3,15.8s-7.7,11.6-9.6,13.9c-1.9,2.2-5.9,3.4-12.1,3.4c-5.6,0-10.4-1.8-14.4-5.4
					s-6.1-8.1-6.1-13.7c0-8.7,3.1-17.2,9.2-25.4c6.2-8.2,15.8-15,28.8-20.3c13.1-5.3,29.3-8,48.8-8c21.8,0,38.9,2.6,51.3,7.7
					c12.5,5.1,21.2,13.3,26.4,24.4c5.1,11.1,7.7,25.9,7.7,44.3c0,11.6,0,21.5-0.1,29.6s-0.2,17.1-0.3,27c0,9.3,1.5,19,4.6,29.1
					s4.6,16.6,4.6,19.5c0,5.1-2.4,9.7-7.2,13.9c-4.8,4.2-10.2,6.3-16.2,6.3c-5.1,0-10.1-2.4-15.1-7.2
					C2113.3,2001.1,2108.1,1994.2,2102.5,1985.1L2102.5,1985.1z M2099.2,1913.4c-7.3,2.7-17.8,5.5-31.6,8.4
					c-13.8,3-23.4,5.1-28.7,6.5c-5.3,1.4-10.4,4.1-15.2,8.2c-4.8,4.1-7.3,9.7-7.3,17c0,7.5,2.8,13.9,8.5,19.2
					c5.7,5.3,13.1,7.9,22.3,7.9c9.8,0,18.8-2.1,27.1-6.4s14.4-9.8,18.2-16.6c4.5-7.5,6.7-19.8,6.7-37V1913.4L2099.2,1913.4z"/>
			</g>
		</g>
		<g display="inline">
			<g>
				<defs>
					<rect id="SVGID_X_298_" y="404.8" width="5199.8" height="2921.8"/>
				</defs>
				<clipPath id="SVGID_X_299_">
					<use xlink:href="#SVGID_X_298_"  overflow="visible"/>
				</clipPath>
				<path clip-path="url(#SVGID_X_299_)" fill="#BABABA" d="M2198.1,1982.9V1768c0-9.9,2.2-17.4,6.6-22.5c4.4-5.1,10.4-7.6,17.9-7.6
					s13.5,2.5,18.1,7.5s6.9,12.6,6.9,22.6v214.9c0,10-2.3,17.6-7,22.6s-10.7,7.5-18,7.5s-13.1-2.6-17.7-7.8
					C2200.3,2000,2198.1,1992.6,2198.1,1982.9L2198.1,1982.9z"/>
			</g>
		</g>
		<g display="inline">
			<g>
				<defs>
					<rect id="SVGID_X_300_" y="404.8" width="5199.8" height="2921.8"/>
				</defs>
				<clipPath id="SVGID_X_301_">
					<use xlink:href="#SVGID_X_300_"  overflow="visible"/>
				</clipPath>
				<path clip-path="url(#SVGID_X_301_)" fill="#BABABA" d="M2529.3,1740.2h70.2c18.3,0,33.9,1.7,47,5.1s24.9,9.7,35.5,19.1
					c27.7,23.7,41.5,59.8,41.5,108.2c0,16-1.4,30.6-4.2,43.7c-2.8,13.2-7.1,25.1-12.9,35.7c-5.8,10.6-13.2,20.1-22.3,28.4
					c-7.1,6.4-14.9,11.6-23.4,15.4c-8.5,3.9-17.6,6.6-27.3,8.2s-20.7,2.4-32.9,2.4h-70.2c-9.8,0-17.2-1.5-22.1-4.4
					c-5-3-8.2-7.1-9.7-12.5s-2.3-12.4-2.3-21v-195.1c0-11.6,2.6-20,7.8-25.2C2509.3,1742.8,2517.7,1740.2,2529.3,1740.2
					L2529.3,1740.2z M2550.2,1782.9v180.6h40.8c8.9,0,16-0.2,21-0.7c5.1-0.5,10.3-1.7,15.8-3.6c5.4-1.9,10.2-4.7,14.1-8.2
					c18-15.2,27-41.5,27-78.8c0-26.3-4-45.9-11.9-59s-17.7-21.4-29.3-25s-25.6-5.4-42.1-5.4L2550.2,1782.9L2550.2,1782.9z"/>
			</g>
		</g>
		<g display="inline">
			<g>
				<defs>
					<rect id="SVGID_X_302_" y="404.8" width="5199.8" height="2921.8"/>
				</defs>
				<clipPath id="SVGID_X_303_">
					<use xlink:href="#SVGID_X_302_"  overflow="visible"/>
				</clipPath>
				<path clip-path="url(#SVGID_X_303_)" fill="#BABABA" d="M2816.9,1837.5v143.2c0,9.9-2.4,17.4-7.1,22.5c-4.7,5.1-10.7,7.6-18,7.6
					s-13.1-2.6-17.7-7.8c-4.5-5.2-6.8-12.6-6.8-22.3V1839c0-9.8,2.3-17.2,6.8-22.1c4.5-5,10.4-7.4,17.7-7.4s13.2,2.5,18,7.4
					C2814.6,1821.8,2816.9,1828.7,2816.9,1837.5L2816.9,1837.5z M2792.5,1786.3c-6.9,0-12.8-2.1-17.7-6.4c-4.9-4.2-7.3-10.2-7.3-18
					c0-7,2.5-12.8,7.5-17.3s10.9-6.8,17.5-6.8c6.4,0,12.1,2.1,17,6.2c5,4.1,7.4,10.1,7.4,18c0,7.6-2.4,13.6-7.3,17.9
					C2804.8,1784.2,2799.1,1786.3,2792.5,1786.3L2792.5,1786.3z"/>
			</g>
		</g>
		<g display="inline">
			<g>
				<defs>
					<rect id="SVGID_X_304_" y="404.8" width="5199.8" height="2921.8"/>
				</defs>
				<clipPath id="SVGID_X_305_">
					<use xlink:href="#SVGID_X_304_"  overflow="visible"/>
				</clipPath>
				<path clip-path="url(#SVGID_X_305_)" fill="#BABABA" d="M3027.5,1946.1c0,13.7-3.3,25.4-10,35.1c-6.6,9.7-16.5,17.1-29.5,22.1
					s-28.8,7.5-47.4,7.5c-17.8,0-33-2.7-45.7-8.2c-12.7-5.4-22.1-12.3-28.1-20.4c-6-8.2-9.1-16.4-9.1-24.6c0-5.4,1.9-10.1,5.8-14
					c3.9-3.9,8.8-5.8,14.7-5.8c5.2,0,9.2,1.3,12,3.8s5.4,6.1,8,10.7c5.1,8.8,11.2,15.4,18.2,19.8c7.1,4.4,16.7,6.5,28.9,6.5
					c9.9,0,18-2.2,24.4-6.6c6.3-4.4,9.5-9.5,9.5-15.2c0-8.7-3.3-15.1-9.9-19.1c-6.6-4-17.4-7.8-32.6-11.4
					c-17-4.2-30.9-8.7-41.6-13.3c-10.7-4.7-19.3-10.8-25.7-18.4s-9.6-17-9.6-28.1c0-9.9,3-19.3,8.9-28.1
					c5.9-8.8,14.7-15.9,26.2-21.1c11.5-5.3,25.5-7.9,41.8-7.9c12.8,0,24.3,1.3,34.5,4s18.7,6.2,25.6,10.7c6.8,4.5,12,9.4,15.6,14.9
					c3.6,5.4,5.3,10.8,5.3,16c0,5.7-1.9,10.3-5.7,14c-3.8,3.6-9.2,5.4-16.2,5.4c-5.1,0-9.4-1.5-13-4.4s-7.6-7.3-12.2-13.1
					c-3.7-4.8-8.2-8.7-13.2-11.6c-5.1-2.9-12-4.4-20.7-4.4c-8.9,0-16.4,1.9-22.3,5.7c-5.9,3.8-8.9,8.6-8.9,14.2
					c0,5.2,2.2,9.5,6.5,12.8c4.4,3.3,10.2,6.1,17.6,8.3c7.4,2.2,17.5,4.8,30.5,8c15.4,3.8,27.9,8.2,37.6,13.4
					c9.7,5.2,17.1,11.3,22.1,18.4C3025,1928.9,3027.5,1937,3027.5,1946.1L3027.5,1946.1z"/>
			</g>
		</g>
		<g display="inline">
			<g>
				<defs>
					<rect id="SVGID_X_306_" y="404.8" width="5199.8" height="2921.8"/>
				</defs>
				<clipPath id="SVGID_X_307_">
					<use xlink:href="#SVGID_X_306_"  overflow="visible"/>
				</clipPath>
				<path clip-path="url(#SVGID_X_307_)" fill="#BABABA" d="M3072.1,1813.7h5.4V1784c0-8,0.2-14.2,0.6-18.8c0.4-4.5,1.6-8.4,3.5-11.7
					c1.9-3.4,4.7-6.1,8.3-8.3c3.6-2.1,7.7-3.2,12.1-3.2c6.3,0,12,2.4,17,7.1c3.4,3.1,5.5,7,6.4,11.5s1.4,11,1.4,19.3v33.8h18.1
					c7,0,12.4,1.7,16,5c3.7,3.3,5.5,7.6,5.5,12.8c0,6.7-2.6,11.3-7.9,14c-5.3,2.7-12.8,4-22.6,4h-9.2v91.1c0,7.7,0.3,13.7,0.8,17.9
					c0.5,4.2,2,7.6,4.4,10.2s6.2,3.9,11.5,3.9c2.9,0,6.8-0.5,11.8-1.5s8.8-1.5,11.6-1.5c4,0,7.6,1.6,10.8,4.8
					c3.2,3.2,4.8,7.2,4.8,11.9c0,8-4.4,14.1-13.1,18.3c-8.7,4.2-21.2,6.4-37.5,6.4c-15.5,0-27.2-2.6-35.2-7.8
					c-8-5.2-13.2-12.4-15.7-21.6s-3.7-21.5-3.7-36.8v-95.1h-6.5c-7.1,0-12.6-1.7-16.3-5.1s-5.6-7.7-5.6-12.9c0-5.2,2-9.5,5.9-12.8
					C3058.9,1815.4,3064.6,1813.7,3072.1,1813.7L3072.1,1813.7z"/>
			</g>
		</g>
		<g display="inline">
			<g>
				<defs>
					<rect id="SVGID_X_308_" y="404.8" width="5199.8" height="2921.8"/>
				</defs>
				<clipPath id="SVGID_X_309_">
					<use xlink:href="#SVGID_X_308_"  overflow="visible"/>
				</clipPath>
				<path clip-path="url(#SVGID_X_309_)" fill="#BABABA" d="M3326,1982.9c-12,9.3-23.5,16.3-34.7,21s-23.7,7-37.6,7
					c-12.7,0-23.8-2.5-33.5-7.5c-9.6-5-17-11.8-22.2-20.4s-7.8-17.9-7.8-28c0-13.6,4.3-25.1,12.9-34.7s20.4-16,35.4-19.2
					c3.1-0.7,10.9-2.4,23.4-4.9s23.1-4.9,32-7s18.5-4.7,28.9-7.7c-0.6-13.1-3.2-22.7-7.9-28.8c-4.7-6.1-14.3-9.2-28.9-9.2
					c-12.6,0-22,1.8-28.4,5.3c-6.3,3.5-11.8,8.8-16.3,15.8s-7.7,11.6-9.6,13.9c-1.9,2.2-5.9,3.4-12.1,3.4c-5.6,0-10.4-1.8-14.4-5.4
					s-6.1-8.1-6.1-13.7c0-8.7,3.1-17.2,9.2-25.4s15.8-15,28.8-20.3c13.1-5.3,29.3-8,48.8-8c21.8,0,38.9,2.6,51.3,7.7
					c12.5,5.1,21.2,13.3,26.4,24.4c5.1,11.1,7.7,25.9,7.7,44.3c0,11.6,0,21.5-0.1,29.6s-0.2,17.1-0.3,27c0,9.3,1.5,19,4.6,29.1
					s4.6,16.6,4.6,19.5c0,5.1-2.4,9.7-7.2,13.9c-4.8,4.2-10.2,6.3-16.2,6.3c-5.1,0-10.1-2.4-15.1-7.2
					C3336.8,1998.9,3331.5,1992,3326,1982.9L3326,1982.9z M3322.7,1911.2c-7.3,2.7-17.8,5.5-31.6,8.4c-13.8,3-23.4,5.1-28.7,6.5
					s-10.4,4.1-15.2,8.2s-7.3,9.7-7.3,17c0,7.5,2.8,13.9,8.5,19.1c5.7,5.3,13.1,7.9,22.3,7.9c9.8,0,18.8-2.1,27.1-6.4
					s14.4-9.8,18.2-16.6c4.5-7.5,6.7-19.8,6.7-37V1911.2L3322.7,1911.2z"/>
			</g>
		</g>
		<g display="inline">
			<g>
				<defs>
					<rect id="SVGID_X_310_" y="404.8" width="5199.8" height="2921.8"/>
				</defs>
				<clipPath id="SVGID_X_311_">
					<use xlink:href="#SVGID_X_310_"  overflow="visible"/>
				</clipPath>
				<path clip-path="url(#SVGID_X_311_)" fill="#BABABA" d="M3466.5,1836.8v6c8.7-11.5,18.2-19.9,28.6-25.3
					c10.3-5.4,22.2-8.1,35.6-8.1c13.1,0,24.7,2.8,35,8.5s18,13.7,23,24.1c3.3,6.1,5.4,12.6,6.3,19.6c1,7,1.5,16,1.5,26.9v92.2
					c0,9.9-2.3,17.4-6.8,22.5s-10.4,7.6-17.7,7.6c-7.4,0-13.4-2.6-18-7.8c-4.6-5.2-6.9-12.6-6.9-22.3v-82.6
					c0-16.3-2.3-28.8-6.8-37.5s-13.6-13-27.1-13c-8.8,0-16.9,2.6-24.1,7.9c-7.3,5.3-12.6,12.5-16,21.7c-2.4,7.4-3.6,21.2-3.6,41.4
					v62.1c0,10-2.3,17.6-7,22.6s-10.7,7.5-18,7.5c-7.1,0-13-2.6-17.6-7.8c-4.6-5.2-6.9-12.6-6.9-22.3v-143.2
					c0-9.4,2.1-16.5,6.2-21.1c4.1-4.7,9.7-7,16.9-7c4.4,0,8.3,1,11.8,3.1s6.3,5.1,8.4,9.3
					C3465.4,1825.8,3466.5,1830.8,3466.5,1836.8L3466.5,1836.8z"/>
			</g>
		</g>
		<g display="inline">
			<g>
				<defs>
					<rect id="SVGID_X_312_" y="404.8" width="5199.8" height="2921.8"/>
				</defs>
				<clipPath id="SVGID_X_313_">
					<use xlink:href="#SVGID_X_312_"  overflow="visible"/>
				</clipPath>
				<path clip-path="url(#SVGID_X_313_)" fill="#BABABA" d="M3823.4,1949.5c0,6.2-1.8,12.8-5.5,19.8s-9.3,13.7-16.9,20.1
					c-7.6,6.4-17.1,11.5-28.6,15.3c-11.5,3.9-24.4,5.8-38.8,5.8c-30.6,0-54.5-8.9-71.6-26.8c-17.2-17.8-25.8-41.8-25.8-71.8
					c0-20.3,3.9-38.3,11.8-53.9s19.2-27.7,34.1-36.2c14.9-8.5,32.6-12.8,53.3-12.8c12.8,0,24.6,1.9,35.3,5.6
					c10.7,3.8,19.8,8.6,27.2,14.5s13.1,12.3,17,19s5.9,13,5.9,18.8c0,5.9-2.2,11-6.6,15.1c-4.4,4.1-9.8,6.2-16,6.2
					c-4.1,0-7.5-1.1-10.2-3.2s-5.8-5.5-9.2-10.3c-6-9.2-12.4-16.1-19-20.7s-15-6.9-25.1-6.9c-14.6,0-26.4,5.7-35.4,17.2
					c-8.9,11.4-13.4,27.1-13.4,46.9c0,9.3,1.1,17.9,3.4,25.7c2.3,7.8,5.6,14.5,10,20s9.6,9.7,15.8,12.5s12.9,4.3,20.3,4.3
					c9.9,0,18.4-2.3,25.5-6.9s13.3-11.6,18.8-21.1c3-5.6,6.3-9.9,9.8-13.1c3.5-3.1,7.8-4.7,12.9-4.7c6,0,11.1,2.3,15.1,6.9
					C3821.4,1939.4,3823.4,1944.3,3823.4,1949.5L3823.4,1949.5z"/>
			</g>
		</g>
		<g display="inline">
			<g>
				<defs>
					<rect id="SVGID_X_314_" y="404.8" width="5199.8" height="2921.8"/>
				</defs>
				<clipPath id="SVGID_X_315_">
					<use xlink:href="#SVGID_X_314_"  overflow="visible"/>
				</clipPath>
				<path clip-path="url(#SVGID_X_315_)" fill="#BABABA" d="M4004.7,1922.3h-96.8c0.1,11.3,2.4,21.2,6.8,29.8
					c4.4,8.6,10.3,15.1,17.6,19.4c7.3,4.4,15.4,6.5,24.2,6.5c5.9,0,11.3-0.7,16.2-2.1s9.6-3.6,14.2-6.5c4.6-3,8.8-6.1,12.7-9.5
					s8.9-8,15.1-13.8c2.5-2.2,6.2-3.3,10.9-3.3c5.1,0,9.2,1.4,12.3,4.2c3.1,2.8,4.7,6.7,4.7,11.8c0,4.5-1.8,9.7-5.3,15.7
					s-8.8,11.7-15.9,17.2c-7.1,5.5-16,10.1-26.7,13.7s-23,5.4-36.9,5.4c-31.8,0-56.5-9.1-74.2-27.2c-17.7-18.2-26.5-42.8-26.5-73.9
					c0-14.6,2.2-28.2,6.5-40.8c4.4-12.5,10.7-23.3,19-32.2c8.3-9,18.6-15.8,30.8-20.6c12.2-4.8,25.8-7.2,40.6-7.2
					c19.3,0,35.9,4.1,49.8,12.3c13.8,8.2,24.2,18.7,31.1,31.7c6.9,12.9,10.3,26.1,10.3,39.6c0,12.5-3.6,20.5-10.7,24.2
					C4027.7,1920.4,4017.7,1922.3,4004.7,1922.3L4004.7,1922.3z M3907.9,1894.1h89.8c-1.2-16.9-5.8-29.6-13.7-38
					s-18.3-12.6-31.3-12.6c-12.3,0-22.5,4.3-30.4,12.8C3914.4,1864.8,3909.6,1877.4,3907.9,1894.1L3907.9,1894.1z"/>
			</g>
		</g>
		<g display="inline">
			<g>
				<defs>
					<rect id="SVGID_X_316_" y="404.8" width="5199.8" height="2921.8"/>
				</defs>
				<clipPath id="SVGID_X_317_">
					<use xlink:href="#SVGID_X_316_"  overflow="visible"/>
				</clipPath>
				<path clip-path="url(#SVGID_X_317_)" fill="#505150" d="M1365.5,1909.1c0,16.1-4.1,30.6-12.4,43.4s-20.4,22.9-36.4,30.1
					c-16,7.3-34.9,10.9-56.8,10.9c-26.2,0-47.9-5-64.9-14.9c-12.1-7.1-21.9-16.7-29.5-28.6s-11.3-23.5-11.3-34.8
					c0-6.5,2.3-12.1,6.8-16.8c4.5-4.7,10.3-7,17.3-7c5.7,0,10.5,1.8,14.4,5.4s7.3,9,10.1,16.2c3.4,8.5,7,15.5,11,21.2
					c3.9,5.7,9.5,10.4,16.6,14.1s16.5,5.5,28.1,5.5c16,0,28.9-3.7,38.9-11.2c10-7.4,15-16.7,15-27.9c0-8.8-2.7-16-8.1-21.5
					s-12.3-9.7-20.9-12.6c-8.5-2.9-19.9-6-34.2-9.3c-19.1-4.5-35.1-9.7-48-15.7s-23.1-14.2-30.6-24.5c-7.6-10.3-11.3-23.2-11.3-38.6
					c0-14.6,4-27.7,12-39c8-11.4,19.5-20.1,34.6-26.2s32.9-9.2,53.3-9.2c16.3,0,30.4,2,42.3,6.1s21.8,9.4,29.6,16.2
					c7.9,6.7,13.6,13.8,17.2,21.1c3.6,7.4,5.4,14.6,5.4,21.6c0,6.4-2.3,12.2-6.8,17.3c-4.5,5.1-10.2,7.7-17,7.7
					c-6.2,0-10.9-1.5-14.1-4.6s-6.7-8.1-10.4-15.2c-4.8-10-10.6-17.9-17.4-23.5s-17.7-8.4-32.6-8.4c-13.9,0-25.1,3.1-33.6,9.2
					s-12.8,13.5-12.8,22.1c0,5.3,1.5,9.9,4.4,13.8s6.9,7.2,12,10s10.2,5,15.4,6.5c5.2,1.6,13.8,3.9,25.8,6.9
					c15,3.5,28.6,7.4,40.7,11.6c12.2,4.2,22.5,9.4,31,15.4c8.5,6.1,15.2,13.7,19.9,23S1365.5,1895.7,1365.5,1909.1L1365.5,1909.1z"
					/>
			</g>
		</g>
		<g display="inline">
			<g>
				<defs>
					<rect id="SVGID_X_318_" y="404.8" width="5199.8" height="2921.8"/>
				</defs>
				<clipPath id="SVGID_X_319_">
					<use xlink:href="#SVGID_X_318_"  overflow="visible"/>
				</clipPath>
				<path clip-path="url(#SVGID_X_319_)" fill="#505150" d="M1593.1,1892.8c0,14.8-2.3,28.4-6.9,40.8c-4.6,12.5-11.2,23.2-19.9,32.1
					c-8.7,9-19.1,15.8-31.2,20.6c-12.1,4.8-25.7,7.2-40.8,7.2c-15,0-28.5-2.4-40.4-7.3c-12-4.8-22.3-11.8-31.1-20.8
					c-8.8-9-15.4-19.7-19.9-31.9c-4.5-12.3-6.8-25.9-6.8-40.8c0-15,2.3-28.7,6.9-41.2s11.2-23.1,19.8-31.9
					c8.6-8.8,19-15.6,31.2-20.4s25.7-7.2,40.4-7.2c15,0,28.6,2.4,40.8,7.3c12.2,4.8,22.7,11.7,31.4,20.7c8.7,9,15.3,19.6,19.9,31.9
					C1590.9,1864.3,1593.1,1877.9,1593.1,1892.8L1593.1,1892.8z M1543.4,1892.8c0-20.2-4.4-35.9-13.3-47.2
					c-8.9-11.3-20.8-16.9-35.8-16.9c-9.7,0-18.2,2.5-25.6,7.5s-13.1,12.4-17,22.2c-4,9.8-6,21.2-6,34.3c0,12.9,2,24.3,5.9,33.9
					c3.9,9.7,9.6,17.1,16.9,22.2s15.9,7.7,25.8,7.7c15,0,26.9-5.7,35.8-17C1539,1928.4,1543.4,1912.7,1543.4,1892.8L1543.4,1892.8z"
					/>
			</g>
		</g>
		<g display="inline">
			<g>
				<defs>
					<rect id="SVGID_X_320_" y="404.8" width="5199.8" height="2921.8"/>
				</defs>
				<clipPath id="SVGID_X_321_">
					<use xlink:href="#SVGID_X_320_"  overflow="visible"/>
				</clipPath>
				<path clip-path="url(#SVGID_X_321_)" fill="#505150" d="M1809.6,1932.2c0,6.2-1.8,12.8-5.5,19.8s-9.3,13.7-16.9,20.1
					s-17.1,11.5-28.6,15.3c-11.5,3.9-24.4,5.8-38.8,5.8c-30.6,0-54.5-8.9-71.6-26.8c-17.2-17.8-25.8-41.8-25.8-71.8
					c0-20.3,3.9-38.3,11.8-53.9s19.2-27.7,34.1-36.2s32.6-12.8,53.3-12.8c12.8,0,24.6,1.9,35.3,5.6c10.7,3.8,19.8,8.6,27.2,14.5
					c7.4,5.9,13.1,12.3,17,19s5.9,13,5.9,18.8c0,5.9-2.2,11-6.6,15.1s-9.8,6.2-16,6.2c-4.1,0-7.5-1.1-10.2-3.2s-5.8-5.5-9.2-10.3
					c-6-9.2-12.4-16.1-19-20.7s-15-6.9-25.1-6.9c-14.6,0-26.4,5.7-35.4,17.2c-8.9,11.4-13.4,27.1-13.4,46.9c0,9.3,1.1,17.9,3.4,25.7
					c2.3,7.8,5.6,14.5,10,20s9.6,9.7,15.8,12.5c6.2,2.8,12.9,4.3,20.3,4.3c9.9,0,18.4-2.3,25.5-6.9s13.3-11.6,18.8-21.1
					c3-5.6,6.3-9.9,9.8-13.1c3.5-3.1,7.8-4.7,12.9-4.7c6,0,11.1,2.3,15.1,6.9C1807.6,1922.1,1809.6,1927,1809.6,1932.2
					L1809.6,1932.2z"/>
			</g>
		</g>
		<g display="inline">
			<g>
				<defs>
					<rect id="SVGID_X_322_" y="404.8" width="5199.8" height="2921.8"/>
				</defs>
				<clipPath id="SVGID_X_323_">
					<use xlink:href="#SVGID_X_322_"  overflow="visible"/>
				</clipPath>
				<path clip-path="url(#SVGID_X_323_)" fill="#505150" d="M1902.3,1820.2v143.2c0,9.9-2.4,17.4-7.1,22.5s-10.7,7.6-18,7.6
					s-13.1-2.6-17.7-7.8c-4.5-5.2-6.8-12.6-6.8-22.3v-141.8c0-9.8,2.3-17.2,6.8-22.1c4.5-5,10.4-7.4,17.7-7.4c7.3,0,13.2,2.5,18,7.4
					C1900,1804.4,1902.3,1811.3,1902.3,1820.2L1902.3,1820.2z M1877.8,1769c-6.9,0-12.8-2.1-17.7-6.4c-4.9-4.2-7.3-10.2-7.3-18
					c0-7,2.5-12.8,7.5-17.3s10.9-6.8,17.5-6.8c6.4,0,12.1,2.1,17,6.2c5,4.1,7.4,10.1,7.4,18c0,7.6-2.4,13.6-7.3,17.9
					C1890.2,1766.8,1884.5,1769,1877.8,1769L1877.8,1769z"/>
			</g>
		</g>
		<g display="inline">
			<g>
				<defs>
					<rect id="SVGID_X_324_" y="404.8" width="5199.8" height="2921.8"/>
				</defs>
				<clipPath id="SVGID_X_325_">
					<use xlink:href="#SVGID_X_324_"  overflow="visible"/>
				</clipPath>
				<path clip-path="url(#SVGID_X_325_)" fill="#505150" d="M2078.6,1965.6c-12,9.3-23.5,16.3-34.7,21s-23.7,7-37.6,7
					c-12.7,0-23.8-2.5-33.5-7.5c-9.6-5-17-11.8-22.2-20.4s-7.8-17.9-7.8-28c0-13.6,4.3-25.1,12.9-34.7s20.4-16,35.4-19.2
					c3.1-0.7,10.9-2.4,23.4-4.9s23.1-4.9,32-7c8.9-2.1,18.5-4.7,28.9-7.7c-0.6-13.1-3.2-22.7-7.9-28.8c-4.7-6.1-14.3-9.2-28.9-9.2
					c-12.6,0-22,1.8-28.4,5.3c-6.3,3.5-11.8,8.8-16.3,15.8s-7.7,11.6-9.6,13.9c-1.9,2.2-5.9,3.4-12.1,3.4c-5.6,0-10.4-1.8-14.4-5.4
					c-4.1-3.6-6.1-8.1-6.1-13.7c0-8.7,3.1-17.2,9.2-25.4c6.2-8.2,15.8-15,28.8-20.3c13.1-5.3,29.3-8,48.8-8
					c21.8,0,38.9,2.6,51.3,7.7c12.5,5.1,21.2,13.3,26.4,24.4c5.1,11.1,7.7,25.9,7.7,44.3c0,11.6,0,21.5-0.1,29.6s-0.2,17.1-0.3,27
					c0,9.3,1.5,19,4.6,29.1s4.6,16.6,4.6,19.5c0,5.1-2.4,9.7-7.2,13.9c-4.8,4.2-10.2,6.3-16.2,6.3c-5.1,0-10.1-2.4-15.1-7.2
					C2089.4,1981.6,2084.1,1974.6,2078.6,1965.6L2078.6,1965.6z M2075.3,1893.9c-7.3,2.7-17.8,5.5-31.6,8.4
					c-13.8,3-23.4,5.1-28.7,6.5c-5.3,1.4-10.4,4.1-15.2,8.2c-4.8,4.1-7.3,9.7-7.3,17c0,7.5,2.8,13.9,8.5,19.2
					c5.7,5.3,13.1,7.9,22.3,7.9c9.8,0,18.8-2.1,27.1-6.4c8.3-4.3,14.4-9.8,18.2-16.6c4.5-7.5,6.7-19.8,6.7-37V1893.9L2075.3,1893.9z
					"/>
			</g>
		</g>
		<g display="inline">
			<g>
				<defs>
					<rect id="SVGID_X_326_" y="404.8" width="5199.8" height="2921.8"/>
				</defs>
				<clipPath id="SVGID_X_327_">
					<use xlink:href="#SVGID_X_326_"  overflow="visible"/>
				</clipPath>
				<path clip-path="url(#SVGID_X_327_)" fill="#505150" d="M2174.1,1963.4v-214.9c0-9.9,2.2-17.4,6.6-22.5s10.4-7.6,17.9-7.6
					s13.5,2.5,18.1,7.5s6.9,12.6,6.9,22.6v214.9c0,10-2.3,17.6-7,22.6s-10.7,7.5-18,7.5s-13.1-2.6-17.7-7.8
					C2176.4,1980.5,2174.1,1973.1,2174.1,1963.4L2174.1,1963.4z"/>
			</g>
		</g>
		<g display="inline">
			<g>
				<defs>
					<rect id="SVGID_X_328_" y="404.8" width="5199.8" height="2921.8"/>
				</defs>
				<clipPath id="SVGID_X_329_">
					<use xlink:href="#SVGID_X_328_"  overflow="visible"/>
				</clipPath>
				<path clip-path="url(#SVGID_X_329_)" fill="#505150" d="M2505.4,1720.7h70.2c18.3,0,33.9,1.7,47,5.1s24.9,9.7,35.5,19.1
					c27.7,23.7,41.5,59.8,41.5,108.2c0,16-1.4,30.6-4.2,43.7c-2.8,13.2-7.1,25.1-12.9,35.7c-5.8,10.6-13.2,20.1-22.3,28.4
					c-7.1,6.4-14.9,11.6-23.4,15.4c-8.5,3.9-17.6,6.6-27.3,8.2s-20.7,2.4-32.9,2.4h-70.2c-9.8,0-17.2-1.5-22.1-4.4
					c-5-3-8.2-7.1-9.7-12.5s-2.3-12.4-2.3-21v-195.1c0-11.6,2.6-20,7.8-25.2C2485.4,1723.3,2493.8,1720.7,2505.4,1720.7
					L2505.4,1720.7z M2526.2,1763.3V1944h40.8c8.9,0,16-0.2,21-0.7c5.1-0.5,10.3-1.7,15.8-3.6c5.4-1.9,10.2-4.7,14.1-8.2
					c18-15.2,27-41.5,27-78.8c0-26.3-4-45.9-11.9-59s-17.7-21.4-29.3-25s-25.6-5.4-42.1-5.4H2526.2L2526.2,1763.3z"/>
			</g>
		</g>
		<g display="inline">
			<g>
				<defs>
					<rect id="SVGID_X_330_" y="404.8" width="5199.8" height="2921.8"/>
				</defs>
				<clipPath id="SVGID_X_331_">
					<use xlink:href="#SVGID_X_330_"  overflow="visible"/>
				</clipPath>
				<path clip-path="url(#SVGID_X_331_)" fill="#505150" d="M2793,1818v143.2c0,9.9-2.4,17.4-7.1,22.5c-4.7,5.1-10.7,7.6-18,7.6
					s-13.1-2.6-17.7-7.8c-4.5-5.2-6.8-12.6-6.8-22.3v-141.8c0-9.8,2.3-17.2,6.8-22.1c4.5-5,10.4-7.4,17.7-7.4s13.2,2.5,18,7.4
					C2790.7,1802.3,2793,1809.2,2793,1818L2793,1818z M2768.5,1766.8c-6.9,0-12.8-2.1-17.7-6.4c-4.9-4.2-7.3-10.2-7.3-18
					c0-7,2.5-12.8,7.5-17.3s10.9-6.8,17.5-6.8c6.4,0,12.1,2.1,17,6.2c5,4.1,7.4,10.1,7.4,18c0,7.6-2.4,13.6-7.3,17.9
					C2780.9,1764.6,2775.2,1766.8,2768.5,1766.8L2768.5,1766.8z"/>
			</g>
		</g>
		<g display="inline">
			<g>
				<defs>
					<rect id="SVGID_X_332_" y="404.8" width="5199.8" height="2921.8"/>
				</defs>
				<clipPath id="SVGID_X_333_">
					<use xlink:href="#SVGID_X_332_"  overflow="visible"/>
				</clipPath>
				<path clip-path="url(#SVGID_X_333_)" fill="#505150" d="M3003.5,1926.5c0,13.7-3.3,25.4-10,35.1c-6.6,9.7-16.5,17.1-29.5,22.1
					s-28.8,7.5-47.4,7.5c-17.8,0-33-2.7-45.7-8.2c-12.7-5.4-22.1-12.3-28.1-20.4c-6-8.2-9.1-16.4-9.1-24.6c0-5.4,1.9-10.1,5.8-14
					c3.9-3.9,8.8-5.8,14.7-5.8c5.2,0,9.2,1.3,12,3.8s5.4,6.1,8,10.7c5.1,8.8,11.2,15.4,18.2,19.8c7.1,4.4,16.7,6.5,28.9,6.5
					c9.9,0,18-2.2,24.4-6.6c6.3-4.4,9.5-9.5,9.5-15.2c0-8.7-3.3-15.1-9.9-19.1c-6.6-4-17.4-7.8-32.6-11.4
					c-17-4.2-30.9-8.7-41.6-13.3c-10.7-4.7-19.3-10.8-25.7-18.4s-9.6-17-9.6-28.1c0-9.9,3-19.3,8.9-28.1
					c5.9-8.8,14.7-15.9,26.2-21.1c11.5-5.3,25.5-7.9,41.8-7.9c12.8,0,24.3,1.3,34.5,4s18.7,6.2,25.6,10.7c6.8,4.5,12,9.4,15.6,14.9
					c3.6,5.4,5.3,10.8,5.3,16c0,5.7-1.9,10.3-5.7,14c-3.8,3.6-9.2,5.4-16.2,5.4c-5.1,0-9.4-1.5-13-4.4s-7.6-7.3-12.2-13.1
					c-3.7-4.8-8.2-8.7-13.2-11.6c-5.1-2.9-12-4.4-20.7-4.4c-8.9,0-16.4,1.9-22.3,5.7c-5.9,3.8-8.9,8.6-8.9,14.2
					c0,5.2,2.2,9.5,6.5,12.8c4.4,3.3,10.2,6.1,17.6,8.3c7.4,2.2,17.5,4.8,30.5,8c15.4,3.8,27.9,8.2,37.6,13.4
					c9.7,5.2,17.1,11.3,22.1,18.4C3001,1909.4,3003.5,1917.5,3003.5,1926.5L3003.5,1926.5z"/>
			</g>
		</g>
		<g display="inline">
			<g>
				<defs>
					<rect id="SVGID_X_334_" y="404.8" width="5199.8" height="2921.8"/>
				</defs>
				<clipPath id="SVGID_X_335_">
					<use xlink:href="#SVGID_X_334_"  overflow="visible"/>
				</clipPath>
				<path clip-path="url(#SVGID_X_335_)" fill="#505150" d="M3048.2,1794.2h5.4v-29.8c0-8,0.2-14.2,0.6-18.8c0.4-4.5,1.6-8.4,3.5-11.7
					c1.9-3.4,4.7-6.1,8.3-8.3c3.6-2.1,7.7-3.2,12.2-3.2c6.3,0,12,2.4,17,7.1c3.4,3.1,5.5,7,6.4,11.5s1.4,11,1.4,19.3v33.8h18.1
					c7,0,12.4,1.7,16,5c3.7,3.3,5.5,7.6,5.5,12.8c0,6.7-2.6,11.3-7.9,14c-5.3,2.7-12.8,4-22.6,4h-9.2v91.1c0,7.7,0.3,13.7,0.8,17.9
					c0.5,4.2,2,7.6,4.4,10.2s6.2,3.9,11.5,3.9c2.9,0,6.8-0.5,11.8-1.5s8.8-1.5,11.6-1.5c4,0,7.6,1.6,10.8,4.8
					c3.2,3.2,4.8,7.2,4.8,11.9c0,8-4.4,14.1-13.1,18.3c-8.7,4.2-21.2,6.4-37.5,6.4c-15.5,0-27.2-2.6-35.2-7.8
					c-8-5.2-13.2-12.4-15.7-21.6s-3.7-21.5-3.7-36.8V1830h-6.5c-7.1,0-12.6-1.7-16.3-5.1s-5.6-7.7-5.6-12.9c0-5.2,2-9.5,5.9-12.8
					C3035,1795.9,3040.7,1794.2,3048.2,1794.2L3048.2,1794.2z"/>
			</g>
		</g>
		<g display="inline">
			<g>
				<defs>
					<rect id="SVGID_X_336_" y="404.8" width="5199.8" height="2921.8"/>
				</defs>
				<clipPath id="SVGID_X_337_">
					<use xlink:href="#SVGID_X_336_"  overflow="visible"/>
				</clipPath>
				<path clip-path="url(#SVGID_X_337_)" fill="#505150" d="M3302,1963.4c-12,9.3-23.5,16.3-34.7,21s-23.7,7-37.6,7
					c-12.7,0-23.8-2.5-33.5-7.5c-9.6-5-17-11.8-22.2-20.4s-7.8-17.9-7.8-28c0-13.6,4.3-25.1,12.9-34.7c8.6-9.6,20.4-16,35.4-19.2
					c3.1-0.7,10.9-2.4,23.4-4.9s23.1-4.9,32-7s18.5-4.7,28.9-7.7c-0.6-13.1-3.2-22.7-7.9-28.8c-4.7-6.1-14.3-9.2-28.9-9.2
					c-12.6,0-22,1.8-28.4,5.3c-6.3,3.5-11.8,8.8-16.3,15.8s-7.7,11.6-9.6,13.9c-1.9,2.2-5.9,3.4-12.1,3.4c-5.6,0-10.4-1.8-14.4-5.4
					s-6.1-8.1-6.1-13.7c0-8.7,3.1-17.2,9.2-25.4c6.2-8.2,15.8-15,28.8-20.3c13.1-5.3,29.3-8,48.8-8c21.8,0,38.9,2.6,51.3,7.7
					c12.5,5.1,21.2,13.3,26.4,24.4c5.1,11.1,7.7,25.9,7.7,44.3c0,11.6,0,21.5-0.1,29.6s-0.2,17.1-0.3,27c0,9.3,1.5,19,4.6,29.1
					s4.6,16.6,4.6,19.5c0,5.1-2.4,9.7-7.2,13.9c-4.8,4.2-10.2,6.3-16.2,6.3c-5.1,0-10.1-2.4-15.1-7.2
					C3312.9,1979.4,3307.6,1972.5,3302,1963.4L3302,1963.4z M3298.8,1891.7c-7.3,2.7-17.8,5.5-31.6,8.4c-13.8,3-23.4,5.1-28.7,6.5
					s-10.4,4.1-15.2,8.2s-7.3,9.7-7.3,17c0,7.5,2.8,13.9,8.5,19.1c5.7,5.3,13.1,7.9,22.3,7.9c9.8,0,18.8-2.1,27.1-6.4
					s14.4-9.8,18.2-16.6c4.5-7.5,6.7-19.8,6.7-37V1891.7L3298.8,1891.7z"/>
			</g>
		</g>
		<g display="inline">
			<g>
				<defs>
					<rect id="SVGID_X_338_" y="404.8" width="5199.8" height="2921.8"/>
				</defs>
				<clipPath id="SVGID_X_339_">
					<use xlink:href="#SVGID_X_338_"  overflow="visible"/>
				</clipPath>
				<path clip-path="url(#SVGID_X_339_)" fill="#505150" d="M3442.6,1817.3v6c8.7-11.5,18.2-19.9,28.6-25.3
					c10.3-5.4,22.2-8.1,35.6-8.1c13.1,0,24.7,2.8,35,8.5s18,13.7,23,24.1c3.3,6.1,5.4,12.6,6.3,19.6c1,7,1.5,16,1.5,26.9v92.2
					c0,9.9-2.3,17.4-6.8,22.5s-10.4,7.6-17.7,7.6c-7.4,0-13.4-2.6-18-7.8c-4.6-5.2-6.9-12.6-6.9-22.3v-82.6
					c0-16.3-2.3-28.8-6.8-37.5s-13.6-13-27.1-13c-8.8,0-16.9,2.6-24.1,7.9c-7.3,5.3-12.6,12.5-16,21.7c-2.4,7.4-3.6,21.2-3.6,41.4
					v62.1c0,10-2.3,17.6-7,22.6s-10.7,7.5-18,7.5c-7.1,0-13-2.6-17.6-7.8c-4.6-5.2-6.9-12.6-6.9-22.3V1818c0-9.4,2.1-16.5,6.2-21.1
					c4.1-4.7,9.7-7,16.9-7c4.4,0,8.3,1,11.8,3.1s6.3,5.1,8.4,9.3C3441.5,1806.3,3442.6,1811.3,3442.6,1817.3L3442.6,1817.3z"/>
			</g>
		</g>
		<g display="inline">
			<g>
				<defs>
					<rect id="SVGID_X_340_" y="404.8" width="5199.8" height="2921.8"/>
				</defs>
				<clipPath id="SVGID_X_341_">
					<use xlink:href="#SVGID_X_340_"  overflow="visible"/>
				</clipPath>
				<path clip-path="url(#SVGID_X_341_)" fill="#505150" d="M3799.5,1930c0,6.2-1.8,12.8-5.5,19.8s-9.3,13.7-16.9,20.1
					c-7.6,6.4-17.1,11.5-28.6,15.3c-11.5,3.9-24.4,5.8-38.8,5.8c-30.6,0-54.5-8.9-71.6-26.8c-17.2-17.8-25.8-41.8-25.8-71.8
					c0-20.3,3.9-38.3,11.8-53.9c7.9-15.6,19.2-27.7,34.1-36.2c14.9-8.5,32.6-12.8,53.3-12.8c12.8,0,24.6,1.9,35.3,5.6
					s19.8,8.6,27.2,14.5s13.1,12.3,17,19s5.9,13,5.9,18.8c0,5.9-2.2,11-6.6,15.1c-4.4,4.1-9.8,6.2-16,6.2c-4.1,0-7.5-1.1-10.2-3.2
					s-5.8-5.5-9.2-10.3c-6-9.2-12.4-16.1-19-20.7s-15-6.9-25.1-6.9c-14.6,0-26.4,5.7-35.4,17.2c-8.9,11.4-13.4,27.1-13.4,46.9
					c0,9.3,1.1,17.9,3.4,25.7c2.3,7.8,5.6,14.5,10,20s9.6,9.7,15.8,12.5s12.9,4.3,20.3,4.3c9.9,0,18.4-2.3,25.5-6.9
					s13.3-11.6,18.8-21.1c3-5.6,6.3-9.9,9.8-13.1c3.5-3.1,7.8-4.7,12.9-4.7c6,0,11.1,2.3,15.1,6.9
					C3797.5,1919.9,3799.5,1924.8,3799.5,1930L3799.5,1930z"/>
			</g>
		</g>
		<g display="inline">
			<g>
				<defs>
					<rect id="SVGID_X_342_" y="404.8" width="5199.8" height="2921.8"/>
				</defs>
				<clipPath id="SVGID_X_343_">
					<use xlink:href="#SVGID_X_342_"  overflow="visible"/>
				</clipPath>
				<path clip-path="url(#SVGID_X_343_)" fill="#505150" d="M3980.8,1902.8H3884c0.1,11.3,2.4,21.2,6.8,29.8
					c4.4,8.6,10.3,15.1,17.6,19.4c7.3,4.4,15.4,6.5,24.2,6.5c5.9,0,11.3-0.7,16.2-2.1s9.6-3.6,14.2-6.5c4.6-3,8.8-6.1,12.7-9.5
					s8.9-8,15.1-13.8c2.5-2.2,6.2-3.3,10.9-3.3c5.1,0,9.2,1.4,12.3,4.2c3.1,2.8,4.7,6.7,4.7,11.8c0,4.5-1.8,9.7-5.3,15.7
					s-8.8,11.7-15.9,17.2c-7.1,5.5-16,10.1-26.7,13.7s-23,5.4-36.9,5.4c-31.8,0-56.5-9.1-74.2-27.2c-17.7-18.2-26.5-42.8-26.5-73.9
					c0-14.6,2.2-28.2,6.5-40.8c4.4-12.5,10.7-23.3,19-32.2c8.3-9,18.6-15.8,30.8-20.6c12.2-4.8,25.8-7.2,40.6-7.2
					c19.3,0,35.9,4.1,49.8,12.3c13.8,8.2,24.2,18.7,31.1,31.7c6.9,12.9,10.3,26.1,10.3,39.6c0,12.5-3.6,20.5-10.7,24.2
					C4003.8,1900.9,3993.7,1902.8,3980.8,1902.8L3980.8,1902.8z M3884,1874.6h89.8c-1.2-16.9-5.8-29.6-13.7-38s-18.3-12.6-31.3-12.6
					c-12.3,0-22.5,4.3-30.4,12.8C3890.5,1845.3,3885.7,1857.9,3884,1874.6L3884,1874.6z"/>
			</g>
		</g>
	</g>
	
		<path fill="none" stroke="#A669ED" stroke-width="19" stroke-linecap="round" stroke-linejoin="round" stroke-miterlimit="10" stroke-dasharray="60.69,121.38,0,0" d="
		M1744.4,3306.6c-344.8,410.9-988.8,397.3-1382.4,67"/>
	
		<path fill="none" stroke="#A669ED" stroke-width="19" stroke-linecap="round" stroke-linejoin="round" stroke-miterlimit="10" stroke-dasharray="60.69,121.38,0,0" d="
		M4959.8,3242.9C4656,3601,3960,3641,3601.5,3306.6"/>
	
		<path fill="none" stroke="#A669ED" stroke-width="19" stroke-linecap="round" stroke-linejoin="round" stroke-miterlimit="10" stroke-dasharray="60.69,121.38,0,0" d="
		M1863.5,341.8C2229.8-25.4,2880.8,61.6,3241.7,408"/>
</g>
</svg>
