<?xml version="1.0" encoding="utf-8"?>
<!-- Generator: Adobe Illustrator 22.0.0, SVG Export Plug-In . SVG Version: 6.00 Build 0)  -->
<svg version="1.1" id="Layer_1" xmlns="http://www.w3.org/2000/svg" xmlns:xlink="http://www.w3.org/1999/xlink" x="0px" y="0px"
	 viewBox="0 0 1414 1220.7" enable-background="new 0 0 1414 1220.7" xml:space="preserve">
<g>
	<path opacity="0.36" fill="#64449B" d="M784.8,1108.6c0,0-70.6,7.2-79.5,36c-14.2,46.2,585.1,54,596.1,10.8
		C1312.5,1112.2,793.6,1108.6,784.8,1108.6z"/>
	<g>
		<path fill="#F1B7B2" d="M1114.7,140.8c-15.5-1.5-31.2,8.3-33.3,16c-2.2,7.8,14.7,20.6,19.7,20.6c4.9,0,25.3,20,25.3,20l30.5-9.7
			l-28.1-27.1C1128.7,160.7,1130.3,142.4,1114.7,140.8z"/>
		<path fill="#BBB7FF" d="M1117.2,201.2c0,0,62.7,66.3,56.2,73.6c-1.2,1.4-81.4-63.5-81.4-63.5s-32.9,74-16.2,97.5
			c14,19.7,82.2,55,137.5,39.3c10.5-3,23.4-8.1,28.4-22.8c14.6-42.4-90-152.6-90-152.6L1117.2,201.2z"/>
		<path fill="#F1B7B2" d="M805.5,484.6l-23.1,37.2c0,0-25.6,17.5-18.1,31.5c7.5,14,21.9,15,39.4,7.1c17.5-7.9,8.3-30.3,8.3-30.3
			l17.4-31.4L805.5,484.6z"/>
		<path fill="#D9A5A1" d="M1055.5,200.1c-5.6-4.2-13.2-7.1-15-13.9c-6.7-25.2-18.2-87.3-15.5-104.3c3.5-21.7-44.1,9.1-44.1,9.1
			s1.5,104.4-15.5,127.6c-17.1,23.2,80.7,21.1,96.8,6.6C1072.4,215.8,1063.4,206,1055.5,200.1z"/>
		<g>
			<path fill="#F1B7B2" d="M1014.3,844.9c-0.8,99.4-3,212.1-8.2,295.5c14,16.8,43-8.4,34.1-13.4c-5.2-3,17.4-137.3,38.4-274
				C1056.8,851.5,1035.5,848.6,1014.3,844.9z"/>
		</g>
		<g>
			<path fill="#F1B7B2" d="M882.5,815.7c-3.3,0.3-6.6,0.7-9.9,1.1c-10.2,100.6-24.4,221.2-41.2,310.7c11.9,18.4,43.7-3,35.5-9.1
				c-5.2-3.9,40.9-156.1,81.1-299.4C926.2,817.4,904.4,816.1,882.5,815.7z"/>
		</g>
		<g>
			<path fill="#343F60" d="M866.6,1116.2l-31.8-6.4l-5,15.7c-1.9,5.9,1.3,12.3,7.2,14.4c18.7,6.6,56,18.9,58.8,11.8
				C899.6,1142.3,866.6,1116.2,866.6,1116.2z"/>
		</g>
		<g>
			<path fill="#726EB2" d="M891,456.1c0,0-37.9,552.3-48.5,570.5c21.5,5.2,47.6,9.1,49.2,6.9c122.1-322.4,127.2-575.4,127.2-575.4
				C998.6,420.9,891,456.1,891,456.1z"/>
		</g>
		<g>
			<path fill="#343F60" d="M1039.7,1124.9l-32.3-2.4l-3,16.2c-1.1,6.1,2.8,12,8.9,13.4c19.4,4.3,57.9,11.8,59.8,4.4
				C1075.7,1146.7,1039.7,1124.9,1039.7,1124.9z"/>
		</g>
		<g>
			<path fill="#726EB2" d="M983.8,443.1c0,0,29.2,576.5,20.9,595.9c22,2.5,48.3,3.2,49.7,0.8c81.2-335.1,50.8-584.3,50.8-584.3
				C1080.4,421.1,983.8,443.1,983.8,443.1z"/>
		</g>
		<path fill="#726EB2" d="M973.4,184.7c-37.6,3.2-75.4,34.5-75.4,34.5l4.1,178.3c3.4,19.5,2.2,29.8,22.3,38.9
			c53,23.9,146.3,2,152.3-2.6c13.3-11.3,19.3-217.3,19.3-217.3s-22.5-22.3-52.7-30.1C1008,206.7,981.7,188.1,973.4,184.7z"/>
		<path fill="#108195" d="M886.7,218.2c0.1-0.1,0.1-0.1,0.2-0.2C886.8,218,886.7,218.1,886.7,218.2z"/>
		<path fill="#BBB7FF" d="M957.4,182.9c0,0-43.6,15.5-70.5,35.2c4.5,0.8-28.5,309.9-28.5,309.9s94.8,25.5,137.2,17
			c-2.8-4.2,12.7-332.3,12.7-332.3S963,202.7,957.4,182.9z"/>
		<path fill="#BBB7FF" d="M1055.9,190c-15.1,26.4-39.6,21.8-39.6,21.8l11.3,332.2l93.3-10.4c0,0-11.3-310.2-15.1-314
			C1098.3,207.4,1059.4,190.3,1055.9,190z"/>
		<path fill="#BBB7FF" d="M893.5,213.3c0,0-13.5,6-12.3,15.3c1.2,9.4-96,276.4-96,276.4s26.1,18.5,42.1,17.4
			c5.7,0.2,82.1-169.2,82.1-169.2S918.9,218.1,893.5,213.3z"/>
		<path fill="#343F60" d="M1073.7,63.2c-28-10.6-82.2,111.6-23.2,104.6C1109.6,160.9,1082.7,66.6,1073.7,63.2z"/>
		<path fill="#F1B7B2" d="M1039.6,43.1c-25.6-6.4-61.2,8-68.4,41.8c-9.9,46.9,35.1,107.4,67.4,86.2c36.1-23.6,27.1-72,25.2-98.2
			C1062.9,58.8,1053.3,46.5,1039.6,43.1z"/>
		<path fill="#7B52A1" d="M1068.9,189.1c-2.2-1.3-4.6-2.1-6.8-3.4s-4.3-3-5-5.4c-1-3.2,0.6-6.5,0.4-9.8c-0.2-3.7-4.5-7-12.1-3.1
			c-8.1,4.1-20.6,5.1-31.5,0.8c-9.8-3.9-21.5-11.3-31.6-14.1c-6.9-1.9-17,1.9-21.8,9.2c-1.9,2.9-2.2,6.5-2.9,9.9
			c-0.7,3.4-2.2,7-5.4,8.5c-1.3,0.6-2.8,0.8-4,1.6c-5.7,3.9,6.7,15.6,9.9,17.6c5.5,3.4,12.3,5.5,19.1,7.2c23,5.6,48,6.6,71.2,2.8
			c6.6-1.1,27.9-5.5,25.3-16C1073.1,192.3,1071.1,190.4,1068.9,189.1z"/>
		<path fill="#343F60" d="M988,21.5c-45.6,12-73.3,68.7-75.5,85.1c-2.3,17.1-4.9,70,61.6,58.6c66.5-11.4,9.3-77.7,23.9-72.7
			c14.7,5.1,76.6,15.3,81.7-14.3C1086.3,40.2,1037.5,8.4,988,21.5z"/>
		<path fill="#7B52A1" d="M1034.4,201.2l-19,0.1c0,0,23.9,200.4,36.7,201.4c12.9,1,45.7-31.9,41.3-48.6
			C1088.9,337.4,1034.4,201.2,1034.4,201.2z"/>
		<path fill="#7B52A1" d="M1003,198c0,0-27.5,163.8-15.7,173.3c7.7,6.2,36.7-6.8,38.8-17.4c2.6-12.9-14-146.1-14-146.1L1003,198z"/>
		<path fill="#FFFFFF" d="M1136.7,148.3c-9.8-1.6-73.1-23.4-85.5-2.1c-17.5,30.2,49.5,80.9,51.4,105.6c1.9,24.8,20.6-11.6,22.7-28.2
			c2.1-16.6-19-31.5-0.5-34.3C1143.2,186.6,1151,150.7,1136.7,148.3z"/>
		<path fill="#F1B7B2" d="M1126,141c-6.2-3.7-8.4-6.4-24-6.8c0,0-16.6,4.8-12.7,10.1c3.8,5.2,17.3,9.1,27,10.7
			C1125.9,156.7,1132.2,144.7,1126,141z"/>
		<g>
			<g>
				<g>
					<path fill="#FFFFFF" d="M919.2,298.8"/>
				</g>
			</g>
		</g>
		<g>
			<g>
				<g>
					<path fill="#FFFFFF" d="M1167.4,153c-4.1,0-7.3,3.3-7.3,7.3c0,4.1,3.3,7.3,7.3,7.3c4.1,0,7.3-3.3,7.3-7.3
						C1174.8,156.3,1171.5,153,1167.4,153z"/>
				</g>
			</g>
			<g>
				<g>
					<path fill="#FFFFFF" d="M1171.3,158.8h-3.9c-0.9,0-1.6,0.7-1.6,1.6c0,0.9,0.7,1.6,1.6,1.6h3.9c0.9,0,1.6-0.7,1.6-1.6
						C1172.8,159.5,1172.1,158.8,1171.3,158.8z"/>
				</g>
				<g>
					<path fill="#FFFFFF" d="M1218.7,158.8h-7.9c-0.9,0-1.6,0.7-1.6,1.6c0,0.9,0.7,1.6,1.6,1.6h7.9c0.9,0,1.6-0.7,1.6-1.6
						C1220.3,159.5,1219.6,158.8,1218.7,158.8z"/>
					<path fill="#FFFFFF" d="M1187.1,158.8h-7.9c-0.9,0-1.6,0.7-1.6,1.6c0,0.9,0.7,1.6,1.6,1.6h7.9c0.9,0,1.6-0.7,1.6-1.6
						C1188.6,159.5,1188,158.8,1187.1,158.8z"/>
					<path fill="#FFFFFF" d="M1202.9,158.8h-7.9c-0.9,0-1.6,0.7-1.6,1.6c0,0.9,0.7,1.6,1.6,1.6h7.9c0.9,0,1.6-0.7,1.6-1.6
						C1204.5,159.5,1203.8,158.8,1202.9,158.8z"/>
				</g>
			</g>
		</g>
		<g>
			<g>
				<g>
					<path fill="#FFFFFF" d="M940.9,13.8c-0.7-0.5-1.7-0.3-2.2,0.4c-0.5,0.7-0.3,1.7,0.4,2.2l6.2,4.1c0.3,0.2,0.6,0.3,0.9,0.3
						c0.5,0,1-0.2,1.3-0.7c0.5-0.7,0.3-1.7-0.4-2.2L940.9,13.8z"/>
					<path fill="#FFFFFF" d="M953.3,22c-0.7-0.5-1.7-0.3-2.2,0.4c-0.5,0.7-0.3,1.7,0.4,2.2l6.2,4.1c0.3,0.2,0.6,0.3,0.9,0.3
						c0.5,0,1-0.2,1.3-0.7c0.5-0.7,0.3-1.7-0.4-2.2L953.3,22z"/>
				</g>
			</g>
		</g>
	</g>
</g>
</svg>
